<?xml version="1.0" encoding="UTF-8"?>
<!-- Generator: visioncortex VTracer 0.6.4 -->
<svg version="1.1" xmlns="http://www.w3.org/2000/svg" width="1920" height="1315">
<path d="M0 0 C7.34 6.77 14.4 13.64 20.88 21.25 C21.7 22.19 22.52 23.12 23.37 24.09 C70.92 78.53 98.95 149.97 100.88 222.25 C100.9 223.05 100.92 223.85 100.94 224.68 C102.69 301.09 77.46 384.45 24.04 440.95 C22.23 442.88 20.51 444.84 18.79 446.84 C14.58 451.68 10.09 456.23 5.55 460.76 C4.14 462.18 2.73 463.61 1.32 465.03 C-4.85 471.21 -11.27 476.85 -18.12 482.25 C-18.72 482.73 -19.31 483.21 -19.92 483.7 C-85.7 536.63 -171.88 559.71 -255.4 550.66 C-334.04 541.22 -411.31 502.34 -462 440.57 C-463.38 438.8 -464.75 437.03 -466.12 435.25 C-467.04 434.15 -467.95 433.05 -468.87 431.96 C-522.11 367.87 -543.55 282.43 -536.53 200.42 C-529.95 129.46 -497.55 58.87 -446.12 9.25 C-443.6 6.75 -441.1 4.23 -438.62 1.68 C-432.45 -4.62 -426.08 -10.32 -419.12 -15.75 C-418.54 -16.22 -417.95 -16.69 -417.34 -17.17 C-372.09 -53.34 -317.37 -75.87 -260.12 -83.75 C-258.86 -83.92 -258.86 -83.92 -257.56 -84.11 C-163.59 -96.61 -69.32 -63.25 0 0 Z " fill="#5F4425" transform="translate(1099.125,448.74609375)"/>
<path d="M0 0 C1.49 -0 2.99 -0.01 4.48 -0.01 C8.52 -0.02 12.56 -0.02 16.6 -0.01 C20.84 -0 25.08 -0.01 29.32 -0.01 C36.43 -0.02 43.55 -0.01 50.67 -0 C58.88 0.01 67.09 0.01 75.31 -0.01 C82.37 -0.01 89.44 -0.02 96.51 -0.01 C100.72 -0.01 104.93 -0.01 109.15 -0.01 C113.11 -0.02 117.07 -0.02 121.04 -0 C122.49 -0 123.94 -0 125.39 -0.01 C138.79 -0.04 150.35 1.26 160.59 10.57 C169.02 19.49 170.65 29.87 170.48 41.73 C170.48 42.9 170.47 44.06 170.47 45.26 C170.45 48.95 170.42 52.63 170.38 56.32 C170.36 58.83 170.35 61.35 170.34 63.86 C170.3 69.99 170.25 76.13 170.19 82.26 C169.63 82.09 169.06 81.91 168.48 81.74 C165.89 80.95 163.3 80.16 160.7 79.38 C159.82 79.11 158.93 78.84 158.02 78.56 C145.39 74.74 133.57 73.01 120.38 72.95 C119.35 72.94 118.33 72.94 117.27 72.93 C93.97 73.15 73.01 81.47 55.19 96.26 C54.34 96.94 53.49 97.63 52.62 98.34 C32.15 115.69 17.29 142.42 14.93 169.2 C14.29 181.5 15.16 193.32 18.19 205.26 C18.46 206.35 18.72 207.44 19 208.56 C26.37 235.36 45.02 259.36 69.13 273.07 C93.21 286.29 123.47 291.02 150.19 283.26 C154.76 281.79 159.26 280.17 163.74 278.47 C167.19 277.26 167.19 277.26 170.19 277.26 C170.29 284.61 170.36 291.95 170.41 299.3 C170.43 301.79 170.46 304.29 170.49 306.78 C170.54 310.39 170.56 313.99 170.58 317.59 C170.6 318.69 170.62 319.8 170.64 320.93 C170.65 332.41 167.35 342 159.19 350.26 C149.02 358.76 138.68 359.71 125.85 359.68 C124.32 359.69 122.78 359.69 121.24 359.7 C117.08 359.73 112.92 359.73 108.77 359.73 C105.29 359.73 101.81 359.74 98.32 359.74 C90.1 359.76 81.88 359.77 73.67 359.76 C65.21 359.75 56.76 359.78 48.3 359.81 C41.02 359.84 33.74 359.86 26.46 359.85 C22.12 359.85 17.78 359.85 13.44 359.88 C9.36 359.9 5.28 359.9 1.19 359.88 C-0.3 359.88 -1.79 359.88 -3.28 359.9 C-16.06 360.01 -26.48 357.52 -35.9 348.43 C-44.09 339.11 -45.11 328.89 -45.08 316.95 C-45.09 315.72 -45.09 314.5 -45.1 313.23 C-45.11 309.84 -45.12 306.45 -45.12 303.06 C-45.12 299.4 -45.13 295.73 -45.14 292.07 C-45.16 284.07 -45.17 276.06 -45.18 268.06 C-45.18 263.06 -45.19 258.06 -45.19 253.06 C-45.21 239.2 -45.23 225.34 -45.23 211.49 C-45.23 210.6 -45.23 209.72 -45.23 208.8 C-45.23 207.01 -45.23 205.21 -45.24 203.41 C-45.24 202.52 -45.24 201.63 -45.24 200.71 C-45.24 199.82 -45.24 198.93 -45.24 198.01 C-45.24 183.55 -45.27 169.09 -45.3 154.63 C-45.34 139.77 -45.36 124.9 -45.36 110.04 C-45.36 101.7 -45.37 93.37 -45.4 85.03 C-45.42 77.93 -45.43 70.83 -45.42 63.73 C-45.41 60.11 -45.41 56.49 -45.43 52.87 C-45.46 48.94 -45.44 45.01 -45.43 41.08 C-45.44 39.94 -45.45 38.81 -45.47 37.65 C-45.36 27.18 -42.17 17.67 -34.83 10.01 C-24.15 0.74 -13.6 -0.04 0 0 Z " fill="#FEFEFE" transform="translate(814.810302734375,507.7412109375)"/>
<path d="M0 0 C0.9 0.43 1.8 0.86 2.73 1.3 C20.39 10.34 33.44 23.79 43 41 C43.47 41.82 43.94 42.64 44.43 43.48 C54.94 62.91 57.63 88.66 52 110 C47.77 123.91 41.49 136.92 32 148 C31 149.22 31 149.22 29.98 150.46 C15.54 167.39 -6.02 178.78 -28 182 C-55.86 184.03 -81.54 178.92 -103.16 160.33 C-121.26 144.32 -134.44 123.49 -137 99 C-137.7 84.36 -138.34 69.86 -133 56 C-132.63 54.96 -132.25 53.93 -131.87 52.86 C-122.33 28.2 -103.92 8.75 -79.81 -1.94 C-73.37 -4.68 -66.87 -6.63 -60 -8 C-58.86 -8.26 -58.86 -8.26 -57.71 -8.52 C-37.95 -12.05 -17.91 -8.55 0 0 Z " fill="#FEFDFD" transform="translate(979,601)"/>
<path d="M0 0 C2.74 0.95 3.74 1.51 5.1 4.1 C5.42 4.93 5.73 5.77 6.06 6.62 C8.15 11.14 10.3 13.26 14.44 16 C21.6 20.77 26.12 27.53 28 36 C28.47 41.23 27.91 44.59 25 49 C22.3 51.19 20.48 51.92 17.06 52.5 C12.97 51.83 10.44 50.28 8 47 C7.05 44.46 6.37 41.94 5.71 39.31 C4.8 36.36 3.46 34.83 1 33 C-1.85 31.57 -3.83 31.69 -7 32 C-9.7 33.8 -11.54 35.08 -13 38 C-13.37 41.93 -13.37 44.3 -11.5 47.81 C-8.25 50.66 -5.13 51.24 -1 52 C8.63 53.8 15.84 56.34 21.82 64.47 C26.8 72.45 29.2 79.54 28 89 C25.18 98.44 21.14 104.99 12.88 110.44 C8.13 113.6 6.89 115.74 5 121 C2.22 124.1 0.08 125.27 -4 125.56 C-7.26 125.38 -8.03 124.97 -10.81 122.94 C-13 120 -13 120 -14.25 116.56 C-16.4 112.19 -18.68 111.01 -22.72 108.52 C-28.91 104.39 -32.98 98.11 -35 91 C-35.67 86.5 -36.13 82.13 -33.94 78 C-32.2 75.85 -30.48 74.24 -28 73 C-23.62 72.88 -20.08 73.12 -16.62 75.94 C-15.15 78.72 -14.38 81.04 -13.56 84.06 C-12.62 87.46 -12.08 88.91 -9.69 91.62 C-6.43 93.29 -4.62 93.53 -1 93 C1.81 91.72 3.5 90.69 5.31 88.19 C6.24 85.23 6.38 83.08 6 80 C3.92 76.18 2.54 75.18 -1.62 73.81 C-3.89 73.35 -6.14 72.98 -8.43 72.65 C-17.28 71.23 -24.16 67.06 -29.71 59.96 C-35.02 51.87 -36.36 43.56 -35 34 C-31.98 24.44 -26.05 17.34 -17.29 12.5 C-13.99 10.33 -14.04 7.71 -13 4 C-8.99 -0.6 -5.75 -0.55 0 0 Z " fill="#614627" transform="translate(941,625)"/>
<path d="M0 0 C55.11 0 110.22 0 167 0 C165.96 6.21 165.5 7.16 161 11 C158.28 12.36 156.12 12.14 153.07 12.15 C151.8 12.15 150.54 12.16 149.24 12.17 C147.83 12.17 146.42 12.17 145.01 12.18 C143.53 12.18 142.05 12.19 140.57 12.2 C136.55 12.21 132.53 12.22 128.5 12.23 C125.99 12.24 123.48 12.24 120.96 12.25 C113.1 12.27 105.24 12.28 97.38 12.29 C88.3 12.3 79.23 12.33 70.15 12.37 C63.14 12.4 56.12 12.41 49.11 12.42 C44.92 12.42 40.73 12.43 36.54 12.45 C32.59 12.48 28.65 12.48 24.71 12.47 C23.26 12.47 21.82 12.48 20.37 12.49 C18.39 12.51 16.42 12.5 14.44 12.49 C12.78 12.49 12.78 12.49 11.09 12.49 C7.24 11.88 5.05 10.38 2 8 C-0.08 4.97 0 3.86 0 0 Z " fill="#654B2E" transform="translate(794,831)"/>
<path d="M0 0 C1.27 -0.01 2.53 -0.01 3.84 -0.02 C5.25 -0.02 6.66 -0.02 8.07 -0.02 C9.55 -0.03 11.03 -0.03 12.51 -0.04 C16.54 -0.05 20.56 -0.06 24.59 -0.06 C27.11 -0.06 29.62 -0.07 32.14 -0.07 C40 -0.08 47.87 -0.09 55.73 -0.1 C64.82 -0.1 73.9 -0.12 82.99 -0.15 C90.01 -0.17 97.03 -0.18 104.05 -0.18 C108.24 -0.18 112.43 -0.19 116.63 -0.21 C120.57 -0.22 124.52 -0.23 128.47 -0.22 C129.91 -0.22 131.36 -0.22 132.81 -0.23 C134.79 -0.24 136.76 -0.24 138.74 -0.23 C139.85 -0.23 140.95 -0.23 142.09 -0.23 C145.47 0.19 147.33 1.13 150.06 3.14 C152.6 6.55 153.06 7.78 153.06 12.14 C97.95 12.14 42.84 12.14 -13.94 12.14 C-12.9 5.93 -12.44 4.98 -7.94 1.14 C-5.21 -0.22 -3.05 0.01 0 0 Z " fill="#654C2E" transform="translate(807.9394073486328,531.8595581054688)"/>
</svg>
