<?xml version="1.0" encoding="UTF-8"?>
<!-- Generator: visioncortex VTracer 0.6.4 -->
<svg version="1.1" xmlns="http://www.w3.org/2000/svg" width="273" height="247">
<path d="M0 0 C1.51 0.03 3.03 0.05 4.54 0.07 C16.69 0.23 26.84 2.27 36.24 10.39 C40.96 15.29 44.24 21.01 47.62 26.86 C48.42 28.22 48.42 28.22 49.23 29.62 C52.73 35.62 56.2 41.63 59.64 47.66 C62.53 52.71 65.44 57.75 68.36 62.79 C70.84 67.08 73.31 71.38 75.78 75.68 C77.02 77.81 78.25 79.95 79.49 82.09 C81.29 85.19 83.08 88.31 84.87 91.42 C85.4 92.34 85.94 93.26 86.5 94.21 C92.88 105.39 95.57 115.59 93.1 128.56 C87.9 144.75 76.86 159.98 68.31 174.55 C65.1 180.01 61.95 185.5 58.8 190.99 C55.76 196.29 52.69 201.58 49.62 206.86 C49.13 207.71 48.64 208.55 48.13 209.43 C41.39 221.01 34.11 231.5 20.61 235.44 C14.88 236.79 9.48 237.15 3.61 237.13 C2.65 237.14 1.69 237.14 0.71 237.15 C-2.43 237.16 -5.57 237.16 -8.71 237.16 C-10.91 237.16 -13.12 237.17 -15.32 237.17 C-19.92 237.18 -24.52 237.18 -29.13 237.17 C-35 237.17 -40.87 237.18 -46.75 237.21 C-51.29 237.22 -55.83 237.22 -60.38 237.22 C-62.54 237.22 -64.7 237.23 -66.87 237.24 C-82.67 237.3 -96.56 237.33 -109.38 226.86 C-115.09 220.1 -119.58 212.46 -123.94 204.8 C-124.54 203.76 -125.13 202.73 -125.75 201.67 C-127 199.5 -128.25 197.32 -129.5 195.14 C-131.34 191.93 -133.2 188.71 -135.06 185.5 C-138.18 180.11 -141.29 174.71 -144.4 169.31 C-146.14 166.28 -147.89 163.26 -149.64 160.25 C-151.1 157.73 -152.56 155.21 -154.01 152.69 C-154.71 151.49 -155.4 150.29 -156.1 149.09 C-164.57 134.58 -169.76 122.86 -165.43 106.1 C-163.68 100.7 -160.94 95.99 -158.07 91.11 C-157.45 90.03 -156.83 88.95 -156.19 87.84 C-154.27 84.51 -152.33 81.18 -150.38 77.86 C-149.21 75.84 -148.04 73.83 -146.87 71.81 C-144.58 67.87 -142.28 63.93 -139.97 59.99 C-136.78 54.56 -133.65 49.1 -130.52 43.63 C-109.15 6.36 -109.15 6.36 -92.65 1.33 C-89.77 0.73 -87.04 0.69 -84.11 0.64 C-82.83 0.61 -81.55 0.59 -80.23 0.57 C-78.82 0.55 -77.42 0.53 -76.01 0.51 C-74.55 0.48 -73.09 0.46 -71.63 0.43 C-66.92 0.36 -62.22 0.29 -57.51 0.23 C-56.71 0.22 -55.92 0.21 -55.1 0.2 C-16.27 -0.32 -16.27 -0.32 0 0 Z M-96.13 22.98 C-101.99 30.47 -106.68 38.67 -111.38 46.92 C-112.71 49.24 -114.04 51.56 -115.37 53.88 C-115.71 54.47 -116.04 55.05 -116.39 55.65 C-119.16 60.48 -121.96 65.29 -124.77 70.09 C-130.08 79.15 -135.36 88.24 -140.57 97.36 C-141.11 98.3 -141.65 99.23 -142.21 100.2 C-148.3 110.64 -148.3 110.64 -149.08 122.4 C-146.51 131.43 -140.77 139.83 -136.01 147.86 C-131.05 156.27 -126.16 164.72 -121.33 173.2 C-119 177.3 -116.65 181.39 -114.31 185.48 C-113.04 187.7 -111.78 189.92 -110.52 192.14 C-108.8 195.18 -107.06 198.21 -105.32 201.23 C-104.82 202.12 -104.32 203.01 -103.81 203.93 C-99.42 211.48 -94.99 216.52 -86.38 218.86 C-83.17 219.15 -79.97 219.14 -76.74 219.13 C-75.79 219.14 -74.83 219.14 -73.85 219.15 C-70.71 219.16 -67.56 219.16 -64.42 219.16 C-62.23 219.16 -60.04 219.17 -57.85 219.17 C-53.25 219.18 -48.66 219.18 -44.07 219.17 C-38.2 219.17 -32.33 219.18 -26.45 219.21 C-21.93 219.22 -17.4 219.22 -12.87 219.22 C-10.71 219.22 -8.54 219.23 -6.38 219.24 C-3.35 219.25 -0.32 219.24 2.72 219.23 C3.6 219.24 4.49 219.25 5.41 219.25 C11.84 219.2 17.3 218.16 22.72 214.4 C27.37 209.57 30.52 204.31 33.68 198.42 C34.82 196.35 35.96 194.28 37.1 192.22 C37.68 191.16 38.26 190.1 38.86 189.02 C41.64 184.02 44.53 179.1 47.43 174.17 C52.37 165.74 57.27 157.3 62.13 148.82 C62.82 147.62 63.51 146.41 64.2 145.21 C74.02 130.07 74.02 130.07 75.62 112.86 C72.27 104.79 67.63 97.23 63.18 89.73 C61.94 87.63 60.7 85.52 59.47 83.41 C58.83 82.33 58.2 81.26 57.54 80.15 C55.01 75.81 52.5 71.46 49.99 67.11 C48.74 64.94 47.49 62.78 46.24 60.62 C43.07 55.12 39.92 49.62 36.81 44.09 C35.58 41.93 34.35 39.77 33.12 37.61 C32.57 36.61 32.02 35.62 31.45 34.6 C26.71 26.31 22.27 21.37 13.08 18.46 C9.08 17.48 5.22 17.44 1.13 17.47 C0.22 17.46 -0.68 17.46 -1.61 17.45 C-4.56 17.44 -7.52 17.45 -10.47 17.46 C-12.54 17.46 -14.61 17.45 -16.68 17.45 C-21.01 17.45 -25.34 17.45 -29.67 17.47 C-35.2 17.48 -40.73 17.47 -46.26 17.46 C-50.53 17.45 -54.81 17.45 -59.08 17.46 C-61.12 17.46 -63.15 17.46 -65.19 17.45 C-68.05 17.44 -70.9 17.45 -73.76 17.47 C-74.59 17.46 -75.42 17.46 -76.27 17.45 C-83.32 17.53 -90.45 18.59 -96.13 22.98 Z " fill="#FFFFFF" transform="translate(172.38214111328125,5.14215087890625)"/>
<path d="M0 0 C0.65 0.51 1.31 1.03 1.98 1.55 C2.6 2.01 3.21 2.46 3.84 2.92 C13.03 10.12 19.19 21.06 20.98 32.55 C22.09 49 18.63 62.91 7.86 75.68 C-1.01 85.17 -12.03 90.88 -25.02 91.76 C-39.85 91.98 -54.21 87.93 -65.21 77.53 C-74.92 66.93 -80.43 54.14 -79.86 39.66 C-78.45 23.32 -71.87 10.91 -59.38 0.34 C-42.29 -12.55 -17.28 -12.68 0 0 Z M-54.02 20.55 C-59.81 28.06 -62.85 34.85 -62.02 44.55 C-60.14 54.02 -55.64 62.26 -47.98 68.27 C-40.12 73.42 -32.3 74.68 -23.02 73.55 C-13.43 71.06 -6.47 66.28 -1.3 57.86 C3.36 49.51 4.45 41.34 2.4 31.85 C-0.41 23.66 -6.43 16.11 -14.14 12.05 C-15.42 11.52 -16.71 11.02 -18.02 10.55 C-19.17 10.14 -20.33 9.73 -21.52 9.3 C-34.23 6.58 -45.43 10.9 -54.02 20.55 Z " fill="#FFFFFF" transform="translate(165.015625,82.4453125)"/>
</svg>
