<?xml version="1.0" encoding="UTF-8"?>
<!-- Generator: visioncortex VTracer 0.6.4 -->
<svg version="1.1" xmlns="http://www.w3.org/2000/svg" width="1920" height="1315">
<path d="M0 0 C1.03 -0.01 2.05 -0.02 3.11 -0.03 C45.86 -0.35 85.2 4.51 125.93 18.24 C126.82 18.54 127.72 18.84 128.64 19.15 C164.07 31.35 196.97 50.58 225.93 74.24 C226.46 74.67 226.99 75.1 227.54 75.55 C245.65 90.36 262.58 106.72 276.93 125.24 C277.75 126.29 277.75 126.29 278.58 127.35 C333.5 198.23 358.86 287.75 347.96 376.95 C338.51 446.48 309.5 511.13 261.49 562.49 C259.02 565.14 256.63 567.84 254.24 570.55 C251.06 574.1 247.77 577.29 244.12 580.35 C241.5 582.61 239.01 584.99 236.49 587.36 C229.09 594.23 221.05 600.25 212.93 606.24 C212.24 606.75 211.56 607.26 210.85 607.79 C200.18 615.7 189.05 622.48 177.42 628.87 C175.16 630.11 172.91 631.37 170.66 632.64 C139.55 649.91 104.62 660.48 69.68 666.49 C68.81 666.64 67.94 666.79 67.04 666.95 C49.72 669.74 32.38 670.62 14.87 670.55 C13.4 670.55 13.4 670.55 11.91 670.55 C-53.72 670.34 -120.13 651.23 -174.07 613.24 C-175.69 612.12 -175.69 612.12 -177.34 610.98 C-202.6 593.42 -227.4 571.74 -246.07 547.24 C-246.89 546.24 -247.7 545.24 -248.55 544.21 C-278.48 507.5 -299.01 463.85 -311.07 418.24 C-311.43 416.9 -311.43 416.9 -311.79 415.53 C-318.48 389.75 -321.29 362.9 -321.32 336.3 C-321.32 335.57 -321.32 334.85 -321.32 334.1 C-321.28 284.73 -310.54 235.74 -289.07 191.24 C-288.68 190.41 -288.28 189.58 -287.88 188.73 C-276.65 165.17 -262.57 143.45 -246.07 123.24 C-245.64 122.71 -245.22 122.19 -244.78 121.64 C-239.07 114.65 -233.05 107.96 -226.88 101.36 C-226.23 100.66 -225.58 99.96 -224.9 99.24 C-221.08 95.19 -217.12 91.43 -212.9 87.81 C-210.5 85.75 -208.2 83.59 -205.88 81.43 C-199.89 75.98 -193.59 71.03 -187.07 66.24 C-186.44 65.77 -185.81 65.31 -185.16 64.82 C-132.31 26.01 -66.07 0.52 0 0 Z " fill="#634400" transform="translate(873.0703125,342.76171875)"/>
<path d="M0 0 C1.51 -0 3.02 -0.01 4.54 -0.02 C8.63 -0.03 12.71 -0.03 16.8 -0.03 C20.22 -0.03 23.65 -0.03 27.07 -0.04 C35.15 -0.05 43.22 -0.05 51.3 -0.04 C59.61 -0.03 67.93 -0.05 76.24 -0.07 C83.4 -0.09 90.55 -0.09 97.71 -0.09 C101.97 -0.09 106.24 -0.09 110.5 -0.1 C114.52 -0.12 118.53 -0.11 122.55 -0.1 C124.01 -0.1 125.48 -0.1 126.94 -0.11 C140.77 -0.18 150.56 1.85 161.02 11.27 C168.93 20.36 170.48 30.02 170.31 41.75 C170.31 42.91 170.31 44.07 170.3 45.27 C170.29 48.96 170.25 52.65 170.21 56.34 C170.19 58.85 170.18 61.36 170.17 63.87 C170.14 70.01 170.09 76.14 170.02 82.27 C169.46 82.1 168.9 81.93 168.32 81.75 C165.72 80.96 163.13 80.18 160.53 79.39 C159.65 79.12 158.76 78.85 157.85 78.57 C145.22 74.76 133.41 73.03 120.21 72.96 C119.18 72.96 118.16 72.95 117.1 72.95 C93.81 73.17 72.84 81.49 55.02 96.27 C54.17 96.96 53.32 97.65 52.45 98.35 C31.99 115.7 17.22 142.35 14.76 169.1 C13.12 198.91 22.14 228.21 41.89 250.87 C59.97 270.92 83.88 283.9 111.02 286.27 C129.76 287.21 146.04 285.13 163.57 278.48 C167.02 277.27 167.02 277.27 170.02 277.27 C170.12 284.62 170.19 291.97 170.24 299.31 C170.26 301.81 170.29 304.31 170.32 306.8 C170.37 310.4 170.4 314 170.41 317.61 C170.43 318.71 170.45 319.81 170.48 320.95 C170.48 332.43 167.18 342.02 159.02 350.27 C148.85 358.77 138.51 359.72 125.69 359.69 C124.15 359.7 122.61 359.71 121.07 359.72 C116.91 359.74 112.76 359.75 108.6 359.74 C105.12 359.74 101.64 359.75 98.16 359.76 C89.94 359.78 81.72 359.78 73.5 359.78 C65.04 359.77 56.59 359.79 48.14 359.83 C40.85 359.86 33.57 359.87 26.29 359.87 C21.95 359.87 17.62 359.87 13.28 359.9 C9.19 359.92 5.11 359.92 1.03 359.9 C-0.46 359.89 -1.95 359.9 -3.44 359.91 C-16.22 360.03 -26.64 357.53 -36.07 348.45 C-44.25 339.13 -45.28 328.91 -45.25 316.97 C-45.26 315.74 -45.26 314.51 -45.27 313.25 C-45.28 309.86 -45.28 306.47 -45.28 303.07 C-45.29 299.41 -45.3 295.75 -45.31 292.08 C-45.33 284.08 -45.34 276.08 -45.35 268.08 C-45.35 263.08 -45.36 258.08 -45.36 253.08 C-45.38 239.22 -45.4 225.36 -45.4 211.5 C-45.4 210.62 -45.4 209.73 -45.4 208.82 C-45.4 207.02 -45.4 205.23 -45.4 203.43 C-45.4 202.54 -45.4 201.65 -45.4 200.73 C-45.4 199.84 -45.4 198.94 -45.4 198.02 C-45.41 183.56 -45.43 169.1 -45.47 154.64 C-45.51 139.78 -45.53 124.92 -45.53 110.06 C-45.53 101.72 -45.54 93.38 -45.57 85.04 C-45.59 77.94 -45.6 70.84 -45.58 63.74 C-45.58 60.12 -45.58 56.51 -45.6 52.89 C-45.63 48.96 -45.61 45.02 -45.59 41.09 C-45.61 39.96 -45.62 38.83 -45.63 37.66 C-45.52 27.19 -42.34 17.69 -34.99 10.02 C-24.27 0.72 -13.66 -0.03 0 0 Z " fill="#FEFEFE" transform="translate(814.97802734375,507.725341796875)"/>
<path d="M0 0 C12.39 8.99 21.54 19.68 29 33 C29.71 34.23 29.71 34.23 30.43 35.48 C40.93 54.93 43.63 80.65 38 102 C33.77 115.91 27.49 128.92 18 140 C17 141.22 17 141.22 15.98 142.46 C1.54 159.39 -20.02 170.78 -42 174 C-69.86 176.03 -95.54 170.92 -117.16 152.33 C-135.26 136.32 -148.44 115.49 -151 91 C-151.7 76.36 -152.34 61.86 -147 48 C-146.63 46.96 -146.25 45.93 -145.87 44.86 C-136.33 20.2 -117.92 0.75 -93.81 -9.94 C-87.37 -12.68 -80.87 -14.63 -74 -16 C-73.23 -16.17 -72.46 -16.34 -71.66 -16.52 C-46.26 -21.11 -21.09 -14.06 0 0 Z " fill="#FEFDFD" transform="translate(993,609)"/>
<path d="M0 0 C2.74 0.95 3.74 1.51 5.1 4.1 C5.42 4.93 5.73 5.77 6.06 6.62 C8.15 11.14 10.3 13.26 14.44 16 C21.6 20.77 26.12 27.53 28 36 C28.47 41.23 27.91 44.59 25 49 C22.3 51.19 20.48 51.92 17.06 52.5 C12.97 51.83 10.44 50.28 8 47 C7.05 44.46 6.37 41.94 5.71 39.31 C4.8 36.36 3.46 34.83 1 33 C-1.85 31.57 -3.83 31.69 -7 32 C-9.7 33.8 -11.54 35.08 -13 38 C-13.37 41.93 -13.37 44.3 -11.5 47.81 C-8.25 50.66 -5.13 51.24 -1 52 C8.63 53.8 15.84 56.34 21.82 64.47 C26.8 72.45 29.2 79.54 28 89 C25.18 98.44 21.14 104.99 12.88 110.44 C8.13 113.6 6.89 115.74 5 121 C2.22 124.1 0.08 125.27 -4 125.56 C-7.26 125.38 -8.03 124.97 -10.81 122.94 C-13 120 -13 120 -14.25 116.56 C-16.4 112.19 -18.68 111.01 -22.72 108.52 C-28.91 104.39 -32.98 98.11 -35 91 C-35.67 86.5 -36.13 82.13 -33.94 78 C-32.2 75.85 -30.48 74.24 -28 73 C-23.62 72.88 -20.08 73.12 -16.62 75.94 C-15.15 78.72 -14.38 81.04 -13.56 84.06 C-12.62 87.46 -12.08 88.91 -9.69 91.62 C-6.43 93.29 -4.62 93.53 -1 93 C1.81 91.72 3.5 90.69 5.31 88.19 C6.24 85.23 6.38 83.08 6 80 C3.92 76.18 2.54 75.18 -1.62 73.81 C-3.89 73.35 -6.14 72.98 -8.43 72.65 C-17.28 71.23 -24.16 67.06 -29.71 59.96 C-35.02 51.87 -36.36 43.56 -35 34 C-31.98 24.44 -26.05 17.34 -17.29 12.5 C-13.99 10.33 -14.04 7.71 -13 4 C-8.99 -0.6 -5.75 -0.55 0 0 Z " fill="#644603" transform="translate(941,625)"/>
<path d="M0 0 C55.11 0 110.22 0 167 0 C165.96 6.21 165.5 7.16 161 11 C158.28 12.36 156.12 12.14 153.07 12.15 C151.8 12.15 150.54 12.16 149.24 12.17 C147.83 12.17 146.42 12.17 145.01 12.18 C143.53 12.18 142.05 12.19 140.57 12.2 C136.55 12.21 132.53 12.22 128.5 12.23 C125.99 12.24 123.48 12.24 120.96 12.25 C113.1 12.27 105.24 12.28 97.38 12.29 C88.3 12.3 79.23 12.33 70.15 12.37 C63.14 12.4 56.12 12.41 49.11 12.42 C44.92 12.42 40.73 12.43 36.54 12.45 C32.59 12.48 28.65 12.48 24.71 12.47 C23.26 12.47 21.82 12.48 20.37 12.49 C18.39 12.51 16.42 12.5 14.44 12.49 C12.78 12.49 12.78 12.49 11.09 12.49 C7.24 11.88 5.05 10.38 2 8 C-0.08 4.97 0 3.86 0 0 Z " fill="#694B0A" transform="translate(794,831)"/>
<path d="M0 0 C1.27 -0.01 2.53 -0.01 3.84 -0.02 C5.25 -0.02 6.66 -0.02 8.07 -0.02 C9.55 -0.03 11.03 -0.03 12.51 -0.04 C16.54 -0.05 20.56 -0.06 24.59 -0.06 C27.11 -0.06 29.62 -0.07 32.14 -0.07 C40 -0.08 47.87 -0.09 55.73 -0.1 C64.82 -0.1 73.9 -0.12 82.99 -0.15 C90.01 -0.17 97.03 -0.18 104.05 -0.18 C108.24 -0.18 112.43 -0.19 116.63 -0.21 C120.57 -0.22 124.52 -0.23 128.47 -0.22 C129.91 -0.22 131.36 -0.22 132.81 -0.23 C134.79 -0.24 136.76 -0.24 138.74 -0.23 C139.85 -0.23 140.95 -0.23 142.09 -0.23 C145.47 0.19 147.33 1.13 150.06 3.14 C152.6 6.55 153.06 7.78 153.06 12.14 C97.95 12.14 42.84 12.14 -13.94 12.14 C-12.9 5.93 -12.44 4.98 -7.94 1.14 C-5.21 -0.22 -3.05 0.01 0 0 Z " fill="#694C0B" transform="translate(807.9394073486328,531.8595581054688)"/>
</svg>
