<?xml version="1.0" encoding="UTF-8"?>
<!-- Generator: visioncortex VTracer 0.6.4 -->
<svg version="1.1" xmlns="http://www.w3.org/2000/svg" width="685" height="687">
<path d="M0 0 C1.53 -0 1.53 -0 3.09 -0 C54.42 0.05 104.67 10.07 151.12 32.25 C151.92 32.62 152.72 33 153.55 33.38 C174.61 43.23 194.05 55.66 212.12 70.25 C213.14 71.05 214.15 71.85 215.19 72.67 C221.14 77.44 226.76 82.51 232.35 87.69 C234.61 89.78 236.91 91.81 239.25 93.81 C246 99.68 252.31 106.08 258.1 112.89 C259.72 114.77 261.36 116.62 263.02 118.45 C271.43 127.78 278.47 137.61 285.12 148.25 C285.71 149.18 286.3 150.11 286.9 151.07 C315.3 196.5 334.06 245.87 340.12 299.25 C340.27 300.48 340.27 300.48 340.42 301.73 C341.48 312.37 341.37 323.07 341.38 333.75 C341.38 335.32 341.38 335.32 341.38 336.92 C341.36 353.55 340.72 369.79 338.12 386.25 C337.94 387.42 337.76 388.59 337.57 389.8 C332.4 422.2 323.41 452.62 309.12 482.25 C308.73 483.07 308.34 483.9 307.94 484.75 C297.04 507.61 283.5 528.95 267.49 548.58 C266.2 550.16 264.92 551.76 263.64 553.36 C256.8 561.74 249.19 569.39 241.56 577.06 C240.77 577.87 240.77 577.87 239.95 578.69 C233.01 585.68 225.88 592.15 218.12 598.25 C216.69 599.41 215.25 600.57 213.82 601.73 C203.03 610.32 191.82 617.97 180.12 625.25 C179.43 625.69 178.73 626.14 178.01 626.59 C127.71 658.38 65.75 673.45 6.62 673.5 C5.42 673.5 5.42 673.5 4.19 673.5 C-80.43 673.39 -161.76 641.68 -223.88 584.25 C-224.91 583.32 -225.95 582.38 -226.98 581.45 C-234.4 574.76 -241.29 567.76 -247.88 560.25 C-248.75 559.27 -249.62 558.29 -250.51 557.27 C-302.63 497.61 -332.18 416.99 -332.06 337.88 C-332.06 337.13 -332.06 336.39 -332.06 335.62 C-332.03 322.75 -331.51 310.03 -329.88 297.25 C-329.75 296.28 -329.63 295.31 -329.5 294.31 C-320.28 224.82 -290.28 159.46 -242.55 108.14 C-240.19 105.59 -237.91 102.99 -235.62 100.38 C-226.36 90.06 -215.81 80.74 -204.88 72.25 C-204.01 71.57 -204.01 71.57 -203.12 70.88 C-188.76 59.74 -173.72 49.96 -157.75 41.28 C-156.01 40.32 -154.28 39.33 -152.56 38.34 C-116.99 18.3 -74.31 5.45 -33.88 1.25 C-33.06 1.16 -32.24 1.06 -31.39 0.97 C-20.96 -0.07 -10.47 0.01 0 0 Z " fill="#5D3E00" transform="translate(337.875,6.75)"/>
<path d="M0 0 C0.65 -0 1.31 -0 1.98 -0.01 C4.18 -0.01 6.38 -0.01 8.57 -0.01 C10.15 -0.01 11.72 -0.02 13.29 -0.02 C17.57 -0.03 21.85 -0.03 26.13 -0.03 C29.71 -0.03 33.28 -0.04 36.85 -0.04 C45.29 -0.05 53.72 -0.05 62.15 -0.05 C70.85 -0.05 79.54 -0.06 88.24 -0.08 C95.7 -0.09 103.17 -0.1 110.64 -0.1 C115.09 -0.09 119.55 -0.1 124.01 -0.11 C128.21 -0.12 132.4 -0.12 136.6 -0.11 C138.14 -0.11 139.67 -0.11 141.21 -0.12 C154.19 -0.17 164.6 0.92 174.63 9.99 C182.62 18.56 184.17 26.77 183.97 38.26 C183.97 39.49 183.96 40.72 183.95 41.99 C183.93 45.89 183.88 49.79 183.83 53.7 C183.81 56.35 183.79 59.01 183.78 61.67 C183.73 68.16 183.67 74.64 183.58 81.13 C181.97 80.82 180.35 80.51 178.74 80.2 C177.39 79.93 177.39 79.93 176.01 79.67 C173.58 79.13 173.58 79.13 171.11 78.14 C153.63 71.17 129.72 70.68 111.58 75.13 C110.5 75.38 109.43 75.62 108.32 75.88 C93.07 79.74 80.51 87.09 68.58 97.13 C67.71 97.84 66.84 98.55 65.94 99.28 C59.25 104.95 54.01 111.5 48.8 118.5 C47.74 119.92 46.65 121.31 45.54 122.69 C40.11 129.79 37.21 137.69 34.58 146.13 C34.37 146.8 34.15 147.47 33.93 148.16 C25.34 176.33 30.34 206.14 43.69 231.77 C58.08 257.37 80.52 273.86 108.39 282.41 C125.62 286.33 145.59 285.66 162.58 281.13 C164.87 280.58 167.17 280.03 169.46 279.49 C170.96 279.14 172.46 278.78 173.95 278.4 C177.3 277.58 180.1 277.13 183.58 277.13 C183.71 284.44 183.8 291.75 183.86 299.06 C183.88 301.55 183.91 304.03 183.96 306.51 C184.46 335.7 184.46 335.7 175.02 348.07 C168.12 355.18 159.26 358.84 149.46 359.27 C148.33 359.28 147.21 359.28 146.06 359.29 C144.76 359.3 143.47 359.3 142.13 359.31 C140.71 359.32 139.28 359.32 137.86 359.33 C136.35 359.33 134.84 359.34 133.34 359.35 C128.39 359.38 123.45 359.39 118.51 359.41 C116.8 359.41 115.1 359.42 113.39 359.42 C106.29 359.44 99.18 359.46 92.08 359.47 C81.93 359.49 71.78 359.52 61.63 359.58 C54.47 359.62 47.32 359.64 40.17 359.64 C35.9 359.65 31.64 359.66 27.37 359.69 C23.35 359.72 19.34 359.73 15.32 359.72 C13.86 359.72 12.39 359.73 10.92 359.74 C-2.53 359.9 -12.58 356.9 -22.36 347.47 C-25.18 344.27 -27 341.13 -28.42 337.13 C-28.76 336.36 -29.1 335.58 -29.45 334.78 C-30.87 329.46 -30.7 324.31 -30.69 318.82 C-30.7 317.57 -30.7 316.32 -30.71 315.03 C-30.72 311.56 -30.72 308.1 -30.72 304.63 C-30.73 300.89 -30.74 297.14 -30.75 293.4 C-30.77 285.22 -30.78 277.04 -30.79 268.86 C-30.79 263.75 -30.8 258.64 -30.8 253.53 C-30.82 239.38 -30.84 225.23 -30.84 211.08 C-30.84 210.17 -30.84 209.26 -30.84 208.33 C-30.84 206.5 -30.84 204.66 -30.84 202.83 C-30.84 201.92 -30.84 201 -30.84 200.07 C-30.84 199.15 -30.85 198.24 -30.85 197.3 C-30.85 182.52 -30.88 167.74 -30.91 152.97 C-30.95 137.79 -30.97 122.6 -30.97 107.42 C-30.97 98.9 -30.98 90.38 -31.01 81.86 C-31.03 74.61 -31.04 67.35 -31.03 60.1 C-31.02 56.4 -31.02 52.7 -31.04 49 C-31.07 44.98 -31.05 40.97 -31.03 36.95 C-31.05 35.21 -31.05 35.21 -31.07 33.43 C-30.98 24.26 -28.28 16.54 -22.08 9.58 C-15.41 3.77 -8.86 0.01 0 0 Z " fill="#F7F6F6" transform="translate(256.4191131591797,173.8662872314453)"/>
<path d="M0 0 C4.66 3.5 8.95 7.2 13.08 11.32 C14.22 12.42 14.22 12.42 15.38 13.54 C32.25 30.94 41.76 56.85 41.48 80.76 C40.69 107.91 29.05 132.51 9.4 151.27 C0.75 158.9 -8.39 163.85 -18.92 168.32 C-20.28 168.92 -20.28 168.92 -21.66 169.54 C-43.38 178.44 -69.65 177.48 -91.3 169.07 C-111.62 159.78 -129.24 144.97 -139.92 125.32 C-140.33 124.59 -140.74 123.86 -141.16 123.11 C-142.17 121.2 -143.06 119.29 -143.92 117.32 C-144.43 116.18 -144.43 116.18 -144.94 115.02 C-149.8 103 -151.17 90.19 -151.23 77.32 C-151.24 76.47 -151.25 75.62 -151.25 74.75 C-151.01 53.84 -141.97 33.37 -128.92 17.32 C-128.27 16.49 -127.62 15.66 -126.95 14.81 C-115.98 1.71 -101.52 -6.29 -85.92 -12.68 C-84.76 -13.16 -83.6 -13.64 -82.41 -14.13 C-56.62 -23.03 -21.91 -15.43 0 0 Z " fill="#F7F6F6" transform="translate(447.921875,273.68359375)"/>
<path d="M0 0 C3.99 0.77 5.82 2.45 8.47 5.48 C9.48 7.43 10.38 9.43 11.29 11.44 C13.08 14.53 15.63 16.44 18.37 18.68 C23.62 23.17 29.07 28.42 29.77 35.54 C29.78 37.21 29.78 37.21 29.78 38.91 C29.8 40.03 29.81 41.14 29.83 42.29 C29.43 45.8 28.54 47.65 26.47 50.48 C23.42 52.85 20.19 52.75 16.47 52.84 C13.69 52.34 12.48 51.47 10.47 49.48 C9.09 46.41 9.09 46.41 7.91 42.91 C6.35 37.84 6.35 37.84 2.47 34.48 C-0.6 33.94 -3.46 33.94 -6.53 34.48 C-9.59 37.01 -10.37 38.59 -11.09 42.48 C-10.29 46.78 -9.12 47.93 -5.53 50.48 C-2.58 51.4 0.39 52.08 3.41 52.75 C12.25 54.86 20.14 59.12 25.04 67.01 C29.57 75.82 31.52 84.9 28.48 94.64 C24.64 103 18.72 109.7 11.26 115.07 C9.2 116.48 9.2 116.48 7.97 119.48 C6.36 122.69 5.69 123.95 2.47 125.48 C-0.64 126 -3.43 126.06 -6.53 125.48 C-10.87 122.33 -11.89 119.41 -13.53 114.48 C-14.84 113.77 -16.18 113.11 -17.53 112.48 C-24.92 107.08 -31.62 99.65 -33.53 90.48 C-34.06 85.81 -34.23 82.61 -31.72 78.54 C-28 75.04 -25.75 74.24 -20.66 74.11 C-17.67 74.62 -15.93 75.6 -13.53 77.48 C-12.31 80.29 -12.31 80.29 -11.47 83.48 C-10.35 87.85 -10.35 87.85 -7.66 91.33 C-5.4 92.55 -4.08 92.88 -1.53 92.85 C-0.87 92.86 -0.21 92.87 0.47 92.88 C3.21 92.33 4.53 91.49 6.47 89.48 C6.95 86.74 6.95 86.74 6.72 83.79 C6.66 82.3 6.66 82.3 6.61 80.78 C6.56 80.02 6.52 79.26 6.47 78.48 C1.52 76.31 -3.09 74.43 -8.47 73.73 C-16.72 72.23 -23.39 66.62 -28.09 59.85 C-33.27 51.58 -33.88 41.97 -32.53 32.48 C-29.67 24.43 -22.74 17.02 -15.53 12.48 C-14.87 12.48 -14.21 12.48 -13.53 12.48 C-13.28 11.42 -13.04 10.37 -12.78 9.29 C-10.58 1.97 -7.67 -0.43 0 0 Z " fill="#664704" transform="translate(394.53125,289.5234375)"/>
<path d="M0 0 C54.78 0 109.56 0 166 0 C165.12 4.38 164.45 6.47 162 10 C159.24 11.38 157 11.14 153.91 11.16 C152.61 11.17 151.31 11.18 149.97 11.19 C148.52 11.2 147.07 11.2 145.62 11.21 C144.1 11.22 142.59 11.23 141.07 11.24 C136.07 11.27 131.07 11.29 126.07 11.31 C124.8 11.31 124.8 11.31 123.5 11.32 C115.49 11.35 107.48 11.38 99.47 11.39 C89.21 11.41 78.96 11.46 68.71 11.53 C61.5 11.57 54.3 11.6 47.09 11.61 C42.78 11.61 38.48 11.63 34.17 11.66 C30.12 11.7 26.07 11.71 22.02 11.7 C20.53 11.7 19.05 11.71 17.56 11.73 C6.47 11.88 6.47 11.88 2.98 9.79 C-0.05 6.5 0 4.51 0 0 Z " fill="#644B07" transform="translate(250,497)"/>
<path d="M0 0 C1.29 -0.01 2.57 -0.02 3.9 -0.03 C5.32 -0.02 6.74 -0.01 8.16 -0 C9.66 -0 11.16 -0.01 12.66 -0.02 C16.73 -0.03 20.79 -0.02 24.86 -0 C29.12 0.01 33.38 0 37.64 0 C44.79 -0 51.94 0.01 59.1 0.03 C67.36 0.06 75.63 0.06 83.9 0.05 C91.85 0.04 99.81 0.05 107.76 0.06 C111.14 0.07 114.53 0.07 117.91 0.06 C121.9 0.06 125.88 0.07 129.87 0.09 C131.33 0.09 132.79 0.09 134.26 0.09 C136.25 0.08 138.25 0.1 140.25 0.11 C141.36 0.12 142.48 0.12 143.63 0.12 C147.04 0.55 148.89 1.46 151.62 3.5 C153.62 6.5 153.62 6.5 153.62 11.5 C98.84 11.5 44.06 11.5 -12.38 11.5 C-11.38 4.5 -11.38 4.5 -9.21 2.1 C-5.86 0.21 -3.83 0 0 0 Z " fill="#644B06" transform="translate(262.3760986328125,197.49879455566406)"/>
</svg>
