<svg xmlns="http://www.w3.org/2000/svg" version="1.1" desc="Created with imagetracer.js version 1.2.6" viewBox="0 0 1920 1080" preserveAspectRatio="xMidYMid meet"><path fill="rgb(0,0,0)" stroke="rgb(0,0,0)" stroke-width="1" opacity="0" d="M 0 0 L 0.5 0 L 1919.5 0 L 1920 0 L 1920 0.5 L 1920 1079.5 L 1920 1080 L 1919.5 1080 L 0.5 1080 L 0 1080 L 0 1079.5 L 0 0.5 L 0 0 Z M 943 221 L 942 222 L 930 222 L 929 223 L 921 223 L 920 224 L 914 224 L 913 225 L 907 225 L 906 226 L 902 226 L 901 227 L 897 227 L 896 228 L 892 228 L 891 229 L 888 229 L 887 230 L 884 230 L 883 231 L 880 231 L 879 232 L 876 232 L 875 233 L 872 233 L 871 234 L 869 234 L 868 235 L 866 235 L 865 236 L 863 236 L 862 237 L 859 237 L 858 238 L 857 238 L 856 239 L 854 239 L 853 240 L 851 240 L 850 241 L 848 241 L 847 242 L 846 242 L 845 243 L 843 243 L 842 244 L 841 244 L 840 245 L 838 245 L 837 246 L 836 246 L 835 247 L 834 247 L 833 248 L 831 248 L 830 249 L 829 249 L 828 250 L 827 250 L 826 251 L 825 251 L 824 252 L 823 252 L 822 253 L 821 253 L 820 254 L 819 254 L 818 255 L 817 255 L 816 256 L 815 256 L 814 257 L 813 257 L 812 258 L 811 258 L 810 259 L 809 259 L 808 260 L 807 260 L 806 261 L 805 261 L 803 263 L 802 263 L 801 264 L 800 264 L 799 265 L 798 265 L 796 267 L 795 267 L 794 268 L 793 268 L 791 270 L 790 270 L 788 272 L 787 272 L 785 274 L 784 274 L 782 276 L 781 276 L 779 278 L 778 278 L 776 280 L 775 280 L 772 283 L 771 283 L 768 286 L 767 286 L 764 289 L 763 289 L 758 294 L 757 294 L 752 299 L 751 299 L 741 309 L 740 309 L 730 319 L 730 320 L 719 331 L 719 332 L 713 338 L 713 339 L 709 343 L 709 344 L 706 347 L 706 348 L 703 351 L 703 352 L 700 355 L 700 356 L 698 358 L 698 359 L 696 361 L 696 362 L 694 364 L 694 365 L 692 367 L 692 368 L 690 370 L 690 371 L 688 373 L 688 374 L 687 375 L 687 376 L 685 378 L 685 379 L 684 380 L 684 381 L 683 382 L 683 383 L 681 385 L 681 386 L 680 387 L 680 388 L 679 389 L 679 390 L 678 391 L 678 392 L 677 393 L 677 394 L 676 395 L 676 396 L 675 397 L 675 398 L 674 399 L 674 400 L 673 401 L 673 402 L 672 403 L 672 404 L 671 405 L 671 406 L 670 407 L 670 408 L 669 409 L 669 410 L 668 411 L 668 413 L 667 414 L 667 415 L 666 416 L 666 417 L 665 418 L 665 420 L 664 421 L 664 422 L 663 423 L 663 425 L 662 426 L 662 427 L 661 428 L 661 430 L 660 431 L 660 433 L 659 434 L 659 436 L 658 437 L 658 438 L 657 439 L 657 442 L 656 443 L 656 445 L 655 446 L 655 448 L 654 449 L 654 451 L 653 452 L 653 455 L 652 456 L 652 459 L 651 460 L 651 462 L 650 463 L 650 467 L 649 468 L 649 471 L 648 472 L 648 476 L 647 477 L 647 481 L 646 482 L 646 486 L 645 487 L 645 492 L 644 493 L 644 500 L 643 501 L 643 509 L 642 510 L 642 522 L 641 523 L 641 558 L 642 559 L 642 571 L 643 572 L 643 580 L 644 581 L 644 587 L 645 588 L 645 594 L 646 595 L 646 599 L 647 600 L 647 604 L 648 605 L 648 609 L 649 610 L 649 613 L 650 614 L 650 618 L 651 619 L 651 621 L 652 622 L 652 625 L 653 626 L 653 629 L 654 630 L 654 632 L 655 633 L 655 635 L 656 636 L 656 638 L 657 639 L 657 642 L 658 643 L 658 644 L 659 645 L 659 647 L 660 648 L 660 650 L 661 651 L 661 653 L 662 654 L 662 655 L 663 656 L 663 658 L 664 659 L 664 660 L 665 661 L 665 663 L 666 664 L 666 665 L 667 666 L 667 667 L 668 668 L 668 670 L 669 671 L 669 672 L 670 673 L 670 674 L 671 675 L 671 676 L 672 677 L 672 678 L 673 679 L 673 680 L 674 681 L 674 682 L 675 683 L 675 684 L 676 685 L 676 686 L 677 687 L 677 688 L 678 689 L 678 690 L 679 691 L 679 692 L 680 693 L 680 694 L 681 695 L 681 696 L 683 698 L 683 699 L 684 700 L 684 701 L 685 702 L 685 703 L 687 705 L 687 706 L 689 708 L 689 709 L 690 710 L 690 711 L 692 713 L 692 714 L 694 716 L 694 717 L 696 719 L 696 720 L 698 722 L 698 723 L 700 725 L 700 726 L 703 729 L 703 730 L 706 733 L 706 734 L 710 738 L 710 739 L 714 743 L 714 744 L 719 749 L 719 750 L 730 761 L 730 762 L 740 771 L 741 771 L 751 781 L 752 781 L 757 786 L 758 786 L 763 791 L 764 791 L 767 794 L 768 794 L 771 797 L 772 797 L 775 800 L 776 800 L 778 802 L 779 802 L 781 804 L 782 804 L 784 806 L 785 806 L 787 808 L 788 808 L 790 810 L 791 810 L 792 811 L 793 811 L 795 813 L 796 813 L 798 815 L 799 815 L 800 816 L 801 816 L 802 817 L 803 817 L 805 819 L 806 819 L 807 820 L 808 820 L 809 821 L 810 821 L 811 822 L 812 822 L 813 823 L 814 823 L 815 824 L 816 824 L 817 825 L 818 825 L 819 826 L 820 826 L 821 827 L 822 827 L 823 828 L 824 828 L 825 829 L 826 829 L 827 830 L 828 830 L 829 831 L 830 831 L 831 832 L 833 832 L 834 833 L 835 833 L 836 834 L 837 834 L 838 835 L 840 835 L 841 836 L 842 836 L 843 837 L 845 837 L 846 838 L 847 838 L 848 839 L 850 839 L 851 840 L 853 840 L 854 841 L 856 841 L 857 842 L 859 842 L 860 843 L 862 843 L 863 844 L 865 844 L 866 845 L 868 845 L 869 846 L 871 846 L 872 847 L 875 847 L 876 848 L 879 848 L 880 849 L 883 849 L 884 850 L 887 850 L 888 851 L 891 851 L 892 852 L 896 852 L 897 853 L 901 853 L 902 854 L 906 854 L 907 855 L 913 855 L 914 856 L 920 856 L 921 857 L 929 857 L 930 858 L 942 858 L 943 859 L 978 859 L 979 858 L 991 858 L 992 857 L 1000 857 L 1001 856 L 1008 856 L 1009 855 L 1014 855 L 1015 854 L 1019 854 L 1020 853 L 1024 853 L 1025 852 L 1029 852 L 1030 851 L 1033 851 L 1034 850 L 1038 850 L 1039 849 L 1041 849 L 1042 848 L 1045 848 L 1046 847 L 1049 847 L 1050 846 L 1052 846 L 1053 845 L 1055 845 L 1056 844 L 1058 844 L 1059 843 L 1062 843 L 1063 842 L 1064 842 L 1065 841 L 1067 841 L 1068 840 L 1070 840 L 1071 839 L 1073 839 L 1074 838 L 1075 838 L 1076 837 L 1078 837 L 1079 836 L 1080 836 L 1081 835 L 1083 835 L 1084 834 L 1085 834 L 1086 833 L 1087 833 L 1088 832 L 1090 832 L 1091 831 L 1092 831 L 1093 830 L 1094 830 L 1095 829 L 1096 829 L 1097 828 L 1098 828 L 1099 827 L 1100 827 L 1101 826 L 1102 826 L 1103 825 L 1104 825 L 1105 824 L 1106 824 L 1107 823 L 1108 823 L 1109 822 L 1110 822 L 1111 821 L 1112 821 L 1113 820 L 1114 820 L 1115 819 L 1116 819 L 1118 817 L 1119 817 L 1120 816 L 1121 816 L 1122 815 L 1123 815 L 1125 813 L 1126 813 L 1128 811 L 1129 811 L 1130 810 L 1131 810 L 1133 808 L 1134 808 L 1136 806 L 1137 806 L 1139 804 L 1140 804 L 1142 802 L 1143 802 L 1145 800 L 1146 800 L 1149 797 L 1150 797 L 1153 794 L 1154 794 L 1158 790 L 1159 790 L 1163 786 L 1164 786 L 1169 781 L 1170 781 L 1181 770 L 1182 770 L 1191 761 L 1191 760 L 1201 750 L 1201 749 L 1206 744 L 1206 743 L 1210 739 L 1210 738 L 1214 734 L 1214 733 L 1217 730 L 1217 729 L 1220 726 L 1220 725 L 1222 723 L 1222 722 L 1224 720 L 1224 719 L 1226 717 L 1226 716 L 1228 714 L 1228 713 L 1230 711 L 1230 710 L 1232 708 L 1232 707 L 1233 706 L 1233 705 L 1235 703 L 1235 702 L 1236 701 L 1236 700 L 1237 699 L 1237 698 L 1239 696 L 1239 695 L 1240 694 L 1240 693 L 1241 692 L 1241 691 L 1242 690 L 1242 689 L 1243 688 L 1243 687 L 1244 686 L 1244 685 L 1245 684 L 1245 683 L 1246 682 L 1246 681 L 1247 680 L 1247 679 L 1248 678 L 1248 677 L 1249 676 L 1249 675 L 1250 674 L 1250 673 L 1251 672 L 1251 671 L 1252 670 L 1252 668 L 1253 667 L 1253 666 L 1254 665 L 1254 664 L 1255 663 L 1255 661 L 1256 660 L 1256 659 L 1257 658 L 1257 656 L 1258 655 L 1258 654 L 1259 653 L 1259 651 L 1260 650 L 1260 648 L 1261 647 L 1261 645 L 1262 644 L 1262 642 L 1263 641 L 1263 639 L 1264 638 L 1264 636 L 1265 635 L 1265 633 L 1266 632 L 1266 630 L 1267 629 L 1267 626 L 1268 625 L 1268 622 L 1269 621 L 1269 618 L 1270 617 L 1270 614 L 1271 613 L 1271 610 L 1272 609 L 1272 605 L 1273 604 L 1273 600 L 1274 599 L 1274 595 L 1275 594 L 1275 588 L 1276 587 L 1276 581 L 1277 580 L 1277 572 L 1278 571 L 1278 559 L 1279 558 L 1279 523 L 1278 522 L 1278 510 L 1277 509 L 1277 501 L 1276 500 L 1276 494 L 1275 493 L 1275 487 L 1274 486 L 1274 482 L 1273 481 L 1273 477 L 1272 476 L 1272 472 L 1271 471 L 1271 468 L 1270 467 L 1270 464 L 1269 463 L 1269 460 L 1268 459 L 1268 456 L 1267 455 L 1267 452 L 1266 451 L 1266 449 L 1265 448 L 1265 446 L 1264 445 L 1264 443 L 1263 442 L 1263 439 L 1262 438 L 1262 437 L 1261 436 L 1261 434 L 1260 433 L 1260 431 L 1259 430 L 1259 428 L 1258 427 L 1258 426 L 1257 425 L 1257 423 L 1256 422 L 1256 421 L 1255 420 L 1255 418 L 1254 417 L 1254 416 L 1253 415 L 1253 414 L 1252 413 L 1252 411 L 1251 410 L 1251 409 L 1250 408 L 1250 407 L 1249 406 L 1249 405 L 1248 404 L 1248 403 L 1247 402 L 1247 401 L 1246 400 L 1246 399 L 1245 398 L 1245 397 L 1244 396 L 1244 395 L 1243 394 L 1243 393 L 1242 392 L 1242 391 L 1241 390 L 1241 389 L 1240 388 L 1240 387 L 1239 386 L 1239 385 L 1237 383 L 1237 382 L 1236 381 L 1236 380 L 1235 379 L 1235 378 L 1233 376 L 1233 375 L 1232 374 L 1232 373 L 1230 371 L 1230 370 L 1228 368 L 1228 367 L 1226 365 L 1226 364 L 1224 362 L 1224 361 L 1222 359 L 1222 358 L 1220 356 L 1220 355 L 1217 352 L 1217 351 L 1214 348 L 1214 347 L 1211 344 L 1211 343 L 1206 338 L 1206 337 L 1201 332 L 1201 331 L 1191 321 L 1191 320 L 1181 309 L 1180 309 L 1170 299 L 1169 299 L 1163 293 L 1162 293 L 1158 289 L 1157 289 L 1154 286 L 1153 286 L 1150 283 L 1149 283 L 1146 280 L 1145 280 L 1143 278 L 1142 278 L 1140 276 L 1139 276 L 1137 274 L 1136 274 L 1134 272 L 1133 272 L 1131 270 L 1130 270 L 1128 268 L 1127 268 L 1126 267 L 1125 267 L 1123 265 L 1122 265 L 1121 264 L 1120 264 L 1119 263 L 1118 263 L 1116 261 L 1115 261 L 1114 260 L 1113 260 L 1112 259 L 1111 259 L 1110 258 L 1109 258 L 1108 257 L 1107 257 L 1106 256 L 1105 256 L 1104 255 L 1103 255 L 1102 254 L 1101 254 L 1100 253 L 1099 253 L 1098 252 L 1097 252 L 1096 251 L 1095 251 L 1094 250 L 1093 250 L 1092 249 L 1091 249 L 1090 248 L 1088 248 L 1087 247 L 1086 247 L 1085 246 L 1084 246 L 1083 245 L 1081 245 L 1080 244 L 1079 244 L 1078 243 L 1076 243 L 1075 242 L 1074 242 L 1073 241 L 1071 241 L 1070 240 L 1068 240 L 1067 239 L 1065 239 L 1064 238 L 1063 238 L 1062 237 L 1060 237 L 1059 236 L 1056 236 L 1055 235 L 1053 235 L 1052 234 L 1050 234 L 1049 233 L 1046 233 L 1045 232 L 1042 232 L 1041 231 L 1039 231 L 1038 230 L 1034 230 L 1033 229 L 1030 229 L 1029 228 L 1025 228 L 1024 227 L 1020 227 L 1019 226 L 1015 226 L 1014 225 L 1009 225 L 1008 224 L 1001 224 L 1000 223 L 992 223 L 991 222 L 979 222 L 978 221 L 943 221 Z "/><path fill="rgb(95,68,37)" stroke="rgb(95,68,37)" stroke-width="1" opacity="1" d="M 942.5 221 L 977.5 221 L 978.5 222 L 990.5 222 L 991.5 223 L 999.5 223 L 1000.5 224 L 1007.5 224 L 1008.5 225 L 1013.5 225 L 1014.5 226 L 1018.5 226 L 1019.5 227 L 1023.5 227 L 1024.5 228 L 1028.5 228 L 1029.5 229 L 1032.5 229 L 1033.5 230 L 1037.5 230 L 1038.5 231 L 1040.5 231 L 1041.5 232 L 1044.5 232 L 1045.5 233 L 1048.5 233 L 1049.5 234 L 1051.5 234 L 1052.5 235 L 1054.5 235 L 1055.5 236 L 1058.5 236 L 1059.5 237 L 1061.5 237 L 1062.5 238 L 1063.5 238 L 1064.5 239 L 1066.5 239 L 1067.5 240 L 1069.5 240 L 1070.5 241 L 1072.5 241 L 1073.5 242 L 1074.5 242 L 1075.5 243 L 1077.5 243 L 1078.5 244 L 1079.5 244 L 1080.5 245 L 1082.5 245 L 1083.5 246 L 1084.5 246 L 1085.5 247 L 1086.5 247 L 1087.5 248 L 1089.5 248 L 1090.5 249 L 1091.5 249 L 1092.5 250 L 1093.5 250 L 1094.5 251 L 1095.5 251 L 1096.5 252 L 1097.5 252 L 1098.5 253 L 1099.5 253 L 1100.5 254 L 1101.5 254 L 1102.5 255 L 1103.5 255 L 1104.5 256 L 1105.5 256 L 1106.5 257 L 1107.5 257 L 1108.5 258 L 1109.5 258 L 1110.5 259 L 1111.5 259 L 1112.5 260 L 1113.5 260 L 1114.5 261 L 1115.5 261 L 1117.5 263 L 1118.5 263 L 1119.5 264 L 1120.5 264 L 1121.5 265 L 1122.5 265 L 1124.5 267 L 1125.5 267 L 1126.5 268 L 1127.5 268 L 1129.5 270 L 1130.5 270 L 1132.5 272 L 1133.5 272 L 1135.5 274 L 1136.5 274 L 1138.5 276 L 1139.5 276 L 1141.5 278 L 1142.5 278 L 1144.5 280 L 1145.5 280 L 1148.5 283 L 1149.5 283 L 1152.5 286 L 1153.5 286 L 1156.5 289 L 1157.5 289 L 1161.5 293 L 1162.5 293 L 1168.5 299 L 1169.5 299 L 1179.5 309 L 1180.5 309 L 1191 319.5 L 1191 320.5 L 1201 330.5 L 1201 331.5 L 1206 336.5 L 1206 337.5 L 1211 342.5 L 1211 343.5 L 1214 346.5 L 1214 347.5 L 1217 350.5 L 1217 351.5 L 1220 354.5 L 1220 355.5 L 1222 357.5 L 1222 358.5 L 1224 360.5 L 1224 361.5 L 1226 363.5 L 1226 364.5 L 1228 366.5 L 1228 367.5 L 1230 369.5 L 1230 370.5 L 1232 372.5 L 1232 373.5 L 1233 374.5 L 1233 375.5 L 1235 377.5 L 1235 378.5 L 1236 379.5 L 1236 380.5 L 1237 381.5 L 1237 382.5 L 1239 384.5 L 1239 385.5 L 1240 386.5 L 1240 387.5 L 1241 388.5 L 1241 389.5 L 1242 390.5 L 1242 391.5 L 1243 392.5 L 1243 393.5 L 1244 394.5 L 1244 395.5 L 1245 396.5 L 1245 397.5 L 1246 398.5 L 1246 399.5 L 1247 400.5 L 1247 401.5 L 1248 402.5 L 1248 403.5 L 1249 404.5 L 1249 405.5 L 1250 406.5 L 1250 407.5 L 1251 408.5 L 1251 409.5 L 1252 410.5 L 1252 412.5 L 1253 413.5 L 1253 414.5 L 1254 415.5 L 1254 416.5 L 1255 417.5 L 1255 419.5 L 1256 420.5 L 1256 421.5 L 1257 422.5 L 1257 424.5 L 1258 425.5 L 1258 426.5 L 1259 427.5 L 1259 429.5 L 1260 430.5 L 1260 432.5 L 1261 433.5 L 1261 435.5 L 1262 436.5 L 1262 437.5 L 1263 438.5 L 1263 441.5 L 1264 442.5 L 1264 444.5 L 1265 445.5 L 1265 447.5 L 1266 448.5 L 1266 450.5 L 1267 451.5 L 1267 454.5 L 1268 455.5 L 1268 458.5 L 1269 459.5 L 1269 462.5 L 1270 463.5 L 1270 466.5 L 1271 467.5 L 1271 470.5 L 1272 471.5 L 1272 475.5 L 1273 476.5 L 1273 480.5 L 1274 481.5 L 1274 485.5 L 1275 486.5 L 1275 492.5 L 1276 493.5 L 1276 499.5 L 1277 500.5 L 1277 508.5 L 1278 509.5 L 1278 521.5 L 1279 522.5 L 1279 557.5 L 1278 558.5 L 1278 570.5 L 1277 571.5 L 1277 579.5 L 1276 580.5 L 1276 586.5 L 1275 587.5 L 1275 593.5 L 1274 594.5 L 1274 598.5 L 1273 599.5 L 1273 603.5 L 1272 604.5 L 1272 608.5 L 1271 609.5 L 1271 612.5 L 1270 613.5 L 1270 616.5 L 1269 617.5 L 1269 620.5 L 1268 621.5 L 1268 624.5 L 1267 625.5 L 1267 628.5 L 1266 629.5 L 1266 631.5 L 1265 632.5 L 1265 634.5 L 1264 635.5 L 1264 637.5 L 1263 638.5 L 1263 640.5 L 1262 641.5 L 1262 643.5 L 1261 644.5 L 1261 646.5 L 1260 647.5 L 1260 649.5 L 1259 650.5 L 1259 652.5 L 1258 653.5 L 1258 654.5 L 1257 655.5 L 1257 657.5 L 1256 658.5 L 1256 659.5 L 1255 660.5 L 1255 662.5 L 1254 663.5 L 1254 664.5 L 1253 665.5 L 1253 666.5 L 1252 667.5 L 1252 669.5 L 1251 670.5 L 1251 671.5 L 1250 672.5 L 1250 673.5 L 1249 674.5 L 1249 675.5 L 1248 676.5 L 1248 677.5 L 1247 678.5 L 1247 679.5 L 1246 680.5 L 1246 681.5 L 1245 682.5 L 1245 683.5 L 1244 684.5 L 1244 685.5 L 1243 686.5 L 1243 687.5 L 1242 688.5 L 1242 689.5 L 1241 690.5 L 1241 691.5 L 1240 692.5 L 1240 693.5 L 1239 694.5 L 1239 695.5 L 1237 697.5 L 1237 698.5 L 1236 699.5 L 1236 700.5 L 1235 701.5 L 1235 702.5 L 1233 704.5 L 1233 705.5 L 1232 706.5 L 1232 707.5 L 1230 709.5 L 1230 710.5 L 1228 712.5 L 1228 713.5 L 1226 715.5 L 1226 716.5 L 1224 718.5 L 1224 719.5 L 1222 721.5 L 1222 722.5 L 1220 724.5 L 1220 725.5 L 1217 728.5 L 1217 729.5 L 1214 732.5 L 1214 733.5 L 1210 737.5 L 1210 738.5 L 1206 742.5 L 1206 743.5 L 1201 748.5 L 1201 749.5 L 1191 759.5 L 1191 760.5 L 1181.5 770 L 1180.5 770 L 1169.5 781 L 1168.5 781 L 1163.5 786 L 1162.5 786 L 1158.5 790 L 1157.5 790 L 1153.5 794 L 1152.5 794 L 1149.5 797 L 1148.5 797 L 1145.5 800 L 1144.5 800 L 1142.5 802 L 1141.5 802 L 1139.5 804 L 1138.5 804 L 1136.5 806 L 1135.5 806 L 1133.5 808 L 1132.5 808 L 1130.5 810 L 1129.5 810 L 1128.5 811 L 1127.5 811 L 1125.5 813 L 1124.5 813 L 1122.5 815 L 1121.5 815 L 1120.5 816 L 1119.5 816 L 1118.5 817 L 1117.5 817 L 1115.5 819 L 1114.5 819 L 1113.5 820 L 1112.5 820 L 1111.5 821 L 1110.5 821 L 1109.5 822 L 1108.5 822 L 1107.5 823 L 1106.5 823 L 1105.5 824 L 1104.5 824 L 1103.5 825 L 1102.5 825 L 1101.5 826 L 1100.5 826 L 1099.5 827 L 1098.5 827 L 1097.5 828 L 1096.5 828 L 1095.5 829 L 1094.5 829 L 1093.5 830 L 1092.5 830 L 1091.5 831 L 1090.5 831 L 1089.5 832 L 1087.5 832 L 1086.5 833 L 1085.5 833 L 1084.5 834 L 1083.5 834 L 1082.5 835 L 1080.5 835 L 1079.5 836 L 1078.5 836 L 1077.5 837 L 1075.5 837 L 1074.5 838 L 1073.5 838 L 1072.5 839 L 1070.5 839 L 1069.5 840 L 1067.5 840 L 1066.5 841 L 1064.5 841 L 1063.5 842 L 1062.5 842 L 1061.5 843 L 1058.5 843 L 1057.5 844 L 1055.5 844 L 1054.5 845 L 1052.5 845 L 1051.5 846 L 1049.5 846 L 1048.5 847 L 1045.5 847 L 1044.5 848 L 1041.5 848 L 1040.5 849 L 1038.5 849 L 1037.5 850 L 1033.5 850 L 1032.5 851 L 1029.5 851 L 1028.5 852 L 1024.5 852 L 1023.5 853 L 1019.5 853 L 1018.5 854 L 1014.5 854 L 1013.5 855 L 1008.5 855 L 1007.5 856 L 1000.5 856 L 999.5 857 L 991.5 857 L 990.5 858 L 978.5 858 L 977.5 859 L 942.5 859 L 941.5 858 L 929.5 858 L 928.5 857 L 920.5 857 L 919.5 856 L 913.5 856 L 912.5 855 L 906.5 855 L 905.5 854 L 901.5 854 L 900.5 853 L 896.5 853 L 895.5 852 L 891.5 852 L 890.5 851 L 887.5 851 L 886.5 850 L 883.5 850 L 882.5 849 L 879.5 849 L 878.5 848 L 875.5 848 L 874.5 847 L 871.5 847 L 870.5 846 L 868.5 846 L 867.5 845 L 865.5 845 L 864.5 844 L 862.5 844 L 861.5 843 L 859.5 843 L 858.5 842 L 856.5 842 L 855.5 841 L 853.5 841 L 852.5 840 L 850.5 840 L 849.5 839 L 847.5 839 L 846.5 838 L 845.5 838 L 844.5 837 L 842.5 837 L 841.5 836 L 840.5 836 L 839.5 835 L 837.5 835 L 836.5 834 L 835.5 834 L 834.5 833 L 833.5 833 L 832.5 832 L 830.5 832 L 829.5 831 L 828.5 831 L 827.5 830 L 826.5 830 L 825.5 829 L 824.5 829 L 823.5 828 L 822.5 828 L 821.5 827 L 820.5 827 L 819.5 826 L 818.5 826 L 817.5 825 L 816.5 825 L 815.5 824 L 814.5 824 L 813.5 823 L 812.5 823 L 811.5 822 L 810.5 822 L 809.5 821 L 808.5 821 L 807.5 820 L 806.5 820 L 805.5 819 L 804.5 819 L 802.5 817 L 801.5 817 L 800.5 816 L 799.5 816 L 798.5 815 L 797.5 815 L 795.5 813 L 794.5 813 L 792.5 811 L 791.5 811 L 790.5 810 L 789.5 810 L 787.5 808 L 786.5 808 L 784.5 806 L 783.5 806 L 781.5 804 L 780.5 804 L 778.5 802 L 777.5 802 L 775.5 800 L 774.5 800 L 771.5 797 L 770.5 797 L 767.5 794 L 766.5 794 L 763.5 791 L 762.5 791 L 757.5 786 L 756.5 786 L 751.5 781 L 750.5 781 L 740.5 771 L 739.5 771 L 730 761.5 L 730 760.5 L 719 749.5 L 719 748.5 L 714 743.5 L 714 742.5 L 710 738.5 L 710 737.5 L 706 733.5 L 706 732.5 L 703 729.5 L 703 728.5 L 700 725.5 L 700 724.5 L 698 722.5 L 698 721.5 L 696 719.5 L 696 718.5 L 694 716.5 L 694 715.5 L 692 713.5 L 692 712.5 L 690 710.5 L 690 709.5 L 689 708.5 L 689 707.5 L 687 705.5 L 687 704.5 L 685 702.5 L 685 701.5 L 684 700.5 L 684 699.5 L 683 698.5 L 683 697.5 L 681 695.5 L 681 694.5 L 680 693.5 L 680 692.5 L 679 691.5 L 679 690.5 L 678 689.5 L 678 688.5 L 677 687.5 L 677 686.5 L 676 685.5 L 676 684.5 L 675 683.5 L 675 682.5 L 674 681.5 L 674 680.5 L 673 679.5 L 673 678.5 L 672 677.5 L 672 676.5 L 671 675.5 L 671 674.5 L 670 673.5 L 670 672.5 L 669 671.5 L 669 670.5 L 668 669.5 L 668 667.5 L 667 666.5 L 667 665.5 L 666 664.5 L 666 663.5 L 665 662.5 L 665 660.5 L 664 659.5 L 664 658.5 L 663 657.5 L 663 655.5 L 662 654.5 L 662 653.5 L 661 652.5 L 661 650.5 L 660 649.5 L 660 647.5 L 659 646.5 L 659 644.5 L 658 643.5 L 658 642.5 L 657 641.5 L 657 638.5 L 656 637.5 L 656 635.5 L 655 634.5 L 655 632.5 L 654 631.5 L 654 629.5 L 653 628.5 L 653 625.5 L 652 624.5 L 652 621.5 L 651 620.5 L 651 618.5 L 650 617.5 L 650 613.5 L 649 612.5 L 649 609.5 L 648 608.5 L 648 604.5 L 647 603.5 L 647 599.5 L 646 598.5 L 646 594.5 L 645 593.5 L 645 587.5 L 644 586.5 L 644 580.5 L 643 579.5 L 643 571.5 L 642 570.5 L 642 558.5 L 641 557.5 L 641 522.5 L 642 521.5 L 642 509.5 L 643 508.5 L 643 500.5 L 644 499.5 L 644 492.5 L 645 491.5 L 645 486.5 L 646 485.5 L 646 481.5 L 647 480.5 L 647 476.5 L 648 475.5 L 648 471.5 L 649 470.5 L 649 467.5 L 650 466.5 L 650 462.5 L 651 461.5 L 651 459.5 L 652 458.5 L 652 455.5 L 653 454.5 L 653 451.5 L 654 450.5 L 654 448.5 L 655 447.5 L 655 445.5 L 656 444.5 L 656 442.5 L 657 441.5 L 657 438.5 L 658 437.5 L 658 436.5 L 659 435.5 L 659 433.5 L 660 432.5 L 660 430.5 L 661 429.5 L 661 427.5 L 662 426.5 L 662 425.5 L 663 424.5 L 663 422.5 L 664 421.5 L 664 420.5 L 665 419.5 L 665 417.5 L 666 416.5 L 666 415.5 L 667 414.5 L 667 413.5 L 668 412.5 L 668 410.5 L 669 409.5 L 669 408.5 L 670 407.5 L 670 406.5 L 671 405.5 L 671 404.5 L 672 403.5 L 672 402.5 L 673 401.5 L 673 400.5 L 674 399.5 L 674 398.5 L 675 397.5 L 675 396.5 L 676 395.5 L 676 394.5 L 677 393.5 L 677 392.5 L 678 391.5 L 678 390.5 L 679 389.5 L 679 388.5 L 680 387.5 L 680 386.5 L 681 385.5 L 681 384.5 L 683 382.5 L 683 381.5 L 684 380.5 L 684 379.5 L 685 378.5 L 685 377.5 L 687 375.5 L 687 374.5 L 688 373.5 L 688 372.5 L 690 370.5 L 690 369.5 L 692 367.5 L 692 366.5 L 694 364.5 L 694 363.5 L 696 361.5 L 696 360.5 L 698 358.5 L 698 357.5 L 700 355.5 L 700 354.5 L 703 351.5 L 703 350.5 L 706 347.5 L 706 346.5 L 709 343.5 L 709 342.5 L 713 338.5 L 713 337.5 L 719 331.5 L 719 330.5 L 730 319.5 L 730 318.5 L 739.5 309 L 740.5 309 L 750.5 299 L 751.5 299 L 756.5 294 L 757.5 294 L 762.5 289 L 763.5 289 L 766.5 286 L 767.5 286 L 770.5 283 L 771.5 283 L 774.5 280 L 775.5 280 L 777.5 278 L 778.5 278 L 780.5 276 L 781.5 276 L 783.5 274 L 784.5 274 L 786.5 272 L 787.5 272 L 789.5 270 L 790.5 270 L 792.5 268 L 793.5 268 L 794.5 267 L 795.5 267 L 797.5 265 L 798.5 265 L 799.5 264 L 800.5 264 L 801.5 263 L 802.5 263 L 804.5 261 L 805.5 261 L 806.5 260 L 807.5 260 L 808.5 259 L 809.5 259 L 810.5 258 L 811.5 258 L 812.5 257 L 813.5 257 L 814.5 256 L 815.5 256 L 816.5 255 L 817.5 255 L 818.5 254 L 819.5 254 L 820.5 253 L 821.5 253 L 822.5 252 L 823.5 252 L 824.5 251 L 825.5 251 L 826.5 250 L 827.5 250 L 828.5 249 L 829.5 249 L 830.5 248 L 832.5 248 L 833.5 247 L 834.5 247 L 835.5 246 L 836.5 246 L 837.5 245 L 839.5 245 L 840.5 244 L 841.5 244 L 842.5 243 L 844.5 243 L 845.5 242 L 846.5 242 L 847.5 241 L 849.5 241 L 850.5 240 L 852.5 240 L 853.5 239 L 855.5 239 L 856.5 238 L 857.5 238 L 858.5 237 L 861.5 237 L 862.5 236 L 864.5 236 L 865.5 235 L 867.5 235 L 868.5 234 L 870.5 234 L 871.5 233 L 874.5 233 L 875.5 232 L 878.5 232 L 879.5 231 L 882.5 231 L 883.5 230 L 886.5 230 L 887.5 229 L 890.5 229 L 891.5 228 L 895.5 228 L 896.5 227 L 900.5 227 L 901.5 226 L 905.5 226 L 906.5 225 L 912.5 225 L 913.5 224 L 919.5 224 L 920.5 223 L 928.5 223 L 929.5 222 L 941.5 222 L 942.5 221 Z M 862 326 L 861 327 L 854 327 L 853 328 L 851 328 L 850 329 L 848 329 L 847 330 L 845 330 L 844 331 L 843 331 L 842 332 L 841 332 L 839 334 L 838 334 L 836 336 L 835 336 L 827 344 L 827 345 L 825 347 L 825 348 L 823 350 L 823 351 L 822 352 L 822 354 L 821 355 L 821 356 L 820 357 L 820 359 L 819 360 L 819 363 L 818 364 L 818 745 L 819 746 L 819 749 L 820 750 L 820 752 L 821 753 L 821 754 L 822 755 L 822 757 L 823 758 L 823 759 L 825 761 L 825 762 L 827 764 L 827 765 L 835 772 L 836 772 L 838 774 L 839 774 L 841 776 L 842 776 L 843 777 L 844 777 L 845 778 L 847 778 L 848 779 L 850 779 L 851 780 L 854 780 L 855 781 L 863 781 L 864 782 L 1047 782 L 1048 781 L 1054 781 L 1055 780 L 1058 780 L 1059 779 L 1061 779 L 1062 778 L 1064 778 L 1065 777 L 1066 777 L 1067 776 L 1068 776 L 1070 774 L 1071 774 L 1074 771 L 1075 771 L 1080 766 L 1080 765 L 1083 762 L 1083 761 L 1084 760 L 1084 759 L 1085 758 L 1085 757 L 1086 756 L 1086 755 L 1087 754 L 1087 752 L 1088 751 L 1088 749 L 1089 748 L 1089 744 L 1090 743 L 1090 678 L 1090 677 Q 1090 677 1089 677 L 1088 678 L 1087 678 L 1086 679 L 1084 679 L 1083 680 L 1082 680 L 1081 681 L 1079 681 L 1078 682 L 1077 682 L 1076 683 L 1074 683 L 1073 684 L 1070 684 L 1069 685 L 1067 685 L 1066 686 L 1063 686 L 1062 687 L 1059 687 L 1058 688 L 1054 688 L 1053 689 L 1047 689 L 1046 690 L 1034 690 L 1033 691 L 1030 691 L 1029 690 L 1015 690 L 1014 689 L 1008 689 L 1007 688 L 1003 688 L 1002 687 L 998 687 L 997 686 L 995 686 L 994 685 L 991 685 L 990 684 L 988 684 L 987 683 L 985 683 L 984 682 L 982 682 L 981 681 L 980 681 L 979 680 L 977 680 L 976 679 L 975 679 L 974 678 L 973 678 L 972 677 L 971 677 L 970 676 L 969 676 L 968 675 L 967 675 L 966 674 L 965 674 L 964 673 L 963 673 L 962 672 L 961 672 L 960 671 L 959 671 L 957 669 L 956 669 L 954 667 L 953 667 L 950 664 L 949 664 L 946 661 L 945 661 L 939 655 L 938 655 L 930 648 L 930 647 L 924 641 L 924 640 L 920 636 L 920 635 L 918 633 L 918 632 L 915 629 L 915 628 L 914 627 L 914 626 L 912 624 L 912 623 L 911 622 L 911 621 L 909 619 L 909 618 L 908 617 L 908 616 L 907 615 L 907 614 L 906 613 L 906 612 L 905 611 L 905 609 L 904 608 L 904 607 L 903 606 L 903 605 L 902 604 L 902 602 L 901 601 L 901 599 L 900 598 L 900 596 L 899 595 L 899 593 L 898 592 L 898 590 L 897 589 L 897 586 L 896 585 L 896 581 L 895 580 L 895 576 L 894 575 L 894 569 L 893 568 L 893 539 L 894 538 L 894 532 L 895 531 L 895 527 L 896 526 L 896 523 L 897 522 L 897 519 L 898 518 L 898 516 L 899 515 L 899 512 L 900 511 L 900 510 L 901 509 L 901 507 L 902 506 L 902 505 L 903 504 L 903 502 L 904 501 L 904 500 L 905 499 L 905 498 L 906 497 L 906 496 L 907 495 L 907 494 L 908 493 L 908 492 L 909 491 L 909 490 L 911 488 L 911 487 L 912 486 L 912 485 L 914 483 L 914 482 L 916 480 L 916 479 L 919 476 L 919 475 L 922 472 L 922 471 L 927 466 L 927 465 L 945 447 L 946 447 L 950 443 L 951 443 L 954 440 L 955 440 L 957 438 L 958 438 L 960 436 L 961 436 L 963 434 L 964 434 L 965 433 L 966 433 L 967 432 L 968 432 L 969 431 L 970 431 L 971 430 L 972 430 L 973 429 L 974 429 L 975 428 L 976 428 L 977 427 L 978 427 L 979 426 L 981 426 L 982 425 L 983 425 L 984 424 L 986 424 L 987 423 L 989 423 L 990 422 L 993 422 L 994 421 L 997 421 L 998 420 L 1002 420 L 1003 419 L 1008 419 L 1009 418 L 1019 418 L 1020 417 L 1033 417 L 1034 418 L 1045 418 L 1046 419 L 1052 419 L 1053 420 L 1057 420 L 1058 421 L 1062 421 L 1063 422 L 1066 422 L 1067 423 L 1070 423 L 1071 424 L 1073 424 L 1074 425 L 1077 425 L 1078 426 L 1080 426 L 1081 427 L 1083 427 L 1084 428 L 1086 428 L 1087 429 L 1089 429 L 1090 430 L 1090 430 L 1090 366 L 1089 365 L 1089 361 L 1088 360 L 1088 358 L 1087 357 L 1087 355 L 1086 354 L 1086 353 L 1085 352 L 1085 351 L 1084 350 L 1084 349 L 1083 348 L 1083 347 L 1080 344 L 1080 343 L 1074 336 L 1073 336 L 1071 334 L 1070 334 L 1068 332 L 1067 332 L 1066 331 L 1065 331 L 1064 330 L 1062 330 L 1061 329 L 1059 329 L 1058 328 L 1055 328 L 1054 327 L 1048 327 L 1047 326 L 862 326 Z M 1028 432 L 1027 433 L 1015 433 L 1014 434 L 1008 434 L 1007 435 L 1004 435 L 1003 436 L 1000 436 L 999 437 L 996 437 L 995 438 L 993 438 L 992 439 L 990 439 L 989 440 L 987 440 L 986 441 L 985 441 L 984 442 L 982 442 L 981 443 L 980 443 L 979 444 L 978 444 L 977 445 L 976 445 L 975 446 L 974 446 L 973 447 L 972 447 L 971 448 L 970 448 L 968 450 L 967 450 L 965 452 L 964 452 L 963 453 L 962 453 L 959 456 L 958 456 L 955 459 L 954 459 L 945 468 Q 943 468 943 468 Q 943 468 943 470 L 935 478 L 935 479 L 932 482 L 932 483 L 929 486 L 929 487 L 928 488 L 928 489 L 926 491 L 926 492 L 925 493 L 925 494 L 923 496 L 923 497 L 922 498 L 922 499 L 921 500 L 921 501 L 920 502 L 920 503 L 919 504 L 919 505 L 918 506 L 918 508 L 917 509 L 917 510 L 916 511 L 916 513 L 915 514 L 915 516 L 914 517 L 914 519 L 913 520 L 913 523 L 912 524 L 912 527 L 911 528 L 911 532 L 910 533 L 910 538 L 909 539 L 909 552 L 908 553 L 908 555 L 909 556 L 909 569 L 910 570 L 910 576 L 911 577 L 911 581 L 912 582 L 912 585 L 913 586 L 913 588 L 914 589 L 914 592 L 915 593 L 915 595 L 916 596 L 916 597 L 917 598 L 917 600 L 918 601 L 918 602 L 919 603 L 919 604 L 920 605 L 920 607 L 921 608 L 921 609 L 922 610 L 922 611 L 924 613 L 924 614 L 925 615 L 925 616 L 926 617 L 926 618 L 928 620 L 928 621 L 930 623 L 930 624 L 933 627 L 933 628 L 937 632 L 937 633 L 952 647 L 953 647 L 957 651 L 958 651 L 960 653 L 961 653 L 963 655 L 964 655 L 966 657 L 967 657 L 969 659 L 970 659 L 971 660 L 972 660 L 973 661 L 974 661 L 975 662 L 976 662 L 977 663 L 978 663 L 979 664 L 980 664 L 981 665 L 982 665 L 983 666 L 985 666 L 986 667 L 987 667 L 988 668 L 990 668 L 991 669 L 993 669 L 994 670 L 996 670 L 997 671 L 1000 671 L 1001 672 L 1004 672 L 1005 673 L 1009 673 L 1010 674 L 1016 674 L 1017 675 L 1043 675 L 1044 674 L 1050 674 L 1051 673 L 1055 673 L 1056 672 L 1060 672 L 1061 671 L 1063 671 L 1064 670 L 1067 670 L 1068 669 L 1070 669 L 1071 668 L 1072 668 L 1073 667 L 1075 667 L 1076 666 L 1077 666 L 1078 665 L 1080 665 L 1081 664 L 1082 664 L 1083 663 L 1084 663 L 1085 662 L 1086 662 L 1087 661 L 1088 661 L 1089 660 L 1090 660 L 1092 658 L 1093 658 L 1094 657 L 1095 657 L 1097 655 L 1098 655 L 1101 652 L 1102 652 L 1105 649 L 1106 649 L 1111 644 L 1112 644 L 1120 636 L 1120 635 L 1125 630 L 1125 629 L 1128 626 L 1128 625 L 1131 622 L 1131 621 L 1133 619 L 1133 618 L 1134 617 L 1134 616 L 1136 614 L 1136 613 L 1137 612 L 1137 611 L 1138 610 L 1138 609 L 1139 608 L 1139 607 L 1140 606 L 1140 605 L 1141 604 L 1141 603 L 1142 602 L 1142 600 L 1143 599 L 1143 598 L 1144 597 L 1144 595 L 1145 594 L 1145 592 L 1146 591 L 1146 588 L 1147 587 L 1147 585 L 1148 584 L 1148 581 L 1149 580 L 1149 575 L 1150 574 L 1150 569 L 1151 568 L 1151 541 L 1150 540 L 1150 534 L 1149 533 L 1149 529 L 1148 528 L 1148 525 L 1147 524 L 1147 521 L 1146 520 L 1146 518 L 1145 517 L 1145 515 L 1144 514 L 1144 512 L 1143 511 L 1143 510 L 1142 509 L 1142 507 L 1141 506 L 1141 505 L 1140 504 L 1140 503 L 1139 502 L 1139 501 L 1138 500 L 1138 499 L 1137 498 L 1137 497 L 1136 496 L 1136 495 L 1135 494 L 1135 493 L 1133 491 L 1133 490 L 1131 488 L 1131 487 L 1129 485 L 1129 484 L 1127 482 L 1127 481 L 1123 477 L 1123 476 L 1109 461 L 1108 461 L 1104 457 L 1103 457 L 1100 454 L 1099 454 L 1097 452 L 1096 452 L 1095 451 L 1094 451 L 1092 449 L 1091 449 L 1090 448 L 1089 448 L 1087 446 L 1086 446 L 1085 445 L 1084 445 L 1083 444 L 1081 444 L 1080 443 L 1079 443 L 1078 442 L 1077 442 L 1076 441 L 1074 441 L 1073 440 L 1072 440 L 1071 439 L 1069 439 L 1068 438 L 1065 438 L 1064 437 L 1062 437 L 1061 436 L 1058 436 L 1057 435 L 1053 435 L 1052 434 L 1046 434 L 1045 433 L 1033 433 L 1032 432 L 1028 432 Z "/><path fill="rgb(95,68,37)" stroke="rgb(95,68,37)" stroke-width="1" opacity="1" d="M 858.5 357 L 1048.5 357 L 1049.5 358 L 1051.5 358 L 1053.5 360 L 1054.5 360 L 1057 362.5 L 1057 363.5 L 1058 364.5 L 1058 365.5 L 1059 366.5 L 1059 370.5 L 1059 371 L 1058.5 371 L 848.5 371 L 848 371 Q 848 370.8 848 369.5 L 849 368.5 L 849 366.5 L 850 365.5 L 850 364.5 L 851 363.5 L 851 362.5 L 854.5 359 L 855.5 359 L 856.5 358 L 857.5 358 L 858.5 357 Z "/><path fill="rgb(95,68,37)" stroke="rgb(95,68,37)" stroke-width="1" opacity="1" d="M 1027.5 474 L 1032.5 474 L 1033.5 475 L 1035.5 475 L 1037.5 477 L 1038.5 477 L 1040 478.5 L 1040 479.5 L 1042 481.5 L 1042 484.5 L 1043 485.5 L 1043 487.5 L 1047.5 492 L 1048.5 492 L 1049.5 493 L 1050.5 493 L 1052.5 495 L 1053.5 495 L 1063 504.5 L 1063 505.5 L 1064 506.5 L 1064 507.5 L 1066 509.5 L 1066 511.5 L 1067 512.5 L 1067 513.5 L 1068 514.5 L 1068 517.5 L 1069 518.5 L 1069 523.5 L 1070 524.5 L 1070 527.5 L 1069 528.5 L 1069 531.5 L 1068 532.5 L 1068 533.5 L 1067 534.5 L 1067 535.5 L 1064.5 538 L 1063.5 538 L 1062.5 539 L 1061.5 539 L 1060.5 540 L 1051.5 540 L 1050.5 539 L 1049.5 539 L 1046 535.5 L 1046 534.5 L 1044 532.5 L 1044 529.5 L 1043 528.5 L 1043 524.5 L 1042 523.5 L 1042 522.5 L 1041 521.5 L 1041 520.5 L 1039 518.5 Q 1039 517.3 1039 517 Q 1038.8 517 1037.5 517 L 1035.5 515 L 1034.5 515 L 1033.5 514 L 1027.5 514 L 1026.5 515 L 1024.5 515 L 1023.5 516 L 1022.5 516 L 1019 519.5 L 1019 520.5 L 1018 521.5 L 1018 522.5 L 1017 523.5 L 1017 531.5 L 1018 532.5 L 1018 533.5 L 1020 535.5 Q 1020 536.8 1020 537 Q 1020.3 537 1021.5 537 L 1023.5 539 L 1024.5 539 L 1025.5 540 L 1028.5 540 L 1029.5 541 L 1037.5 541 L 1038.5 542 L 1041.5 542 L 1042.5 543 L 1044.5 543 L 1045.5 544 L 1046.5 544 L 1047.5 545 L 1048.5 545 L 1049.5 546 L 1050.5 546 L 1052.5 548 L 1053.5 548 L 1062 556.5 L 1062 557.5 L 1064 559.5 L 1064 560.5 L 1065 561.5 L 1065 562.5 L 1066 563.5 L 1066 564.5 L 1067 565.5 L 1067 567.5 L 1068 568.5 L 1068 570.5 L 1069 571.5 L 1069 577.5 L 1070 578.5 L 1070 583.5 L 1069 584.5 L 1069 589.5 L 1068 590.5 L 1068 592.5 L 1067 593.5 L 1067 595.5 L 1066 596.5 L 1066 597.5 L 1065 598.5 L 1065 599.5 L 1064 600.5 L 1064 601.5 L 1062 603.5 L 1062 604.5 L 1054.5 612 L 1053.5 612 L 1051.5 614 L 1050.5 614 L 1049.5 615 L 1048.5 615 L 1046.5 617 L 1045.5 617 L 1044 618.5 L 1044 619.5 L 1043 620.5 L 1043 622.5 L 1042 623.5 L 1042 625.5 L 1041 626.5 L 1041 627.5 L 1036.5 632 L 1035.5 632 L 1034.5 633 L 1025.5 633 L 1024.5 632 L 1023.5 632 L 1018 626.5 L 1018 625.5 L 1017 624.5 L 1017 621.5 L 1016 620.5 L 1016 619.5 L 1012.5 616 L 1011.5 616 L 1010.5 615 L 1009.5 615 L 1007.5 613 L 1006.5 613 L 997 603.5 L 997 602.5 L 995 600.5 L 995 599.5 L 994 598.5 L 994 597.5 L 993 596.5 L 993 594.5 L 992 593.5 L 992 591.5 L 991 590.5 L 991 586.5 L 990 585.5 L 990 577.5 L 991 576.5 L 991 574.5 L 993 572.5 L 993 571.5 L 994.5 570 L 995.5 570 L 997.5 568 L 999.5 568 L 1000.5 567 L 1005.5 567 L 1006.5 568 L 1008.5 568 L 1009.5 569 L 1010.5 569 L 1014 572.5 L 1014 573.5 L 1015 574.5 L 1015 575.5 L 1016 576.5 L 1016 579.5 L 1017 580.5 L 1017 584.5 L 1018 585.5 L 1018 586.5 L 1019 587.5 L 1019 588.5 L 1021.5 591 L 1022.5 591 L 1023.5 592 L 1024.5 592 L 1025.5 593 L 1027.5 593 L 1028.5 594 L 1030.5 594 L 1031.5 593 L 1034.5 593 L 1035.5 592 L 1036.5 592 L 1041 587.5 L 1041 586.5 L 1042 585.5 L 1042 584.5 L 1043 583.5 L 1043 577.5 L 1042 576.5 L 1042 574.5 L 1040 572.5 Q 1040 571.3 1040 571 Q 1039.8 571 1038.5 571 L 1036.5 569 L 1035.5 569 L 1034.5 568 L 1033.5 568 L 1032.5 567 L 1024.5 567 L 1023.5 566 L 1019.5 566 L 1018.5 565 L 1016.5 565 L 1015.5 564 L 1013.5 564 L 1012.5 563 L 1011.5 563 L 1009.5 561 L 1008.5 561 L 1006.5 559 L 1005.5 559 L 997 550.5 L 997 549.5 L 995 547.5 L 995 546.5 L 994 545.5 L 994 544.5 L 993 543.5 L 993 541.5 L 992 540.5 L 992 539.5 L 991 538.5 L 991 534.5 L 990 533.5 L 990 521.5 L 991 520.5 L 991 516.5 L 992 515.5 L 992 513.5 L 993 512.5 L 993 511.5 L 994 510.5 L 994 509.5 L 995 508.5 L 995 507.5 L 996 506.5 L 996 505.5 L 999 502.5 L 999 501.5 L 1003.5 497 L 1004.5 497 L 1007.5 494 L 1008.5 494 L 1009.5 493 L 1010.5 493 L 1012.5 491 L 1013.5 491 L 1016 488.5 L 1016 487.5 L 1017 486.5 L 1017 482.5 L 1018 481.5 L 1018 480.5 L 1022.5 476 L 1023.5 476 L 1024.5 475 L 1026.5 475 L 1027.5 474 Z "/><path fill="rgb(95,68,37)" stroke="rgb(95,68,37)" stroke-width="1" opacity="1" d="M 848 736 L 848.5 736 L 1058.5 736 Q 1059.3 735.8 1059 736.5 L 1059 741.5 L 1058 742.5 L 1058 743.5 L 1057 744.5 L 1057 745.5 L 1054.5 748 L 1053.5 748 L 1051.5 750 L 1050.5 750 L 1049.5 751 L 859.5 751 L 858.5 750 L 857.5 750 L 856.5 749 L 855.5 749 L 853.5 747 L 852.5 747 L 851 745.5 L 851 744.5 L 849 742.5 L 849 740.5 L 848 739.5 L 848 736.5 L 848 736 Z "/><path fill="rgb(255,255,255)" stroke="rgb(255,255,255)" stroke-width="1" opacity="1" d="M 861.5 326 L 1046.5 326 L 1047.5 327 L 1053.5 327 L 1054.5 328 L 1057.5 328 L 1058.5 329 L 1060.5 329 L 1061.5 330 L 1063.5 330 L 1064.5 331 L 1065.5 331 L 1066.5 332 L 1067.5 332 L 1069.5 334 L 1070.5 334 L 1072.5 336 L 1073.5 336 L 1080 342.5 L 1080 343.5 L 1083 346.5 L 1083 347.5 L 1084 348.5 L 1084 349.5 L 1085 350.5 L 1085 351.5 L 1086 352.5 L 1086 353.5 L 1087 354.5 L 1087 356.5 L 1088 357.5 L 1088 359.5 L 1089 360.5 L 1089 364.5 L 1090 365.5 L 1090 429.5 L 1089.5 430 L 1088.5 429 L 1086.5 429 L 1085.5 428 L 1083.5 428 L 1082.5 427 L 1080.5 427 L 1079.5 426 L 1077.5 426 L 1076.5 425 L 1073.5 425 L 1072.5 424 L 1070.5 424 L 1069.5 423 L 1066.5 423 L 1065.5 422 L 1062.5 422 L 1061.5 421 L 1057.5 421 L 1056.5 420 L 1052.5 420 L 1051.5 419 L 1045.5 419 L 1044.5 418 L 1033.5 418 L 1032.5 417 L 1019.5 417 L 1018.5 418 L 1008.5 418 L 1007.5 419 L 1002.5 419 L 1001.5 420 L 997.5 420 L 996.5 421 L 993.5 421 L 992.5 422 L 989.5 422 L 988.5 423 L 986.5 423 L 985.5 424 L 983.5 424 L 982.5 425 L 981.5 425 L 980.5 426 L 978.5 426 L 977.5 427 L 976.5 427 L 975.5 428 L 974.5 428 L 973.5 429 L 972.5 429 L 971.5 430 L 970.5 430 L 969.5 431 L 968.5 431 L 967.5 432 L 966.5 432 L 965.5 433 L 964.5 433 L 963.5 434 L 962.5 434 L 960.5 436 L 959.5 436 L 957.5 438 L 956.5 438 L 954.5 440 L 953.5 440 L 950.5 443 L 949.5 443 L 945.5 447 L 944.5 447 L 927 464.5 L 927 465.5 L 922 470.5 L 922 471.5 L 919 474.5 L 919 475.5 L 916 478.5 L 916 479.5 L 914 481.5 L 914 482.5 L 912 484.5 L 912 485.5 L 911 486.5 L 911 487.5 L 909 489.5 L 909 490.5 L 908 491.5 L 908 492.5 L 907 493.5 L 907 494.5 L 906 495.5 L 906 496.5 L 905 497.5 L 905 498.5 L 904 499.5 L 904 500.5 L 903 501.5 L 903 503.5 L 902 504.5 L 902 505.5 L 901 506.5 L 901 508.5 L 900 509.5 L 900 510.5 L 899 511.5 L 899 514.5 L 898 515.5 L 898 517.5 L 897 518.5 L 897 521.5 L 896 522.5 L 896 525.5 L 895 526.5 L 895 530.5 L 894 531.5 L 894 537.5 L 893 538.5 L 893 567.5 L 894 568.5 L 894 574.5 L 895 575.5 L 895 579.5 L 896 580.5 L 896 584.5 L 897 585.5 L 897 588.5 L 898 589.5 L 898 591.5 L 899 592.5 L 899 594.5 L 900 595.5 L 900 597.5 L 901 598.5 L 901 600.5 L 902 601.5 L 902 603.5 L 903 604.5 L 903 605.5 L 904 606.5 L 904 607.5 L 905 608.5 L 905 610.5 L 906 611.5 L 906 612.5 L 907 613.5 L 907 614.5 L 908 615.5 L 908 616.5 L 909 617.5 L 909 618.5 L 911 620.5 L 911 621.5 L 912 622.5 L 912 623.5 L 914 625.5 L 914 626.5 L 915 627.5 L 915 628.5 L 918 631.5 L 918 632.5 L 920 634.5 L 920 635.5 L 924 639.5 L 924 640.5 L 930 646.5 L 930 647.5 L 937.5 655 L 938.5 655 L 944.5 661 L 945.5 661 L 948.5 664 L 949.5 664 L 952.5 667 L 953.5 667 L 955.5 669 L 956.5 669 L 958.5 671 L 959.5 671 L 960.5 672 L 961.5 672 L 962.5 673 L 963.5 673 L 964.5 674 L 965.5 674 L 966.5 675 L 967.5 675 L 968.5 676 L 969.5 676 L 970.5 677 L 971.5 677 L 972.5 678 L 973.5 678 L 974.5 679 L 975.5 679 L 976.5 680 L 978.5 680 L 979.5 681 L 980.5 681 L 981.5 682 L 983.5 682 L 984.5 683 L 986.5 683 L 987.5 684 L 989.5 684 L 990.5 685 L 993.5 685 L 994.5 686 L 996.5 686 L 997.5 687 L 1001.5 687 L 1002.5 688 L 1006.5 688 L 1007.5 689 L 1013.5 689 L 1014.5 690 L 1028.5 690 L 1029.5 691 L 1032.5 691 L 1033.5 690 L 1045.5 690 L 1046.5 689 L 1052.5 689 L 1053.5 688 L 1057.5 688 L 1058.5 687 L 1061.5 687 L 1062.5 686 L 1065.5 686 L 1066.5 685 L 1068.5 685 L 1069.5 684 L 1072.5 684 L 1073.5 683 L 1075.5 683 L 1076.5 682 L 1077.5 682 L 1078.5 681 L 1080.5 681 L 1081.5 680 L 1082.5 680 L 1083.5 679 L 1085.5 679 L 1086.5 678 L 1087.5 678 L 1088.5 677 Q 1089.8 677 1090 677 L 1090 677.5 L 1090 742.5 L 1089 743.5 L 1089 747.5 L 1088 748.5 L 1088 750.5 L 1087 751.5 L 1087 753.5 L 1086 754.5 L 1086 755.5 L 1085 756.5 L 1085 757.5 L 1084 758.5 L 1084 759.5 L 1083 760.5 L 1083 761.5 L 1080 764.5 L 1080 765.5 L 1074.5 771 L 1073.5 771 L 1070.5 774 L 1069.5 774 L 1067.5 776 L 1066.5 776 L 1065.5 777 L 1064.5 777 L 1063.5 778 L 1061.5 778 L 1060.5 779 L 1058.5 779 L 1057.5 780 L 1054.5 780 L 1053.5 781 L 1047.5 781 L 1046.5 782 L 863.5 782 L 862.5 781 L 854.5 781 L 853.5 780 L 850.5 780 L 849.5 779 L 847.5 779 L 846.5 778 L 844.5 778 L 843.5 777 L 842.5 777 L 841.5 776 L 840.5 776 L 838.5 774 L 837.5 774 L 835.5 772 L 834.5 772 L 827 764.5 L 827 763.5 L 825 761.5 L 825 760.5 L 823 758.5 L 823 757.5 L 822 756.5 L 822 754.5 L 821 753.5 L 821 752.5 L 820 751.5 L 820 749.5 L 819 748.5 L 819 745.5 L 818 744.5 L 818 363.5 L 819 362.5 L 819 359.5 L 820 358.5 L 820 356.5 L 821 355.5 L 821 354.5 L 822 353.5 L 822 351.5 L 823 350.5 L 823 349.5 L 825 347.5 L 825 346.5 L 827 344.5 L 827 343.5 L 834.5 336 L 835.5 336 L 837.5 334 L 838.5 334 L 840.5 332 L 841.5 332 L 842.5 331 L 843.5 331 L 844.5 330 L 846.5 330 L 847.5 329 L 849.5 329 L 850.5 328 L 852.5 328 L 853.5 327 L 860.5 327 L 861.5 326 Z M 859 357 L 858 358 L 857 358 L 856 359 L 855 359 L 851 363 L 851 364 L 850 365 L 850 366 L 849 367 L 849 369 L 848 370 Q 848 371 848 371 L 849 371 L 1059 371 L 1059 371 L 1059 371 L 1059 367 L 1058 366 L 1058 365 L 1057 364 L 1057 363 L 1055 360 L 1054 360 L 1052 358 L 1050 358 L 1049 357 L 859 357 Z M 848 736 L 848 737 L 848 740 L 849 741 L 849 743 L 851 745 L 851 746 L 853 747 L 854 747 L 856 749 L 857 749 L 858 750 L 859 750 L 860 751 L 1050 751 L 1051 750 L 1052 750 L 1054 748 L 1055 748 L 1057 746 L 1057 745 L 1058 744 L 1058 743 L 1059 742 L 1059 737 Q 1059 736 1059 736 L 849 736 L 848 736 Z "/><path fill="rgb(255,255,255)" stroke="rgb(255,255,255)" stroke-width="1" opacity="1" d="M 1027.5 432 L 1031.5 432 L 1032.5 433 L 1044.5 433 L 1045.5 434 L 1051.5 434 L 1052.5 435 L 1056.5 435 L 1057.5 436 L 1060.5 436 L 1061.5 437 L 1063.5 437 L 1064.5 438 L 1067.5 438 L 1068.5 439 L 1070.5 439 L 1071.5 440 L 1072.5 440 L 1073.5 441 L 1075.5 441 L 1076.5 442 L 1077.5 442 L 1078.5 443 L 1079.5 443 L 1080.5 444 L 1082.5 444 L 1083.5 445 L 1084.5 445 L 1085.5 446 L 1086.5 446 L 1088.5 448 L 1089.5 448 L 1090.5 449 L 1091.5 449 L 1093.5 451 L 1094.5 451 L 1095.5 452 L 1096.5 452 L 1098.5 454 L 1099.5 454 L 1102.5 457 L 1103.5 457 L 1107.5 461 L 1108.5 461 L 1123 475.5 L 1123 476.5 L 1127 480.5 L 1127 481.5 L 1129 483.5 L 1129 484.5 L 1131 486.5 L 1131 487.5 L 1133 489.5 L 1133 490.5 L 1135 492.5 L 1135 493.5 L 1136 494.5 L 1136 495.5 L 1137 496.5 L 1137 497.5 L 1138 498.5 L 1138 499.5 L 1139 500.5 L 1139 501.5 L 1140 502.5 L 1140 503.5 L 1141 504.5 L 1141 505.5 L 1142 506.5 L 1142 508.5 L 1143 509.5 L 1143 510.5 L 1144 511.5 L 1144 513.5 L 1145 514.5 L 1145 516.5 L 1146 517.5 L 1146 519.5 L 1147 520.5 L 1147 523.5 L 1148 524.5 L 1148 527.5 L 1149 528.5 L 1149 532.5 L 1150 533.5 L 1150 539.5 L 1151 540.5 L 1151 567.5 L 1150 568.5 L 1150 573.5 L 1149 574.5 L 1149 579.5 L 1148 580.5 L 1148 583.5 L 1147 584.5 L 1147 586.5 L 1146 587.5 L 1146 590.5 L 1145 591.5 L 1145 593.5 L 1144 594.5 L 1144 596.5 L 1143 597.5 L 1143 598.5 L 1142 599.5 L 1142 601.5 L 1141 602.5 L 1141 603.5 L 1140 604.5 L 1140 605.5 L 1139 606.5 L 1139 607.5 L 1138 608.5 L 1138 609.5 L 1137 610.5 L 1137 611.5 L 1136 612.5 L 1136 613.5 L 1134 615.5 L 1134 616.5 L 1133 617.5 L 1133 618.5 L 1131 620.5 L 1131 621.5 L 1128 624.5 L 1128 625.5 L 1125 628.5 L 1125 629.5 L 1120 634.5 L 1120 635.5 L 1111.5 644 L 1110.5 644 L 1105.5 649 L 1104.5 649 L 1101.5 652 L 1100.5 652 L 1097.5 655 L 1096.5 655 L 1094.5 657 L 1093.5 657 L 1092.5 658 L 1091.5 658 L 1089.5 660 L 1088.5 660 L 1087.5 661 L 1086.5 661 L 1085.5 662 L 1084.5 662 L 1083.5 663 L 1082.5 663 L 1081.5 664 L 1080.5 664 L 1079.5 665 L 1077.5 665 L 1076.5 666 L 1075.5 666 L 1074.5 667 L 1072.5 667 L 1071.5 668 L 1070.5 668 L 1069.5 669 L 1067.5 669 L 1066.5 670 L 1063.5 670 L 1062.5 671 L 1060.5 671 L 1059.5 672 L 1055.5 672 L 1054.5 673 L 1050.5 673 L 1049.5 674 L 1043.5 674 L 1042.5 675 L 1016.5 675 L 1015.5 674 L 1009.5 674 L 1008.5 673 L 1004.5 673 L 1003.5 672 L 1000.5 672 L 999.5 671 L 996.5 671 L 995.5 670 L 993.5 670 L 992.5 669 L 990.5 669 L 989.5 668 L 987.5 668 L 986.5 667 L 985.5 667 L 984.5 666 L 982.5 666 L 981.5 665 L 980.5 665 L 979.5 664 L 978.5 664 L 977.5 663 L 976.5 663 L 975.5 662 L 974.5 662 L 973.5 661 L 972.5 661 L 971.5 660 L 970.5 660 L 969.5 659 L 968.5 659 L 966.5 657 L 965.5 657 L 963.5 655 L 962.5 655 L 960.5 653 L 959.5 653 L 957.5 651 L 956.5 651 L 952.5 647 L 951.5 647 L 937 632.5 L 937 631.5 L 933 627.5 L 933 626.5 L 930 623.5 L 930 622.5 L 928 620.5 L 928 619.5 L 926 617.5 L 926 616.5 L 925 615.5 L 925 614.5 L 924 613.5 L 924 612.5 L 922 610.5 L 922 609.5 L 921 608.5 L 921 607.5 L 920 606.5 L 920 604.5 L 919 603.5 L 919 602.5 L 918 601.5 L 918 600.5 L 917 599.5 L 917 597.5 L 916 596.5 L 916 595.5 L 915 594.5 L 915 592.5 L 914 591.5 L 914 588.5 L 913 587.5 L 913 585.5 L 912 584.5 L 912 581.5 L 911 580.5 L 911 576.5 L 910 575.5 L 910 569.5 L 909 568.5 L 909 555.5 L 908 554.5 L 908 552.5 L 909 551.5 L 909 538.5 L 910 537.5 L 910 532.5 L 911 531.5 L 911 527.5 L 912 526.5 L 912 523.5 L 913 522.5 L 913 519.5 L 914 518.5 L 914 516.5 L 915 515.5 L 915 513.5 L 916 512.5 L 916 510.5 L 917 509.5 L 917 508.5 L 918 507.5 L 918 505.5 L 919 504.5 L 919 503.5 L 920 502.5 L 920 501.5 L 921 500.5 L 921 499.5 L 922 498.5 L 922 497.5 L 923 496.5 L 923 495.5 L 925 493.5 L 925 492.5 L 926 491.5 L 926 490.5 L 928 488.5 L 928 487.5 L 929 486.5 L 929 485.5 L 932 482.5 L 932 481.5 L 935 478.5 L 935 477.5 L 943 469.5 Q 943 468.3 943 468 Q 943.3 468 944.5 468 L 953.5 459 L 954.5 459 L 957.5 456 L 958.5 456 L 961.5 453 L 962.5 453 L 963.5 452 L 964.5 452 L 966.5 450 L 967.5 450 L 969.5 448 L 970.5 448 L 971.5 447 L 972.5 447 L 973.5 446 L 974.5 446 L 975.5 445 L 976.5 445 L 977.5 444 L 978.5 444 L 979.5 443 L 980.5 443 L 981.5 442 L 983.5 442 L 984.5 441 L 985.5 441 L 986.5 440 L 988.5 440 L 989.5 439 L 991.5 439 L 992.5 438 L 994.5 438 L 995.5 437 L 998.5 437 L 999.5 436 L 1002.5 436 L 1003.5 435 L 1006.5 435 L 1007.5 434 L 1013.5 434 L 1014.5 433 L 1026.5 433 L 1027.5 432 Z M 1028 474 L 1027 475 L 1025 475 L 1024 476 L 1023 476 L 1018 481 L 1018 482 L 1017 483 L 1017 487 L 1016 488 L 1016 489 L 1014 491 L 1013 491 L 1011 493 L 1010 493 L 1009 494 L 1008 494 L 1005 497 L 1004 497 L 999 502 L 999 503 L 996 506 L 996 507 L 995 508 L 995 509 L 994 510 L 994 511 L 993 512 L 993 513 L 992 514 L 992 516 L 991 517 L 991 521 L 990 522 L 990 534 L 991 535 L 991 539 L 992 540 L 992 541 L 993 542 L 993 544 L 994 545 L 994 546 L 995 547 L 995 548 L 997 550 L 997 551 L 1006 559 L 1007 559 L 1009 561 L 1010 561 L 1012 563 L 1013 563 L 1014 564 L 1016 564 L 1017 565 L 1019 565 L 1020 566 L 1024 566 L 1025 567 L 1033 567 L 1034 568 L 1035 568 L 1036 569 L 1037 569 L 1039 571 Q 1040 571 1040 571 Q 1040 571 1040 573 L 1042 575 L 1042 577 L 1043 578 L 1043 584 L 1042 585 L 1042 586 L 1041 587 L 1041 588 L 1037 592 L 1036 592 L 1035 593 L 1032 593 L 1031 594 L 1029 594 L 1028 593 L 1026 593 L 1025 592 L 1024 592 L 1023 591 L 1022 591 L 1019 589 L 1019 588 L 1018 587 L 1018 586 L 1017 585 L 1017 581 L 1016 580 L 1016 577 L 1015 576 L 1015 575 L 1014 574 L 1014 573 L 1011 569 L 1010 569 L 1009 568 L 1007 568 L 1006 567 L 1001 567 L 1000 568 L 998 568 L 996 570 L 995 570 L 993 572 L 993 573 L 991 575 L 991 577 L 990 578 L 990 586 L 991 587 L 991 591 L 992 592 L 992 594 L 993 595 L 993 597 L 994 598 L 994 599 L 995 600 L 995 601 L 997 603 L 997 604 L 1007 613 L 1008 613 L 1010 615 L 1011 615 L 1012 616 L 1013 616 L 1016 620 L 1016 621 L 1017 622 L 1017 625 L 1018 626 L 1018 627 L 1024 632 L 1025 632 L 1026 633 L 1035 633 L 1036 632 L 1037 632 L 1041 628 L 1041 627 L 1042 626 L 1042 624 L 1043 623 L 1043 621 L 1044 620 L 1044 619 L 1046 617 L 1047 617 L 1049 615 L 1050 615 L 1051 614 L 1052 614 L 1054 612 L 1055 612 L 1062 605 L 1062 604 L 1064 602 L 1064 601 L 1065 600 L 1065 599 L 1066 598 L 1066 597 L 1067 596 L 1067 594 L 1068 593 L 1068 591 L 1069 590 L 1069 585 L 1070 584 L 1070 579 L 1069 578 L 1069 572 L 1068 571 L 1068 569 L 1067 568 L 1067 566 L 1066 565 L 1066 564 L 1065 563 L 1065 562 L 1064 561 L 1064 560 L 1062 558 L 1062 557 L 1054 548 L 1053 548 L 1051 546 L 1050 546 L 1049 545 L 1048 545 L 1047 544 L 1046 544 L 1045 543 L 1043 543 L 1042 542 L 1039 542 L 1038 541 L 1030 541 L 1029 540 L 1026 540 L 1025 539 L 1024 539 L 1022 537 Q 1020 537 1020 537 Q 1020 537 1020 536 L 1018 534 L 1018 533 L 1017 532 L 1017 524 L 1018 523 L 1018 522 L 1019 521 L 1019 520 L 1023 516 L 1024 516 L 1025 515 L 1027 515 L 1028 514 L 1034 514 L 1035 515 L 1036 515 L 1038 517 Q 1039 517 1039 517 Q 1039 517 1039 519 L 1041 521 L 1041 522 L 1042 523 L 1042 524 L 1043 525 L 1043 529 L 1044 530 L 1044 533 L 1046 535 L 1046 536 L 1050 539 L 1051 539 L 1052 540 L 1061 540 L 1062 539 L 1063 539 L 1064 538 L 1065 538 L 1067 536 L 1067 535 L 1068 534 L 1068 533 L 1069 532 L 1069 529 L 1070 528 L 1070 525 L 1069 524 L 1069 519 L 1068 518 L 1068 515 L 1067 514 L 1067 513 L 1066 512 L 1066 510 L 1064 508 L 1064 507 L 1063 506 L 1063 505 L 1054 495 L 1053 495 L 1051 493 L 1050 493 L 1049 492 L 1048 492 L 1043 488 L 1043 486 L 1042 485 L 1042 482 L 1040 480 L 1040 479 L 1039 477 L 1038 477 L 1036 475 L 1034 475 L 1033 474 L 1028 474 Z "/></svg>