<?xml version="1.0" encoding="utf-8"?>
<!-- Generator: Adobe Illustrator 27.1.1, SVG Export Plug-In . SVG Version: 6.00 Build 0)  -->
<svg version="1.1" id="Layer_1" xmlns="http://www.w3.org/2000/svg" xmlns:xlink="http://www.w3.org/1999/xlink" x="0px" y="0px"
	 viewBox="0 0 1920 1080" style="enable-background:new 0 0 1920 1080;" xml:space="preserve">
<style type="text/css">
	.st0{display:none;fill:#9E9B9B;}
	.st1{fill:#00005B;}
	.st2{fill:#FFFFFF;}
	.st3{fill:#000062;}
	.st4{fill:#ABB7C2;}
	.st5{fill:#B5B5B5;}
</style>
<rect x="642.4" y="-2956.83" class="st0" width="486.13" height="486.13"/>
<rect x="2744.19" y="-2931" class="st0" width="486.13" height="486.13"/>
<rect x="4543.68" y="-2958.87" class="st0" width="486.13" height="486.13"/>
<rect x="1948.49" class="st1" width="1920" height="1080"/>
<rect x="6491.26" y="-2958.87" class="st0" width="486.13" height="486.13"/>
<rect x="4553.5" y="-1903.06" class="st0" width="486.13" height="486.13"/>
<rect x="2744.19" y="-1903.06" class="st0" width="486.13" height="486.13"/>
<path class="st2" d="M720.57-2741.2c-1.41,7.96-2.4,16.03-4.31,23.87c-5.05,20.73-15.19,39.05-27.85,56.02
	c-19.54,26.18-43.3,48.31-67.82,69.64c-28.91,25.15-57.97,50.12-87.02,75.11c-11.15,9.59-23.14,10.01-33.89,0.68
	c-37.79-32.77-75.68-65.44-113.02-98.73c-19.19-17.11-36.44-36.18-50.49-57.9c-25.2-38.93-32.03-80.63-16.06-124.47
	c14.44-39.65,42.48-65.58,84.58-73.7c43.63-8.41,78.77,7.22,106.67,40.82c1.52,1.83,2.93,3.76,4.79,6.15
	c1.71-2.18,3.2-4.14,4.75-6.04c16.18-19.8,35.9-34.3,61.13-40.27c43.99-10.42,90.68,7.95,116.09,45.31
	c12.54,18.45,19.49,38.81,21.73,60.9c0.14,1.43,0.48,2.83,0.72,4.25C720.57-2753.44,720.57-2747.32,720.57-2741.2z M516.04-2533.31
	c1.05-0.82,1.89-1.43,2.68-2.11c32.31-27.93,64.81-55.63,96.84-83.87c22.37-19.73,43.65-40.62,60.23-65.72
	c15.78-23.88,23.58-49.87,19.96-78.64c-3.91-31.05-17.2-56.82-44.78-73.04c-25.7-15.11-52.81-16.97-80.11-3.87
	c-16.14,7.74-28.05,20.38-38.02,34.98c-1.42,2.09-2.7,4.28-4.19,6.31c-6.58,9-18.3,8.96-24.98,0.06
	c-5.82-7.75-11.15-15.98-17.77-22.98c-21.41-22.61-47.84-31.38-78.32-24.78c-32.88,7.11-54.47,27.94-65.41,59.29
	c-12.71,36.43-6.65,70.7,14.34,102.65c13.02,19.82,28.97,37.18,46.49,52.95c28.97,26.07,58.53,51.49,87.87,77.14
	C499.16-2547.7,507.57-2540.58,516.04-2533.31z"/>
<path class="st3" d="M498.17-1666.43c0,18.08,0.01,36.17,0,54.25c-0.01,8.94-4.7,13.69-13.55,13.69
	c-35.54,0.01-71.08,0.04-106.63-0.01c-24.15-0.03-41.45-17.36-41.49-41.52c-0.04-26.19-0.04-52.38,0-78.57
	c0.04-24.19,17.3-41.52,41.44-41.57c26.31-0.05,52.63-0.06,78.94,0c23.93,0.05,41.21,17.39,41.28,41.35
	C498.21-1701.35,498.17-1683.89,498.17-1666.43z M474.22-1622.44c0-1.66,0-2.77,0-3.88c0-30.67,0.01-61.34,0-92.01
	c0-11.37-6.49-17.88-17.82-17.89c-26.06-0.01-52.11-0.01-78.17,0c-11.33,0.01-17.78,6.51-17.78,17.92
	c-0.01,25.81-0.01,51.62,0,77.42c0,12.13,6.29,18.43,18.4,18.43c30.42,0.01,60.84,0,91.26,0
	C471.33-1622.44,472.56-1622.44,474.22-1622.44z"/>
<path class="st3" d="M534.11-1666.42c0-17.33-0.02-34.67,0.01-52c0.04-24.43,17.26-41.7,41.65-41.74c26.19-0.04,52.38-0.05,78.57,0
	c24.16,0.05,41.41,17.35,41.45,41.55c0.04,26.19,0.04,52.38,0,78.57c-0.04,24.18-17.32,41.5-41.48,41.54
	c-35.54,0.05-71.08,0.02-106.63,0.01c-8.83,0-13.56-4.78-13.57-13.68C534.1-1630.25,534.11-1648.34,534.11-1666.42z M558.06-1622.44
	c1.64,0,2.74,0,3.85,0c30.67,0,61.34,0.01,92.01,0c11.38,0,17.91-6.49,17.91-17.8c0.01-26.06,0.01-52.11,0-78.17
	c-0.01-11.33-6.51-17.8-17.91-17.8c-25.93-0.01-51.86-0.01-77.8,0c-11.64,0-18.07,6.41-18.07,18.01c-0.01,30.54,0,61.09,0,91.63
	C558.06-1625.35,558.06-1624.13,558.06-1622.44z"/>
<path class="st3" d="M534.11-1494.64c0-18.08-0.01-36.17,0-54.25c0.01-8.88,4.75-13.66,13.58-13.66
	c35.54-0.01,71.08-0.04,106.62,0.01c24.17,0.03,41.43,17.34,41.47,41.54c0.04,26.19,0.04,52.38,0,78.57
	c-0.04,24.19-17.31,41.51-41.46,41.55c-26.31,0.05-52.63,0.06-78.94,0c-23.89-0.06-41.2-17.44-41.26-41.37
	C534.07-1459.72,534.11-1477.18,534.11-1494.64z M558.21-1538.61c-0.07,0.99-0.14,1.58-0.14,2.18c-0.01,31.79-0.05,63.58,0.03,95.37
	c0.02,9.51,7.05,16.19,16.84,16.21c26.55,0.05,53.11,0.04,79.66,0.01c10.56-0.01,17.23-6.73,17.24-17.35
	c0.03-26.31,0.02-52.61,0-78.92c-0.01-10.87-6.61-17.48-17.45-17.5c-11.72-0.03-23.44-0.01-35.16-0.01
	C599.03-1538.61,578.84-1538.61,558.21-1538.61z"/>
<path class="st3" d="M430.25-1562.56c18.08,0,36.17-0.01,54.25,0c8.89,0.01,13.67,4.73,13.67,13.57
	c0.01,35.54,0.04,71.08-0.01,106.62c-0.03,24.16-17.34,41.43-41.54,41.47c-26.19,0.05-52.38,0.04-78.57,0
	c-24.17-0.04-41.52-17.34-41.56-41.46c-0.05-26.31-0.05-52.63,0-78.94c0.05-23.89,17.42-41.2,41.37-41.26
	C395.33-1562.6,412.79-1562.56,430.25-1562.56z M474.22-1538.61c-1.72,0-2.84,0-3.96,0c-30.67,0-61.34-0.01-92.01,0
	c-11.34,0-17.81,6.5-17.81,17.89c-0.01,25.93-0.01,51.86,0,77.8c0,11.64,6.41,18.08,17.99,18.09c25.93,0.01,51.86,0.01,77.8,0
	c11.56-0.01,17.98-6.47,17.98-18.11c0.01-30.54,0-61.09,0-91.63C474.22-1535.79,474.22-1537,474.22-1538.61z"/>
<path class="st4" d="M1103.76-1666.06c0,18.08,0.01,36.17,0,54.25c-0.01,8.94-4.7,13.69-13.55,13.69
	c-35.54,0.01-71.08,0.04-106.63-0.01c-24.15-0.03-41.45-17.36-41.49-41.52c-0.04-26.19-0.04-52.38,0-78.57
	c0.04-24.19,17.3-41.52,41.44-41.57c26.31-0.05,52.63-0.06,78.94,0c23.93,0.05,41.21,17.39,41.28,41.35
	C1103.8-1700.98,1103.76-1683.52,1103.76-1666.06z M1079.81-1622.07c0-1.66,0-2.77,0-3.88c0-30.67,0.01-61.34,0-92.01
	c0-11.37-6.49-17.88-17.82-17.89c-26.06-0.01-52.11-0.01-78.17,0c-11.33,0.01-17.78,6.51-17.78,17.92
	c-0.01,25.81-0.01,51.62,0,77.42c0,12.13,6.29,18.43,18.4,18.43c30.42,0.01,60.84,0,91.26,0
	C1076.92-1622.07,1078.14-1622.07,1079.81-1622.07z"/>
<path class="st4" d="M1139.69-1666.05c0-17.33-0.02-34.67,0.01-52c0.04-24.43,17.26-41.7,41.65-41.74c26.19-0.04,52.38-0.05,78.57,0
	c24.16,0.05,41.41,17.35,41.45,41.56c0.04,26.19,0.04,52.38,0,78.57c-0.04,24.18-17.32,41.5-41.48,41.54
	c-35.54,0.05-71.08,0.02-106.63,0.01c-8.83,0-13.56-4.78-13.57-13.68C1139.68-1629.88,1139.69-1647.96,1139.69-1666.05z
	 M1163.64-1622.07c1.64,0,2.74,0,3.85,0c30.67,0,61.34,0.01,92.01,0c11.38,0,17.91-6.49,17.91-17.8c0.01-26.06,0.01-52.11,0-78.17
	c-0.01-11.33-6.51-17.8-17.91-17.8c-25.93-0.01-51.86-0.01-77.8,0c-11.64,0-18.07,6.41-18.07,18.01c-0.01,30.54,0,61.09,0,91.63
	C1163.64-1624.98,1163.64-1623.75,1163.64-1622.07z"/>
<path class="st4" d="M1139.69-1494.27c0-18.08-0.01-36.17,0-54.25c0.01-8.88,4.75-13.66,13.58-13.66
	c35.54-0.01,71.08-0.04,106.62,0.01c24.17,0.03,41.43,17.34,41.47,41.54c0.04,26.19,0.04,52.38,0,78.57
	c-0.04,24.19-17.31,41.51-41.46,41.55c-26.31,0.05-52.63,0.06-78.94,0c-23.89-0.06-41.2-17.44-41.26-41.37
	C1139.65-1459.35,1139.69-1476.81,1139.69-1494.27z M1163.79-1538.23c-0.07,0.99-0.14,1.58-0.14,2.18
	c-0.01,31.79-0.05,63.58,0.03,95.37c0.02,9.51,7.05,16.19,16.84,16.21c26.55,0.05,53.11,0.04,79.66,0.01
	c10.56-0.01,17.23-6.73,17.24-17.35c0.03-26.31,0.02-52.61,0-78.92c-0.01-10.87-6.61-17.48-17.45-17.5
	c-11.72-0.03-23.44-0.01-35.16-0.01C1204.61-1538.23,1184.42-1538.23,1163.79-1538.23z"/>
<path class="st4" d="M1035.83-1562.18c18.08,0,36.17-0.01,54.25,0c8.89,0.01,13.67,4.73,13.67,13.57
	c0.01,35.54,0.04,71.08-0.01,106.62c-0.03,24.16-17.34,41.43-41.54,41.47c-26.19,0.05-52.38,0.04-78.57,0
	c-24.17-0.04-41.52-17.34-41.56-41.46c-0.05-26.31-0.05-52.63,0-78.94c0.05-23.89,17.42-41.2,41.37-41.27
	C1000.91-1562.22,1018.37-1562.18,1035.83-1562.18z M1079.81-1538.23c-1.72,0-2.84,0-3.96,0c-30.67,0-61.34-0.01-92.01,0
	c-11.34,0-17.81,6.5-17.81,17.89c-0.01,25.93-0.01,51.86,0,77.8c0,11.64,6.41,18.08,17.99,18.09c25.93,0.01,51.86,0.01,77.8,0
	c11.56-0.01,17.98-6.47,17.98-18.11c0.01-30.54,0-61.09,0-91.63C1079.81-1535.41,1079.81-1536.63,1079.81-1538.23z"/>
<path class="st2" d="M540.05-316.26c-44.18,0-88.37,0.02-132.55-0.01c-16.36-0.01-28.84-8.4-33.34-22.68
	c-1.18-3.74-1.75-7.83-1.76-11.76c-0.11-62.27-0.11-124.53-0.05-186.8c0.02-20.3,14.18-34.33,34.41-34.42
	c3.87-0.02,7.76-0.23,11.6,0.07c3.34,0.26,4.98-0.78,6.25-4.07c6.93-17.89,14.15-35.66,21.31-53.46
	c6.17-15.34,19.38-20.88,34.57-14.56c56.59,23.55,113.17,47.11,169.79,70.59c2.11,0.88,4.54,1.27,6.84,1.36
	c7.6,0.32,15.27-0.19,22.79,0.68c15.43,1.79,27.34,15.02,27.76,30.53c0.34,12.59,0.15,25.2,0.12,37.81c-0.01,2,0.33,3.07,2.65,3.55
	c8.17,1.7,13.35,7.72,13.4,16.14c0.16,26.08,0.15,52.16,0.01,78.24c-0.04,8.21-5.26,14.7-12.94,16.18
	c-2.94,0.56-3.15,1.88-3.14,4.24c0.08,10.98-0.38,21.98,0.13,32.94c0.87,18.9-13.21,35.71-35.68,35.53
	C628.17-316.51,584.11-316.26,540.05-316.26z M691.91-500.05c0-1.57,0-2.79,0-4c0-10.73,0-21.46,0-32.19
	c0-13.03-6.52-19.6-19.49-19.6c-43.18-0.01-86.36,0-129.54,0c-45.3,0-90.6-0.01-135.9,0.01c-11.33,0.01-18.51,6.66-18.52,17.47
	c-0.06,62.88-0.05,125.76,0,188.65c0.01,8.48,4.9,14.93,12.67,16.82c2.26,0.55,4.7,0.54,7.05,0.54
	c51.17,0.03,102.33,0.02,153.5,0.02c36.81,0,73.63-0.28,110.44,0.15c13.23,0.16,20.46-8.95,19.92-19.79
	c-0.53-10.58-0.12-21.2-0.12-31.81c0-1.33,0-2.67,0-4.34c-1.9,0-3.37,0-4.84,0c-21.96,0-43.93,0.13-65.89-0.03
	c-35.22-0.27-60.04-28.02-56.6-63.05c2.66-27.06,27.13-48.65,55.54-48.8c22.34-0.12,44.68-0.03,67.01-0.03
	C688.59-500.05,690.05-500.05,691.91-500.05z M707.58-483.55c-4.82,0-9.4,0.01-13.99,0c-25.44-0.09-50.9-0.68-76.32-0.14
	c-23.17,0.5-40.79,23.33-36.63,46.17c3.61,19.81,19.52,33.16,40.12,33.26c27.94,0.14,55.88,0.04,83.82,0.03
	c0.96,0,1.92-0.15,3.01-0.25C707.58-430.81,707.58-456.92,707.58-483.55z M610.9-571.95c-1.21-0.78-1.48-1.02-1.79-1.15
	c-45.18-18.82-90.35-37.65-135.55-56.43c-5.97-2.48-10.05-0.66-12.5,5.41c-6.66,16.51-13.28,33.05-19.89,49.58
	c-0.3,0.74-0.4,1.55-0.66,2.61c5.17,0,10.03-0.11,14.88,0.05c2.22,0.07,3.32-0.66,4.09-2.78c2.61-7.13,5.43-14.19,8.17-21.27
	c2.97-7.66,6.07-9.12,13.8-6.55c29.52,9.83,59.05,19.67,88.58,29.49c1.29,0.43,2.64,0.97,3.96,0.98
	C585.96-571.92,597.93-571.95,610.9-571.95z M520.19-572.1c0.04-0.22,0.07-0.43,0.11-0.65c-13.04-4.31-26.07-8.62-39.42-13.02
	c-1.76,4.63-3.41,9-5.18,13.67C490.86-572.1,505.52-572.1,520.19-572.1z"/>
<path class="st2" d="M460.51-491.98c10.1,0,20.21-0.02,30.31,0.01c5.7,0.01,9.34,3.13,9.35,7.92c0.01,4.8-3.58,7.93-9.31,7.94
	c-20.46,0.03-40.91,0.03-61.37,0c-5.62-0.01-9.29-3.34-9.17-8.09c0.12-4.67,3.68-7.74,9.14-7.76
	C439.81-492,450.16-491.98,460.51-491.98z"/>
<path class="st2" d="M444.49-524.01c4.87,0,9.73-0.05,14.6,0.01c5.51,0.08,8.95,3.14,9.03,7.87c0.07,4.81-3.22,8.08-8.72,8.15
	c-10.11,0.13-20.22,0.14-30.32,0c-5.34-0.07-8.91-3.63-8.75-8.22c0.15-4.53,3.63-7.69,8.82-7.78
	C434.25-524.08,439.37-524,444.49-524.01z"/>
<path class="st2" d="M620.13-468.01c13.27,0.06,23.91,10.83,23.84,24.14c-0.07,13.02-10.86,23.74-23.89,23.75
	c-13.24,0.01-24.04-10.78-24.02-23.99C596.07-457.39,606.84-468.07,620.13-468.01z M619.98-452.11c-4.35,0.02-8.1,3.88-7.98,8.21
	c0.12,4.25,3.77,7.78,8.02,7.75c4.41-0.02,8.1-3.81,7.98-8.17C627.89-448.53,624.18-452.13,619.98-452.11z"/>
<path class="st2" d="M574.99,668.16c-7.58,32.08-34.21,47.86-58.3,48.08c-24.1,0.22-51.53-15.22-59.42-48.08c-1.25,0-2.6,0-3.94,0
	c-20.96,0-41.93,0-62.89,0c-10.14,0-17.98-4.22-22.47-13.38c-4.54-9.27-2.98-17.99,3.16-26.33c7.4-10.05,14.37-20.42,21.41-30.74
	c2.9-4.25,3.85-9.1,3.84-14.24c-0.05-27.75-0.63-55.52,0.11-83.25c1.37-51.46,25.54-88.95,72.32-110.12
	c67.61-30.6,147.83,10.4,163.95,83.08c2.07,9.31,2.92,19.04,3.06,28.6c0.4,27,0.21,54,0.09,81c-0.03,6.38,1.62,12.01,5.31,17.19
	c7.1,9.97,14.09,20.01,21.07,30.06c5.46,7.85,6.25,16.29,2.04,24.82c-4.23,8.56-11.49,13.16-21.01,13.25
	c-21.34,0.2-42.68,0.07-64.02,0.07C577.94,668.16,576.58,668.16,574.99,668.16z M642.61,643.97c-7.24-10.46-14.12-20.54-21.15-30.51
	c-6.48-9.19-9.55-19.31-9.51-30.56c0.11-27,0.06-54,0.01-80.99c-0.01-3.99-0.2-8-0.61-11.97c-5.99-58.67-63.85-98.19-120.58-82.39
	c-41.65,11.59-70.22,48.87-70.45,92.22c-0.15,27.75-0.1,55.5,0,83.24c0.04,11.26-3.08,21.38-9.56,30.55
	c-6.34,8.97-12.54,18.05-18.79,27.08c-0.68,0.99-1.35,1.98-2.28,3.33C474.13,643.97,558.04,643.97,642.61,643.97z M549.49,668.35
	c-22.24,0-44.44,0-66.69,0c3.73,13.47,18.33,23.82,33.38,23.81C531.23,692.15,545.95,681.68,549.49,668.35z"/>
<path class="st3" d="M2393.73-2494.06c-6.65-3.07-8.42-8.35-8.28-15.45c1.33-68.78,53.78-129.91,121.48-140.99
	c8.45-1.38,17.09-1.97,25.66-2.16c15.08-0.34,30.19-0.52,45.26,0c58.02,2.03,100.42,29.52,128.12,80.03
	c10.78,19.66,15.44,41.12,16.4,63.48c0.3,7.01-1.82,12.07-8.27,15.08C2607.31-2494.06,2500.52-2494.06,2393.73-2494.06z
	 M2699.61-2516.68c-0.96-5.63-1.71-10.81-2.75-15.92c-11.22-54.94-61.74-96.89-117.71-97.63c-16.83-0.22-33.68-0.28-50.51,0.08
	c-7.31,0.15-14.78,0.79-21.87,2.47c-48,11.35-79.17,41.02-93.94,87.9c-2.32,7.36-3.22,15.17-4.85,23.1
	C2505.63-2516.68,2602.24-2516.68,2699.61-2516.68z"/>
<circle class="st3" cx="2818.23" cy="-464.4" r="262.98"/>
<path class="st3" d="M2553.96-2675.21c-55.73,0.02-101.17-45.46-101.09-101.19c0.08-55.59,45.41-100.88,101-100.9
	c55.75-0.02,101.17,45.43,101.09,101.18C2654.88-2720.52,2609.55-2675.24,2553.96-2675.21z M2553.63-2697.67
	c43.29,0.13,78.71-35,78.87-78.23c0.17-43.31-34.92-78.76-78.13-78.96c-43.48-0.19-78.98,35.01-79.06,78.41
	C2475.24-2733.16,2510.4-2697.79,2553.63-2697.67z"/>
<path class="st4" d="M2922.35-2483.59c-6.65-3.07-8.42-8.35-8.28-15.45c1.33-68.78,53.77-129.91,121.48-140.99
	c8.45-1.38,17.09-1.97,25.66-2.16c15.08-0.34,30.19-0.52,45.26,0c58.02,2.03,100.42,29.52,128.12,80.03
	c10.78,19.66,15.44,41.12,16.4,63.48c0.3,7.01-1.82,12.07-8.27,15.08C3135.93-2483.59,3029.14-2483.59,2922.35-2483.59z
	 M3228.23-2506.21c-0.97-5.63-1.71-10.81-2.75-15.92c-11.22-54.94-61.74-96.9-117.71-97.63c-16.83-0.22-33.68-0.27-50.51,0.08
	c-7.31,0.15-14.78,0.79-21.87,2.47c-48,11.35-79.17,41.02-93.94,87.9c-2.32,7.36-3.22,15.17-4.85,23.1
	C3034.25-2506.21,3130.86-2506.21,3228.23-2506.21z"/>
<path class="st4" d="M3082.58-2664.74c-55.73,0.02-101.17-45.46-101.09-101.19c0.08-55.59,45.4-100.88,101-100.9
	c55.75-0.02,101.17,45.43,101.09,101.18C3183.5-2710.05,3138.17-2664.76,3082.58-2664.74z M3082.25-2687.19
	c43.29,0.13,78.71-35,78.87-78.23c0.17-43.31-34.92-78.76-78.13-78.96c-43.48-0.19-78.98,35.01-79.06,78.41
	C3003.86-2722.69,3039.02-2687.32,3082.25-2687.19z"/>
<path class="st4" d="M2556.8-1494.79c-27.95,0-55.89,0.08-83.84-0.02c-26.99-0.1-49.15-17.26-55.86-42.85
	c-2.36-9.01-1.62-18.05-0.86-27.13c2.47-29.32,4.89-58.64,7.35-87.97c1.63-19.38,3.32-38.76,4.89-58.14
	c0.26-3.21,0.52-6.55-0.07-9.67c-1.5-7.95-8.3-13.54-16.47-13.71c-9.23-0.19-18.46,0.03-27.69-0.11
	c-8.34-0.13-13.72-6.37-12.47-14.18c0.76-4.72,4.65-9.35,9.35-9.42c12.7-0.17,25.55-0.86,38.07,0.74
	c14.78,1.89,24.94,11.31,30.54,25.13c1.2,2.96,2.56,3.82,5.62,3.81c64.87-0.09,129.75-0.09,194.62-0.05
	c26.47,0.02,48.26,15.75,55.2,40.37c1.73,6.12,2.58,12.83,2.18,19.16c-2.43,38.58-5.44,77.12-8.02,115.69
	c-0.67,9.97-2.32,19.59-7.37,28.29c-11.41,19.66-28.67,29.76-51.33,29.99C2612.69-1494.58,2584.74-1494.79,2556.8-1494.79z
	 M2452.07-1704.16c-0.13,0.99-0.27,1.83-0.34,2.68c-2.17,25.72-4.34,51.44-6.5,77.17c-1.88,22.49-3.49,45.01-5.7,67.47
	c-2.09,21.21,12.12,37.98,33.4,38.04c55.9,0.15,111.81,0.12,167.71,0.01c19.21-0.04,33.36-14.04,34.54-33.21
	c1.19-19.17,2.84-38.31,4.12-57.47c0.7-10.43,0.97-20.89,1.58-31.33c0.41-6.95,1.2-13.89,1.59-20.84
	c0.32-5.78,1.31-11.79,0.23-17.34c-3.02-15.43-15.99-25.32-32.13-25.33c-65.01-0.04-130.02-0.02-195.04-0.01
	C2454.45-1704.32,2453.35-1704.22,2452.07-1704.16z"/>
<path class="st4" d="M2611-1415.08c-17.88-0.1-31.91-14.32-31.79-32.23c0.12-17.53,14.57-31.71,32.16-31.55
	c17.75,0.16,31.75,14.54,31.61,32.49C2642.84-1429.03,2628.49-1414.99,2611-1415.08z M2619.01-1447.06
	c-0.05-4.29-3.55-7.81-7.84-7.85c-4.43-0.05-8.04,3.6-7.99,8.07c0.05,4.38,3.45,7.76,7.83,7.79
	C2615.56-1439.02,2619.06-1442.53,2619.01-1447.06z"/>
<path class="st4" d="M2483.22-1415.09c-17.67-0.08-31.9-14.27-31.91-31.83c-0.01-17.65,14.55-32.09,32.23-31.95
	c17.6,0.14,31.66,14.38,31.65,32.08C2515.2-1429.23,2500.85-1415.01,2483.22-1415.09z M2483.18-1439.06
	c4.57,0.04,8.07-3.43,8.04-7.97c-0.03-4.32-3.51-7.82-7.82-7.88c-4.4-0.06-8.15,3.65-8.11,8.03
	C2475.33-1442.62,2478.88-1439.09,2483.18-1439.06z"/>
<path class="st3" d="M3085.43-1476.81c-27.95,0-55.89,0.08-83.84-0.02c-26.99-0.1-49.15-17.26-55.86-42.85
	c-2.36-9.01-1.62-18.05-0.86-27.13c2.47-29.32,4.89-58.64,7.35-87.97c1.63-19.38,3.32-38.76,4.89-58.14
	c0.26-3.21,0.52-6.55-0.07-9.67c-1.5-7.95-8.3-13.54-16.47-13.71c-9.23-0.19-18.46,0.03-27.69-0.11
	c-8.34-0.13-13.72-6.37-12.47-14.18c0.76-4.72,4.65-9.35,9.35-9.42c12.7-0.17,25.55-0.86,38.07,0.74
	c14.78,1.89,24.94,11.31,30.54,25.13c1.2,2.96,2.56,3.82,5.62,3.81c64.87-0.09,129.75-0.09,194.62-0.05
	c26.47,0.02,48.26,15.75,55.2,40.37c1.73,6.12,2.58,12.83,2.18,19.17c-2.43,38.58-5.44,77.12-8.02,115.68
	c-0.67,9.97-2.32,19.59-7.37,28.29c-11.41,19.66-28.67,29.76-51.33,29.99C3141.32-1476.6,3113.38-1476.81,3085.43-1476.81z
	 M2980.71-1686.17c-0.13,0.99-0.27,1.83-0.34,2.68c-2.17,25.72-4.34,51.44-6.5,77.17c-1.88,22.49-3.49,45.01-5.7,67.47
	c-2.09,21.22,12.12,37.98,33.4,38.04c55.9,0.15,111.81,0.12,167.71,0.01c19.21-0.04,33.36-14.04,34.54-33.21
	c1.19-19.17,2.84-38.31,4.12-57.47c0.7-10.43,0.97-20.89,1.58-31.33c0.41-6.96,1.2-13.89,1.59-20.84
	c0.32-5.78,1.31-11.79,0.23-17.34c-3.02-15.43-15.99-25.32-32.13-25.33c-65.01-0.04-130.02-0.02-195.04-0.01
	C2983.08-1686.33,2981.98-1686.24,2980.71-1686.17z"/>
<path class="st3" d="M3139.63-1397.1c-17.88-0.1-31.91-14.32-31.79-32.23c0.12-17.53,14.57-31.71,32.16-31.55
	c17.75,0.16,31.75,14.54,31.61,32.49C3171.47-1411.05,3157.12-1397.01,3139.63-1397.1z M3147.64-1429.08
	c-0.05-4.29-3.55-7.81-7.84-7.85c-4.43-0.05-8.04,3.6-7.99,8.07c0.05,4.38,3.45,7.76,7.83,7.79
	C3144.19-1421.04,3147.69-1424.54,3147.64-1429.08z"/>
<path class="st3" d="M3011.86-1397.11c-17.67-0.08-31.9-14.27-31.91-31.83c-0.01-17.65,14.55-32.09,32.23-31.95
	c17.6,0.14,31.66,14.38,31.65,32.08C3043.83-1411.25,3029.48-1397.03,3011.86-1397.11z M3011.81-1421.07
	c4.57,0.04,8.07-3.43,8.04-7.97c-0.03-4.32-3.51-7.82-7.82-7.88c-4.4-0.06-8.15,3.65-8.11,8.03
	C3003.96-1424.64,3007.52-1421.11,3011.81-1421.07z"/>
<path class="st2" d="M2794.61-488.03c0,12.05,0,23.79,0,35.54c0,0.94-0.2,1.95,0.05,2.82c0.37,1.29,0.77,2.96,1.72,3.54
	c0.64,0.39,2.55-0.52,3.4-1.35c7.03-6.92,13.94-13.97,20.89-20.97c0.72-0.73,1.49-1.41,2.17-2.06c6.56,6.44,12.98,12.75,19.4,19.06
	c1.12,1.1,2.09,2.41,3.35,3.32c1.25,0.91,2.78,1.45,4.18,2.14c0.54-1.45,1.54-2.9,1.56-4.35c0.13-11.33,0.07-22.67,0.07-34.01
	c0-1.14,0-2.28,0-3.7c28.33,0,56.48,0,84.97,0c0,1.18,0,2.31,0,3.43c0,50.91,0,101.82,0,152.73c0,7.28-2.77,10.03-10.09,10.03
	c-68.86,0-137.72,0-206.57,0c-7.27,0-10.05-2.79-10.05-10.07c0-50.91,0-101.82,0-152.73c0-1.04,0-2.08,0-3.39
	C2737.96-488.03,2766.1-488.03,2794.61-488.03z"/>
<path class="st2" d="M2794.44-566.24c0,24.53,0,48.52,0,72.89c-1.29,0-2.42,0-3.54,0c-28.44,0-56.88,0-85.32,0
	c-7.47,0-10.19-2.75-10.2-10.31c-0.01-17.42-0.01-34.84,0-52.27c0-7.6,2.69-10.31,10.17-10.31c28.44,0,56.88,0,85.32,0
	C2792-566.24,2793.13-566.24,2794.44-566.24z"/>
<path class="st2" d="M2851.58-493.51c0-24.26,0-48.33,0-72.73c1.27,0,2.4,0,3.52,0c28.44,0,56.88,0,85.32,0
	c7.51,0,10.2,2.7,10.2,10.28c0.01,17.53,0.02,35.05,0,52.58c-0.01,7.27-2.81,10.02-10.16,10.02c-28.55,0.01-57.09,0-85.64,0
	C2853.8-493.36,2852.78-493.45,2851.58-493.51z"/>
<path class="st2" d="M2846.18-565.98c0,36.97,0,73.83,0,111.13c-2.96-2.91-5.64-5.5-8.28-8.13c-3.86-3.86-7.67-7.77-11.52-11.63
	c-3.13-3.14-3.6-3.09-6.85,0.09c-6.52,6.37-13.08,12.71-19.61,19.05c0-36.54,0-73.39,0-110.5
	C2815.13-565.98,2830.49-565.98,2846.18-565.98z"/>
<path class="st2" d="M2838.04-601.1c18.71-16.49,39.63-27.01,64.66-28.17c2.68-0.12,4.46,0.66,6.14,2.8
	c6.03,7.68,10.54,16.11,13.2,25.52c0.28,0.97,0.46,1.98,0.79,3.43c-27.54-5.75-52.06,2.24-75.87,14.91
	C2847.22-590.46,2844.26-596.53,2838.04-601.1z"/>
<path class="st2" d="M2798.44-582.95c-23.33-12.47-47.79-20.22-75.32-14.61c0.53-2.01,0.88-3.6,1.36-5.15
	c2.76-8.91,7.19-16.92,13.04-24.19c1.38-1.72,2.84-2.45,5.07-2.38c19.57,0.63,37.04,7.3,52.95,18.37c4.2,2.92,8.13,6.25,12.01,9.25
	c-2.31,3.04-4.89,5.6-6.39,8.68C2799.68-589.97,2799.32-586.42,2798.44-582.95z"/>
<path class="st2" d="M2721.7-571.45c0-6.52-0.12-12.68,0.14-18.82c0.04-0.85,1.83-2.06,2.99-2.35c11.21-2.79,22.47-2.16,33.67,0.12
	c12.82,2.6,24.86,7.31,36.41,13.42c3.27,1.73,5.15,3.67,4.25,7.64C2773.6-571.45,2747.95-571.45,2721.7-571.45z"/>
<path class="st2" d="M2846.8-571.43c-0.72-3.71,0.78-5.75,3.99-7.45c17.35-9.2,35.51-15.53,55.37-15.51
	c5.18,0,10.38,1.14,15.54,1.98c0.96,0.16,2.46,1.37,2.49,2.13c0.2,6.24,0.11,12.49,0.11,18.85
	C2898.07-571.43,2872.42-571.43,2846.8-571.43z"/>
<path class="st2" d="M2841.44-571.37c-12.46,0-24.41,0-36.9,0c-0.21-6.68-1.59-13.37,1.14-19.76c1.85-4.32,5.48-7,10.24-7.33
	c4.59-0.32,9.24-0.37,13.83-0.04c6.04,0.43,10.88,4.64,11.55,10.64C2841.92-582.52,2841.44-577.05,2841.44-571.37z"/>
<path class="st2" d="M2641.64,505.88c5.32,1.17,10.54,1.85,15.45,3.48c18.66,6.22,31.46,23.45,32.21,43.09
	c0.23,6.11,0.1,12.23,0.1,18.34c0.01,60.27,0.01,120.53,0.06,180.8c0,4.18-0.8,7.92-4.02,10.83c-4.56,4.12-10.55,4.18-16.05,0
	c-15.7-11.91-31.36-23.89-47.03-35.83c-4.17-3.18-8.26-6.46-12.55-9.46c-1.3-0.91-3.18-1.5-4.75-1.41
	c-48.15,2.63-96.28,2.72-144.42-0.24c-13.2-0.81-26.4-1.63-39.56-2.9c-15.5-1.5-27.4-9.22-35.89-22.23
	c-0.27-0.41-0.58-0.8-1.14-1.55c-1.12,0.79-2.22,1.51-3.26,2.3c-10.13,7.7-20.27,15.38-30.35,23.15c-4.32,3.33-8.86,4.58-13.9,1.97
	c-4.86-2.51-6.57-6.76-6.57-12.08c0.05-65.51,0-131.01,0.08-196.52c0.03-26.69,18.64-46.71,45.28-48.91
	c45.17-3.74,90.43-5.61,135.75-4.31c28.42,0.82,56.84,2.46,85.21,4.43c25.65,1.78,43.22,20.14,45.16,45.92
	C2641.5,505.23,2641.61,505.7,2641.64,505.88z M2665.47,729.32c0-1.9,0-2.88,0-3.86c-0.01-56.51-0.02-113.02-0.03-169.54
	c0-0.87,0-1.75-0.04-2.62c-0.71-12.79-12.02-23.49-23.89-22.35c0,1.46,0,2.94,0,4.42c0,27.32,0.15,54.64-0.06,81.96
	c-0.18,24.46-17.92,44.49-42.06,47.14c-15.36,1.69-30.81,2.69-46.25,3.52c-44.76,2.4-89.55,2.5-134.3-0.11
	c-6.54-0.38-10.92,1.73-15.14,6.28c3.46,7.56,9.06,12.63,17.4,14.26c3.16,0.62,6.43,0.77,9.67,0.94
	c26.78,1.43,53.54,3.72,80.33,3.98c31.91,0.31,63.85-1.02,95.77-1.9c5.81-0.16,10.68,0.92,15.18,4.73
	c5.23,4.43,10.85,8.39,16.31,12.54C2647.16,715.41,2655.97,722.1,2665.47,729.32z M2425.84,558.99c0.04-9.82-7.89-17.92-17.68-18.05
	c-9.99-0.13-18.2,7.91-18.24,17.86c-0.04,9.81,7.9,17.92,17.68,18.06C2417.57,576.99,2425.8,568.94,2425.84,558.99z M2503.72,558.89
	c-0.01-9.81-7.99-17.86-17.79-17.94c-9.98-0.08-18.14,8.01-18.13,17.97c0.01,9.81,7.99,17.87,17.78,17.95
	C2495.55,576.94,2503.72,568.84,2503.72,558.89z M2581.59,558.87c-0.01-9.81-8-17.86-17.8-17.93c-9.98-0.07-18.13,8.02-18.12,17.98
	c0.01,9.8,8.01,17.86,17.8,17.93C2573.44,576.93,2581.6,568.83,2581.59,558.87z"/>
<path class="st5" d="M4613.29-2521.58c-42.17,0-84.33,0.04-126.5-0.02c-20.9-0.03-38.72-11.86-45.63-30.85
	c-2.05-5.63-3.23-11.91-3.28-17.9c-0.29-37.87-0.19-75.75-0.12-113.62c0.02-13.5,4.83-25.1,14.4-34.68
	c42.35-42.42,84.65-84.89,127.05-127.26c19.41-19.4,49-19.45,68.43-0.05c42.51,42.44,84.89,85,127.31,127.53
	c9.36,9.38,14.12,20.82,14.16,34.02c0.12,38.25,0.24,76.5-0.03,114.75c-0.2,27.39-21.37,48-48.92,48.05
	C4697.88-2521.52,4655.59-2521.58,4613.29-2521.58z M4613.09-2585.74c0,0.01,0,0.02,0,0.04c10.47,0,20.94,0.26,31.4-0.15
	c3.54-0.14,7.43-1.31,10.41-3.19c5.7-3.6,7.69-10.75,5.74-17.22c-1.98-6.58-7.68-11.2-14.69-11.24
	c-21.68-0.12-43.36-0.05-65.04-0.02c-1.35,0-2.74,0.24-4.03,0.63c-7.49,2.26-12.25,9.66-11.22,17.32
	c1.04,7.72,7.38,13.65,15.29,13.79C4591.66-2585.6,4602.38-2585.74,4613.09-2585.74z"/>
<path class="st3" d="M5185.18-2521.58c-42.17,0-84.34,0.04-126.5-0.02c-20.9-0.03-38.72-11.86-45.63-30.85
	c-2.05-5.63-3.23-11.91-3.28-17.9c-0.29-37.87-0.19-75.75-0.12-113.62c0.02-13.5,4.83-25.1,14.4-34.68
	c42.35-42.42,84.65-84.89,127.05-127.26c19.41-19.4,49-19.45,68.43-0.05c42.51,42.44,84.89,85,127.31,127.53
	c9.36,9.38,14.12,20.82,14.16,34.02c0.12,38.25,0.24,76.5-0.03,114.75c-0.2,27.39-21.37,48-48.92,48.05
	C5269.76-2521.52,5227.47-2521.58,5185.18-2521.58z M5184.98-2585.74c0,0.01,0,0.02,0,0.04c10.47,0,20.94,0.26,31.4-0.15
	c3.54-0.14,7.43-1.31,10.41-3.19c5.7-3.6,7.69-10.75,5.74-17.22c-1.98-6.58-7.68-11.2-14.69-11.24
	c-21.68-0.12-43.36-0.05-65.04-0.02c-1.35,0-2.74,0.24-4.03,0.63c-7.49,2.26-12.25,9.66-11.22,17.32
	c1.04,7.72,7.38,13.65,15.29,13.79C5163.54-2585.6,5174.26-2585.74,5184.98-2585.74z"/>
</svg>
