<?xml version="1.0" encoding="UTF-8"?>
<!DOCTYPE svg PUBLIC "-//W3C//DTD SVG 1.1//EN" "http://www.w3.org/Graphics/SVG/1.1/DTD/svg11.dtd">
<svg xmlns="http://www.w3.org/2000/svg" version="1.1" width="3840px" height="2160px" style="shape-rendering:geometricPrecision; text-rendering:geometricPrecision; image-rendering:optimizeQuality; fill-rule:evenodd; clip-rule:evenodd" xmlns:xlink="http://www.w3.org/1999/xlink">
<g><path style="opacity:1" fill="#008f44" d="M 1795.5,466.5 C 1971.18,460.106 2124.85,514.273 2256.5,629C 2393.75,756.731 2464.42,914.898 2468.5,1103.5C 2464.82,1290.89 2395.15,1448.39 2259.5,1576C 2129.42,1690.8 1977.08,1745.8 1802.5,1741C 1620.31,1729.98 1468.81,1656.81 1348,1521.5C 1236.26,1388.62 1184.93,1234.95 1194,1060.5C 1208.56,887.231 1279.72,742.397 1407.5,626C 1518.63,529.65 1647.96,476.484 1795.5,466.5 Z"/></g>
<g><path style="opacity:1" fill="#f8f9f9" d="M 1834.5,762.5 C 1975.52,786.387 2076.68,862.721 2138,991.5C 2150.37,1020.86 2159.54,1051.19 2165.5,1082.5C 2147.77,1085.11 2130.1,1088.11 2112.5,1091.5C 2095,998.273 2047.66,924.44 1970.5,870C 1927.06,840.905 1879.39,822.739 1827.5,815.5C 1830.05,797.862 1832.39,780.195 1834.5,762.5 Z"/></g>
<g><path style="opacity:1" fill="#f9f9f9" d="M 1589.5,827.5 C 1604.24,827.135 1617.24,831.635 1628.5,841C 1658,870.5 1687.5,900 1717,929.5C 1734.77,954.157 1733.1,977.49 1712,999.5C 1695,1016.5 1678,1033.5 1661,1050.5C 1659.46,1052.21 1658.62,1054.21 1658.5,1056.5C 1666.48,1078.14 1677.32,1098.14 1691,1116.5C 1725.54,1163.37 1766.37,1203.87 1813.5,1238C 1831.36,1250.27 1850.36,1260.43 1870.5,1268.5C 1872.63,1268.48 1874.63,1267.98 1876.5,1267C 1894.17,1249.33 1911.83,1231.67 1929.5,1214C 1952.83,1192.37 1976.5,1192.03 2000.5,1213C 2030.03,1242.19 2059.19,1271.69 2088,1301.5C 2100.53,1317.05 2102.86,1334.05 2095,1352.5C 2072.27,1379.57 2047.77,1405.07 2021.5,1429C 2008.75,1437.47 1994.75,1442.81 1979.5,1445C 1934.66,1445.53 1892,1436.19 1851.5,1417C 1710.39,1350.89 1602.56,1249.39 1528,1112.5C 1506.96,1072.7 1492.29,1030.7 1484,986.5C 1480.92,965.832 1482.26,945.499 1488,925.5C 1491.14,918.544 1494.81,911.877 1499,905.5C 1518.8,884.695 1538.97,864.195 1559.5,844C 1568.3,836.103 1578.3,830.603 1589.5,827.5 Z"/></g>
<g><path style="opacity:1" fill="#f8f9f9" d="M 1827.5,899.5 C 1902.64,911.3 1959.81,949.633 1999,1014.5C 2012.34,1038.18 2021.5,1063.34 2026.5,1090C 2026.09,1090.95 2025.43,1091.61 2024.5,1092C 2008.12,1094.79 1991.78,1097.45 1975.5,1100C 1955.66,1017.11 1904,967.613 1820.5,951.5C 1822.83,934.163 1825.17,916.829 1827.5,899.5 Z"/></g>
</svg>
