<?xml version="1.0" encoding="utf-8"?>
<!-- Generator: Adobe Illustrator 27.1.1, SVG Export Plug-In . SVG Version: 6.00 Build 0)  -->
<svg version="1.1" id="Layer_1" xmlns="http://www.w3.org/2000/svg" xmlns:xlink="http://www.w3.org/1999/xlink" x="0px" y="0px"
	 viewBox="0 0 1920 1080" style="enable-background:new 0 0 1920 1080;" xml:space="preserve">
<style type="text/css">
	.st0{fill:#009245;}
	.st1{fill:#FFFFFF;}
	.st2{fill:#2E3192;}
</style>
<circle class="st0" cx="960" cy="540" r="381.94"/>
<path class="st1" d="M1055.53,772.67c-7.86-1.3-15.78-2.35-23.57-3.96c-20.85-4.31-40.36-12.44-59.33-21.82
	c-75.17-37.14-135.35-91.4-182.33-160.55c-20.4-30.02-36.69-62.16-47.49-96.86c-6.28-20.19-9.98-40.8-5.78-62.08
	c1.99-10.06,6.33-18.93,13.46-26.22c12.27-12.53,24.6-25.01,37.27-37.14c15.86-15.18,33.63-15.2,49.38,0.14
	c18.41,17.93,36.45,36.25,54.51,54.54c8.05,8.16,13.25,17.64,11.47,29.68c-1.33,8.97-6.45,15.81-12.61,22
	c-10.24,10.28-20.57,20.48-30.84,30.74c-5.33,5.32-5.44,6.72-2.4,13.54c11.69,26.2,29.6,48,48.81,68.83
	c19.14,20.75,40.21,39.33,64.17,54.37c8.16,5.12,16.96,9.22,25.45,13.83c3.96,2.15,6.89,0.48,9.66-2.31
	c10.55-10.62,21.05-21.29,31.74-31.76c3.21-3.15,6.71-6.16,10.54-8.48c12.18-7.38,25.55-6.21,36.6,2.81
	c2.22,1.81,4.39,3.72,6.42,5.74c17.14,17.07,34.38,34.05,51.27,51.36c4.15,4.25,8.02,9.23,10.49,14.58
	c5.31,11.51,3.25,23.01-5.02,32.12c-13.39,14.76-27.57,28.84-41.9,42.72c-7.88,7.63-18,11.45-28.82,13.23
	c-1.32,0.22-2.61,0.63-3.91,0.96C1067.03,772.67,1061.28,772.67,1055.53,772.67z"/>
<path class="st1" d="M1199.78,525.88c-11.71,2.11-23.41,4.22-35.67,6.42c-8.89-49.03-30.77-90.95-66.27-125.46
	c-35.53-34.54-78.03-55.27-127.86-62.79c1.66-11.98,3.3-23.81,4.96-35.76c29.83,4.19,57.79,12.9,84.16,26.49
	c36.32,18.71,66.76,44.54,91.29,77.18c23.76,31.62,39.66,66.86,47.59,105.65c0.45,2.18,1.19,4.3,1.79,6.45
	C1199.78,524.67,1199.78,525.27,1199.78,525.88z"/>
<path class="st1" d="M970.18,401.37c62.83,7.19,123.04,58.57,135.26,130.89c-11.64,2.01-23.28,4.01-35.02,6.04
	c-13.19-56.45-48.02-90.27-105.12-101.97C966.91,424.78,968.55,413.07,970.18,401.37z"/>
<circle class="st2" cx="960" cy="1640" r="381.94"/>
<path class="st1" d="M976.32,1894.29c-35.49-1.35-65.57-1.73-95.51-3.88c-26.66-1.92-50.86-10.65-68.05-32.9
	c-11.77-15.23-17.66-33.02-19.75-51.71c-3.55-31.66-6.23-63.43-8.6-95.2c-3.47-46.57-6.33-93.19-9.45-139.79
	c-0.46-6.89-1.05-13.77-1.37-20.67c-0.52-11.44,7.89-20.79,18.91-21.24c10.41-0.42,19.2,7.71,19.96,18.85
	c3.69,54.3,7.03,108.62,11.02,162.89c2.25,30.55,5.48,61.03,8.34,91.54c0.24,2.61,0.91,5.19,1.53,7.76
	c6.49,27.08,20.35,39.11,49.74,41.55c18.8,1.56,37.7,2.36,56.56,2.41c34.72,0.1,69.46-0.36,104.17-1.13
	c9.47-0.21,18.99-1.83,28.31-3.72c17.44-3.55,29.75-14.07,33.62-31.4c4.15-18.53,7.19-37.48,8.67-56.41
	c4.55-58.1,8.14-116.27,12.09-174.42c0.88-12.97,1.67-25.94,2.63-38.9c0.84-11.43,9.85-19.72,20.41-18.99
	c11.09,0.77,19.22,10.09,18.45,21.64c-3.79,56.93-7.48,113.88-11.63,170.79c-2.05,28.13-4.58,56.24-7.7,84.27
	c-1.73,15.59-6.38,30.58-14.58,44.19c-14.69,24.37-37.45,36.7-64.69,39.28C1036.7,1892.2,1003.78,1892.86,976.32,1894.29z"/>
<path class="st1" d="M970.84,1502.95c-72.92,0-145.85,0.01-218.77-0.01c-12.73,0-21.41-7.63-21.68-18.89
	c-0.28-11.59,8.19-20.04,20.44-20.08c25.19-0.09,50.38-0.02,75.57-0.03c17.83-0.01,28.97-8.06,34.66-24.9
	c1.94-5.76,3.6-11.67,6.07-17.2c10.04-22.51,27.61-35.11,52.15-35.67c34.31-0.78,68.66-0.37,102.98-0.14
	c23.07,0.16,43.93,14.78,52.46,36.26c2.54,6.4,4.54,13.02,6.88,19.5c4.94,13.64,16.62,22.06,31.1,22.12
	c25.59,0.1,51.19,0.01,76.78,0.04c13.02,0.02,21.72,7.83,21.75,19.42c0.03,11.64-8.64,19.56-21.61,19.57
	C1116.69,1502.97,1043.77,1502.95,970.84,1502.95z M1047.97,1463.76c-3.17-9.15-5.92-17.61-9.03-25.94
	c-2.99-8.02-9.02-12.7-17.56-12.75c-33.71-0.2-67.43-0.17-101.14-0.02c-7.48,0.03-13.58,3.66-16.5,10.58
	c-3.83,9.07-6.76,18.52-10.19,28.13C945.23,1463.76,996.37,1463.76,1047.97,1463.76z"/>
<path class="st1" d="M937.98,1739.75c0.61,13.18-6.42,22.12-17.13,23.04c-11.37,0.97-20.3-6.23-21.57-18.3
	c-3.55-33.7-6.78-67.44-10.12-101.16c-0.9-9.09-1.96-18.17-2.57-27.27c-0.79-11.95,6.42-20.91,17.13-21.82
	c11.67-0.99,20.33,6.37,21.68,18.88c2.23,20.78,4.2,41.59,6.26,62.39C933.82,1697.32,935.95,1719.13,937.98,1739.75z"/>
<path class="st1" d="M1003.68,1738.93c2.94-29.49,6.05-60.59,9.15-91.68c1.11-11.11,2.15-22.22,3.27-33.32
	c1.1-10.91,7.51-18.4,16.72-19.61c12.88-1.7,23.19,7.61,22.2,20.94c-1.4,18.82-3.48,37.58-5.33,56.37
	c-2.31,23.43-4.76,46.84-7.01,70.27c-1.13,11.78-7.28,19.58-16.86,20.82C1012.49,1764.44,1002.86,1754.82,1003.68,1738.93z"/>
</svg>
