<?xml version="1.0" encoding="UTF-8"?>
<!DOCTYPE svg PUBLIC "-//W3C//DTD SVG 1.1//EN" "http://www.w3.org/Graphics/SVG/1.1/DTD/svg11.dtd">
<svg xmlns="http://www.w3.org/2000/svg" version="1.1" width="3840px" height="2160px" style="shape-rendering:geometricPrecision; text-rendering:geometricPrecision; image-rendering:optimizeQuality; fill-rule:evenodd; clip-rule:evenodd" xmlns:xlink="http://www.w3.org/1999/xlink">
<g><path style="opacity:1" fill="#2b2b8f" d="M 1968.5,466.5 C 2144.18,460.106 2297.85,514.273 2429.5,629C 2557.36,747.23 2627.52,893.73 2640,1068.5C 2646.82,1246.09 2591.82,1401.09 2475,1533.5C 2355.21,1661.13 2207.37,1730.3 2031.5,1741C 1853.27,1746.15 1698.6,1689.15 1567.5,1570C 1424,1430.59 1357.17,1260.43 1367,1059.5C 1384.87,861.853 1472.71,704.019 1630.5,586C 1731.77,514.516 1844.44,474.683 1968.5,466.5 Z"/></g>
<g><path style="opacity:1" fill="#f8f8f9" d="M 1940.5,753.5 C 1992.83,753.333 2045.17,753.5 2097.5,754C 2129.9,758.061 2153.07,774.894 2167,804.5C 2171.14,816.587 2175.47,828.587 2180,840.5C 2187.22,853.359 2198.06,861.192 2212.5,864C 2254.17,864.333 2295.83,864.667 2337.5,865C 2360.17,872.183 2366.67,886.683 2357,908.5C 2351.94,914.745 2345.44,918.578 2337.5,920C 2123.46,920.996 1909.46,920.662 1695.5,919C 1679.51,912.407 1673.34,900.574 1677,883.5C 1681.36,874.149 1688.52,867.982 1698.5,865C 1739.83,864.667 1781.17,864.333 1822.5,864C 1843.54,860.298 1857.04,848.132 1863,827.5C 1868.84,800.634 1883,779.467 1905.5,764C 1916.51,757.838 1928.17,754.338 1940.5,753.5 Z"/></g>
<g><path style="opacity:1" fill="#2b2b8f" d="M 1941.5,809.5 C 1993.17,809.333 2044.83,809.5 2096.5,810C 2106.88,812.708 2113.71,819.208 2117,829.5C 2120.88,841.228 2124.71,852.894 2128.5,864.5C 2055.16,864.833 1981.83,864.5 1908.5,863.5C 1913.05,850.059 1917.89,836.725 1923,823.5C 1927.15,816.023 1933.32,811.356 1941.5,809.5 Z"/></g>
<g><path style="opacity:1" fill="#f8f8f9" d="M 1758.5,957.5 C 1774.74,955.863 1785.91,962.53 1792,977.5C 1798.62,1074.19 1805.62,1170.85 1813,1267.5C 1815.96,1295.47 1818.63,1323.47 1821,1351.5C 1824.05,1367.66 1830.38,1382.33 1840,1395.5C 1851.22,1406.69 1864.72,1413.53 1880.5,1416C 1896.47,1417.74 1912.47,1419.07 1928.5,1420C 1998.85,1420.89 2069.19,1420.23 2139.5,1418C 2155.28,1416.82 2170.28,1412.82 2184.5,1406C 2198.31,1397.59 2207.14,1385.42 2211,1369.5C 2214.97,1350.28 2218.31,1330.94 2221,1311.5C 2229.88,1200.9 2237.88,1090.23 2245,979.5C 2253.75,957.539 2268.59,952.039 2289.5,963C 2293.88,967.043 2297.04,971.876 2299,977.5C 2293.54,1103.4 2284.54,1229.07 2272,1354.5C 2268.22,1389.89 2253.39,1419.72 2227.5,1444C 2211.8,1456.35 2194.13,1464.68 2174.5,1469C 2124.81,1474.12 2074.98,1477.29 2025,1478.5C 1973.74,1477.58 1922.57,1475.08 1871.5,1471C 1815.47,1459.86 1780.97,1426.36 1768,1370.5C 1765.27,1355.26 1763.27,1339.93 1762,1324.5C 1752.6,1211.93 1744.44,1099.26 1737.5,986.5C 1737.96,972.045 1744.96,962.378 1758.5,957.5 Z"/></g>
<g><path style="opacity:1" fill="#f8f8f9" d="M 1918.5,1050.5 C 1941.89,1049.06 1954.06,1060.06 1955,1083.5C 1960.49,1137.16 1965.82,1190.82 1971,1244.5C 1972.37,1255.75 1971.37,1266.75 1968,1277.5C 1958.52,1291.21 1946.02,1294.71 1930.5,1288C 1920.94,1281.03 1916.11,1271.53 1916,1259.5C 1909.9,1199.85 1904.07,1140.19 1898.5,1080.5C 1898.5,1065.87 1905.17,1055.87 1918.5,1050.5 Z"/></g>
<g><path style="opacity:1" fill="#f8f8f9" d="M 2104.5,1050.5 C 2125.33,1048.68 2136.66,1058.02 2138.5,1078.5C 2133.25,1143.29 2126.75,1207.96 2119,1272.5C 2111.94,1287.78 2100.11,1293.61 2083.5,1290C 2075.58,1286.41 2070.08,1280.58 2067,1272.5C 2065.59,1265.21 2065.25,1257.88 2066,1250.5C 2071.47,1192.81 2077.14,1135.14 2083,1077.5C 2084.91,1064.11 2092.08,1055.11 2104.5,1050.5 Z"/></g>
</svg>
