<?xml version="1.0" encoding="UTF-8"?>
<!-- Generator: visioncortex VTracer 0.6.4 -->
<svg version="1.1" xmlns="http://www.w3.org/2000/svg" width="678" height="644">
<path d="M0 0 C1.39 -0.01 1.39 -0.01 2.81 -0.02 C4.33 -0.01 4.33 -0.01 5.88 -0 C6.97 -0.01 8.05 -0.01 9.17 -0.01 C12.83 -0.02 16.5 -0.02 20.16 -0.01 C22.81 -0.02 25.45 -0.02 28.09 -0.03 C33.85 -0.04 39.61 -0.04 45.37 -0.04 C53.93 -0.04 62.5 -0.04 71.06 -0.05 C87.25 -0.07 103.44 -0.08 119.62 -0.08 C132.12 -0.08 144.62 -0.09 157.12 -0.09 C160.71 -0.09 164.31 -0.1 167.9 -0.1 C168.8 -0.1 169.69 -0.1 170.61 -0.1 C195.76 -0.11 220.9 -0.12 246.04 -0.12 C247.47 -0.12 247.47 -0.12 248.92 -0.12 C253.73 -0.12 258.53 -0.12 263.34 -0.12 C264.3 -0.12 265.25 -0.12 266.23 -0.12 C268.16 -0.12 270.1 -0.12 272.03 -0.12 C302.07 -0.12 332.11 -0.13 362.15 -0.16 C395.89 -0.19 429.63 -0.21 463.36 -0.2 C466.96 -0.2 470.55 -0.2 474.15 -0.2 C475.48 -0.2 475.48 -0.2 476.83 -0.2 C491.1 -0.2 505.36 -0.22 519.62 -0.23 C533.95 -0.25 548.28 -0.25 562.61 -0.24 C571.12 -0.23 579.64 -0.24 588.16 -0.26 C593.84 -0.27 599.53 -0.27 605.22 -0.25 C608.46 -0.24 611.7 -0.24 614.94 -0.26 C618.44 -0.27 621.93 -0.26 625.42 -0.24 C626.93 -0.26 626.93 -0.26 628.47 -0.27 C635.59 -0.2 641.01 1.26 646.43 6.03 C647.09 6.89 647.09 6.89 647.78 7.75 C648.24 8.32 648.7 8.89 649.18 9.47 C652.93 14.92 653.13 19.74 652.4 26.25 C650.42 32.53 645.13 37.12 639.55 40.32 C637.27 41.31 635.79 41.5 633.33 41.51 C632.14 41.52 632.14 41.52 630.93 41.53 C630.08 41.53 629.23 41.53 628.36 41.53 C626.54 41.55 624.73 41.57 622.92 41.59 C620.07 41.61 617.22 41.63 614.38 41.63 C611.62 41.64 608.87 41.68 606.11 41.71 C605.27 41.71 604.43 41.7 603.57 41.7 C594.19 41.85 587.23 45.63 580.48 51.99 C571.06 62.27 568.95 73.84 569.02 87.37 C569.02 88.66 569.01 89.95 569.01 91.28 C569 94.84 569 98.39 569.01 101.95 C569.02 105.8 569.01 109.64 569 113.49 C568.99 120.15 568.99 126.81 568.99 133.47 C569 143.12 568.99 152.76 568.97 162.41 C568.94 178.09 568.92 193.77 568.91 209.46 C568.91 210.39 568.91 211.33 568.91 212.3 C568.91 218.95 568.91 225.6 568.9 232.25 C568.9 239.84 568.9 247.42 568.89 255.01 C568.89 255.94 568.89 256.88 568.89 257.84 C568.88 273.45 568.86 289.07 568.83 304.68 C568.81 314.3 568.81 323.91 568.81 333.53 C568.82 340.12 568.81 346.72 568.8 353.32 C568.79 357.12 568.79 360.92 568.8 364.71 C568.89 403.45 561.44 433.53 534.4 462.25 C533.61 463.14 533.61 463.14 532.8 464.05 C522.79 474.83 509.76 482.42 496.4 488.25 C495.76 488.54 495.11 488.82 494.45 489.11 C474.66 497.55 455.34 498.85 434.01 498.83 C431.3 498.84 428.59 498.86 425.87 498.87 C419.32 498.91 412.76 498.92 406.2 498.92 C398.54 498.93 390.88 498.96 383.22 498.99 C369.54 499.04 355.86 499.07 342.18 499.09 C328.95 499.11 315.72 499.15 302.49 499.2 C301.68 499.2 300.86 499.2 300.02 499.21 C299.21 499.21 298.39 499.21 297.55 499.21 C282.43 499.27 267.3 499.31 252.17 499.35 C246.85 499.37 241.53 499.38 236.21 499.4 C229.71 499.42 223.22 499.44 216.72 499.44 C213.41 499.45 210.11 499.45 206.8 499.47 C170.69 499.61 170.69 499.61 155.28 494.57 C154.45 494.3 153.62 494.04 152.77 493.77 C133.07 487.37 116.12 477.92 101.4 463.25 C100.55 462.4 99.69 461.55 98.81 460.68 C76.52 438.21 66.25 409.61 66.26 378.31 C66.25 377.03 66.25 375.74 66.25 374.42 C66.24 370.88 66.23 367.34 66.23 363.79 C66.23 359.97 66.22 356.14 66.21 352.31 C66.19 345.68 66.18 339.05 66.17 332.42 C66.16 322.83 66.14 313.24 66.11 303.65 C66.08 288.07 66.04 272.49 66.01 256.91 C66.01 255.98 66.01 255.05 66 254.09 C65.98 240.87 65.95 227.64 65.93 214.42 C65.93 213.02 65.93 213.02 65.93 211.59 C65.92 210.66 65.92 209.73 65.92 208.77 C65.89 193.25 65.86 177.73 65.82 162.21 C65.79 152.64 65.78 143.08 65.77 133.51 C65.76 126.95 65.74 120.4 65.72 113.84 C65.71 110.06 65.7 106.28 65.7 102.5 C65.71 98.4 65.69 94.3 65.67 90.2 C65.68 89.01 65.68 87.82 65.68 86.59 C65.6 73.24 62.44 61.51 53.21 51.32 C42.16 41.88 31.54 41.44 17.71 41.63 C-5.82 41.85 -5.82 41.85 -12.45 35.47 C-17.31 30.2 -19.03 26.01 -18.84 18.85 C-18.29 12.91 -16.65 8.87 -12.16 4.88 C-8.26 1.76 -5.06 0 0 0 Z M96.4 43.25 C96.71 44.03 97.03 44.8 97.35 45.6 C99.06 49.91 100.49 54.3 101.96 58.69 C102.28 59.62 102.6 60.55 102.92 61.5 C103.23 62.41 103.53 63.32 103.84 64.25 C104.12 65.07 104.39 65.88 104.68 66.72 C106.03 71.43 106.53 76 106.53 80.88 C106.53 81.99 106.54 83.09 106.54 84.23 C106.54 86.03 106.54 86.03 106.53 87.87 C106.54 89.16 106.54 90.44 106.54 91.76 C106.54 94.58 106.55 97.4 106.55 100.22 C106.54 104.8 106.55 109.39 106.55 113.97 C106.56 120.63 106.57 127.29 106.57 133.95 C106.58 144.49 106.59 155.02 106.61 165.56 C106.62 169.16 106.62 172.77 106.63 176.38 C106.63 177.28 106.63 178.18 106.64 179.11 C106.65 189.37 106.67 199.63 106.69 209.89 C106.69 210.83 106.69 211.77 106.69 212.73 C106.71 227.91 106.72 243.09 106.73 258.27 C106.74 273.87 106.76 289.47 106.8 305.07 C106.82 314.68 106.83 324.3 106.82 333.91 C106.82 340.5 106.83 347.1 106.85 353.7 C106.87 357.5 106.87 361.3 106.86 365.1 C106.53 386.05 106.53 386.05 111.4 406.25 C111.72 407.08 112.03 407.91 112.35 408.76 C113.13 410.7 114 412.53 114.96 414.38 C115.47 415.36 115.47 415.36 115.98 416.37 C126.08 435.19 143.5 448.88 163.7 455.25 C164.92 455.58 166.14 455.91 167.4 456.25 C168.35 456.51 168.35 456.51 169.32 456.78 C175.61 458.35 181.62 458.54 188.08 458.52 C189.23 458.52 190.38 458.53 191.56 458.53 C195.39 458.55 199.22 458.55 203.06 458.54 C205.81 458.55 208.56 458.56 211.32 458.56 C218.01 458.58 224.71 458.59 231.41 458.59 C236.85 458.59 242.3 458.59 247.75 458.6 C263.22 458.62 278.69 458.63 294.16 458.62 C294.99 458.62 295.83 458.62 296.69 458.62 C297.52 458.62 298.35 458.62 299.21 458.62 C312.72 458.62 326.22 458.64 339.72 458.67 C353.61 458.7 367.51 458.71 381.4 458.71 C389.18 458.71 396.97 458.72 404.76 458.74 C411.39 458.76 418.03 458.76 424.66 458.75 C428.04 458.74 431.42 458.74 434.8 458.76 C451.71 458.83 467.66 458.66 482.9 450.38 C483.57 450.03 484.23 449.68 484.92 449.32 C489.78 446.72 494.22 443.87 498.4 440.25 C499.13 439.67 499.85 439.09 500.59 438.49 C515.49 426.06 525.55 406.57 527.4 387.25 C527.55 383.06 527.54 378.86 527.54 374.66 C527.54 373.39 527.55 372.12 527.55 370.81 C527.56 367.3 527.56 363.78 527.56 360.27 C527.56 356.47 527.57 352.68 527.58 348.88 C527.59 342.31 527.6 335.73 527.6 329.16 C527.61 318.76 527.63 308.36 527.65 297.96 C527.66 294.4 527.67 290.83 527.68 287.27 C527.68 285.94 527.68 285.94 527.68 284.57 C527.7 274.45 527.72 264.32 527.74 254.19 C527.74 253.27 527.74 252.34 527.75 251.39 C527.77 236.4 527.79 221.42 527.81 206.43 C527.82 191.03 527.85 175.63 527.89 160.22 C527.92 150.73 527.93 141.24 527.93 131.75 C527.93 125.24 527.95 118.73 527.97 112.22 C527.98 108.47 527.99 104.72 527.98 100.97 C527.97 96.89 527.99 92.81 528.01 88.73 C528 87.57 528 86.4 527.99 85.19 C528.08 74.28 530.13 63.83 534.03 53.63 C535.97 48.52 535.97 48.52 537.4 43.25 C533.91 42.18 530.7 42.13 527.06 42.13 C525.75 42.12 524.44 42.12 523.08 42.12 C521.62 42.12 520.16 42.12 518.7 42.13 C517.15 42.12 515.6 42.12 514.05 42.12 C509.78 42.12 505.52 42.12 501.25 42.12 C496.65 42.12 492.05 42.12 487.45 42.12 C478.41 42.11 469.38 42.11 460.35 42.12 C452.98 42.12 445.62 42.12 438.25 42.12 C437.2 42.12 436.15 42.12 435.07 42.12 C432.93 42.12 430.8 42.12 428.67 42.12 C408.62 42.11 388.57 42.12 368.52 42.12 C351.43 42.13 334.34 42.13 317.24 42.12 C297.34 42.12 277.44 42.12 257.53 42.12 C255.39 42.12 253.25 42.12 251.11 42.12 C249.53 42.12 249.53 42.12 247.92 42.12 C240.61 42.12 233.31 42.12 226 42.12 C182.79 42.1 139.6 42.13 96.4 43.25 Z " fill="#020101" transform="translate(21.597699403762817,140.74700033664703)"/>
<path d="M0 0 C1.13 0.43 1.13 0.43 2.27 0.86 C8.3 3.24 13.9 5.74 17.25 11.56 C17.85 12.57 17.85 12.57 18.46 13.6 C21.2 18.91 21.46 25.01 19.79 30.72 C16.94 37.04 11.87 41.88 5.44 44.5 C-3.51 45.94 -11.01 43.66 -19.41 40.93 C-33.79 36.37 -49.48 33.89 -64.56 33.5 C-65.4 33.47 -66.24 33.45 -67.11 33.42 C-93.03 32.72 -117.8 35.85 -142.62 43.31 C-149.58 45.23 -157.14 45.88 -163.94 43.06 C-169.12 40.06 -171.95 34.72 -174.56 29.5 C-175.14 22.81 -174.96 17.36 -171.56 11.5 C-165.08 3.97 -157.59 1.12 -148.38 -1.94 C-147.2 -2.33 -146.02 -2.72 -144.81 -3.13 C-132.29 -7.14 -119.55 -9.57 -106.56 -11.5 C-105.5 -11.66 -105.5 -11.66 -104.42 -11.82 C-69.94 -16.54 -32.51 -12.38 0 0 Z " fill="#020202" transform="translate(415.5625,18.5)"/>
<path d="M0 0 C5.79 2.98 9.98 6.84 12.32 13.01 C13.74 18.33 13.5 23.76 13.49 29.22 C13.49 30.43 13.5 31.64 13.5 32.88 C13.51 36.17 13.52 39.47 13.51 42.77 C13.51 45.52 13.52 48.28 13.52 51.04 C13.53 57.55 13.53 64.06 13.53 70.57 C13.52 77.27 13.53 83.97 13.55 90.68 C13.57 96.44 13.58 102.21 13.57 107.98 C13.57 111.42 13.58 114.86 13.59 118.3 C13.6 122.13 13.59 125.97 13.58 129.81 C13.59 131.5 13.59 131.5 13.61 133.23 C13.56 140.35 13.09 146.55 8.41 152.29 C2.23 157.37 -3.24 160.69 -11.45 160.36 C-18.37 159.52 -23.25 157.52 -27.79 152.08 C-28.87 150.93 -28.87 150.93 -29.98 149.77 C-34.55 142.99 -34.08 134.97 -34.06 127.1 C-34.07 125.92 -34.07 124.74 -34.08 123.53 C-34.09 119.65 -34.09 115.77 -34.09 111.89 C-34.09 109.87 -34.1 107.85 -34.1 105.83 C-34.11 99.48 -34.11 93.14 -34.1 86.79 C-34.1 80.26 -34.11 73.73 -34.13 67.2 C-34.15 61.58 -34.16 55.95 -34.15 50.33 C-34.15 46.98 -34.15 43.62 -34.17 40.27 C-34.18 36.53 -34.17 32.8 -34.16 29.06 C-34.17 27.96 -34.18 26.86 -34.18 25.73 C-34.13 18.29 -33.07 12.85 -29.16 6.39 C-21.11 -1.46 -10.86 -3.59 0 0 Z " fill="#020101" transform="translate(423.7890625,290.921875)"/>
<path d="M0 0 C5.65 3.42 9.36 8.24 11.5 14.44 C11.76 16.99 11.76 16.99 11.77 19.75 C11.78 20.81 11.78 21.86 11.79 22.94 C11.79 24.09 11.79 25.23 11.79 26.41 C11.8 27.63 11.8 28.84 11.81 30.09 C11.83 33.41 11.83 36.74 11.83 40.06 C11.84 42.14 11.84 44.22 11.85 46.3 C11.86 53.56 11.87 60.83 11.87 68.1 C11.87 74.85 11.89 81.61 11.92 88.36 C11.95 94.18 11.96 99.99 11.96 105.8 C11.96 109.27 11.96 112.73 11.98 116.2 C12.01 120.07 12 123.94 11.99 127.82 C12 128.95 12.01 130.08 12.02 131.25 C11.96 138.9 11.03 146.35 5.85 152.35 C0.86 157.1 -4.66 159.17 -11.44 159.81 C-19.08 159.44 -24.64 156.98 -29.99 151.55 C-34.95 144.6 -34.94 138.23 -34.92 129.93 C-34.93 128.68 -34.94 127.44 -34.95 126.15 C-34.96 122.75 -34.97 119.35 -34.97 115.94 C-34.97 113.09 -34.98 110.25 -34.99 107.4 C-35 100.68 -35.01 93.96 -35 87.23 C-34.99 80.31 -35.02 73.4 -35.05 66.48 C-35.09 60.52 -35.1 54.57 -35.09 48.61 C-35.09 45.06 -35.1 41.51 -35.12 37.96 C-35.15 34 -35.13 30.04 -35.12 26.08 C-35.13 24.91 -35.14 23.74 -35.16 22.54 C-35.07 14.66 -33.56 9.6 -28.02 3.92 C-20.6 -2.7 -9.12 -4.11 0 0 Z " fill="#020101" transform="translate(275.5,291.5625)"/>
<path d="M0 0 C0.33 0.66 0.66 1.32 1 2 C1.66 2 2.32 2 3 2 C2.67 6.29 2.34 10.58 2 15 C1.67 15 1.34 15 1 15 C0.67 54.27 0.34 93.54 0 134 C-0.33 134 -0.66 134 -1 134 C-2.28 128.09 -2.15 122.23 -2.15 116.21 C-2.15 115.03 -2.15 113.85 -2.16 112.64 C-2.16 109.41 -2.17 106.18 -2.17 102.95 C-2.17 100.94 -2.17 98.92 -2.17 96.9 C-2.18 89.85 -2.19 82.8 -2.19 75.75 C-2.18 69.19 -2.2 62.63 -2.21 56.07 C-2.22 50.43 -2.23 44.79 -2.23 39.14 C-2.23 35.78 -2.23 32.41 -2.24 29.04 C-2.25 25.29 -2.25 21.54 -2.24 17.79 C-2.25 16.68 -2.25 15.57 -2.26 14.42 C-2.24 9.22 -2.11 4.86 0 0 Z " fill="#1C191D" transform="translate(392,302)"/>
<path d="M0 0 C-2.07 4.85 -5.26 6.91 -10 9 C-13.21 9.66 -16.31 9.7 -19.57 9.67 C-20.9 9.69 -20.9 9.69 -22.26 9.71 C-25.07 9.75 -27.88 9.75 -30.69 9.75 C-33.51 9.77 -36.33 9.8 -39.15 9.83 C-40.89 9.85 -42.64 9.86 -44.39 9.86 C-48.39 9.88 -52.09 10 -56 11 C-55.67 10.01 -55.34 9.02 -55 8 C-55.66 7.67 -56.32 7.34 -57 7 C-41.16 7 -25.32 7 -9 7 C-9 6.34 -9 5.68 -9 5 C-7.54 3.71 -7.54 3.71 -5.62 2.38 C-5 1.93 -4.37 1.48 -3.73 1.02 C-2 0 -2 0 0 0 Z " fill="#161117" transform="translate(669,173)"/>
<path d="M0 0 C2.64 0.66 5.28 1.32 8 2 C8 2.66 8 3.32 8 4 C7.34 4 6.68 4 6 4 C6 4.66 6 5.32 6 6 C5.03 5.68 4.07 5.35 3.07 5.02 C-1.33 3.77 -5.56 3.69 -10.11 3.66 C-10.96 3.64 -11.81 3.63 -12.68 3.61 C-16.29 3.55 -19.89 3.51 -23.5 3.47 C-26.14 3.43 -28.78 3.39 -31.42 3.34 C-32.24 3.34 -33.05 3.33 -33.89 3.33 C-37.77 3.26 -39.7 3.2 -43 1 C-28.81 1 -14.62 1 0 1 C0 0.67 0 0.34 0 0 Z " fill="#292129" transform="translate(60,179)"/>
<path d="M0 0 C2.18 1.1 2.18 1.1 5.31 3.1 C4.98 4.09 4.65 5.08 4.31 6.1 C0.93 5.85 0.93 5.85 -2.69 5.1 C-3.35 3.78 -4.01 2.46 -4.69 1.1 C-9.31 1.1 -13.93 1.1 -18.69 1.1 C-19.02 1.76 -19.35 2.42 -19.69 3.1 C-20.35 2.44 -21.01 1.78 -21.69 1.1 C-15.13 -1.99 -6.89 -2.3 0 0 Z " fill="#120E13" transform="translate(273.69140625,290.8984375)"/>
<path d="M0 0 C4.43 0.59 8.19 1.71 12.31 3.44 C13.88 4.09 13.88 4.09 15.49 4.75 C18 6 18 6 19 8 C14.25 9.12 14.25 9.12 12 8 C12 7.01 12 6.02 12 5 C11.67 5.66 11.34 6.32 11 7 C9.35 6.67 7.7 6.34 6 6 C5.67 4.68 5.34 3.36 5 2 C3.35 2 1.7 2 0 2 C0 1.34 0 0.68 0 0 Z " fill="#130F15" transform="translate(406,16)"/>
<path d="M0 0 C0 2.64 0 5.28 0 8 C-0.99 7.67 -1.98 7.34 -3 7 C-3 6.34 -3 5.68 -3 5 C-3.99 5.66 -4.98 6.32 -6 7 C-6 7.99 -6 8.98 -6 10 C-6.99 10 -7.98 10 -9 10 C-9.33 10.99 -9.66 11.98 -10 13 C-9.74 7.77 -7.86 5.14 -4.57 1.32 C-3 0 -3 0 0 0 Z " fill="#130F13" transform="translate(14,144)"/>
<path d="M0 0 C-0.33 1.65 -0.66 3.3 -1 5 C-1.99 4.34 -2.98 3.68 -4 3 C-9.76 2.33 -14.56 3.06 -20 5 C-22.16 4.56 -22.16 4.56 -24 4 C-8.44 -1.92 -8.44 -1.92 0 0 Z " fill="#161417" transform="translate(287,14)"/>
<path d="M0 0 C6.87 -0.26 13.26 0.74 20 2 C19.67 2.99 19.34 3.98 19 5 C17.33 5.04 15.67 5.04 14 5 C13.67 4.67 13.34 4.34 13 4 C11.95 3.86 10.9 3.71 9.81 3.56 C6.32 3.05 3.31 2.21 0 1 C0 0.67 0 0.34 0 0 Z " fill="#120F13" transform="translate(360,7)"/>
<path d="M0 0 C1.95 0.24 1.95 0.24 4.12 0.88 C4.85 1.08 5.57 1.28 6.32 1.49 C6.87 1.66 7.43 1.83 8 2 C8 2.66 8 3.32 8 4 C7.34 4 6.68 4 6 4 C6 4.66 6 5.32 6 6 C3.65 5.4 1.31 4.73 -1 4 C-1.33 3.34 -1.66 2.68 -2 2 C-1.34 1.34 -0.68 0.68 0 0 Z " fill="#151315" transform="translate(60,179)"/>
<path d="M0 0 C1.44 0.11 2.88 0.24 4.31 0.38 C5.51 0.48 5.51 0.48 6.74 0.59 C9 1 9 1 12 3 C11.01 3 10.02 3 9 3 C9 3.66 9 4.32 9 5 C4.55 4.01 4.55 4.01 0 3 C0 2.01 0 1.02 0 0 Z " fill="#16141B" transform="translate(391,12)"/>
</svg>
