<?xml version="1.0" encoding="UTF-8"?>
<svg version="1.1" xmlns="http://www.w3.org/2000/svg" width="1024" height="1024">
<path d="M0 0 C337.92 0 675.84 0 1024 0 C1024 337.92 1024 675.84 1024 1024 C686.08 1024 348.16 1024 0 1024 C0 686.08 0 348.16 0 0 Z " fill="#FDFEFE" transform="translate(0,0)"/>
<path d="M0 0 C3.11656914 0.01078907 6.23256834 -0.00002045 9.34912109 -0.01269531 C28.21007961 -0.02791684 46.52722753 1.85436314 65.10302734 5.01074219 C66.25859131 5.20482666 66.25859131 5.20482666 67.4375 5.40283203 C80.93006649 7.68260093 94.17867969 10.53544801 107.35302734 14.26074219 C108.23861328 14.50824219 109.12419922 14.75574219 110.03662109 15.01074219 C112.64644667 15.74655204 115.25087908 16.49825223 117.85302734 17.26074219 C118.94550781 17.57978516 118.94550781 17.57978516 120.06005859 17.90527344 C133.32109303 21.93304766 146.16915889 27.27070422 158.85302734 32.82324219 C159.53835541 33.12276794 160.22368347 33.4222937 160.92977905 33.730896 C192.85115799 47.74435047 222.3458126 66.24625586 249.35302734 88.26074219 C250.14821777 88.9072876 250.14821777 88.9072876 250.95947266 89.56689453 C260.49218858 97.36239455 269.4787653 105.72874434 278.35302734 114.26074219 C278.95743652 114.84178711 279.5618457 115.42283203 280.18457031 116.02148438 C286.63473856 122.25849794 292.66200891 128.6013615 298.23974609 135.64746094 C300.37247563 138.28479192 302.61355899 140.77053792 304.91552734 143.26074219 C309.50225465 148.31405037 313.42973547 153.68480701 317.35302734 159.26074219 C318.24347491 160.48447637 319.1354979 161.70706523 320.02880859 162.92871094 C375.66970108 239.54757149 404.721729 341.12295039 390.35302734 442.26074219 C390.1567202 443.58481385 389.96145605 444.90904046 389.76708984 446.23339844 C379.58048266 515.06510033 353.23462656 580.87228119 309.35302734 635.26074219 C308.65951172 636.12699219 307.96599609 636.99324219 307.25146484 637.88574219 C302.88006304 643.29366194 298.38084638 648.54640374 293.68896484 653.67871094 C291.79598673 655.77111651 289.94865247 657.88938487 288.10693359 660.02636719 C284.22153845 664.47551942 280.10232796 668.65905255 275.91552734 672.82324219 C275.20332031 673.53931641 274.49111328 674.25539063 273.75732422 674.99316406 C269.11991579 679.6221485 264.32765731 683.99837827 259.35302734 688.26074219 C258.37720703 689.11796875 257.40138672 689.97519531 256.39599609 690.85839844 C212.9846924 728.33108329 158.50709888 758.63509441 102.35302734 771.26074219 C99.87301367 771.90331532 97.39387494 772.54927282 94.91552734 773.19824219 C79.04440957 777.21109865 62.9424859 780.45264548 46.64253235 782.03230286 C44.33259259 782.2627811 42.02565922 782.51421454 39.71826172 782.76879883 C26.98375127 784.13116021 14.40453229 784.5864601 1.60302734 784.51074219 C0.16452423 784.50559097 0.16452423 784.50559097 -1.30303955 784.50033569 C-26.58126343 784.39459651 -50.79356365 781.90840054 -75.64697266 777.26074219 C-76.49243652 777.10379883 -77.33790039 776.94685547 -78.20898438 776.78515625 C-100.39109187 772.55114587 -122.88448349 766.11699437 -143.64697266 757.26074219 C-144.61505859 756.87917969 -145.58314453 756.49761719 -146.58056641 756.10449219 C-182.10841295 741.99414179 -216.48593192 722.04762681 -245.64697266 697.26074219 C-247.54135747 695.73810493 -249.43712518 694.2171861 -251.33447266 692.69824219 C-261.18328563 684.57476871 -270.27393109 675.74376209 -279.33447266 666.76074219 C-280.21345215 665.89481445 -281.09243164 665.02888672 -281.99804688 664.13671875 C-287.98420953 658.15843114 -293.37028122 651.86741801 -298.64697266 645.26074219 C-299.51057947 644.23337583 -300.37897593 643.20997229 -301.25634766 642.19433594 C-316.60094066 624.30164446 -330.29461782 604.29811678 -341.43261719 583.52490234 C-342.29487426 581.91722801 -343.16372848 580.31308424 -344.03710938 578.71142578 C-353.76605741 560.84134023 -362.08388876 542.44901667 -368.61181641 523.16308594 C-369.64685531 520.14654056 -369.64685531 520.14654056 -371.15478516 516.86230469 C-372.68828739 513.16102444 -373.66814751 509.59557361 -374.58447266 505.69824219 C-375.80079275 500.6046083 -377.1216891 495.58574266 -378.64697266 490.57324219 C-381.0653244 482.25600892 -382.57482634 473.77870108 -384.09545898 465.25878906 C-384.50308628 463.04291336 -384.9334763 460.83119741 -385.3762207 458.62207031 C-387.30510858 448.94775842 -388.54481591 439.34132589 -389.33447266 429.51074219 C-389.39734467 428.74672089 -389.46021667 427.98269958 -389.5249939 427.19552612 C-395.30523962 355.42206445 -383.73187376 280.28116654 -349.67578125 216.21240234 C-348.54479828 214.06691638 -347.44864214 211.9054541 -346.35400391 209.74121094 C-337.04673318 191.48478567 -325.89672035 174.66382079 -313.64697266 158.26074219 C-313.19580078 157.65504395 -312.74462891 157.0493457 -312.27978516 156.42529297 C-294.53653959 132.70714388 -274.1022641 109.42564456 -250.64697266 91.26074219 C-248.76908146 89.65996101 -246.89425549 88.05557933 -245.02197266 86.44824219 C-237.57398116 80.23355329 -229.64710411 74.73606827 -221.64697266 69.26074219 C-220.9926123 68.81166504 -220.33825195 68.36258789 -219.6640625 67.89990234 C-185.29386858 44.39823973 -145.55688535 23.2776209 -104.64697266 14.26074219 C-102.20852575 13.63944681 -99.77111578 13.01407453 -97.33447266 12.38574219 C-65.11513727 4.29751839 -33.26186005 -0.13638359 0 0 Z " fill="#253A4E" transform="translate(510.64697265625,119.7392578125)"/>
<path d="M0 0 C109.56 0 219.12 0 332 0 C330.82165023 15.31854701 329.60820781 30.53555528 327.94058228 45.79296875 C325.77972254 65.61244695 323.94033904 85.44643292 322.34423828 105.3190918 C322.26820877 106.25194504 322.19217926 107.18479828 322.11384583 108.1459198 C321.97563869 109.84603196 321.84022642 111.54637584 321.70878601 113.24702454 C321.30147031 118.2547927 320.7264999 123.22338485 320.07983398 128.20605469 C318.72490492 138.73044988 317.79587164 149.29371706 316.828125 159.859375 C316.62326077 162.07358808 316.41811498 164.28777512 316.21270752 166.50193787 C315.77963979 171.17365307 315.3478788 175.84548615 314.91723633 180.51742554 C313.80060268 192.62813559 312.67488153 204.73800076 311.546875 216.84765625 C311.43609619 218.03740366 311.32531738 219.22715107 311.21118164 220.45295143 C309.17456268 242.30747446 307.04687754 264.15126208 304.80175781 285.98535156 C304.58629384 288.08786045 304.3711134 290.19039841 304.15625 292.29296875 C304.05634262 293.26934296 303.95643524 294.24571716 303.85350037 295.25167847 C303.02472976 303.47966422 302.3310768 311.71709515 301.69897461 319.96244812 C300.25101638 338.32692554 296.87171972 355.02830236 282.8359375 368 C277.70457629 372.20662827 272.16164222 375.53196224 266 378 C265.38762041 378.2491856 264.77524082 378.4983712 264.14430428 378.75510788 C255.78433392 381.72067447 247.39049778 381.40776777 238.65185547 381.35644531 C236.90968727 381.35723733 235.16751925 381.3593381 233.425354 381.36264038 C228.7188622 381.36774989 224.01259112 381.35428852 219.3061347 381.33711338 C214.36914474 381.32201425 209.43215689 381.32324993 204.49514771 381.32244873 C196.2084784 381.31876304 187.92189227 381.3038302 179.63525391 381.28125 C169.01145319 381.25235953 158.38771932 381.24202327 147.76388359 381.2375679 C138.6110905 381.23358221 129.45831183 381.22108359 120.30552912 381.20722103 C117.37204045 381.20313176 114.43855228 381.20020126 111.5050621 381.19742584 C106.89048299 381.19251544 102.27594386 381.18228286 97.66138458 381.16798782 C95.97155494 381.16348406 94.28171993 381.16063074 92.59188461 381.15958023 C90.27865463 381.15782013 87.9655228 381.14990011 85.65231323 381.14044189 C84.36004255 381.13746723 83.06777187 381.13449257 81.73634148 381.13142776 C70.78834106 380.74632613 70.78834106 380.74632613 66.0703125 378.46875 C65.42505615 378.15768311 64.7797998 377.84661621 64.11499023 377.52612305 C63.12994507 377.01819214 63.12994507 377.01819214 62.125 376.5 C61.08291382 375.96596558 61.08291382 375.96596558 60.01977539 375.42114258 C46.73914367 368.34194418 38.05537827 357.10392097 33 343 C30.85847352 335.10706325 30.3860455 326.96930636 29.79261971 318.84922218 C29.49098714 314.73866559 29.16648882 310.62990209 28.84326172 306.52099609 C28.77584935 305.66005372 28.70843699 304.79911135 28.63898182 303.91207981 C27.88326695 294.3560481 26.9990832 284.81275784 26.09765625 275.26953125 C26.01513988 274.3942062 25.93262352 273.51888115 25.84760666 272.6170311 C25.34078605 267.24600412 24.83032672 261.87532838 24.31866455 256.50476074 C23.89352135 252.03655336 23.47132893 247.56806725 23.04882812 243.09960938 C22.20582253 234.18931499 21.35907425 225.2793798 20.51098633 216.36956787 C20.08132137 211.85555274 19.65233709 207.34147322 19.22355175 202.82737446 C17.00719687 179.49622265 14.76486037 156.16776945 12.49462891 132.84179688 C12.11822701 128.97271306 11.74246794 125.10356774 11.3671875 121.234375 C11.24857361 120.01193085 11.12995972 118.78948669 11.00775146 117.52999878 C10.18531798 109.01570248 9.3958055 100.49882736 8.65255737 91.97723389 C8.21941145 87.0881726 7.67124841 82.23724807 7 77.375 C5.86093093 68.73409326 5.33532296 60.06162028 4.75219727 51.36816406 C4.20832766 43.43419204 3.44003115 35.57850675 2.4375 27.69140625 C1.87547127 22.94928885 1.53834343 18.20686538 1.24609375 13.44140625 C0.92514272 8.95318629 0.44773498 4.47734981 0 0 Z " fill="#FDFDFD" transform="translate(346,374)"/>
<path d="M0 0 C1.2164193 -0.01533279 1.2164193 -0.01533279 2.45741272 -0.03097534 C5.11612168 -0.05858457 7.77378263 -0.0568675 10.43261719 -0.05224609 C12.29816058 -0.06003187 14.16370046 -0.06870363 16.02923584 -0.07821655 C19.93285629 -0.09310292 23.8361149 -0.09258785 27.73974609 -0.08203125 C32.71392523 -0.07046504 37.68660926 -0.10426191 42.66054153 -0.1507206 C46.5127817 -0.18035783 50.36466886 -0.18191664 54.21700287 -0.17570114 C56.04923201 -0.17672007 57.88148288 -0.18705336 59.71360016 -0.20732498 C70.44653063 -0.31149087 79.42197326 -0.04369234 88.47949219 6.54931641 C94.28358358 12.37880344 97.61520351 19.4388806 97.77246094 27.70556641 C97.75281217 29.48705496 97.71746776 31.26843467 97.66699219 33.04931641 C97.65345703 33.96712891 97.63992188 34.88494141 97.62597656 35.83056641 C97.59097316 38.07078444 97.54188088 40.30972235 97.47949219 42.54931641 C98.3265271 42.54378565 98.3265271 42.54378565 99.19067383 42.53814316 C112.95465908 42.44966125 126.71859425 42.38379902 140.48280334 42.34206772 C147.13921165 42.32120705 153.79535983 42.29291669 160.45166016 42.24755859 C166.87721778 42.20404764 173.30257789 42.18016782 179.72827148 42.16980743 C182.17784737 42.16242559 184.62741265 42.1480106 187.0769043 42.12639618 C190.5121178 42.09729353 193.94651868 42.09336343 197.38183594 42.09521484 C198.39100571 42.08083374 199.40017548 42.06645264 200.43992615 42.05163574 C207.81440497 42.09454694 213.165144 43.63860239 218.75683594 48.54931641 C219.3046875 49.20931641 219.85253906 49.86931641 220.41699219 50.54931641 C220.98289062 51.20931641 221.54878906 51.86931641 222.13183594 52.54931641 C226.20002536 58.58674535 224.95120114 67.57079869 224.47949219 74.54931641 C223.12731313 80.67066752 219.42619263 83.97735599 214.27823567 87.28272617 C208.78194253 89.77011069 202.96695414 89.36141658 197.0430603 89.29103088 C195.58421658 89.29580141 194.1253795 89.30319842 192.66656077 89.31298012 C188.67532724 89.33214726 184.68501233 89.31407575 180.69383955 89.28968728 C176.38295636 89.26989748 172.07217262 89.28481431 167.76127625 89.29533386 C159.32377758 89.31043747 150.88663245 89.29356409 142.44917773 89.26578296 C132.62202695 89.23459191 122.79495209 89.23484254 112.96776111 89.2363007 C95.43416204 89.23780171 77.90072728 89.21033992 60.3671875 89.16674805 C43.35511278 89.12447457 26.34318265 89.10323636 9.33105469 89.10522461 C8.28296758 89.10534448 7.23488048 89.10546435 6.15503316 89.10558785 C5.10875353 89.10570891 4.06247391 89.10582997 2.98448884 89.10595471 C-16.38779982 89.10802447 -35.76002709 89.09035442 -55.13229585 89.06349506 C-61.9819739 89.05444842 -68.83164065 89.05125668 -75.68132401 89.04989815 C-84.02744956 89.04785124 -92.37347161 89.03445006 -100.71955325 89.00689972 C-104.97762937 88.99305436 -109.23557317 88.98390605 -113.49367332 88.98768234 C-117.39202258 88.99097196 -121.29007937 88.98038547 -125.18836765 88.95873677 C-126.59802844 88.95330577 -128.00771948 88.95289721 -129.41738136 88.95803864 C-142.6613564 89.00099197 -142.6613564 89.00099197 -148.52050781 85.54931641 C-150.48144531 83.35791016 -150.48144531 83.35791016 -151.89550781 80.98681641 C-152.37761719 80.20177734 -152.85972656 79.41673828 -153.35644531 78.60791016 C-156.97157746 72.21470665 -156.44075343 63.74888504 -155.52050781 56.54931641 C-153.26805234 50.46223085 -149.19938589 46.51220932 -143.52050781 43.54931641 C-140.56536781 42.63087811 -137.91249269 42.42556982 -134.82550049 42.42906189 C-133.88603073 42.42768723 -132.94656097 42.42631256 -131.97862244 42.42489624 C-130.95507156 42.42849152 -129.93152069 42.43208679 -128.87695312 42.43579102 C-127.79372269 42.43564499 -126.71049225 42.43549896 -125.59443665 42.43534851 C-122.01248169 42.43604541 -118.43057868 42.44382746 -114.84863281 42.45166016 C-112.3657026 42.45352513 -109.88277202 42.45494866 -107.39984131 42.45594788 C-101.53153972 42.45937646 -95.66325732 42.46725871 -89.7949636 42.47729737 C-82.4573876 42.48957667 -75.1198105 42.49494344 -67.78222656 42.50048828 C-54.6949775 42.51121465 -41.60774384 42.52809155 -28.52050781 42.54931641 C-28.53130875 41.94393036 -28.54210968 41.33854431 -28.55323792 40.71481323 C-28.59634234 37.94875576 -28.62301535 35.18276922 -28.64941406 32.41650391 C-28.66669556 31.46412842 -28.68397705 30.51175293 -28.70178223 29.53051758 C-28.76858448 20.19844458 -26.46247275 14.55996588 -20.20800781 7.67431641 C-14.51294539 1.96490874 -7.8618144 -0.05213342 0 0 Z " fill="#FDFDFC" transform="translate(477.5205078125,268.45068359375)"/>
<path d="M0 0 C4.36829172 2.31262503 7.3581334 4.83460297 10 9 C10.83780531 12.4612771 11.08098964 15.95650254 11.375 19.5 C11.60838915 21.90126514 11.84431662 24.3022842 12.08203125 26.703125 C12.14746628 27.38501892 12.21290131 28.06691284 12.28031921 28.76947021 C13.27795175 39.08916012 14.48469471 49.38685038 15.65777588 59.68774414 C16.05589823 63.19189325 16.45006515 66.69646698 16.84326172 70.20117188 C17.97399847 80.24819181 19.12759997 90.2848355 20.50170898 100.30175781 C21.457393 107.39470316 22.3113713 114.50060261 23.17724609 121.60498047 C23.49792139 124.23296543 23.8211653 126.86062619 24.14453125 129.48828125 C25.29182294 138.8605032 26.37535936 148.23519616 27.32275391 157.62994385 C27.79967706 162.31375048 28.38847173 166.96530019 29.0625 171.625 C29.75821584 176.63840272 30.15931653 181.56897831 30.375 186.625 C30.7881162 195.55707293 32.07599545 204.33933931 33.33837891 213.18481445 C34.63978451 222.32345624 35.8575968 231.46775859 36.98153687 240.62988281 C37.15867958 242.07006094 37.33769669 243.51000992 37.51870728 244.94970703 C40.16922044 266.06236205 40.16922044 266.06236205 35 273 C30.34870827 276.35325683 25.56666276 276.89519346 20 276 C15.73503047 273.77479851 14.09340088 270.96662182 12.6171875 266.421875 C10.52848153 258.22568703 9.8602959 249.80120955 9.09375 241.40234375 C8.06037131 230.33432537 6.83374509 219.29285658 5.5625 208.25 C5.33844883 206.29102624 5.11449164 204.33204173 4.890625 202.37304688 C3.68484107 191.84290656 2.45739271 181.31576743 1.16870117 170.79541016 C0.3192513 163.8081343 -0.47476363 156.8152749 -1.2578125 149.8203125 C-1.36981995 148.82259827 -1.48182739 147.82488403 -1.597229 146.79693604 C-2.16447614 141.74330733 -2.72845125 136.68935105 -3.28710938 131.63476562 C-3.49594936 129.76951508 -3.70492758 127.90428 -3.9140625 126.0390625 C-4.0087381 125.17153351 -4.1034137 124.30400452 -4.20095825 123.41018677 C-4.29142426 122.60918549 -4.38189026 121.8081842 -4.47509766 120.98291016 C-4.55265289 120.28332184 -4.63020813 119.58373352 -4.71011353 118.86294556 C-4.98166917 116.77732327 -4.98166917 116.77732327 -6 114 C-6.30373872 111.19946984 -6.56593613 108.40819243 -6.796875 105.6015625 C-6.94956543 103.84216317 -7.10274464 102.08280622 -7.25634766 100.32348633 C-7.33653137 99.39452545 -7.41671509 98.46556458 -7.49932861 97.50845337 C-9.11084488 78.97130768 -11.23061065 60.56408772 -13.8515625 42.14453125 C-14.64251102 36.5827296 -15.42065343 31.01967913 -16.1484375 25.44921875 C-16.31263184 24.20873779 -16.47682617 22.96825684 -16.64599609 21.69018555 C-17.64390785 11.28781571 -17.64390785 11.28781571 -15.375 6.75 C-10.8368311 1.49527811 -7.06958372 -1.00994053 0 0 Z " fill="#273B4E" transform="translate(418,421)"/>
<path d="M0 0 C3.78866906 2.1718485 6.38290369 4.92948997 8 9 C8.75564994 16.44065325 7.67320043 23.95012501 6.625 31.3125 C6.48779541 32.31869385 6.35059082 33.3248877 6.20922852 34.36157227 C5.81437379 37.24227484 5.40965536 40.12136912 5 43 C4.84845459 44.06782715 4.84845459 44.06782715 4.69384766 45.15722656 C4.28780128 48.00768695 3.87679489 50.85741879 3.46484375 53.70703125 C1.95538516 64.40008664 0.77695189 75.10080803 -0.24780273 85.84912109 C-0.69091377 90.35691532 -1.24468562 94.79139713 -2.0625 99.25 C-3.10722112 105.00001547 -3.40881283 110.72754212 -3.65625 116.5546875 C-3.87621558 120.17638647 -4.37210211 123.72421548 -4.90625 127.3125 C-5.73986773 132.95145748 -6.41898394 138.58744358 -7 144.2578125 C-7.08237915 145.06113007 -7.1647583 145.86444763 -7.24963379 146.69210815 C-7.58665439 150.00385725 -7.91921452 153.31604067 -8.25 156.62841797 C-8.49673693 159.08855867 -8.74819501 161.54818609 -9 164.0078125 C-9.07089844 164.73316193 -9.14179687 165.45851135 -9.21484375 166.20584106 C-9.65127103 170.45089791 -10.25502791 174.63747355 -10.97485352 178.84423828 C-11.97670935 184.70738568 -12.72886966 190.57556362 -13.40234375 196.484375 C-13.5255751 197.54247375 -13.64880646 198.60057251 -13.77577209 199.69073486 C-14.16580731 203.04350645 -14.55188943 206.39671692 -14.9375 209.75 C-15.94922578 218.50107292 -16.96732541 227.25137267 -18 236 C-18.13013489 237.10384033 -18.26026978 238.20768066 -18.39434814 239.3449707 C-18.77960298 242.59003618 -19.17185303 245.83417828 -19.56640625 249.078125 C-19.73812599 250.52986115 -19.73812599 250.52986115 -19.91331482 252.01092529 C-22.03385453 269.22708362 -22.03385453 269.22708362 -28 274 C-31.47182303 275.73591152 -35.20408964 275.46571673 -39 275 C-43.0596391 272.93327464 -45.41887869 271.26956748 -47 267 C-47.21677562 264.51039277 -47.31388628 262.17165995 -47.2890625 259.68359375 C-47.28435944 258.94265976 -47.27965637 258.20172577 -47.27481079 257.43833923 C-47.08874788 247.2425239 -45.67199714 237.16369538 -44.375 227.0625 C-44.10267074 224.87977427 -43.83145307 222.6969096 -43.5612793 220.51391602 C-42.99838928 215.97260136 -42.43073706 211.43191919 -41.85986328 206.89160156 C-40.59561562 196.80225191 -39.39503824 186.70528671 -38.190979 176.60861206 C-37.7097343 172.57647058 -37.22595983 168.54463546 -36.74176025 164.5128479 C-36.51182169 162.59789903 -36.28212276 160.68292136 -36.05267334 158.76791382 C-35.43664562 153.62742924 -34.8169388 148.48741552 -34.19287109 143.34790039 C-34.05830002 142.23596817 -33.92372894 141.12403595 -33.78507996 139.97840881 C-33.52824306 137.85664894 -33.27043301 135.73500653 -33.01142883 133.61351013 C-32.24498287 127.27065048 -31.57964166 120.92507817 -31 114.5625 C-30.91008789 113.59344727 -30.82017578 112.62439453 -30.72753906 111.62597656 C-30.65760742 110.86768555 -30.58767578 110.10939453 -30.515625 109.328125 C-29.14052343 94.82027045 -27.28565326 80.35787698 -25.54296875 65.890625 C-25.41215912 64.80379929 -25.28134949 63.71697357 -25.14657593 62.59721375 C-24.48574005 57.10790555 -23.82320964 51.61881313 -23.15722656 46.13012695 C-22.96910904 44.57161263 -22.96910904 44.57161263 -22.77719116 42.98161316 C-22.5289729 40.92704779 -22.27901706 38.87269153 -22.0272522 36.81855774 C-21.44815267 32.03266483 -20.91720016 27.252724 -20.51220703 22.44873047 C-20.39734703 21.15055641 -20.39734703 21.15055641 -20.28016663 19.82615662 C-20.14288896 18.2294377 -20.01933216 16.63144643 -19.91307068 15.03236389 C-19.35118069 8.60285742 -17.03169881 4.84270357 -12.3125 0.5625 C-7.87595869 -1.53020816 -4.65565384 -1.44916595 0 0 Z " fill="#273A4E" transform="translate(615,422)"/>
<path d="M0 0 C5.00185638 2.45374087 7.00951399 4.85753801 9 10 C9.42846152 13.48148418 9.40920582 16.93358374 9.38768005 20.43786621 C9.39306559 21.48823232 9.39845113 22.53859843 9.40399987 23.62079382 C9.41830578 27.13989323 9.41116905 30.65861789 9.40405273 34.17773438 C9.40975486 36.70087487 9.4167185 39.22401278 9.42485046 41.74714661 C9.44094753 47.88857374 9.44287928 54.0298625 9.43763756 60.17130435 C9.43359443 65.16301614 9.4350411 70.15469772 9.44038582 75.14640808 C9.44113424 75.85713064 9.44188266 76.5678532 9.44265376 77.30011281 C9.44418525 78.74397823 9.4457236 80.18784364 9.44726873 81.63170904 C9.46099228 95.1675912 9.45555684 108.70341554 9.44408352 122.23929638 C9.43414863 134.62155043 9.44709643 147.00365511 9.47101771 159.38588613 C9.49540125 172.10328017 9.50501859 184.82060462 9.49836498 197.53802156 C9.49487144 204.67661159 9.49711385 211.8150867 9.51461601 218.95365906 C9.53086567 225.66452835 9.52616811 232.37506632 9.50731087 239.08594322 C9.50361554 241.55064017 9.50676076 244.01535815 9.51719666 246.48003578 C9.53034286 249.84106748 9.51891456 253.20114364 9.50120544 256.56213379 C9.51081045 257.54053773 9.52041546 258.51894168 9.53031152 259.52699423 C9.46718029 265.3386959 8.80867565 268.54111686 5 273 C1.33790946 276.13893475 -2.09602567 276.5819516 -6.78125 276.41796875 C-10.69034768 275.68157183 -12.33178385 273.92852992 -15 271 C-17.7177796 266.17280213 -17.28440709 261.06281699 -17.26742554 255.68238831 C-17.27195665 254.63287662 -17.27648776 253.58336493 -17.28115618 252.50204986 C-17.29383203 248.97991902 -17.29217775 245.45794217 -17.29052734 241.93579102 C-17.29651053 239.41279908 -17.30331558 236.88980897 -17.31088257 234.36682129 C-17.32673178 228.22194348 -17.33299178 222.07712223 -17.33410732 215.93222589 C-17.33505796 210.93763476 -17.33916905 205.94305629 -17.34550858 200.94846916 C-17.363118 186.78665266 -17.37234774 172.62486646 -17.37084763 158.46303893 C-17.37076772 157.69978442 -17.3706878 156.93652992 -17.37060547 156.15014648 C-17.37052371 155.38595986 -17.37044195 154.62177323 -17.37035771 153.83442944 C-17.36954455 141.44565053 -17.3886905 129.05699313 -17.4168822 116.66824938 C-17.44560354 103.94637383 -17.45942296 91.22455757 -17.45769465 78.50264877 C-17.45703056 71.36068237 -17.46253121 64.2188434 -17.48405075 57.0769062 C-17.50415423 50.36195903 -17.50359665 43.64732592 -17.48901749 36.93235016 C-17.48692131 34.46603694 -17.49167809 31.99970709 -17.5037384 29.53342247 C-17.51912161 26.17016059 -17.50992771 22.80783631 -17.49447632 19.44459534 C-17.50476344 18.46550927 -17.51505057 17.48642321 -17.52564943 16.47766787 C-17.46651012 10.66445226 -16.81542504 7.45686326 -13 3 C-9.05061527 -0.29115394 -4.99650314 -0.87193878 0 0 Z " fill="#26394C" transform="translate(516,421)"/>
<path d="M0 0 C1.31364029 -0.00318237 2.62728058 -0.00636475 3.98072815 -0.00964355 C4.70625885 -0.01665283 5.43178955 -0.02366211 6.17930603 -0.03088379 C8.5790783 -0.04849738 10.97767228 -0.03682895 13.37745667 -0.02331543 C15.04510728 -0.0260097 16.71275637 -0.02989157 18.38040161 -0.03491211 C21.87672369 -0.04081192 25.37263715 -0.03223008 28.86891174 -0.0135498 C33.34941162 0.00922275 37.82895222 -0.00386893 42.30941677 -0.02783966 C45.75385758 -0.0422999 49.19807132 -0.03769039 52.642519 -0.02732849 C54.29432857 -0.02466089 55.94615879 -0.02793216 57.59794426 -0.0372467 C59.90838501 -0.04741454 62.21727762 -0.03190959 64.52760315 -0.00964355 C65.84203903 -0.00646118 67.15647491 -0.00327881 68.51074219 0 C71.81886292 0.50793457 71.81886292 0.50793457 75.81886292 4.50793457 C75.81886292 9.78793457 75.81886292 15.06793457 75.81886292 20.50793457 C48.75886292 20.50793457 21.69886292 20.50793457 -6.18113708 20.50793457 C-6.18113708 0.98694684 -6.18113708 0.98694684 0 0 Z " fill="#263C50" transform="translate(477.18113708496094,290.4920654296875)"/>
<path d="M0 0 C1.26859863 0.00142502 2.53719727 0.00285004 3.84423828 0.00431824 C4.54357483 0.00241989 5.24291138 0.00052155 5.96343994 -0.00143433 C8.28059007 -0.00514618 10.59742839 0.00556782 12.91455078 0.01676941 C14.52115848 0.01796111 16.12776688 0.01841439 17.734375 0.01815796 C21.10372267 0.01972354 24.47296419 0.02801875 27.84228516 0.04142761 C32.16688904 0.05841756 36.49137618 0.06224198 40.81600952 0.06148243 C44.13420736 0.06175403 47.45237953 0.06723355 50.77056885 0.07448387 C52.3654155 0.07767195 53.96026507 0.07963827 55.55511475 0.08037758 C57.78174823 0.08253967 60.00825657 0.09128105 62.23486328 0.10197449 C64.13776123 0.10769218 64.13776123 0.10769218 66.07910156 0.11352539 C69.03955078 0.24723816 69.03955078 0.24723816 71.03955078 1.24723816 C70.70955078 2.56723816 70.37955078 3.88723816 70.03955078 5.24723816 C45.28955078 5.24723816 20.53955078 5.24723816 -4.96044922 5.24723816 C-4.96044922 1.09250438 -4.110864 0.34331359 0 0 Z " fill="#1C3449" transform="translate(479.96044921875,290.7527618408203)"/>
<path d="M0 0 C2.46757808 -0.28245602 4.68191377 -0.36718041 7.14993286 -0.32279968 C8.26730593 -0.32051927 8.26730593 -0.32051927 9.40725219 -0.31819278 C11.91649236 -0.30938612 14.4250148 -0.27898561 16.93408203 -0.2487793 C18.72745043 -0.23807678 20.52082716 -0.22869839 22.31420898 -0.22055054 C27.19426526 -0.19460362 32.07399803 -0.15004543 36.95388269 -0.10225272 C42.04941563 -0.05547757 47.14504643 -0.02566949 52.24069214 0.00590515 C61.89513356 0.06832317 71.5493884 0.14609549 81.20367038 0.22932547 C92.19254554 0.32331782 103.18151905 0.40028282 114.17053437 0.47578681 C136.78051742 0.63151994 159.39029158 0.80873628 182 1 C181.67 1.66 181.34 2.32 181 3 C120.61 3 60.22 3 -2 3 C-1.34 2.01 -0.68 1.02 0 0 Z " fill="#1B3042" transform="translate(419,755)"/>
<path d="M0 0 C0.99 0.66 1.98 1.32 3 2 C3.328125 4.7578125 3.328125 4.7578125 3.25 8.125 C3.22421875 9.28644531 3.1984375 10.44789063 3.171875 11.64453125 C2.975192 15.48431982 2.59559777 19.20306425 2 23 C0.68 22.67 -0.64 22.34 -2 22 C-2 15.07 -2 8.14 -2 1 C-1.34 0.67 -0.68 0.34 0 0 Z " fill="#213446" transform="translate(601,584)"/>
<path d="M0 0 C0.33 0 0.66 0 1 0 C1.8410478 3.6464806 2.11764968 6.99950907 2.09765625 10.73828125 C2.09443359 11.80498047 2.09121094 12.87167969 2.08789062 13.97070312 C2.07951172 15.07349609 2.07113281 16.17628906 2.0625 17.3125 C2.05798828 18.43462891 2.05347656 19.55675781 2.04882812 20.71289062 C2.03707313 23.4753151 2.02064077 26.23762998 2 29 C1.34 29.33 0.68 29.66 0 30 C-0.33 26.37 -0.66 22.74 -1 19 C-1.33 19 -1.66 19 -2 19 C-2.0991667 12.90675749 -2.17328971 6.99681407 -1 1 C-0.67 0.67 -0.34 0.34 0 0 Z " fill="#1C3143" transform="translate(658,596)"/>
<path d="M0 0 C1.051875 -0.03738281 2.10375 -0.07476563 3.1875 -0.11328125 C6 0.3125 6 0.3125 7.875 2.33203125 C8.24625 2.98558594 8.6175 3.63914062 9 4.3125 C4.71801432 6.73021981 0.83608215 7.19882822 -4 6.3125 C-7.0625 3.8125 -7.0625 3.8125 -9 1.3125 C-5.82116571 0.25288857 -3.34114657 0.0777963 0 0 Z " fill="#2E455A" transform="translate(511,690.6875)"/>
<path d="M0 0 C0.33 0 0.66 0 1 0 C1.34064639 3.31178954 1.67114622 6.62452037 2 9.9375 C2.09539062 10.86369141 2.19078125 11.78988281 2.2890625 12.74414062 C2.85741047 18.52911107 3.09538785 24.18730276 3 30 C2.67 30 2.34 30 2 30 C1.67 28.35 1.34 26.7 1 25 C0.01 25 -0.98 25 -2 25 C-2.02685412 22.68756208 -2.04632841 20.3750373 -2.0625 18.0625 C-2.07410156 16.77472656 -2.08570313 15.48695313 -2.09765625 14.16015625 C-2 11 -2 11 -1 10 C-0.76712992 8.31816052 -0.58735834 6.6287584 -0.4375 4.9375 C-0.35371094 4.01839844 -0.26992188 3.09929688 -0.18359375 2.15234375 C-0.12300781 1.44207031 -0.06242187 0.73179687 0 0 Z " fill="#415366" transform="translate(368,606)"/>
<path d="M0 0 C1.53668865 0.22467831 3.07968054 0.40796805 4.625 0.5625 C5.44226563 0.64628906 6.25953125 0.73007813 7.1015625 0.81640625 C7.72804688 0.87699219 8.35453125 0.93757813 9 1 C9 1.66 9 2.32 9 3 C0.42 3 -8.16 3 -17 3 C-15 0 -15 0 -12.875 -0.6875 C-3.42857143 -1.71428571 -3.42857143 -1.71428571 0 0 Z " fill="#253749" transform="translate(455,126)"/>
<path d="M0 0 C10.89 0 21.78 0 33 0 C33 0.66 33 1.32 33 2 C26.85221129 3.6277833 21.35987804 4.20190089 15 4 C15.33 3.01 15.66 2.02 16 1 C10.72 1 5.44 1 0 1 C0 0.67 0 0.34 0 0 Z " fill="#203444" transform="translate(553,895)"/>
<path d="M0 0 C7.59 0 15.18 0 23 0 C23 0.33 23 0.66 23 1 C17.91913204 1.84681133 13.15171623 2.09038099 8 2 C8 2.66 8 3.32 8 4 C1.25 4.125 1.25 4.125 -1 3 C-0.67 2.01 -0.34 1.02 0 0 Z " fill="#203344" transform="translate(448,895)"/>
<path d="M0 0 C0 0.66 0 1.32 0 2 C-6.37358711 2.96205088 -12.55929529 3.10655578 -19 3 C-18.67 2.01 -18.34 1.02 -18 0 C-11.99690429 -1.00051595 -5.88018669 -1.96006223 0 0 Z " fill="#1F3346" transform="translate(618,134)"/>
<path d="M0 0 C-1.69636171 2.10407096 -2.54981464 2.93240678 -5.26831055 3.34057617 C-6.13238525 3.32486572 -6.99645996 3.30915527 -7.88671875 3.29296875 C-8.82451172 3.28330078 -9.76230469 3.27363281 -10.72851562 3.26367188 C-11.70498047 3.23853516 -12.68144531 3.21339844 -13.6875 3.1875 C-14.67556641 3.17396484 -15.66363281 3.16042969 -16.68164062 3.14648438 C-19.12164231 3.11112203 -21.56054719 3.06177033 -24 3 C-17.43494465 -1.37670357 -7.68154222 -0.14996503 0 0 Z " fill="#1B2E41" transform="translate(578,126)"/>
<path d="M0 0 C0.66 0.33 1.32 0.66 2 1 C2 5.29 2 9.58 2 14 C1.34 14 0.68 14 0 14 C0 16.31 0 18.62 0 21 C-0.33 21 -0.66 21 -1 21 C-1.02888146 17.68751813 -1.04675799 14.37506833 -1.0625 11.0625 C-1.07087891 10.11697266 -1.07925781 9.17144531 -1.08789062 8.19726562 C-1.09111328 7.29814453 -1.09433594 6.39902344 -1.09765625 5.47265625 C-1.10289307 4.64000244 -1.10812988 3.80734863 -1.11352539 2.94946289 C-1 1 -1 1 0 0 Z " fill="#1E3243" transform="translate(896,444)"/>
<path d="M0 0 C3 2 3 2 3.6875 3.625 C4.14471421 7.099828 4.05840231 10.49586168 4 14 C2.68 13.67 1.36 13.34 0 13 C0 8.71 0 4.42 0 0 Z " fill="#334556" transform="translate(435,519)"/>
<path d="M0 0 C0.33 0 0.66 0 1 0 C2.26708251 5.06833002 2.97547868 10.5613033 1 15.5 C0.505 16.2425 0.505 16.2425 0 17 C-0.33 14.36 -0.66 11.72 -1 9 C-1.66 9 -2.32 9 -3 9 C-2.25 2.25 -2.25 2.25 0 0 Z " fill="#1E3243" transform="translate(135,409)"/>
<path d="M0 0 C1.93166016 0.01740234 1.93166016 0.01740234 3.90234375 0.03515625 C5.19269531 0.04417969 6.48304688 0.05320312 7.8125 0.0625 C8.81152344 0.07410156 9.81054688 0.08570313 10.83984375 0.09765625 C11.16984375 0.75765625 11.49984375 1.41765625 11.83984375 2.09765625 C9.52984375 2.09765625 7.21984375 2.09765625 4.83984375 2.09765625 C4.83984375 2.75765625 4.83984375 3.41765625 4.83984375 4.09765625 C-1.91015625 3.34765625 -1.91015625 3.34765625 -4.16015625 1.09765625 C-3.16015625 0.09765625 -3.16015625 0.09765625 0 0 Z " fill="#203245" transform="translate(412.16015625,886.90234375)"/>
<path d="M0 0 C0.33 0 0.66 0 1 0 C1.33801152 2.54112232 1.67053379 5.08276746 2 7.625 C2.09539062 8.33785156 2.19078125 9.05070313 2.2890625 9.78515625 C2.81606101 13.88821609 3.10466984 17.85245742 3 22 C2.01 22 1.02 22 0 22 C0 14.74 0 7.48 0 0 Z " fill="#203346" transform="translate(372,665)"/>
<path d="M0 0 C4.29 0 8.58 0 13 0 C12.67 0.99 12.34 1.98 12 3 C12.66 3.33 13.32 3.66 14 4 C4.58997722 3.03644647 4.58997722 3.03644647 0 2 C0 1.34 0 0.68 0 0 Z " fill="#334554" transform="translate(435,895)"/>
<path d="M0 0 C0.8723412 2.99480917 1.10829766 5.63575911 1.0625 8.75 C1.05347656 9.54921875 1.04445312 10.3484375 1.03515625 11.171875 C1.01775391 12.07679688 1.01775391 12.07679688 1 13 C-1.24572375 10.95457053 -1.97658823 10.07859665 -2.875 7.0625 C-3 4 -3 4 -1.5625 1.625 C-0.7890625 0.820625 -0.7890625 0.820625 0 0 Z " fill="#203547" transform="translate(143,382)"/>
<path d="M0 0 C5.94 0.99 5.94 0.99 12 2 C12 2.66 12 3.32 12 4 C7.71 4 3.42 4 -1 4 C-0.67 2.68 -0.34 1.36 0 0 Z " fill="#1C3146" transform="translate(630,140)"/>
<path d="M0 0 C0.33 0 0.66 0 1 0 C0.67 2.31 0.34 4.62 0 7 C-1.65 7.33 -3.3 7.66 -5 8 C-5.66 6.68 -6.32 5.36 -7 4 C-6.030625 3.71125 -5.06125 3.4225 -4.0625 3.125 C-0.89335797 2.35785318 -0.89335797 2.35785318 0 0 Z " fill="#1F3346" transform="translate(591,686)"/>
<path d="M0 0 C3.70944733 6.94934437 4.3967086 13.31810267 3 21 C2.67 21 2.34 21 2 21 C0.79556805 13.94546999 -0.28100502 7.16562789 0 0 Z " fill="#526372" transform="translate(428,664)"/>
<path d="M0 0 C3.3 0 6.6 0 10 0 C10.33 0.66 10.66 1.32 11 2 C8.24075815 3.80411967 7.11027897 4.0127245 3.75 3.625 C2.8425 3.41875 1.935 3.2125 1 3 C0.67 2.01 0.34 1.02 0 0 Z " fill="#203347" transform="translate(652,872)"/>
<path d="M0 0 C-0.33 1.32 -0.66 2.64 -1 4 C-5.16138263 4.08159574 -8.9472484 3.98248524 -13 3 C-8.84512088 0.60295435 -4.75860702 0 0 0 Z " fill="#405262" transform="translate(425,130)"/>
<path d="M0 0 C2.19531199 3.29296799 2.2036671 3.74970375 1.6875 7.4375 C1.58824219 8.19933594 1.48898437 8.96117187 1.38671875 9.74609375 C1.02286132 11.86675775 0.55389462 13.92171163 0 16 C-0.66 16 -1.32 16 -2 16 C-1.34 10.72 -0.68 5.44 0 0 Z " fill="#425464" transform="translate(646,702)"/>
<path d="M0 0 C-0.33 3.63 -0.66 7.26 -1 11 C-1.66 11 -2.32 11 -3 11 C-4.34965035 4.61983471 -4.34965035 4.61983471 -2.625 1.5625 C-1 0 -1 0 0 0 Z " fill="#1F3447" transform="translate(152,651)"/>
<path d="M0 0 C0.33 0 0.66 0 1 0 C1.05416188 1.60379341 1.09286638 3.20811406 1.125 4.8125 C1.14820313 5.70582031 1.17140625 6.59914063 1.1953125 7.51953125 C1 10 1 10 -1 13 C-2.16045439 8.74500059 -1.82904781 5.31104861 -1 1 C-0.67 0.67 -0.34 0.34 0 0 Z " fill="#1D3044" transform="translate(143,628)"/>
<path d="M0 0 C0 0.99 0 1.98 0 3 C-0.99 3.33 -1.98 3.66 -3 4 C-3.33 4.66 -3.66 5.32 -4 6 C-6.3140622 6.73075648 -8.64828869 7.40138258 -11 8 C-3.21621622 0 -3.21621622 0 0 0 Z " fill="#2B4154" transform="translate(276,200)"/>
<path d="M0 0 C1.65 0 3.3 0 5 0 C5 0.99 5 1.98 5 3 C5.66 3.66 6.32 4.32 7 5 C0.375 4.25 0.375 4.25 -3 2 C-2.01 2 -1.02 2 0 2 C0 1.34 0 0.68 0 0 Z " fill="#435565" transform="translate(417,889)"/>
<path d="M0 0 C0.33 0 0.66 0 1 0 C1.33 4.95 1.66 9.9 2 15 C1.01 15 0.02 15 -1 15 C-0.67 10.05 -0.34 5.1 0 0 Z " fill="#344658" transform="translate(428,442)"/>
<path d="M0 0 C2.64 0 5.28 0 8 0 C7.67 1.32 7.34 2.64 7 4 C4.36 3.34 1.72 2.68 -1 2 C-0.67 1.34 -0.34 0.68 0 0 Z " fill="#1C2F43" transform="translate(412,422)"/>
<path d="M0 0 C0.33 0 0.66 0 1 0 C1.18451025 9.41002278 1.18451025 9.41002278 0 14 C-0.66 13.67 -1.32 13.34 -2 13 C-2.19294408 8.17639811 -1.75747614 4.50353262 0 0 Z " fill="#1C3045" transform="translate(599,449)"/>
<path d="M0 0 C0.99 0 1.98 0 3 0 C3 1.32 3 2.64 3 4 C4.4166747 5.7511573 4.4166747 5.7511573 6 7 C3.69 6.34 1.38 5.68 -1 5 C-0.67 3.35 -0.34 1.7 0 0 Z " fill="#364859" transform="translate(368,872)"/>
<path d="M0 0 C0.66 0.33 1.32 0.66 2 1 C1.67 4.3 1.34 7.6 1 11 C-1 9 -1 9 -1.23046875 7.08984375 C-1.11111111 1.11111111 -1.11111111 1.11111111 0 0 Z " fill="#1F3041" transform="translate(127,573)"/>
<path d="M0 0 C0.33 0 0.66 0 1 0 C1.309375 0.94875 1.61875 1.8975 1.9375 2.875 C2.87394742 5.86080408 2.87394742 5.86080408 4 8 C3.34 8 2.68 8 2 8 C2 11.63 2 15.26 2 19 C1.67 19 1.34 19 1 19 C0.67 12.73 0.34 6.46 0 0 Z " fill="#78838D" transform="translate(411,516)"/>
<path d="M0 0 C-0.33 0.99 -0.66 1.98 -1 3 C-4.63 3 -8.26 3 -12 3 C-11.67 2.34 -11.34 1.68 -11 1 C-9.00390625 0.5859375 -9.00390625 0.5859375 -6.5625 0.375 C-5.75941406 0.30023438 -4.95632813 0.22546875 -4.12890625 0.1484375 C-2.75505053 0.05264572 -1.3771912 0 0 0 Z " fill="#182B3E" transform="translate(450,126)"/>
<path d="M0 0 C1.32 0.33 2.64 0.66 4 1 C3.67 1.66 3.34 2.32 3 3 C4.98 3 6.96 3 9 3 C9 3.33 9 3.66 9 4 C4.1666528 4.08333357 -0.23692563 3.95261487 -5 3 C-5 2.67 -5 2.34 -5 2 C-3.35 2 -1.7 2 0 2 C0 1.34 0 0.68 0 0 Z " fill="#536372" transform="translate(456,897)"/>
<path d="M0 0 C0.33 0.66 0.66 1.32 1 2 C-0.43257963 4.72872311 -1.81722366 6.81722366 -4 9 C-4.99 8.67 -5.98 8.34 -7 8 C-4.69 5.36 -2.38 2.72 0 0 Z " fill="#324859" transform="translate(212,259)"/>
<path d="M0 0 C0.33 0 0.66 0 1 0 C1.8125 3.1875 1.8125 3.1875 2 7 C-0.4375 9.9375 -0.4375 9.9375 -3 12 C-2.01 8.04 -1.02 4.08 0 0 Z " fill="#C3C8C9" transform="translate(889,617)"/>
<path d="M0 0 C0.33 0 0.66 0 1 0 C1.33 3.63 1.66 7.26 2 11 C1.01 11.33 0.02 11.66 -1 12 C-0.67 8.04 -0.34 4.08 0 0 Z " fill="#1B2B3D" transform="translate(582,562)"/>
<path d="M0 0 C0.66 0 1.32 0 2 0 C2.66 1.98 3.32 3.96 4 6 C2.35 5.67 0.7 5.34 -1 5 C-0.67 3.35 -0.34 1.7 0 0 Z " fill="#2B4153" transform="translate(380,722)"/>
<path d="M0 0 C0.33 0 0.66 0 1 0 C1.33 3.3 1.66 6.6 2 10 C1.34 10 0.68 10 0 10 C-1.36952673 7.26094655 -1.12621361 5.02912668 -1 2 C-0.67 1.34 -0.34 0.68 0 0 Z " fill="#1C2E42" transform="translate(441,558)"/>
<path d="M0 0 C0.66 0.33 1.32 0.66 2 1 C2 4.3 2 7.6 2 11 C1.67 11 1.34 11 1 11 C0.855625 10.236875 0.71125 9.47375 0.5625 8.6875 C0.0367406 5.91827092 0.0367406 5.91827092 -1 3 C-0.67 2.01 -0.34 1.02 0 0 Z " fill="#213446" transform="translate(428,456)"/>
<path d="M0 0 C0.33 0 0.66 0 1 0 C2.23076923 5.41538462 2.23076923 5.41538462 1.0625 8.375 C0.711875 8.91125 0.36125 9.4475 0 10 C-0.33 10 -0.66 10 -1 10 C-1.125 2.25 -1.125 2.25 0 0 Z " fill="#1F3245" transform="translate(881,385)"/>
<path d="M0 0 C0.33 0 0.66 0 1 0 C0.125 6.75 0.125 6.75 -1 9 C-1.66 9 -2.32 9 -3 9 C-2.01 6.03 -1.02 3.06 0 0 Z " fill="#344A5A" transform="translate(152,355)"/>
</svg>
