<?xml version="1.0" encoding="UTF-8"?>
<!-- Generator: visioncortex VTracer 0.6.4 -->
<svg version="1.1" xmlns="http://www.w3.org/2000/svg" width="687" height="640">
<path d="M0 0 C0.93 -0 1.85 -0.01 2.81 -0.01 C4.33 -0.01 4.33 -0.01 5.89 -0.01 C6.97 -0.01 8.06 -0.01 9.18 -0.02 C12.84 -0.02 16.51 -0.02 20.18 -0.02 C22.82 -0.03 25.47 -0.03 28.11 -0.04 C34.64 -0.05 41.16 -0.05 47.69 -0.06 C55.5 -0.06 63.31 -0.07 71.12 -0.08 C90 -0.11 108.88 -0.13 127.76 -0.14 C134.02 -0.14 140.27 -0.15 146.52 -0.15 C179.75 -0.18 212.97 -0.2 246.2 -0.21 C253.89 -0.21 261.59 -0.22 269.29 -0.22 C270.73 -0.22 270.73 -0.22 272.19 -0.22 C303.22 -0.23 334.24 -0.26 365.27 -0.31 C397.16 -0.35 429.05 -0.38 460.93 -0.38 C465.43 -0.38 469.93 -0.38 474.43 -0.38 C475.76 -0.38 475.76 -0.38 477.12 -0.38 C491.39 -0.39 505.66 -0.41 519.94 -0.43 C534.27 -0.46 548.61 -0.47 562.94 -0.46 C571.47 -0.45 579.99 -0.46 588.52 -0.49 C594.2 -0.5 599.89 -0.5 605.58 -0.49 C608.83 -0.48 612.07 -0.48 615.31 -0.5 C618.8 -0.52 622.29 -0.51 625.78 -0.49 C626.8 -0.5 627.81 -0.51 628.86 -0.53 C635.68 -0.44 635.68 -0.44 639.44 2.54 C640.09 3.39 640.73 4.25 641.4 5.13 C642.04 5.82 642.69 6.51 643.35 7.23 C643.92 7.88 644.5 8.52 645.09 9.19 C645.67 9.84 646.25 10.49 646.85 11.17 C650.22 15.44 650.69 18.53 650.71 24 C650.73 25.2 650.74 26.39 650.76 27.62 C650.14 33.63 647.24 37.62 643.4 42.13 C644.06 42.79 644.72 43.45 645.4 44.13 C644.74 44.05 644.08 43.96 643.4 43.88 C639.83 44.18 637.63 45.4 634.56 47.16 C629.41 49.48 623.77 49.27 618.22 49.31 C616.63 49.33 615.05 49.35 613.47 49.38 C610.99 49.41 608.52 49.44 606.05 49.46 C603.65 49.47 601.25 49.51 598.84 49.56 C598.12 49.55 597.39 49.55 596.64 49.55 C587.49 49.77 580.57 54.66 574.4 61.13 C564.9 72.79 564.25 87.59 564.27 101.94 C564.27 103.22 564.26 104.5 564.26 105.82 C564.26 108.62 564.26 111.42 564.26 114.23 C564.26 118.79 564.25 123.35 564.25 127.92 C564.24 134.54 564.23 141.17 564.23 147.79 C564.22 158.28 564.21 168.76 564.19 179.25 C564.18 182.84 564.18 186.43 564.17 190.03 C564.17 190.92 564.17 191.82 564.17 192.75 C564.15 202.96 564.13 213.17 564.12 223.38 C564.11 224.32 564.11 225.25 564.11 226.21 C564.09 241.31 564.08 256.42 564.07 271.52 C564.06 287.05 564.04 302.58 564 318.11 C563.98 327.68 563.97 337.24 563.98 346.81 C563.98 353.37 563.97 359.94 563.95 366.5 C563.93 370.28 563.93 374.06 563.94 377.84 C563.98 392.71 564.01 406.85 559.4 421.13 C559.14 421.98 558.88 422.83 558.61 423.71 C555.12 434.44 550.88 446.46 542.4 454.13 C541.05 455.78 539.71 457.45 538.4 459.13 C535.58 462.71 532.67 465.95 529.4 469.13 C528.74 470 528.08 470.86 527.4 471.75 C525.24 474.32 523.28 475.43 520.4 477.13 C518.78 478.32 517.18 479.53 515.59 480.75 C492.26 497.74 466.5 504.67 437.9 504.94 C436.03 504.97 434.16 505.01 432.29 505.04 C415.31 505.29 398.36 504.88 381.4 504.13 C381.4 504.79 381.4 505.45 381.4 506.13 C380.74 505.8 380.08 505.47 379.4 505.13 C376.73 505.03 374.08 505 371.41 505.01 C370.58 505.01 369.74 505.01 368.88 505.01 C366.07 505.01 363.26 505.01 360.45 505.02 C358.44 505.02 356.42 505.02 354.41 505.02 C348.94 505.02 343.47 505.02 338 505.03 C332.29 505.03 326.58 505.04 320.87 505.04 C310.04 505.04 299.22 505.05 288.4 505.06 C276.08 505.07 263.76 505.07 251.44 505.08 C226.09 505.09 200.75 505.11 175.4 505.13 C175.4 505.46 175.4 505.79 175.4 506.13 C173.42 506.13 171.44 506.13 169.4 506.13 C169.07 505.47 168.74 504.81 168.4 504.13 C166.42 504.46 164.44 504.79 162.4 505.13 C162.07 504.47 161.74 503.81 161.4 503.13 C159.08 502.4 156.75 501.73 154.4 501.13 C154.07 501.79 153.74 502.45 153.4 503.13 C153.4 502.14 153.4 501.15 153.4 500.13 C152.24 500.03 151.09 499.94 149.9 499.84 C145.32 499.26 141.55 497.76 137.4 495.82 C136.7 495.5 135.99 495.18 135.27 494.85 C133.31 493.95 131.35 493.04 129.4 492.13 C128.61 491.78 127.82 491.42 127.01 491.06 C110.48 483.35 97.3 470.5 84.85 457.51 C83.43 456.02 83.43 456.02 81.4 455.13 C81.07 453.8 80.73 452.46 80.4 451.13 C78.63 447.75 77.62 446.28 74.4 444.13 C73.7 442.14 73.04 440.14 72.4 438.13 C71.66 436.75 70.91 435.37 70.15 434 C66.19 426.32 61.4 414.9 61.4 406.13 C60.74 406.13 60.08 406.13 59.4 406.13 C59.4 405.47 59.4 404.81 59.4 404.13 C60.06 404.13 60.72 404.13 61.4 404.13 C61.07 403.47 60.74 402.81 60.4 402.13 C60.24 400.15 60.15 398.17 60.09 396.19 C60.05 394.95 60 393.71 59.96 392.43 C59.92 391.07 59.88 389.71 59.84 388.35 C59.82 387.66 59.8 386.96 59.78 386.25 C59.33 371.38 59.26 356.51 59.29 341.63 C59.29 338.84 59.29 336.05 59.28 333.25 C59.28 327.32 59.29 321.38 59.29 315.44 C59.3 306.86 59.3 298.27 59.31 289.69 C59.31 275.75 59.31 261.82 59.32 247.88 C59.33 234.37 59.34 220.85 59.34 207.34 C59.34 206.5 59.34 205.66 59.34 204.8 C59.35 200.6 59.35 196.4 59.35 192.2 C59.36 157.51 59.38 122.82 59.4 88.13 C58.74 88.13 58.08 88.13 57.4 88.13 C57.4 87.47 57.4 86.81 57.4 86.13 C58.06 86.13 58.72 86.13 59.4 86.13 C58.95 84.31 58.49 82.5 58.02 80.69 C57.77 79.68 57.51 78.67 57.25 77.63 C56.67 74.97 56.67 74.97 54.4 74.13 C54.06 72.13 53.73 70.13 53.4 68.13 C52.74 67.47 52.08 66.81 51.4 66.13 C51.11 65.53 50.82 64.93 50.52 64.32 C48.29 59.97 45.87 57.09 41.4 55.13 C40.07 54.13 38.73 53.13 37.4 52.13 C33.64 49.66 29.8 49.82 25.45 49.79 C24.68 49.77 23.91 49.76 23.11 49.74 C20.64 49.7 18.18 49.66 15.71 49.63 C-10.86 49.29 -10.86 49.29 -20.48 40.5 C-22.6 38.13 -22.6 38.13 -22.6 36.13 C-23.26 35.8 -23.92 35.47 -24.6 35.13 C-25.66 32.32 -25.66 32.32 -26.6 29.13 C-26.82 28.54 -27.04 27.94 -27.27 27.33 C-28.19 21.25 -24.48 14.09 -22.04 8.63 C-16.47 2.92 -7.91 0.01 0 0 Z M96.4 49.13 C96.71 49.75 97.02 50.37 97.34 51 C107.56 71.47 106.69 93.85 106.59 116.26 C106.57 119.89 106.57 123.51 106.56 127.13 C106.56 133.4 106.54 139.66 106.52 145.92 C106.49 154.99 106.47 164.06 106.46 173.13 C106.44 187.87 106.42 202.61 106.38 217.36 C106.38 218.24 106.38 219.12 106.38 220.02 C106.36 229.84 106.33 239.66 106.31 249.48 C106.3 253.04 106.29 256.6 106.28 260.17 C106.28 261.48 106.28 261.48 106.28 262.83 C106.24 277.53 106.21 292.22 106.2 306.92 C106.19 315.96 106.17 325 106.13 334.04 C106.11 340.23 106.1 346.43 106.1 352.63 C106.1 356.2 106.09 359.76 106.07 363.33 C105.57 383.97 105.57 383.97 109.4 404.13 C110.06 404.46 110.72 404.79 111.4 405.13 C111.07 405.79 110.74 406.45 110.4 407.13 C111.44 409.67 112.53 412.06 113.77 414.5 C114.14 415.22 114.5 415.94 114.88 416.68 C120.51 427.45 127.31 436.17 137.4 443.13 C138.18 443.67 138.96 444.22 139.76 444.77 C153.66 453.76 169.12 456.45 185.4 456.4 C186.55 456.4 187.69 456.41 188.88 456.41 C192.68 456.42 196.49 456.42 200.3 456.42 C203.05 456.43 205.79 456.43 208.53 456.44 C215.2 456.46 221.86 456.46 228.52 456.46 C233.94 456.47 239.36 456.47 244.78 456.48 C260.18 456.49 275.57 456.5 290.97 456.5 C291.8 456.5 292.63 456.5 293.48 456.5 C294.31 456.5 295.14 456.5 295.99 456.5 C309.43 456.5 322.87 456.52 336.3 456.55 C350.13 456.58 363.96 456.59 377.78 456.59 C385.53 456.59 393.28 456.59 401.03 456.61 C407.63 456.63 414.23 456.64 420.83 456.62 C424.19 456.62 427.55 456.62 430.91 456.63 C447.73 456.71 463.63 456.5 478.84 448.38 C479.49 448.04 480.15 447.7 480.82 447.35 C486.3 444.42 491.36 440.91 495.4 436.13 C495.4 435.47 495.4 434.81 495.4 434.13 C496 433.86 496.61 433.58 497.23 433.3 C505.95 428.61 511.3 415.97 514.54 406.96 C517.14 397.71 517.55 388.92 517.54 379.37 C517.55 378.08 517.55 376.79 517.55 375.46 C517.56 371.89 517.57 368.33 517.57 364.76 C517.57 360.91 517.58 357.06 517.59 353.21 C517.61 346.54 517.62 339.87 517.63 333.2 C517.64 323.55 517.66 313.89 517.69 304.24 C517.72 288.56 517.76 272.88 517.79 257.2 C517.79 256.26 517.8 255.32 517.8 254.35 C517.82 241.04 517.85 227.73 517.87 214.42 C517.87 213.02 517.87 213.02 517.88 211.59 C517.88 210.65 517.88 209.71 517.88 208.75 C517.91 193.13 517.94 177.51 517.98 161.89 C518.01 152.27 518.03 142.64 518.04 133.01 C518.04 126.41 518.06 119.81 518.08 113.21 C518.09 109.41 518.1 105.6 518.1 101.8 C518.1 97.67 518.11 93.53 518.13 89.4 C518.12 88.21 518.12 87.02 518.12 85.79 C518.18 75.63 519.13 66.59 523.96 57.57 C524.28 56.97 524.59 56.36 524.92 55.75 C525.73 54.2 526.57 52.66 527.4 51.13 C527.73 50.47 528.06 49.81 528.4 49.13 C526.75 49.46 525.1 49.79 523.4 50.13 C523.4 49.8 523.4 49.47 523.4 49.13 C522.51 49.13 521.61 49.13 520.69 49.13 C510.59 49.13 500.5 49.13 490.4 49.13 C490.4 49.79 490.4 50.45 490.4 51.13 C489.39 51.02 489.39 51.02 488.35 50.91 C487.46 50.82 486.57 50.73 485.65 50.63 C484.77 50.54 483.89 50.44 482.98 50.35 C480.17 50.07 480.17 50.07 476.4 50.13 C475.09 49.97 473.78 49.8 472.44 49.64 C466.55 48.96 460.7 49.01 454.78 49.03 C453.01 49.03 453.01 49.03 451.2 49.04 C447.45 49.04 443.71 49.05 439.96 49.07 C437.42 49.07 434.87 49.08 432.33 49.08 C426.76 49.09 421.2 49.11 415.63 49.12 C398.63 49.17 381.62 49.18 364.62 49.1 C361.38 49.09 358.14 49.08 354.9 49.08 C353.19 49.07 351.48 49.06 349.77 49.05 C347.3 49.04 344.83 49.04 342.36 49.03 C341.6 49.03 340.83 49.02 340.04 49.02 C336.09 48.93 336.09 48.93 332.4 50.13 C330.78 49.89 329.17 49.65 327.56 49.39 C323.23 48.86 318.86 49.01 314.5 49.03 C313.48 49.03 312.45 49.04 311.39 49.04 C308.12 49.04 304.85 49.05 301.59 49.07 C299.37 49.07 297.16 49.08 294.94 49.08 C290.09 49.09 285.23 49.11 280.38 49.12 C269.05 49.16 257.72 49.13 246.4 49.13 C246.4 49.79 246.4 50.45 246.4 51.13 C245.87 50.8 245.34 50.48 244.8 50.14 C241.73 48.85 239.32 48.9 235.99 48.93 C234.13 48.94 234.13 48.94 232.24 48.95 C230.31 48.98 230.31 48.98 228.34 49 C227.04 49.01 225.75 49.02 224.42 49.03 C222.03 49.05 219.64 49.07 217.25 49.1 C176.97 49.55 136.67 49.13 96.4 49.13 Z " fill="#FDFDFD" transform="translate(32.601151406764984,132.87004816532135)"/>
<path d="M0 0 C0.91 0.04 1.82 0.09 2.76 0.13 C15.78 0.78 15.78 0.78 17 2 C19 2.04 21 2.04 23 2 C23 2.66 23 3.32 23 4 C24.73 3.91 24.73 3.91 26.5 3.81 C30.32 3.61 33.3 4.77 36.82 6.16 C38.99 6.99 41.16 7.73 43.37 8.43 C70.56 17.13 70.56 17.13 78 30 C79.87 35.61 79.8 41.76 77.81 47.31 C72.8 54.74 68.5 58.17 60 61 C57.26 61.07 54.55 61.09 51.81 61.06 C51.06 61.06 50.31 61.05 49.54 61.05 C47.69 61.04 45.85 61.02 44 61 C44 60.01 44 59.02 44 58 C43.45 57.82 42.91 57.64 42.35 57.45 C36.9 55.63 31.45 53.82 26 52 C25.67 52.66 25.34 53.32 25 54 C25 53.01 25 52.02 25 51 C24.67 51.66 24.34 52.32 24 53 C23.34 53 22.68 53 22 53 C21.67 52.34 21.34 51.68 21 51 C18.51 50.37 16.09 49.87 13.56 49.44 C12.84 49.31 12.12 49.18 11.37 49.04 C6.54 48.2 1.72 47.56 -3.18 47.21 C-5 47 -5 47 -7 46 C-7 46.66 -7 47.32 -7 48 C-9.64 47.34 -12.28 46.68 -15 46 C-15.5 46.99 -15.5 46.99 -16 48 C-16 47.34 -16 46.68 -16 46 C-19.02 46.59 -22.02 47.23 -25 48 C-25 47.67 -25 47.34 -25 47 C-26.65 46.67 -28.3 46.34 -30 46 C-30 46.66 -30 47.32 -30 48 C-30.66 48 -31.32 48 -32 48 C-32 47.34 -32 46.68 -32 46 C-59.38 49.52 -59.38 49.52 -85.19 58.63 C-90.71 61.32 -97.28 61.74 -103.19 60.06 C-104.58 59.54 -104.58 59.54 -106 59 C-106 59.66 -106 60.32 -106 61 C-106.66 61 -107.32 61 -108 61 C-108.5 59.52 -108.5 59.52 -109 58 C-110.67 57 -112.33 56 -114 55 C-119.36 48.98 -120.89 42.98 -120.43 35.04 C-119.41 27.85 -116.87 24.37 -111.12 19.94 C-100.39 12.67 -88.27 6 -75 6 C-75 5.34 -75 4.68 -75 4 C-67.08 3.5 -67.08 3.5 -59 3 C-59 2.34 -59 1.68 -59 1 C-55.45 0.76 -51.91 0.52 -48.36 0.29 C-45.63 0.12 -42.9 -0.09 -40.17 -0.32 C-26.75 -1.35 -13.42 -0.67 0 0 Z " fill="#FDFDFD" transform="translate(365,2)"/>
<path d="M0 0 C5.05 2.97 8.61 6.99 11.5 12.06 C12.31 15.56 12.31 15.56 12.5 18.06 C13.16 18.39 13.82 18.72 14.5 19.06 C13.84 19.06 13.18 19.06 12.5 19.06 C12.5 19.72 12.51 20.38 12.51 21.05 C12.6 37.07 12.67 53.09 12.71 69.11 C12.73 76.85 12.76 84.6 12.8 92.34 C12.84 99.1 12.87 105.85 12.88 112.6 C12.88 116.18 12.89 119.75 12.92 123.33 C12.96 127.32 12.96 131.32 12.95 135.31 C12.98 137.08 12.98 137.08 13 138.88 C12.96 147.24 11.35 153.72 5.5 160.06 C3.75 161.12 3.75 161.12 1.5 162.06 C0.43 162.58 -0.64 163.09 -1.75 163.62 C-9.45 166.8 -15.01 166 -22.86 163.75 C-25.53 162.94 -25.53 162.94 -28.5 163.06 C-28.73 162.53 -28.95 161.99 -29.19 161.44 C-30.53 158.84 -30.53 158.84 -33 156.06 C-40.25 147.36 -39.68 134.58 -39.69 123.69 C-39.69 122.96 -39.69 122.23 -39.69 121.47 C-39.64 116.33 -39.64 116.33 -38.5 114.06 C-39.16 113.73 -39.82 113.4 -40.5 113.06 C-40.34 112.05 -40.17 111.04 -40 110 C-39.41 105.34 -39.1 100.99 -40.06 96.38 C-40.55 93.81 -40.16 92.56 -39.5 90.06 C-39.38 86.72 -39.36 83.71 -40.06 80.44 C-40.5 78.06 -40.5 78.06 -40.04 75.88 C-39.38 72.42 -39.37 69.16 -39.37 65.64 C-39.37 64.95 -39.37 64.25 -39.36 63.53 C-39.36 62.06 -39.37 60.59 -39.37 59.12 C-39.38 56.87 -39.37 54.62 -39.36 52.37 C-39.36 50.94 -39.37 49.51 -39.37 48.08 C-39.37 46.78 -39.37 45.49 -39.37 44.15 C-39.29 41.15 -39.29 41.15 -40.5 39.06 C-40.34 38.26 -40.17 37.45 -40 36.62 C-39.26 33.96 -39.26 33.96 -40.5 31.06 C-40 30.57 -40 30.57 -39.5 30.06 C-39.5 28.97 -39.5 27.88 -39.5 26.75 C-39.5 23.77 -39.33 21.84 -38.5 19.06 C-38.42 18.32 -38.34 17.58 -38.25 16.81 C-36.32 9.74 -31.55 4.08 -25.5 0.06 C-18.04 -3.67 -7.56 -3.37 0 0 Z " fill="#FDFEFE" transform="translate(281.5,284.9375)"/>
<path d="M0 0 C0.99 0 1.98 0 3 0 C4.67 1.67 6.33 3.33 8 5 C8.7 5.12 9.4 5.25 10.12 5.38 C12 6 12 6 13.62 9.25 C14.08 10.49 14.53 11.73 15 13 C15.35 13.79 15.71 14.58 16.07 15.39 C17.1 18.28 17.26 20.5 17.27 23.56 C17.28 24.66 17.28 25.77 17.29 26.91 C17.29 28.11 17.29 29.32 17.29 30.56 C17.3 31.83 17.3 33.11 17.31 34.42 C17.33 37.91 17.33 41.41 17.33 44.9 C17.34 47.08 17.34 49.27 17.35 51.45 C17.36 59.08 17.37 66.71 17.37 74.33 C17.37 81.43 17.39 88.53 17.42 95.63 C17.45 101.73 17.46 107.83 17.46 113.94 C17.46 117.58 17.46 121.22 17.48 124.86 C17.51 128.93 17.5 132.99 17.49 137.05 C17.5 138.25 17.51 139.45 17.52 140.68 C17.46 148.46 16.47 153.88 11.32 159.99 C4.09 165.84 -3.04 168.47 -12.34 167.74 C-18.96 166.74 -23.32 165.56 -27.69 160.31 C-33.6 152.09 -34.44 144.61 -34.39 134.78 C-34.39 133.57 -34.4 132.37 -34.4 131.13 C-34.42 127.84 -34.41 124.56 -34.4 121.28 C-34.4 117.83 -34.4 114.38 -34.41 110.93 C-34.41 105.13 -34.41 99.34 -34.39 93.54 C-34.37 86.86 -34.38 80.18 -34.4 73.51 C-34.41 67.75 -34.41 62 -34.4 56.24 C-34.4 52.82 -34.4 49.39 -34.41 45.96 C-34.42 42.14 -34.4 38.31 -34.39 34.48 C-34.39 33.36 -34.4 32.24 -34.41 31.09 C-34.36 25.07 -33.72 19.94 -31.74 14.24 C-30.95 11.85 -30.45 9.48 -30 7 C-29.1 6.83 -29.1 6.83 -28.19 6.65 C-25.67 6.05 -25.67 6.05 -22.94 3.56 C-16.16 -1.45 -7.98 -1.43 0 0 Z " fill="#FDFEFE" transform="translate(425,283)"/>
<path d="M0 0 C127.71 0 255.42 0 387 0 C383 3 383 3 379.43 2.69 C378.73 2.57 378.03 2.45 377.31 2.33 C372.96 1.71 368.57 1.9 364.18 1.94 C363.17 1.94 362.15 1.95 361.11 1.95 C357.88 1.96 354.66 1.98 351.44 2 C347.19 2.03 342.93 2.05 338.68 2.06 C337.23 2.07 337.23 2.07 335.75 2.09 C330.72 2.11 325.96 1.87 321 1 C320.67 1.66 320.34 2.32 320 3 C319.67 2.67 319.34 2.34 319 2 C315.47 1.94 311.96 1.98 308.43 2.04 C304.47 2.08 300.87 1.99 297 1 C296.67 1.66 296.34 2.32 296 3 C295.01 2.86 294.02 2.71 293 2.56 C289.01 1.99 285 1.49 281 1 C280.67 1.66 280.34 2.32 280 3 C278.5 2.76 278.5 2.76 276.96 2.51 C273.12 2.02 269.47 1.87 265.61 1.87 C264.93 1.87 264.26 1.87 263.56 1.86 C262.16 1.86 260.75 1.87 259.34 1.87 C257.18 1.88 255.01 1.87 252.85 1.86 C251.48 1.86 250.1 1.87 248.73 1.87 C246.86 1.87 246.86 1.87 244.96 1.87 C242.07 1.8 242.07 1.8 240 3 C238.39 2.76 236.77 2.53 235.16 2.27 C230.83 1.73 226.46 1.86 222.11 1.87 C221.08 1.87 220.05 1.87 218.99 1.86 C216.83 1.86 214.66 1.87 212.5 1.87 C209.18 1.88 205.86 1.87 202.54 1.86 C200.44 1.86 198.33 1.87 196.23 1.87 C195.23 1.87 194.24 1.86 193.21 1.86 C192.29 1.86 191.38 1.87 190.43 1.87 C189.22 1.87 189.22 1.87 187.98 1.87 C185.92 1.88 185.92 1.88 184 3 C184 2.34 184 1.68 184 1 C183.38 1.04 182.75 1.07 182.11 1.11 C179.24 1.27 176.37 1.41 173.5 1.56 C172.03 1.65 172.03 1.65 170.52 1.73 C164.85 2.02 159.61 1.9 154 1 C154 1.66 154 2.32 154 3 C151.36 2.34 148.72 1.68 146 1 C145.67 1.66 145.34 2.32 145 3 C145 2.34 145 1.68 145 1 C144.44 1.07 143.89 1.14 143.31 1.22 C136.05 2.1 129.24 2.45 122 1 C121.67 1.66 121.34 2.32 121 3 C118.69 2.34 116.38 1.68 114 1 C113.67 1.66 113.34 2.32 113 3 C111.53 2.75 111.53 2.75 110.03 2.5 C105.84 1.9 101.73 1.92 97.5 2 C92.2 2.09 87.23 1.88 82 1 C81.67 1.66 81.34 2.32 81 3 C81 2.34 81 1.68 81 1 C80.42 1.08 79.84 1.17 79.24 1.25 C74.58 1.86 70.65 2.07 66 1 C65.67 1.66 65.34 2.32 65 3 C65 2.34 65 1.68 65 1 C64.41 1.08 63.81 1.15 63.2 1.23 C56.68 2 50.42 1.96 43.88 1.56 C42.92 1.51 41.96 1.46 40.98 1.4 C38.65 1.28 36.33 1.14 34 1 C33.67 1.66 33.34 2.32 33 3 C33 2.34 33 1.68 33 1 C23.43 1 13.86 1 4 1 C5.32 3.31 6.64 5.62 8 8 C8 8.66 8 9.32 8 10 C8.66 10.33 9.32 10.66 10 11 C17.66 29.2 15.14 52.41 15.09 71.68 C15.08 75.25 15.08 78.83 15.07 82.4 C15.07 88.58 15.06 94.76 15.04 100.94 C15.03 109.89 15.02 118.84 15.01 127.79 C15 142.34 14.98 156.89 14.97 171.44 C14.96 172.31 14.96 173.18 14.96 174.07 C14.95 186.4 14.93 198.73 14.91 211.06 C14.91 211.93 14.91 212.79 14.9 213.69 C14.9 214.56 14.9 215.42 14.9 216.32 C14.88 230.82 14.86 245.32 14.85 259.82 C14.85 268.74 14.83 277.66 14.81 286.59 C14.8 292.7 14.79 298.82 14.79 304.94 C14.79 308.46 14.79 311.98 14.78 315.5 C14.7 335.83 14.7 335.83 17 356 C17.99 356.33 18.98 356.66 20 357 C19.67 357.66 19.34 358.32 19 359 C20.06 361.56 21.18 363.98 22.44 366.44 C22.8 367.16 23.17 367.87 23.54 368.61 C27.79 376.76 32.33 384.95 40.32 389.9 C42.1 391.07 43.43 392.38 44.94 393.88 C50.53 398.84 58.16 401.22 65 404 C65 404.66 65 405.32 65 406 C48.92 403.59 34.47 390.38 25 378 C17.29 366.27 11.89 352.61 11.87 338.45 C11.87 337.37 11.86 336.28 11.86 335.16 C11.86 333.98 11.86 332.8 11.86 331.59 C11.86 330.32 11.86 329.06 11.85 327.76 C11.85 324.26 11.84 320.76 11.84 317.26 C11.84 313.48 11.83 309.71 11.83 305.93 C11.82 299.38 11.81 292.84 11.8 286.29 C11.79 275.93 11.77 265.57 11.75 255.21 C11.74 251.66 11.73 248.11 11.73 244.57 C11.72 243.68 11.72 242.79 11.72 241.88 C11.7 231.79 11.68 221.7 11.66 211.61 C11.66 210.22 11.66 210.22 11.66 208.81 C11.63 193.89 11.61 178.97 11.6 164.05 C11.58 148.71 11.55 133.36 11.51 118.02 C11.49 108.58 11.47 99.13 11.47 89.68 C11.47 83.19 11.46 76.7 11.43 70.21 C11.42 66.48 11.42 62.74 11.42 59.01 C12.16 32.72 12.16 32.72 4.38 8.06 C3.76 6.94 3.15 5.82 2.52 4.66 C2.02 3.78 1.52 2.9 1 2 C0.67 1.34 0.34 0.68 0 0 Z " fill="#B6B7B8" transform="translate(125,181)"/>
<path d="M0 0 C0.92 -0 1.84 -0.01 2.78 -0.01 C4.29 -0.01 4.29 -0.01 5.83 -0 C6.91 -0 7.99 -0.01 9.09 -0.01 C12.73 -0.01 16.36 -0.01 20 -0.01 C22.62 -0.01 25.24 -0.01 27.86 -0.01 C33.57 -0.02 39.28 -0.02 44.99 -0.02 C53.49 -0.02 61.98 -0.02 70.47 -0.03 C86.52 -0.04 102.57 -0.04 118.62 -0.04 C131.01 -0.04 143.4 -0.04 155.8 -0.05 C159.36 -0.05 162.92 -0.05 166.49 -0.05 C167.37 -0.05 168.26 -0.05 169.17 -0.05 C194.09 -0.06 219.02 -0.06 243.94 -0.06 C245.35 -0.06 245.35 -0.06 246.79 -0.06 C251.55 -0.06 256.32 -0.06 261.08 -0.06 C262.5 -0.06 262.5 -0.06 263.95 -0.06 C265.86 -0.06 267.78 -0.06 269.69 -0.06 C299.48 -0.06 329.27 -0.07 359.05 -0.08 C392.5 -0.09 425.94 -0.1 459.39 -0.1 C462.95 -0.1 466.51 -0.1 470.08 -0.1 C470.95 -0.1 471.83 -0.1 472.74 -0.1 C486.88 -0.1 501.02 -0.11 515.17 -0.12 C529.37 -0.13 543.57 -0.13 557.78 -0.12 C566.22 -0.12 574.67 -0.12 583.12 -0.13 C589.41 -0.13 595.71 -0.13 602 -0.12 C604.56 -0.12 607.11 -0.12 609.67 -0.13 C613.12 -0.14 616.58 -0.13 620.04 -0.12 C621.05 -0.13 622.05 -0.13 623.09 -0.14 C624.47 -0.13 624.47 -0.13 625.87 -0.12 C626.66 -0.12 627.45 -0.12 628.27 -0.12 C630.7 0.16 632.33 0.92 634.44 2.13 C631.61 3.07 629.91 3.25 626.98 3.25 C625.6 3.25 625.6 3.25 624.2 3.25 C623.18 3.25 622.17 3.24 621.13 3.24 C619.51 3.24 619.51 3.24 617.86 3.24 C614.21 3.24 610.56 3.23 606.91 3.22 C604.28 3.22 601.65 3.22 599.02 3.21 C593.29 3.21 587.55 3.2 581.82 3.19 C573.29 3.18 564.77 3.17 556.24 3.16 C542.78 3.15 529.31 3.13 515.85 3.11 C494.48 3.09 473.11 3.07 451.73 3.05 C447.19 3.05 442.64 3.05 438.09 3.04 C437.19 3.04 436.28 3.04 435.35 3.04 C433.51 3.04 431.68 3.04 429.84 3.04 C428 3.04 426.15 3.03 424.31 3.03 C402.56 3.02 380.81 3 359.07 2.98 C357.64 2.98 357.64 2.98 356.18 2.98 C325.31 2.95 294.45 2.92 263.58 2.88 C231.85 2.83 200.13 2.8 168.41 2.79 C163.93 2.79 159.45 2.79 154.97 2.79 C154.09 2.79 153.21 2.79 152.3 2.78 C138.1 2.78 123.9 2.76 109.71 2.73 C95.44 2.7 81.17 2.69 66.91 2.69 C58.43 2.69 49.95 2.68 41.47 2.66 C35.81 2.64 30.15 2.64 24.49 2.65 C21.26 2.65 18.03 2.65 14.81 2.63 C11.33 2.62 7.85 2.62 4.38 2.64 C2.87 2.62 2.87 2.62 1.34 2.6 C-4.97 2.66 -9.17 3.89 -14.56 7.13 C-15.27 7.46 -15.98 7.8 -16.72 8.14 C-19.14 9.43 -19.55 10.6 -20.56 13.13 C-20.9 13.88 -21.24 14.63 -21.6 15.4 C-23.51 20.8 -23.61 27.16 -21.7 32.58 C-21.02 33.91 -20.31 35.22 -19.54 36.51 C-18.56 38.13 -18.56 38.13 -17.56 41.13 C-15.73 42.25 -15.73 42.25 -13.56 43.13 C-12.64 43.65 -12.64 43.65 -11.69 44.19 C-6.64 46.42 -1.17 46.26 4.26 46.27 C5.78 46.29 7.3 46.31 8.82 46.33 C11.18 46.35 13.54 46.38 15.91 46.38 C26.12 46.39 34.2 47.19 43.44 52.13 C41.81 52.81 41.81 52.81 39.44 53.13 C38.53 52.66 37.63 52.2 36.7 51.72 C32.81 49.82 29.52 49.69 25.29 49.69 C24.52 49.67 23.75 49.66 22.96 49.65 C20.51 49.6 18.07 49.58 15.62 49.56 C-10.8 49.3 -10.8 49.3 -20.44 40.5 C-22.56 38.13 -22.56 38.13 -22.56 36.13 C-23.22 35.8 -23.88 35.47 -24.56 35.13 C-25.63 32.31 -25.63 32.31 -26.56 29.13 C-26.78 28.53 -27 27.94 -27.23 27.33 C-28.16 21.24 -24.44 14.09 -22 8.63 C-16.45 2.93 -7.89 0 0 0 Z " fill="#A5A6A7" transform="translate(32.56382989883423,132.87350016832352)"/>
<path d="M0 0 C8.07 3.81 12.67 11.39 16.01 19.44 C18.08 25.41 19.13 31.23 19.12 37.57 C19.13 38.65 19.13 39.74 19.13 40.86 C19.13 42.05 19.13 43.23 19.12 44.46 C19.13 45.72 19.13 46.99 19.13 48.3 C19.13 51.08 19.13 53.86 19.13 56.64 C19.13 61.16 19.13 65.69 19.13 70.21 C19.14 75.93 19.14 81.65 19.14 87.37 C19.14 98.63 19.15 109.89 19.17 121.15 C19.17 122.93 19.17 124.7 19.18 126.48 C19.18 129.17 19.18 131.86 19.19 134.55 C19.2 144.69 19.22 154.83 19.23 164.97 C19.23 165.9 19.23 166.83 19.23 167.78 C19.25 182.76 19.25 197.75 19.25 212.73 C19.25 228.14 19.27 243.56 19.3 258.97 C19.32 268.45 19.33 277.94 19.31 287.43 C19.3 293.95 19.31 300.47 19.34 306.99 C19.35 310.74 19.36 314.49 19.34 318.24 C19.19 354.7 27.43 385.02 53 412 C68.85 427.83 89.39 439.2 111 445 C111 445.33 111 445.66 111 446 C102.35 445.85 95.44 442.45 87.75 438.83 C86.38 438.18 85 437.55 83.61 436.93 C67.08 429.24 53.9 416.37 41.45 403.38 C40.03 401.89 40.03 401.89 38 401 C37.67 399.67 37.33 398.33 37 397 C35.23 393.62 34.22 392.15 31 390 C30.3 388.01 29.65 386.01 29 384 C28.26 382.62 27.51 381.24 26.75 379.88 C22.79 372.19 18 360.77 18 352 C17.34 352 16.68 352 16 352 C16 351.34 16 350.68 16 350 C16.66 350 17.32 350 18 350 C17.67 349.34 17.34 348.68 17 348 C16.85 346.02 16.75 344.04 16.69 342.06 C16.65 340.82 16.6 339.58 16.56 338.3 C16.52 336.94 16.48 335.58 16.44 334.22 C16.42 333.53 16.4 332.83 16.38 332.12 C15.93 317.25 15.86 302.38 15.89 287.5 C15.89 284.71 15.89 281.92 15.89 279.12 C15.89 273.19 15.89 267.25 15.89 261.31 C15.9 252.73 15.91 244.14 15.91 235.56 C15.91 221.62 15.92 207.69 15.92 193.75 C15.93 180.24 15.94 166.72 15.95 153.21 C15.95 152.37 15.95 151.53 15.95 150.67 C15.95 146.47 15.95 142.27 15.95 138.07 C15.96 103.38 15.98 68.69 16 34 C15.34 34 14.68 34 14 34 C14 33.34 14 32.68 14 32 C14.66 32 15.32 32 16 32 C15.55 30.19 15.09 28.37 14.62 26.56 C14.37 25.55 14.11 24.54 13.85 23.5 C13.27 20.84 13.27 20.84 11 20 C10.66 18 10.33 16 10 14 C9.34 13.34 8.68 12.68 8 12 C7.33 10.67 6.67 9.33 6 8 C4.99 6.56 3.94 5.15 2.88 3.75 C2.34 3.04 1.8 2.34 1.24 1.61 C0.83 1.08 0.42 0.55 0 0 Z " fill="#B7B8BA" transform="translate(76,187)"/>
<path d="M0 0 C0.99 0 1.98 0 3 0 C4.67 1.67 6.33 3.33 8 5 C8.7 5.12 9.4 5.25 10.12 5.38 C12 6 12 6 13.62 9.25 C14.08 10.49 14.53 11.73 15 13 C15.35 13.79 15.71 14.58 16.07 15.39 C17.1 18.28 17.26 20.5 17.27 23.56 C17.28 24.66 17.28 25.77 17.29 26.91 C17.29 28.11 17.29 29.32 17.29 30.56 C17.3 31.83 17.3 33.11 17.31 34.42 C17.33 37.91 17.33 41.41 17.33 44.9 C17.34 47.08 17.34 49.27 17.35 51.45 C17.36 59.08 17.37 66.71 17.37 74.33 C17.37 81.43 17.39 88.53 17.42 95.63 C17.45 101.73 17.46 107.83 17.46 113.94 C17.46 117.58 17.46 121.22 17.48 124.86 C17.51 128.93 17.5 132.99 17.49 137.05 C17.5 138.25 17.51 139.45 17.52 140.68 C17.46 148.46 16.47 153.88 11.32 159.99 C4.09 165.84 -3.04 168.47 -12.34 167.74 C-18.96 166.74 -23.32 165.56 -27.69 160.31 C-33.6 152.09 -34.44 144.61 -34.39 134.78 C-34.39 133.57 -34.4 132.37 -34.4 131.13 C-34.42 127.84 -34.41 124.56 -34.4 121.28 C-34.4 117.83 -34.4 114.38 -34.41 110.93 C-34.41 105.13 -34.41 99.34 -34.39 93.54 C-34.37 86.86 -34.38 80.18 -34.4 73.51 C-34.41 67.75 -34.41 62 -34.4 56.24 C-34.4 52.82 -34.4 49.39 -34.41 45.96 C-34.42 42.14 -34.4 38.31 -34.39 34.48 C-34.39 33.36 -34.4 32.24 -34.41 31.09 C-34.36 25.07 -33.72 19.94 -31.74 14.24 C-30.95 11.85 -30.45 9.48 -30 7 C-29.1 6.83 -29.1 6.83 -28.19 6.65 C-25.67 6.05 -25.67 6.05 -22.94 3.56 C-16.16 -1.45 -7.98 -1.43 0 0 Z M-26 9 C-29.97 14.3 -31.12 17.88 -31.15 24.4 C-31.16 25.5 -31.17 26.59 -31.18 27.72 C-31.18 28.92 -31.19 30.12 -31.19 31.35 C-31.2 32.62 -31.21 33.88 -31.22 35.19 C-31.24 39.38 -31.26 43.57 -31.27 47.77 C-31.28 49.21 -31.28 50.66 -31.29 52.1 C-31.31 58.12 -31.33 64.14 -31.34 70.15 C-31.36 78.76 -31.39 87.37 -31.45 95.98 C-31.49 102.04 -31.51 108.11 -31.51 114.17 C-31.51 117.78 -31.53 121.4 -31.56 125.02 C-31.6 129.05 -31.59 133.09 -31.58 137.13 C-31.6 138.32 -31.62 139.51 -31.63 140.74 C-31.57 148.74 -30.05 153.64 -24.59 159.52 C-18.95 164.75 -12.24 165.54 -4.84 165.38 C2.55 164.4 8.19 160.53 12.94 154.94 C15.18 150.83 15.13 146 15.16 141.4 C15.18 139.77 15.18 139.77 15.19 138.1 C15.2 136.92 15.2 135.74 15.21 134.53 C15.22 133.27 15.23 132.02 15.24 130.73 C15.27 126.58 15.29 122.44 15.31 118.29 C15.31 117.59 15.32 116.88 15.32 116.15 C15.35 109.48 15.38 102.8 15.39 96.12 C15.41 87.61 15.46 79.09 15.53 70.58 C15.57 64.58 15.6 58.58 15.61 52.58 C15.61 49 15.63 45.42 15.66 41.84 C15.71 37.85 15.7 33.86 15.7 29.86 C15.72 28.69 15.74 27.51 15.76 26.3 C15.69 18.71 14.25 13.63 9 8 C5.04 4.86 1.13 2.38 -4 2 C-5 1.92 -5 1.92 -6.02 1.85 C-13.85 1.51 -20.3 3.46 -26 9 Z " fill="#A9ABAD" transform="translate(425,283)"/>
<path d="M0 0 C6.14 0.68 9.85 6.89 13.67 11.25 C16.87 15.44 17.3 18.58 17.31 23.88 C17.33 25.07 17.35 26.26 17.36 27.49 C16.74 33.5 13.84 37.49 10 42 C10.66 42.66 11.32 43.32 12 44 C11.34 43.92 10.68 43.84 10 43.75 C6.43 44.05 4.23 45.27 1.16 47.03 C-4.23 49.45 -10.31 49.2 -16.12 49.32 C-16.97 49.34 -17.83 49.36 -18.71 49.38 C-21.43 49.44 -24.15 49.5 -26.88 49.56 C-28.73 49.61 -30.58 49.65 -32.43 49.69 C-36.95 49.8 -41.48 49.9 -46 50 C-42.23 46.23 -37.56 46.83 -32.49 46.75 C-30.99 46.72 -29.5 46.69 -28 46.65 C-25.66 46.61 -23.32 46.56 -20.99 46.52 C-4.48 46.72 -4.48 46.72 9.34 38.84 C14.08 33.6 14.54 28.84 14.35 21.97 C13.55 15.19 10.28 10.28 5 6 C2.25 5.3 -0.42 5.26 -3.25 5.25 C-10.93 5.07 -10.93 5.07 -12 4 C-13.39 3.9 -14.78 3.88 -16.17 3.88 C-17.08 3.87 -17.98 3.87 -18.92 3.87 C-19.93 3.87 -20.94 3.87 -21.98 3.88 C-23.04 3.88 -24.11 3.87 -25.21 3.87 C-28.83 3.87 -32.45 3.88 -36.08 3.88 C-38.68 3.88 -41.28 3.88 -43.89 3.88 C-49.57 3.88 -55.26 3.88 -60.94 3.88 C-69.4 3.89 -77.85 3.89 -86.31 3.89 C-100.53 3.88 -114.74 3.89 -128.96 3.89 C-143.05 3.9 -157.14 3.9 -171.22 3.91 C-172.1 3.91 -172.97 3.91 -173.87 3.91 C-178.31 3.91 -182.76 3.91 -187.2 3.91 C-218.69 3.91 -250.18 3.92 -281.67 3.92 C-312.27 3.93 -342.86 3.94 -373.46 3.95 C-374.88 3.95 -374.88 3.95 -376.32 3.95 C-385.78 3.95 -395.25 3.95 -404.72 3.95 C-424 3.95 -443.29 3.95 -462.57 3.96 C-463.9 3.96 -463.9 3.96 -465.26 3.96 C-524.5 3.97 -583.75 3.98 -643 4 C-639.84 1.89 -639.12 1.75 -635.52 1.75 C-634.13 1.74 -634.13 1.74 -632.71 1.74 C-631.69 1.74 -630.67 1.75 -629.62 1.75 C-628.53 1.75 -627.45 1.75 -626.33 1.75 C-622.65 1.74 -618.98 1.75 -615.3 1.76 C-612.66 1.76 -610.01 1.76 -607.36 1.75 C-601.59 1.75 -595.82 1.75 -590.04 1.76 C-581.46 1.77 -572.88 1.77 -564.29 1.77 C-549.85 1.77 -535.41 1.78 -520.97 1.79 C-506.67 1.8 -492.37 1.81 -478.07 1.81 C-477.18 1.81 -476.29 1.81 -475.37 1.81 C-470.86 1.81 -466.35 1.81 -461.84 1.81 C-429.86 1.82 -397.89 1.83 -365.91 1.85 C-334.84 1.87 -303.77 1.88 -272.7 1.89 C-271.74 1.89 -270.79 1.89 -269.8 1.89 C-260.19 1.89 -250.57 1.9 -240.96 1.9 C-221.37 1.9 -201.79 1.91 -182.21 1.92 C-181.31 1.92 -180.4 1.92 -179.48 1.92 C-119.32 1.93 -59.16 1.97 1 2 C0.67 1.34 0.34 0.68 0 0 Z " fill="#E6E7E7" transform="translate(666,133)"/>
<path d="M0 0 C0.73 0.14 1.46 0.28 2.21 0.43 C14.17 2.46 26.05 2.26 38.15 2.21 C40.57 2.21 43 2.21 45.42 2.21 C50.62 2.2 55.81 2.2 61.01 2.18 C68.54 2.16 76.07 2.15 83.59 2.15 C95.83 2.14 108.06 2.12 120.3 2.1 C121.39 2.09 121.39 2.09 122.51 2.09 C123.24 2.09 123.97 2.09 124.73 2.09 C135.1 2.07 145.46 2.05 155.83 2.03 C156.56 2.03 157.29 2.03 158.04 2.03 C170.24 2.01 182.43 2 194.63 1.99 C202.13 1.98 209.63 1.97 217.14 1.95 C222.89 1.94 228.64 1.93 234.4 1.92 C236.75 1.92 239.1 1.91 241.45 1.91 C264.26 1.84 264.26 1.84 275 3 C275 3.66 275 4.32 275 5 C277.97 5 280.94 5 284 5 C284 5.33 284 5.66 284 6 C192.26 6 100.52 6 6 6 C5.67 5.34 5.34 4.68 5 4 C3.02 3.27 1.02 2.6 -1 2 C-0.67 1.34 -0.34 0.68 0 0 Z " fill="#A3A6A8" transform="translate(192,586)"/>
<path d="M0 0 C13.53 0 27.06 0 41 0 C38.69 3.96 36.38 7.92 34 12 C28.25 26.25 29.43 42.19 29.48 57.27 C29.49 61.08 29.48 64.89 29.46 68.69 C29.45 75.27 29.45 81.85 29.45 88.43 C29.46 97.95 29.45 107.47 29.43 117 C29.4 132.47 29.38 147.94 29.38 163.41 C29.38 164.33 29.38 165.25 29.38 166.2 C29.38 167.13 29.38 168.05 29.38 169.01 C29.38 182.13 29.37 195.25 29.36 208.38 C29.36 209.76 29.36 209.76 29.36 211.18 C29.34 226.6 29.32 242.02 29.29 257.45 C29.28 266.95 29.27 276.44 29.28 285.94 C29.28 292.45 29.27 298.95 29.26 305.45 C29.26 309.2 29.26 312.95 29.26 316.7 C29.27 320.77 29.26 324.84 29.25 328.91 C29.26 330.08 29.26 331.26 29.27 332.47 C29.23 339.52 28.52 346.11 27 353 C26.67 353 26.34 353 26 353 C26.08 311.78 26.17 270.57 26.28 229.35 C26.29 224.48 26.31 219.62 26.32 214.75 C26.32 213.78 26.32 212.81 26.32 211.81 C26.36 196.13 26.4 180.45 26.43 164.76 C26.46 148.66 26.5 132.57 26.54 116.47 C26.57 106.54 26.59 96.61 26.61 86.68 C26.62 79.87 26.64 73.06 26.66 66.24 C26.67 62.31 26.68 58.39 26.68 54.46 C26.69 50.86 26.7 47.25 26.71 43.65 C26.72 41.74 26.72 39.83 26.72 37.93 C26.76 30.9 26.92 23.77 29 17 C29.66 16.67 30.32 16.34 31 16 C31.1 15.15 31.21 14.31 31.31 13.44 C32.22 8.91 34.41 5.76 37 2 C35.02 2.33 33.04 2.66 31 3 C31 2.67 31 2.34 31 2 C26.71 1.67 22.42 1.34 18 1 C17.67 1.66 17.34 2.32 17 3 C17 2.34 17 1.68 17 1 C14.71 1.14 12.42 1.29 10.12 1.44 C8.85 1.52 7.57 1.6 6.26 1.68 C3.12 1.79 3.12 1.79 1 3 C0.67 2.01 0.34 1.02 0 0 Z " fill="#A1A3A5" transform="translate(523,181)"/>
<path d="M0 0 C3 1 3 1 4.17 3.22 C5.86 8.88 5.8 14.76 3.81 20.31 C-1.2 27.74 -5.5 31.17 -14 34 C-16.74 34.07 -19.45 34.09 -22.19 34.06 C-22.94 34.06 -23.69 34.05 -24.46 34.05 C-26.31 34.04 -28.15 34.02 -30 34 C-30 33.01 -30 32.02 -30 31 C-30.55 30.82 -31.09 30.64 -31.65 30.45 C-39.83 27.72 -39.83 27.72 -48 25 C-48.33 25.66 -48.66 26.32 -49 27 C-49 26.01 -49 25.02 -49 24 C-49.33 24.66 -49.66 25.32 -50 26 C-50.66 26 -51.32 26 -52 26 C-52.33 25.34 -52.66 24.68 -53 24 C-55.49 23.37 -57.91 22.87 -60.44 22.44 C-61.16 22.31 -61.88 22.18 -62.63 22.04 C-67.46 21.2 -72.28 20.56 -77.18 20.21 C-79 20 -79 20 -81 19 C-81 19.66 -81 20.32 -81 21 C-83.64 20.34 -86.28 19.68 -89 19 C-89.33 19.66 -89.66 20.32 -90 21 C-90 20.34 -90 19.68 -90 19 C-93.02 19.59 -96.02 20.23 -99 21 C-99 20.67 -99 20.34 -99 20 C-100.65 19.67 -102.3 19.34 -104 19 C-104 19.66 -104 20.32 -104 21 C-104.66 21 -105.32 21 -106 21 C-106 20.34 -106 19.68 -106 19 C-133.38 22.52 -133.38 22.52 -159.19 31.63 C-164.71 34.32 -171.28 34.74 -177.19 33.06 C-178.58 32.54 -178.58 32.54 -180 32 C-180 32.66 -180 33.32 -180 34 C-180.66 34 -181.32 34 -182 34 C-182.5 32.52 -182.5 32.52 -183 31 C-183.74 30.61 -184.49 30.22 -185.25 29.81 C-189.02 27.33 -191.08 24.06 -193 20 C-193 19.01 -193 18.02 -193 17 C-192.34 17 -191.68 17 -191 17 C-189.67 18.86 -189.67 18.86 -188.19 21.31 C-185.43 25.58 -183.15 28.05 -178.18 29.55 C-175.67 30.07 -173.32 30.21 -170.75 30.25 C-169.86 30.28 -168.97 30.3 -168.05 30.33 C-164.04 29.9 -160.72 28.49 -157 27 C-140.3 20.9 -123.72 16.89 -105.86 16.8 C-105.01 16.79 -104.16 16.79 -103.28 16.78 C-101.49 16.77 -99.7 16.76 -97.9 16.76 C-95.23 16.75 -92.56 16.72 -89.89 16.69 C-73.08 16.58 -56.95 18.28 -41.06 24.06 C-40.05 24.41 -39.04 24.77 -37.99 25.13 C-34.42 26.38 -30.86 27.64 -27.36 29.09 C-21.89 31.2 -15.6 30.88 -10.1 29.02 C-5.71 26.93 -2.65 25.16 0 21 C0.33 20.01 0.66 19.02 1 18 C1.66 18 2.32 18 3 18 C2.52 8.8 2.52 8.8 0 0 Z " fill="#C2C3C4" transform="translate(439,29)"/>
<path d="M0 0 C0.66 0 1.32 0 2 0 C2 0.66 2 1.33 2 2.01 C2.04 18.15 2.1 34.29 2.18 50.44 C2.22 58.24 2.26 66.05 2.27 73.85 C2.28 80.66 2.31 87.47 2.35 94.27 C2.38 97.87 2.39 101.48 2.39 105.08 C2.39 109.11 2.42 113.13 2.45 117.16 C2.45 118.35 2.44 119.53 2.44 120.75 C2.54 128.55 3.61 133.92 8.71 140.06 C12.45 143.15 15 144.8 20 145 C20.79 145.04 21.58 145.07 22.39 145.11 C27.44 145.26 31.21 144.71 36 143 C38.16 143.44 38.16 143.44 40 144 C32.2 148.46 26.45 149.78 17.69 147.56 C16.68 147.28 15.67 146.99 14.64 146.69 C11.97 145.87 11.97 145.87 9 146 C8.77 145.46 8.55 144.93 8.31 144.38 C6.97 141.78 6.97 141.78 4.5 139 C-2.75 130.3 -2.18 117.52 -2.19 106.62 C-2.19 105.89 -2.19 105.16 -2.19 104.41 C-2.14 99.27 -2.14 99.27 -1 97 C-1.66 96.67 -2.32 96.34 -3 96 C-2.84 94.99 -2.67 93.98 -2.5 92.94 C-1.91 88.28 -1.6 83.93 -2.56 79.31 C-3.05 76.74 -2.66 75.5 -2 73 C-1.88 69.66 -1.86 66.65 -2.56 63.38 C-3 61 -3 61 -2.54 58.82 C-1.88 55.36 -1.87 52.1 -1.87 48.58 C-1.87 47.88 -1.87 47.19 -1.86 46.47 C-1.86 45 -1.87 43.53 -1.87 42.06 C-1.88 39.81 -1.87 37.56 -1.86 35.31 C-1.86 33.88 -1.87 32.45 -1.87 31.02 C-1.87 29.72 -1.87 28.42 -1.87 27.09 C-1.79 24.09 -1.79 24.09 -3 22 C-2.84 21.2 -2.67 20.39 -2.5 19.56 C-1.76 16.9 -1.76 16.9 -3 14 C-2.67 13.67 -2.34 13.34 -2 13 C-2.02 11.95 -2.04 10.9 -2.06 9.81 C-2 6.07 -1.35 3.46 0 0 Z " fill="#CFD0D0" transform="translate(244,302)"/>
<path d="M0 0 C5.05 2.97 8.61 6.99 11.5 12.06 C12.31 15.56 12.31 15.56 12.5 18.06 C13.16 18.39 13.82 18.72 14.5 19.06 C13.84 19.06 13.18 19.06 12.5 19.06 C12.5 19.72 12.51 20.38 12.51 21.05 C12.6 37.07 12.67 53.09 12.71 69.11 C12.73 76.85 12.76 84.6 12.8 92.34 C12.84 99.1 12.87 105.85 12.88 112.6 C12.88 116.18 12.89 119.75 12.92 123.33 C12.96 127.32 12.96 131.32 12.95 135.31 C12.98 137.08 12.98 137.08 13 138.88 C12.96 146.31 12.15 152.24 6.87 157.77 C6.41 158.2 5.96 158.62 5.5 159.06 C4.51 158.73 3.52 158.4 2.5 158.06 C3.74 156.63 4.97 155.2 6.21 153.77 C9 150.08 9.75 147.28 9.76 142.66 C9.77 141.01 9.77 141.01 9.78 139.33 C9.78 138.13 9.78 136.93 9.77 135.69 C9.78 134.43 9.78 133.16 9.79 131.85 C9.8 128.38 9.8 124.91 9.8 121.43 C9.8 118.53 9.81 115.63 9.81 112.73 C9.82 105.88 9.82 99.03 9.82 92.18 C9.81 85.12 9.82 78.06 9.84 71 C9.86 64.93 9.87 58.87 9.86 52.8 C9.86 49.18 9.86 45.56 9.88 41.94 C9.89 37.9 9.88 33.86 9.87 29.82 C9.88 28.63 9.89 27.43 9.9 26.2 C9.85 18.51 9.3 13.3 4.12 7.31 C-2.5 1.63 -7.9 0.68 -16.46 0.79 C-21.9 1.28 -25.62 2.94 -29.25 7.04 C-30.29 8.42 -31.31 9.82 -32.27 11.26 C-33.5 13.06 -33.5 13.06 -35.5 15.06 C-35.83 14.07 -36.16 13.08 -36.5 12.06 C-29.32 -1.41 -14.03 -6.25 0 0 Z " fill="#9C9EA2" transform="translate(281.5,284.9375)"/>
<path d="M0 0 C-4.12 4.12 -11.24 3.21 -16.8 3.35 C-17.65 3.38 -18.51 3.4 -19.39 3.42 C-22.17 3.5 -24.96 3.56 -27.75 3.62 C-28.7 3.65 -29.65 3.67 -30.62 3.69 C-48.78 4.12 -66.86 3.8 -85 3 C-85 3.66 -85 4.32 -85 5 C-85.99 4.5 -85.99 4.5 -87 4 C-89.07 3.92 -91.13 3.9 -93.2 3.91 C-95.18 3.92 -95.18 3.92 -97.19 3.92 C-98.26 3.93 -98.26 3.93 -99.35 3.94 C-103.22 3.96 -107.1 3.97 -110.98 3.98 C-112.21 3.98 -112.21 3.98 -113.46 3.99 C-122.49 4.01 -131.53 3.96 -140.56 3.91 C-142.27 3.9 -143.97 3.89 -145.68 3.88 C-150.11 3.85 -154.55 3.83 -158.98 3.8 C-163.68 3.77 -168.38 3.74 -173.08 3.71 C-181.92 3.66 -190.77 3.61 -199.61 3.55 C-209.7 3.49 -219.79 3.43 -229.89 3.37 C-250.59 3.25 -271.3 3.13 -292 3 C-292 2.67 -292 2.34 -292 2 C-290.85 1.99 -290.85 1.99 -289.67 1.99 C-264.53 1.85 -239.39 1.71 -214.25 1.56 C-213.29 1.56 -212.33 1.55 -211.34 1.55 C-147.57 1.18 -83.79 0.74 -20.02 0.13 C-19.11 0.12 -18.19 0.11 -17.25 0.1 C-15.57 0.08 -13.89 0.07 -12.22 0.05 C-8.15 0.01 -4.07 -0.01 0 0 Z " fill="#999B9C" transform="translate(499,634)"/>
<path d="M0 0 C0.96 3.22 1.11 6.1 1.08 9.45 C1.08 10.56 1.07 11.67 1.06 12.81 C1.05 14.02 1.04 15.23 1.02 16.48 C1.01 17.76 1 19.04 0.99 20.35 C0.97 23.85 0.93 27.36 0.9 30.86 C0.87 34.52 0.84 38.18 0.81 41.84 C0.75 48.77 0.69 55.7 0.63 62.63 C0.55 70.52 0.49 78.42 0.42 86.31 C0.29 102.54 0.15 118.77 0 135 C-0.33 135 -0.66 135 -1 135 C-1.33 120.15 -1.66 105.3 -2 90 C-2.33 90 -2.66 90 -3 90 C-3.02 79.25 -3.04 68.49 -3.05 57.74 C-3.06 52.75 -3.06 47.76 -3.08 42.76 C-3.09 37.95 -3.09 33.13 -3.09 28.31 C-3.1 26.47 -3.1 24.63 -3.11 22.79 C-3.11 20.22 -3.11 17.65 -3.11 15.07 C-3.12 14.31 -3.12 13.55 -3.12 12.76 C-3.12 9.37 -3.07 6.24 -2 3 C-1.34 3 -0.68 3 0 3 C0 2.01 0 1.02 0 0 Z " fill="#949598" transform="translate(394,298)"/>
<path d="M0 0 C0.66 0 1.32 0 2 0 C2 0.99 2 0.99 2 2.01 C2.04 18.15 2.1 34.29 2.18 50.44 C2.22 58.24 2.26 66.05 2.27 73.85 C2.28 80.66 2.31 87.47 2.35 94.27 C2.38 97.87 2.39 101.48 2.39 105.08 C2.39 109.11 2.42 113.13 2.45 117.16 C2.45 118.94 2.45 118.94 2.44 120.75 C2.54 128.55 3.61 133.92 8.71 140.06 C12.45 143.15 15 144.8 20 145 C20.79 145.04 21.58 145.07 22.39 145.11 C27.44 145.26 31.21 144.71 36 143 C38.16 143.44 38.16 143.44 40 144 C32.2 148.46 26.45 149.78 17.69 147.56 C16.68 147.28 15.67 146.99 14.64 146.69 C11.97 145.87 11.97 145.87 9 146 C8.77 145.46 8.55 144.93 8.31 144.38 C6.97 141.78 6.97 141.78 4.5 139 C0.91 134.69 -0.25 132.13 -0.24 126.51 C-0.24 125.39 -0.25 124.28 -0.25 123.13 C-0.24 121.91 -0.23 120.69 -0.23 119.43 C-0.23 118.14 -0.23 116.85 -0.23 115.53 C-0.23 112 -0.22 108.47 -0.2 104.94 C-0.19 101.25 -0.19 97.56 -0.19 93.87 C-0.18 86.89 -0.16 79.91 -0.14 72.92 C-0.12 64.97 -0.11 57.02 -0.1 49.07 C-0.08 32.71 -0.04 16.36 0 0 Z " fill="#9FA0A3" transform="translate(244,302)"/>
<path d="M0 0 C2.46 0.14 4.92 0.29 7.38 0.44 C8.07 0.48 8.77 0.52 9.49 0.56 C14.77 0.89 14.77 0.89 17 2 C19.27 2.11 21.54 2.15 23.81 2.16 C24.52 2.16 25.22 2.17 25.95 2.17 C28.34 2.19 30.72 2.2 33.11 2.21 C34.81 2.21 36.52 2.22 38.22 2.24 C42.86 2.26 47.5 2.28 52.14 2.3 C56.98 2.33 61.82 2.35 66.67 2.38 C75.84 2.43 85.02 2.47 94.2 2.52 C104.64 2.57 115.08 2.62 125.53 2.68 C147.02 2.79 168.51 2.9 190 3 C190 3.33 190 3.66 190 4 C133.9 4 77.8 4 20 4 C20.33 4.99 20.66 5.98 21 7 C19.02 7 17.04 7 15 7 C14.67 6.34 14.34 5.68 14 5 C12.02 5.33 10.04 5.66 8 6 C7.67 5.34 7.34 4.68 7 4 C4.69 3.27 2.35 2.6 0 2 C-0.33 2.66 -0.66 3.32 -1 4 C-0.67 2.68 -0.34 1.36 0 0 Z " fill="#D7D8D8" transform="translate(187,632)"/>
<path d="M0 0 C0.99 0.99 1.98 1.98 3 3 C2.01 3.33 1.02 3.66 0 4 C-1.14 5.78 -1.14 5.78 -2 8 C-2.51 9.13 -2.51 9.13 -3.04 10.28 C-4.95 15.67 -5.04 22.04 -3.14 27.45 C-2.46 28.78 -1.74 30.1 -0.97 31.38 C0 33 0 33 1 36 C2.83 37.13 2.83 37.13 5 38 C5.93 38.53 5.93 38.53 6.88 39.06 C11.92 41.29 17.4 41.13 22.82 41.14 C24.34 41.16 25.86 41.18 27.38 41.2 C29.75 41.23 32.11 41.25 34.47 41.25 C44.69 41.27 52.77 42.06 62 47 C60.38 47.69 60.38 47.69 58 48 C57.1 47.53 56.19 47.07 55.26 46.59 C51.38 44.7 48.08 44.56 43.86 44.56 C43.09 44.55 42.32 44.53 41.52 44.52 C39.08 44.48 36.63 44.46 34.19 44.44 C7.77 44.18 7.77 44.18 -1.88 35.38 C-4 33 -4 33 -4 31 C-4.66 30.67 -5.32 30.34 -6 30 C-7.06 27.19 -7.06 27.19 -8 24 C-8.22 23.41 -8.44 22.81 -8.66 22.2 C-9.58 16.19 -6.12 8.23 -2.81 3.25 C-1 1 -1 1 0 0 Z " fill="#A6A7A9" transform="translate(14,138)"/>
<path d="M0 0 C1.38 4.14 0.03 5.98 -1.77 9.81 C-3.42 12.75 -5.53 14.7 -8 17 C-9.35 18.65 -10.68 20.32 -12 22 C-14.82 25.58 -17.73 28.82 -21 32 C-21.66 32.87 -22.32 33.73 -23 34.62 C-25.16 37.19 -27.12 38.3 -30 40 C-31.61 41.2 -33.22 42.4 -34.81 43.62 C-48.69 53.73 -65.44 63.36 -83 64 C-81.02 63.5 -81.02 63.5 -79 63 C-79 62.34 -79 61.68 -79 61 C-77.98 60.8 -77.98 60.8 -76.94 60.59 C-55.79 55.89 -38.88 44.29 -23 30 C-22.21 29.32 -21.42 28.64 -20.61 27.94 C-13.42 21.32 -8.41 13.03 -3.19 4.85 C-2.14 3.22 -1.07 1.61 0 0 Z " fill="#A4A5A8" transform="translate(583,570)"/>
<path d="M0 0 C5.84 1.55 9.01 5.91 12.16 10.8 C13.33 13.87 13.3 16.59 13.31 19.88 C13.33 21.07 13.35 22.26 13.36 23.49 C12.74 29.5 9.84 33.49 6 38 C6.66 38.66 7.32 39.32 8 40 C7.34 39.92 6.68 39.84 6 39.75 C2.43 40.05 0.23 41.27 -2.84 43.03 C-8.23 45.45 -14.31 45.2 -20.12 45.32 C-20.97 45.34 -21.83 45.36 -22.71 45.38 C-25.43 45.44 -28.15 45.5 -30.88 45.56 C-32.73 45.61 -34.58 45.65 -36.43 45.69 C-40.95 45.8 -45.48 45.9 -50 46 C-46.23 42.23 -41.56 42.83 -36.49 42.75 C-34.99 42.72 -33.5 42.69 -32 42.65 C-29.66 42.61 -27.32 42.56 -24.99 42.52 C-8.48 42.72 -8.48 42.72 5.34 34.84 C10.08 29.6 10.54 24.83 10.35 17.96 C9.47 10.47 5.01 5.35 0 0 Z " fill="#AAABAD" transform="translate(670,137)"/>
<path d="M0 0 C3.63 0 7.26 0 11 0 C11 0.66 11 1.32 11 2 C10.01 2 9.02 2 8 2 C8 2.99 8 3.98 8 5 C7.4 4.96 6.8 4.93 6.18 4.89 C-0.57 4.67 -6.03 5.83 -12.38 8.06 C-13.29 8.38 -14.2 8.69 -15.14 9.02 C-25.56 12.74 -35.3 16.94 -41.08 26.85 C-42.16 29.37 -42.41 31.52 -42.62 34.25 C-42.7 35.14 -42.77 36.03 -42.85 36.95 C-42.9 37.63 -42.95 38.3 -43 39 C-43.66 39 -44.32 39 -45 39 C-45.47 31.9 -45.71 25.7 -41 20 C-30.25 10.22 -14.78 2 0 2 C0 1.34 0 0.68 0 0 Z " fill="#A9ABAC" transform="translate(290,6)"/>
<path d="M0 0 C2.65 -0.03 5.29 -0.05 7.94 -0.06 C8.69 -0.07 9.45 -0.08 10.22 -0.09 C12.15 -0.1 14.08 -0.05 16 0 C16.33 0.33 16.66 0.66 17 1 C19 1.04 21 1.04 23 1 C23 1.66 23 2.32 23 3 C24.73 2.91 24.73 2.91 26.5 2.81 C30.32 2.61 33.3 3.77 36.82 5.16 C38.99 5.99 41.16 6.73 43.37 7.43 C64.53 14.2 64.53 14.2 73 22 C72.5 23.48 72.5 23.48 72 25 C70.96 24.12 70.96 24.12 69.9 23.21 C50.54 8.42 23.4 5.22 0 2 C0 1.34 0 0.68 0 0 Z " fill="#ADAEB0" transform="translate(365,3)"/>
<path d="M0 0 C0 0.66 0 1.32 0 2 C-1.1 2.02 -2.2 2.04 -3.33 2.06 C-7.48 2.14 -11.63 2.23 -15.78 2.32 C-17.57 2.36 -19.35 2.39 -21.13 2.42 C-31.41 2.61 -41.46 3.1 -51.63 4.58 C-54.8 4.98 -57.82 5.07 -61 5 C-61 4.34 -61 3.68 -61 3 C-59.68 3 -58.36 3 -57 3 C-57 2.34 -57 1.68 -57 1 C-53.46 0.76 -49.91 0.52 -46.37 0.29 C-43.61 0.11 -40.86 -0.1 -38.1 -0.32 C-25.36 -1.29 -12.74 -0.68 0 0 Z " fill="#A4A5A7" transform="translate(363,2)"/>
<path d="M0 0 C3.72 3.04 7.07 5.98 10.12 9.69 C25.61 27.72 47.65 38.18 70 45 C70 45.33 70 45.66 70 46 C61.35 45.85 54.44 42.45 46.75 38.83 C45.38 38.18 44 37.55 42.61 36.93 C29.58 30.87 18.19 21.3 8 11.31 C7.44 10.77 6.87 10.22 6.29 9.66 C3.28 6.64 1.24 4.19 0 0 Z " fill="#9C9DA0" transform="translate(117,587)"/>
<path d="M0 0 C-3.42 8.76 -15.34 14.09 -23.5 17.74 C-33.21 21.91 -42.34 24.21 -53 23 C-53.66 22.34 -54.32 21.68 -55 21 C-53.31 20.87 -53.31 20.87 -51.59 20.74 C-33.53 19.16 -17.12 14.43 -3.78 1.54 C-2 0 -2 0 0 0 Z " fill="#A3A5A6" transform="translate(530,568)"/>
<path d="M0 0 C1.93 0.31 1.93 0.31 4 1 C5.12 4 5.12 4 6 7 C6.66 7.33 7.32 7.66 8 8 C11.79 16.99 13.17 28.31 13 38 C12.34 38.99 11.68 39.98 11 41 C8.91 38.91 9.4 34.59 9.12 31.69 C7.92 20.14 5.72 10.22 0 0 Z " fill="#B0B2B3" transform="translate(127,184)"/>
<path d="M0 0 C0.91 0.14 1.81 0.29 2.75 0.44 C10.93 1.71 10.93 1.71 19.19 2 C23 2 23 2 26 4 C26 4.66 26 5.32 26 6 C19.4 6 12.8 6 6 6 C5.67 5.34 5.34 4.68 5 4 C3.02 3.27 1.02 2.6 -1 2 C-0.67 1.34 -0.34 0.68 0 0 Z " fill="#AAACAD" transform="translate(192,586)"/>
<path d="M0 0 C0.7 0.14 1.4 0.29 2.12 0.44 C3.55 0.72 3.55 0.72 5 1 C6.33 1.28 6.33 1.28 7.69 1.56 C14.62 2.48 20.38 2.36 27 0 C29.16 0.44 29.16 0.44 31 1 C23.2 5.46 17.45 6.78 8.69 4.56 C7.68 4.28 6.67 3.99 5.64 3.69 C2.97 2.87 2.97 2.87 0 3 C0 2.01 0 1.02 0 0 Z " fill="#B3B4B6" transform="translate(253,445)"/>
<path d="M0 0 C0.33 0 0.66 0 1 0 C1 14.19 1 28.38 1 43 C0.34 42.67 -0.32 42.34 -1 42 C-2.32 36.22 -2.7 29.41 -1.51 23.61 C-1 21.01 -0.8 18.56 -0.68 15.92 C-0.64 14.99 -0.6 14.06 -0.56 13.1 C-0.52 12.14 -0.48 11.18 -0.44 10.19 C-0.37 8.72 -0.37 8.72 -0.31 7.22 C-0.2 4.81 -0.1 2.41 0 0 Z " fill="#D9D9D9" transform="translate(244,385)"/>
<path d="M0 0 C1.32 0 2.64 0 4 0 C4 0.66 4 1.32 4 2 C11.59 2 19.18 2 27 2 C27 2.33 27 2.66 27 3 C8.19 3 -10.62 3 -30 3 C-30 2.67 -30 2.34 -30 2 C-20.1 2 -10.2 2 0 2 C0 1.34 0 0.68 0 0 Z " fill="#94979A" transform="translate(416,589)"/>
<path d="M0 0 C0.33 0 0.66 0 1 0 C1 12.21 1 24.42 1 37 C0.01 37.5 0.01 37.5 -1 38 C-1.12 32.25 -1.12 32.25 0 30 C-0.66 29.67 -1.32 29.34 -2 29 C-1.84 27.99 -1.67 26.98 -1.5 25.94 C-0.91 21.28 -0.6 16.93 -1.56 12.31 C-2.04 9.77 -1.69 8.46 -1 6 C-1 5.11 -1 4.23 -1 3.31 C-1 1 -1 1 0 0 Z " fill="#FEFFFE" transform="translate(243,369)"/>
<path d="M0 0 C4.46 0.11 8.92 0.24 13.38 0.38 C14.65 0.41 15.92 0.44 17.23 0.47 C18.44 0.51 19.65 0.55 20.9 0.59 C22.58 0.63 22.58 0.63 24.29 0.68 C27 1 27 1 29 3 C19.1 3 9.2 3 -1 3 C-0.67 2.01 -0.34 1.02 0 0 Z " fill="#B7BDBF" transform="translate(421,588)"/>
<path d="M0 0 C3 1 3 1 4.17 3.22 C5.89 8.96 5.82 14.85 3.69 20.44 C3.13 21.28 2.57 22.13 2 23 C1.48 23.78 0.97 24.57 0.44 25.38 C-0.04 25.91 -0.51 26.45 -1 27 C-1.66 27 -2.32 27 -3 27 C-2.71 26.44 -2.42 25.89 -2.12 25.31 C-0.96 22.92 0.03 20.48 1 18 C1.66 18 2.32 18 3 18 C2.52 8.8 2.52 8.8 0 0 Z " fill="#B3B5B7" transform="translate(439,29)"/>
<path d="M0 0 C1.33 3.98 0.02 6.36 -1.5 10.06 C-1.77 10.73 -2.04 11.4 -2.32 12.09 C-4.8 17.97 -8.06 22.99 -12 28 C-12.52 28.75 -13.04 29.5 -13.58 30.27 C-14.05 30.84 -14.52 31.41 -15 32 C-15.66 32 -16.32 32 -17 32 C-15.56 28.89 -13.8 26.3 -11.75 23.56 C-6.6 16.31 -3.24 8.24 0 0 Z " fill="#A0A1A3" transform="translate(548,535)"/>
<path d="M0 0 C1.73 3 2.26 5.17 2.27 8.62 C2.27 9.5 2.27 10.37 2.27 11.27 C2.27 12.17 2.26 13.07 2.25 14 C2.26 14.9 2.27 15.8 2.27 16.73 C2.27 17.61 2.27 18.48 2.27 19.38 C2.26 20.17 2.26 20.96 2.26 21.77 C1.97 24.23 1.22 25.87 0 28 C-1.48 18.75 -1.76 9.22 0 0 Z " fill="#AEAFB1" transform="translate(93,368)"/>
<path d="M0 0 C0.89 0.01 1.79 0.02 2.71 0.03 C4.1 0.07 4.1 0.07 5.52 0.11 C6.46 0.12 7.4 0.13 8.37 0.15 C10.69 0.18 13.01 0.23 15.33 0.29 C13.66 2.34 12.81 3.22 10.16 3.63 C9.33 3.62 8.51 3.6 7.66 3.59 C6.77 3.58 5.88 3.57 4.96 3.56 C3.57 3.52 3.57 3.52 2.14 3.48 C1.2 3.47 0.26 3.45 -0.71 3.44 C-3.03 3.4 -5.35 3.35 -7.67 3.29 C-5.25 0.33 -3.78 -0.07 0 0 Z " fill="#EBECEC" transform="translate(488.66796875,631.70703125)"/>
<path d="M0 0 C0.33 0 0.66 0 1 0 C1 4.29 1 8.58 1 13 C0.34 13 -0.32 13 -1 13 C-0.77 13.93 -0.55 14.86 -0.31 15.81 C-0.21 16.86 -0.11 17.92 0 19 C-1.31 20.56 -1.31 20.56 -3 22 C-4.19 24.6 -4.19 24.6 -5 27 C-5.66 26.67 -6.32 26.34 -7 26 C-6.71 25.28 -6.42 24.55 -6.12 23.8 C-4.15 18.65 -2.71 14.59 -3 9 C-2.34 8.34 -1.68 7.68 -1 7 C-0.6 4.68 -0.26 2.34 0 0 Z " fill="#E6E7E7" transform="translate(551,523)"/>
<path d="M0 0 C0.66 0 1.32 0 2 0 C3.33 1.83 3.33 1.83 4.81 4.25 C7.16 7.91 9.36 10.53 13 13 C10 14 10 14 7.62 13.06 C4.12 10.31 1.91 7.02 0 3 C0 2.01 0 1.02 0 0 Z " fill="#B9BABC" transform="translate(246,46)"/>
<path d="M0 0 C0.81 0 1.61 0.01 2.44 0.01 C3.7 0.02 3.7 0.02 4.99 0.04 C5.84 0.04 6.69 0.04 7.57 0.05 C9.67 0.06 11.77 0.08 13.87 0.1 C13.87 1.09 13.87 2.08 13.87 3.1 C11.28 3.15 8.7 3.19 6.12 3.22 C5.39 3.24 4.66 3.26 3.91 3.27 C0.06 3.31 -2.88 3.27 -6.13 1.1 C-3.84 -0.05 -2.55 -0.02 0 0 Z " fill="#D3D4D4" transform="translate(371.1328125,587.90234375)"/>
<path d="M0 0 C0 0.66 0 1.32 0 2 C-5.94 2 -11.88 2 -18 2 C-18.33 1.34 -18.66 0.68 -19 0 C-16.58 -0.2 -14.17 -0.38 -11.75 -0.56 C-11.07 -0.62 -10.39 -0.67 -9.68 -0.73 C-6.26 -0.98 -3.27 -1.14 0 0 Z " fill="#C1C2C2" transform="translate(313,589)"/>
<path d="M0 0 C6.2 0.42 11.27 1.6 17 4 C17 4.66 17 5.32 17 6 C11.56 5.28 6.12 4.01 1 2 C0.67 1.34 0.34 0.68 0 0 Z " fill="#B0B1B2" transform="translate(392,53)"/>
<path d="M0 0 C3.63 0 7.26 0 11 0 C11 0.66 11 1.32 11 2 C10.01 2 9.02 2 8 2 C8 2.99 8 3.98 8 5 C3.48 5.37 3.48 5.37 1.19 3.62 C0 2 0 2 0 0 Z " fill="#E9EAEA" transform="translate(290,6)"/>
<path d="M0 0 C6.41 -0.43 11.89 1.14 18 3 C17.67 3.66 17.34 4.32 17 5 C11.39 4.01 5.78 3.02 0 2 C0 1.34 0 0.68 0 0 Z " fill="#ADAFB1" transform="translate(365,47)"/>
<path d="M0 0 C1.65 0 3.3 0 5 0 C5 0.66 5 1.32 5 2 C7.97 2.33 10.94 2.66 14 3 C13.01 3.99 12.02 4.98 11 6 C10.01 6 9.02 6 8 6 C7.67 5.34 7.34 4.68 7 4 C4.69 3.27 2.35 2.6 0 2 C-0.33 2.66 -0.66 3.32 -1 4 C-0.67 2.68 -0.34 1.36 0 0 Z " fill="#BFBDC0" transform="translate(187,632)"/>
<path d="M0 0 C0.99 0.03 1.97 0.07 2.99 0.11 C3.98 0.13 4.98 0.16 6 0.19 C7.14 0.24 7.14 0.24 8.3 0.29 C8.63 1.28 8.96 2.27 9.3 3.29 C4.35 3.29 -0.6 3.29 -5.7 3.29 C-2.7 0.29 -2.7 0.29 0 0 Z " fill="#D4D5D5" transform="translate(351.69921875,587.70703125)"/>
<path d="M0 0 C0.33 0 0.66 0 1 0 C1 6.6 1 13.2 1 20 C0.01 19.01 -0.98 18.02 -2 17 C-1.62 14.5 -1.62 14.5 -1 12 C-1.33 11.01 -1.66 10.02 -2 9 C-1.67 8.67 -1.34 8.34 -1 8 C-1 6.85 -1 5.69 -1 4.5 C-1 1 -1 1 0 0 Z " fill="#FDFFFF" transform="translate(243,307)"/>
<path d="M0 0 C0.33 0 0.66 0 1 0 C1 6.93 1 13.86 1 21 C0.34 21 -0.32 21 -1 21 C-1.97 17.22 -1.79 14.78 -1 11 C-0.79 9.06 -0.6 7.13 -0.44 5.19 C-0.35 4.21 -0.27 3.24 -0.18 2.23 C-0.12 1.49 -0.06 0.76 0 0 Z " fill="#FFFFFD" transform="translate(243,347)"/>
<path d="M0 0 C0.99 0.99 1.98 1.98 3 3 C2.01 3.33 1.02 3.66 0 4 C-1.11 5.88 -1.11 5.88 -2 8 C-2.99 9.49 -2.99 9.49 -4 11 C-4.66 10.34 -5.32 9.68 -6 9 C-4.16 5.85 -2.24 2.88 0 0 Z " fill="#C0C2C3" transform="translate(14,138)"/>
<path d="M0 0 C3 4 6 8 9 12 C4.36 11.19 2.76 8.73 0 5 C-0.33 4.01 -0.66 3.02 -1 2 C-0.67 1.34 -0.34 0.68 0 0 Z " fill="#A3A5A9" transform="translate(394,433)"/>
<path d="M0 0 C3.5 0.31 3.5 0.31 7 1 C7.33 1.66 7.66 2.32 8 3 C10.53 3.66 10.53 3.66 13 4 C10 6 10 6 7.5 5.75 C4.22 4.77 1.84 2.89 -1 1 C-0.67 0.67 -0.34 0.34 0 0 Z " fill="#C4C5C5" transform="translate(192,586)"/>
<path d="M0 0 C0.33 0 0.66 0 1 0 C1 2.31 1 4.62 1 7 C-2.01 7.93 -2.87 8.04 -6 7 C-5.67 6.01 -5.34 5.02 -5 4 C-4.01 3.67 -3.02 3.34 -2 3 C-1.34 2.01 -0.68 1.02 0 0 Z " fill="#E7E8E9" transform="translate(249,295)"/>
<path d="M0 0 C3.63 0 7.26 0 11 0 C11 0.99 11 1.98 11 3 C7.04 3 3.08 3 -1 3 C-0.67 2.01 -0.34 1.02 0 0 Z " fill="#C9CACA" transform="translate(512,181)"/>
<path d="M0 0 C3 1 3 1 4.19 3.06 C5.24 6.85 5.13 10.07 5 14 C4.67 14 4.34 14 4 14 C0.74 4.59 0.74 4.59 0 0 Z " fill="#9EA2A4" transform="translate(439,29)"/>
<path d="M0 0 C2.64 0 5.28 0 8 0 C6.73 2.04 5.39 4.04 4 6 C3.34 6 2.68 6 2 6 C2.66 4.68 3.32 3.36 4 2 C2.02 2.33 0.04 2.66 -2 3 C-1.34 2.67 -0.68 2.34 0 2 C0 1.34 0 0.68 0 0 Z " fill="#B5B5B7" transform="translate(556,181)"/>
<path d="M0 0 C0.99 0.33 1.98 0.66 3 1 C3.33 1.99 3.66 2.98 4 4 C2.69 6.19 2.69 6.19 1 8 C0.34 8 -0.32 8 -1 8 C-1.33 8.99 -1.66 9.98 -2 11 C-1.4 7.32 -0.75 3.65 0 0 Z " fill="#BFC0C2" transform="translate(395,290)"/>
<path d="M0 0 C4.95 0 9.9 0 15 0 C11 3 11 3 8.2 2.86 C7.23 2.64 6.25 2.41 5.25 2.19 C4.27 1.97 3.28 1.76 2.27 1.54 C1.52 1.36 0.77 1.18 0 1 C0 0.67 0 0.34 0 0 Z " fill="#AEAEAF" transform="translate(497,181)"/>
<path d="M0 0 C-1 3 -1 3 -3.81 4.75 C-7.14 6.05 -7.8 6.03 -11 5 C-9.54 4.16 -8.09 3.33 -6.62 2.5 C-5.41 1.8 -5.41 1.8 -4.16 1.09 C-2 0 -2 0 0 0 Z " fill="#B8B9BB" transform="translate(519,577)"/>
<path d="M0 0 C0.66 0 1.32 0 2 0 C3.25 7.62 3.25 7.62 1 11 C0.67 7.37 0.34 3.74 0 0 Z " fill="#979799" transform="translate(135,201)"/>
<path d="M0 0 C8.35 0.35 8.35 0.35 11.06 3.06 C11.37 3.7 11.68 4.34 12 5 C10.56 4.55 9.12 4.09 7.69 3.62 C6.89 3.37 6.09 3.11 5.26 2.85 C3 2 3 2 0 0 Z " fill="#E8E9EA" transform="translate(165,624)"/>
<path d="M0 0 C2.31 0 4.62 0 7 0 C6.67 1.32 6.34 2.64 6 4 C6.66 4 7.32 4 8 4 C7.67 4.66 7.34 5.32 7 6 C5.83 5.19 4.66 4.38 3.5 3.56 C2.85 3.11 2.2 2.66 1.53 2.19 C1.03 1.8 0.52 1.41 0 1 C0 0.67 0 0.34 0 0 Z " fill="#ECEEEE" transform="translate(139,608)"/>
<path d="M0 0 C1.32 0 2.64 0 4 0 C4 0.66 4 1.32 4 2 C6.97 2 9.94 2 13 2 C13 2.33 13 2.66 13 3 C9.04 3 5.08 3 1 3 C0.67 2.01 0.34 1.02 0 0 Z " fill="#9B9C9E" transform="translate(463,589)"/>
<path d="M0 0 C-1.66 3.31 -4.65 3.79 -8 5 C-8.99 4.67 -9.98 4.34 -11 4 C-7.2 1.17 -4.81 -0.57 0 0 Z " fill="#A3A4A7" transform="translate(287,56)"/>
<path d="M0 0 C1 3 1 3 0.22 4.82 C-1.39 7.41 -1.39 7.41 -3 10 C-3.66 10 -4.32 10 -5 10 C-3.67 6.41 -2.04 3.25 0 0 Z " fill="#A19FA3" transform="translate(440,432)"/>
<path d="M0 0 C2.48 0.14 2.48 0.14 5.19 0.81 C6.54 1.13 6.54 1.13 7.92 1.46 C8.61 1.64 9.29 1.82 10 2 C10 2.33 10 2.66 10 3 C5.71 3 1.42 3 -3 3 C-2.01 2.01 -1.02 1.02 0 0 Z " fill="#C9CBCC" transform="translate(390,588)"/>
<path d="M0 0 C2.8 2.53 4.46 4.2 5 8 C2 7 2 7 0.81 5.12 C0 3 0 3 0 0 Z " fill="#919395" transform="translate(142,541)"/>
<path d="M0 0 C4.29 0.33 8.58 0.66 13 1 C13 1.33 13 1.66 13 2 C9.37 2.33 5.74 2.66 2 3 C2 2.34 2 1.68 2 1 C1.34 0.67 0.68 0.34 0 0 Z " fill="#C9C9CB" transform="translate(408,447)"/>
<path d="M0 0 C2.83 4 1.76 7.43 1 12 C-1.83 8 -0.76 4.57 0 0 Z " fill="#959799" transform="translate(93,384)"/>
<path d="M0 0 C-2.62 2.15 -4.64 3.4 -8 4 C-8.33 3.34 -8.66 2.68 -9 2 C-5.87 0.14 -3.63 -0.2 0 0 Z " fill="#BCBDBE" transform="translate(534,622)"/>
<path d="M0 0 C-5.62 3 -5.62 3 -9 3 C-9 2.34 -9 1.68 -9 1 C-5.57 -0.62 -3.62 -1.34 0 0 Z " fill="#949598" transform="translate(510,584)"/>
<path d="M0 0 C0.66 0 1.32 0 2 0 C3.32 2.31 4.64 4.62 6 7 C3.56 6.31 3.56 6.31 1 5 C0.19 2.38 0.19 2.38 0 0 Z " fill="#A4A4A5" transform="translate(246,46)"/>
<path d="M0 0 C0 0.66 0 1.32 0 2 C-2.64 2.33 -5.28 2.66 -8 3 C-8 2.34 -8 1.68 -8 1 C-5.29 -0.35 -2.99 -0.07 0 0 Z " fill="#A2A3A3" transform="translate(301,6)"/>
<path d="M0 0 C0.33 0 0.66 0 1 0 C1 1.98 1 3.96 1 6 C0.67 6 0.34 6 0 6 C0 4.02 0 2.04 0 0 Z " fill="#FFFFFF" transform="translate(548,490)"/>
<path d="M0 0 C0.33 0 0.66 0 1 0 C1 1.98 1 3.96 1 6 C0.67 6 0.34 6 0 6 C0 4.02 0 2.04 0 0 Z " fill="#FFFFFF" transform="translate(548,468)"/>
<path d="M0 0 C0.33 0 0.66 0 1 0 C1 1.65 1 3.3 1 5 C0.67 5 0.34 5 0 5 C0 3.35 0 1.7 0 0 Z " fill="#FFFFFF" transform="translate(548,459)"/>
<path d="M0 0 C0.33 0 0.66 0 1 0 C1 1.65 1 3.3 1 5 C0.67 5 0.34 5 0 5 C0 3.35 0 1.7 0 0 Z " fill="#FFFFFF" transform="translate(548,284)"/>
<path d="M0 0 C1 4 1 4 1 4 Z " fill="#FFFFFF" transform="translate(548,516)"/>
<path d="M0 0 C1 4 1 4 1 4 Z " fill="#FFFFFF" transform="translate(548,484)"/>
<path d="M0 0 C1 4 1 4 1 4 Z " fill="#FFFFFF" transform="translate(548,476)"/>
<path d="M0 0 C1 4 1 4 1 4 Z " fill="#FFFFFF" transform="translate(548,418)"/>
<path d="M0 0 C1 4 1 4 1 4 Z " fill="#FFFFFF" transform="translate(548,324)"/>
<path d="M0 0 C1 4 1 4 1 4 Z " fill="#FFFFFF" transform="translate(548,309)"/>
<path d="M0 0 C1 4 1 4 1 4 Z " fill="#FFFFFF" transform="translate(548,293)"/>
<path d="M0 0 C1 4 1 4 1 4 Z " fill="#FFFFFF" transform="translate(548,269)"/>
<path d="M0 0 C1 4 1 4 1 4 Z " fill="#FFFFFF" transform="translate(548,253)"/>
<path d="M0 0 C3 1 3 1 3 1 Z " fill="#FFFFFF" transform="translate(484,638)"/>
<path d="M0 0 C3 1 3 1 3 1 Z " fill="#FFFFFF" transform="translate(491,637)"/>
<path d="" fill="#FFFFFF" transform="translate(0,0)"/>
<path d="" fill="#FFFFFF" transform="translate(0,0)"/>
<path d="" fill="#FFFFFF" transform="translate(0,0)"/>
<path d="" fill="#FFFFFF" transform="translate(0,0)"/>
<path d="M0 0 C3 1 3 1 3 1 Z " fill="#FFFFFF" transform="translate(536,183)"/>
<path d="M0 0 C3 1 3 1 3 1 Z " fill="#FFFFFF" transform="translate(153,183)"/>
<path d="M0 0 C0.66 0.66 1.32 1.32 2 2 C1.34 2 0.68 2 0 2 C0 1.34 0 0.68 0 0 Z " fill="#FFFFFF" transform="translate(11,173)"/>
<path d="M0 0 C3 1 3 1 3 1 Z " fill="#FFFFFF" transform="translate(570,131)"/>
<path d="M0 0 C3 1 3 1 3 1 Z " fill="#FFFFFF" transform="translate(363,50)"/>
<path d="M0 0 C2 1 2 1 2 1 Z " fill="#FFFFFF" transform="translate(436,638)"/>
<path d="M0 0 C2 1 2 1 2 1 Z " fill="#FFFFFF" transform="translate(170,630)"/>
<path d="" fill="#FFFFFF" transform="translate(0,0)"/>
<path d="" fill="#FFFFFF" transform="translate(0,0)"/>
<path d="" fill="#FFFFFF" transform="translate(0,0)"/>
<path d="" fill="#FFFFFF" transform="translate(0,0)"/>
<path d="" fill="#FFFFFF" transform="translate(0,0)"/>
<path d="" fill="#FFFFFF" transform="translate(0,0)"/>
<path d="" fill="#FFFFFF" transform="translate(0,0)"/>
<path d="" fill="#FFFFFF" transform="translate(0,0)"/>
<path d="" fill="#FFFFFF" transform="translate(0,0)"/>
<path d="M0 0 C2 1 2 1 2 1 Z " fill="#FFFFFF" transform="translate(625,183)"/>
<path d="M0 0 C2 1 2 1 2 1 Z " fill="#FFFFFF" transform="translate(551,183)"/>
<path d="M0 0 C2 1 2 1 2 1 Z " fill="#FFFFFF" transform="translate(543,183)"/>
<path d="M0 0 C2 1 2 1 2 1 Z " fill="#FFFFFF" transform="translate(448,183)"/>
<path d="M0 0 C2 1 2 1 2 1 Z " fill="#FFFFFF" transform="translate(417,183)"/>
<path d="M0 0 C2 1 2 1 2 1 Z " fill="#FFFFFF" transform="translate(408,183)"/>
<path d="M0 0 C2 1 2 1 2 1 Z " fill="#FFFFFF" transform="translate(344,183)"/>
<path d="M0 0 C2 1 2 1 2 1 Z " fill="#FFFFFF" transform="translate(328,183)"/>
<path d="M0 0 C2 1 2 1 2 1 Z " fill="#FFFFFF" transform="translate(281,183)"/>
<path d="M0 0 C2 1 2 1 2 1 Z " fill="#FFFFFF" transform="translate(146,183)"/>
<path d="M0 0 C2 1 2 1 2 1 Z " fill="#FFFFFF" transform="translate(130,183)"/>
<path d="M0 0 C2 1 2 1 2 1 Z " fill="#FFFFFF" transform="translate(59,183)"/>
<path d="M0 0 C2 1 2 1 2 1 Z " fill="#FFFFFF" transform="translate(660,182)"/>
<path d="M0 0 C2 1 2 1 2 1 Z " fill="#FFFFFF" transform="translate(21,181)"/>
<path d="" fill="#FFFFFF" transform="translate(0,0)"/>
<path d="M0 0 C2 1 2 1 2 1 Z " fill="#FFFFFF" transform="translate(530,131)"/>
<path d="M0 0 C2 1 2 1 2 1 Z " fill="#FFFFFF" transform="translate(31,131)"/>
<path d="M0 0 C2 1 2 1 2 1 Z " fill="#FFFFFF" transform="translate(263,63)"/>
<path d="" fill="#FFFFFF" transform="translate(0,0)"/>
<path d="" fill="#FFFFFF" transform="translate(0,0)"/>
<path d="" fill="#FFFFFF" transform="translate(0,0)"/>
<path d="" fill="#FFFFFF" transform="translate(0,0)"/>
<path d="" fill="#FFFFFF" transform="translate(0,0)"/>
<path d="" fill="#FFFFFF" transform="translate(0,0)"/>
<path d="" fill="#FFFFFF" transform="translate(0,0)"/>
<path d="" fill="#FFFFFF" transform="translate(0,0)"/>
<path d="" fill="#FFFFFF" transform="translate(0,0)"/>
<path d="" fill="#FFFFFF" transform="translate(0,0)"/>
<path d="" fill="#FFFFFF" transform="translate(0,0)"/>
<path d="" fill="#FFFFFF" transform="translate(0,0)"/>
<path d="" fill="#FFFFFF" transform="translate(0,0)"/>
<path d="" fill="#FFFFFF" transform="translate(0,0)"/>
<path d="" fill="#FFFFFF" transform="translate(0,0)"/>
<path d="" fill="#FFFFFF" transform="translate(0,0)"/>
<path d="" fill="#FFFFFF" transform="translate(0,0)"/>
<path d="" fill="#FFFFFF" transform="translate(0,0)"/>
<path d="" fill="#FFFFFF" transform="translate(0,0)"/>
<path d="" fill="#FFFFFF" transform="translate(0,0)"/>
<path d="" fill="#FFFFFF" transform="translate(0,0)"/>
<path d="" fill="#FFFFFF" transform="translate(0,0)"/>
<path d="" fill="#FFFFFF" transform="translate(0,0)"/>
<path d="" fill="#FFFFFF" transform="translate(0,0)"/>
<path d="" fill="#FFFFFF" transform="translate(0,0)"/>
<path d="" fill="#FFFFFF" transform="translate(0,0)"/>
<path d="" fill="#FFFFFF" transform="translate(0,0)"/>
<path d="" fill="#FFFFFF" transform="translate(0,0)"/>
<path d="" fill="#FFFFFF" transform="translate(0,0)"/>
<path d="" fill="#FFFFFF" transform="translate(0,0)"/>
<path d="" fill="#FFFFFF" transform="translate(0,0)"/>
<path d="" fill="#FFFFFF" transform="translate(0,0)"/>
<path d="" fill="#FFFFFF" transform="translate(0,0)"/>
<path d="" fill="#FFFFFF" transform="translate(0,0)"/>
<path d="" fill="#FFFFFF" transform="translate(0,0)"/>
<path d="" fill="#FFFFFF" transform="translate(0,0)"/>
<path d="" fill="#FFFFFF" transform="translate(0,0)"/>
<path d="" fill="#FFFFFF" transform="translate(0,0)"/>
<path d="" fill="#FFFFFF" transform="translate(0,0)"/>
<path d="" fill="#FFFFFF" transform="translate(0,0)"/>
<path d="" fill="#FFFFFF" transform="translate(0,0)"/>
<path d="" fill="#FFFFFF" transform="translate(0,0)"/>
<path d="" fill="#FFFFFF" transform="translate(0,0)"/>
<path d="" fill="#FFFFFF" transform="translate(0,0)"/>
<path d="" fill="#FFFFFF" transform="translate(0,0)"/>
<path d="" fill="#FFFFFF" transform="translate(0,0)"/>
<path d="" fill="#FFFFFF" transform="translate(0,0)"/>
<path d="" fill="#FFFFFF" transform="translate(0,0)"/>
<path d="" fill="#FFFFFF" transform="translate(0,0)"/>
<path d="" fill="#FFFFFF" transform="translate(0,0)"/>
<path d="" fill="#FFFFFF" transform="translate(0,0)"/>
<path d="" fill="#FFFFFF" transform="translate(0,0)"/>
<path d="" fill="#FFFFFF" transform="translate(0,0)"/>
<path d="" fill="#FFFFFF" transform="translate(0,0)"/>
<path d="" fill="#FFFFFF" transform="translate(0,0)"/>
<path d="" fill="#FFFFFF" transform="translate(0,0)"/>
<path d="" fill="#FFFFFF" transform="translate(0,0)"/>
<path d="" fill="#FFFFFF" transform="translate(0,0)"/>
<path d="" fill="#FFFFFF" transform="translate(0,0)"/>
<path d="" fill="#FFFFFF" transform="translate(0,0)"/>
<path d="" fill="#FFFFFF" transform="translate(0,0)"/>
<path d="" fill="#FFFFFF" transform="translate(0,0)"/>
<path d="" fill="#FFFFFF" transform="translate(0,0)"/>
<path d="" fill="#FFFFFF" transform="translate(0,0)"/>
<path d="" fill="#FFFFFF" transform="translate(0,0)"/>
<path d="" fill="#FFFFFF" transform="translate(0,0)"/>
<path d="" fill="#FFFFFF" transform="translate(0,0)"/>
<path d="" fill="#FFFFFF" transform="translate(0,0)"/>
<path d="" fill="#FFFFFF" transform="translate(0,0)"/>
<path d="" fill="#FFFFFF" transform="translate(0,0)"/>
<path d="" fill="#FFFFFF" transform="translate(0,0)"/>
<path d="" fill="#FFFFFF" transform="translate(0,0)"/>
<path d="" fill="#FFFFFF" transform="translate(0,0)"/>
<path d="" fill="#FFFFFF" transform="translate(0,0)"/>
<path d="" fill="#FFFFFF" transform="translate(0,0)"/>
<path d="" fill="#FFFFFF" transform="translate(0,0)"/>
<path d="" fill="#FFFFFF" transform="translate(0,0)"/>
<path d="" fill="#FFFFFF" transform="translate(0,0)"/>
<path d="" fill="#FFFFFF" transform="translate(0,0)"/>
<path d="" fill="#FFFFFF" transform="translate(0,0)"/>
<path d="" fill="#FFFFFF" transform="translate(0,0)"/>
<path d="" fill="#FFFFFF" transform="translate(0,0)"/>
<path d="" fill="#FFFFFF" transform="translate(0,0)"/>
<path d="" fill="#FFFFFF" transform="translate(0,0)"/>
<path d="" fill="#FFFFFF" transform="translate(0,0)"/>
<path d="" fill="#FFFFFF" transform="translate(0,0)"/>
<path d="" fill="#FFFFFF" transform="translate(0,0)"/>
<path d="" fill="#FFFFFF" transform="translate(0,0)"/>
<path d="" fill="#FFFFFF" transform="translate(0,0)"/>
<path d="" fill="#FFFFFF" transform="translate(0,0)"/>
<path d="" fill="#FFFFFF" transform="translate(0,0)"/>
<path d="" fill="#FFFFFF" transform="translate(0,0)"/>
<path d="" fill="#FFFFFF" transform="translate(0,0)"/>
<path d="" fill="#FFFFFF" transform="translate(0,0)"/>
<path d="" fill="#FFFFFF" transform="translate(0,0)"/>
<path d="" fill="#FFFFFF" transform="translate(0,0)"/>
<path d="" fill="#FFFFFF" transform="translate(0,0)"/>
<path d="" fill="#FFFFFF" transform="translate(0,0)"/>
<path d="" fill="#FFFFFF" transform="translate(0,0)"/>
<path d="" fill="#FFFFFF" transform="translate(0,0)"/>
<path d="" fill="#FFFFFF" transform="translate(0,0)"/>
<path d="" fill="#FFFFFF" transform="translate(0,0)"/>
<path d="" fill="#FFFFFF" transform="translate(0,0)"/>
<path d="" fill="#FFFFFF" transform="translate(0,0)"/>
<path d="" fill="#FFFFFF" transform="translate(0,0)"/>
<path d="" fill="#FFFFFF" transform="translate(0,0)"/>
<path d="" fill="#FFFFFF" transform="translate(0,0)"/>
<path d="" fill="#FFFFFF" transform="translate(0,0)"/>
<path d="" fill="#FFFFFF" transform="translate(0,0)"/>
<path d="" fill="#FFFFFF" transform="translate(0,0)"/>
<path d="" fill="#FFFFFF" transform="translate(0,0)"/>
<path d="" fill="#FFFFFF" transform="translate(0,0)"/>
<path d="" fill="#FFFFFF" transform="translate(0,0)"/>
</svg>
