<?xml version="1.0" encoding="UTF-8"?>
<!DOCTYPE svg PUBLIC "-//W3C//DTD SVG 1.1//EN" "http://www.w3.org/Graphics/SVG/1.1/DTD/svg11.dtd">
<svg xmlns="http://www.w3.org/2000/svg" version="1.1" width="1920px" height="1080px" style="shape-rendering:geometricPrecision; text-rendering:geometricPrecision; image-rendering:optimizeQuality; fill-rule:evenodd; clip-rule:evenodd" xmlns:xlink="http://www.w3.org/1999/xlink">
<g><path style="opacity:0.996" fill="#42bf01" d="M 963.5,291.5 C 1084.62,290.303 1179.12,339.303 1247,438.5C 1298.51,523.256 1310.18,613.256 1282,708.5C 1245.41,813.425 1174.24,882.925 1068.5,917C 953.406,946.971 851.072,923.304 761.5,846C 682.116,768.866 648.949,675.032 662,564.5C 681.789,451.74 742.956,370.24 845.5,320C 883.205,303.239 922.539,293.739 963.5,291.5 Z"/></g>
<g><path style="opacity:1" fill="#fafdf8" d="M 936.5,424.5 C 988.948,422.796 1027.11,445.129 1051,491.5C 1057.49,505.811 1060.33,520.811 1059.5,536.5C 1068.71,536.521 1074.88,540.855 1078,549.5C 1078.5,561.829 1078.67,574.162 1078.5,586.5C 1098.5,586.333 1118.5,586.5 1138.5,587C 1160.79,593.284 1173.95,607.784 1178,630.5C 1178.17,664.172 1178.67,697.838 1179.5,731.5C 1181.23,733.283 1182.73,735.283 1184,737.5C 1189.11,759.551 1180.61,768.884 1158.5,765.5C 1152.65,788.808 1137.65,798.975 1113.5,796C 1098.65,791.154 1089.32,781.154 1085.5,766C 1033.5,765.333 981.5,765.333 929.5,766C 922.745,789.05 907.411,799.05 883.5,796C 868.655,791.155 859.322,781.155 855.5,766C 847.5,765.667 839.5,765.333 831.5,765C 828.272,763.437 826.105,760.937 825,757.5C 824.83,751.472 824.33,745.472 823.5,739.5C 817.268,736.423 813.434,731.423 812,724.5C 811.333,666.5 811.333,608.5 812,550.5C 816.349,539.24 824.515,534.574 836.5,536.5C 836.913,505.518 847.913,479.018 869.5,457C 876.757,454.254 879.923,456.754 879,464.5C 845.584,500.271 839.584,540.271 861,584.5C 885.472,624.315 920.972,640.815 967.5,634C 1011.33,623.17 1037.83,595.67 1047,551.5C 1051.57,498.466 1029.4,461.966 980.5,442C 956.603,434.47 932.936,435.137 909.5,444C 904.54,446.147 899.873,448.814 895.5,452C 888.667,453.167 885.833,450.333 887,443.5C 902.183,433.499 918.683,427.165 936.5,424.5 Z"/></g>
<g><path style="opacity:1" fill="#fafdf9" d="M 984.5,489.5 C 989.322,491.312 993.655,493.978 997.5,497.5C 978.084,527.331 958.917,557.331 940,587.5C 936.491,591.613 932.324,592.446 927.5,590C 917.942,582.394 908.608,574.561 899.5,566.5C 901.793,562.242 904.793,558.576 908.5,555.5C 914.355,560.523 920.355,565.356 926.5,570C 928.5,570.667 930.5,570.667 932.5,570C 950.727,543.706 968.06,516.872 984.5,489.5 Z"/></g>
<g><path style="opacity:1" fill="#43bf04" d="M 827.5,548.5 C 830.833,548.5 834.167,548.5 837.5,548.5C 846.158,600.659 876.158,633.159 927.5,646C 989.487,652.603 1031.99,627.103 1055,569.5C 1056.97,562.619 1058.14,555.619 1058.5,548.5C 1061.5,548.253 1064,549.253 1066,551.5C 1066.5,610.499 1066.67,669.499 1066.5,728.5C 1014.83,728.667 963.166,728.5 911.5,728C 898.781,720.71 886.114,720.71 873.5,728C 857.823,728.833 842.156,728.666 826.5,727.5C 825.469,726.3 824.635,724.966 824,723.5C 823.333,666.833 823.333,610.167 824,553.5C 824.997,551.677 826.164,550.01 827.5,548.5 Z"/></g>
<g><path style="opacity:1" fill="#45bf06" d="M 1083.5,598.5 C 1090.17,598.5 1096.83,598.5 1103.5,598.5C 1103.17,618.007 1103.5,637.341 1104.5,656.5C 1105.27,661.773 1108.27,664.94 1113.5,666C 1130.83,666.5 1148.16,666.667 1165.5,666.5C 1165.5,687.167 1165.5,707.833 1165.5,728.5C 1157.5,728.5 1149.5,728.5 1141.5,728.5C 1128.38,720.36 1115.38,720.527 1102.5,729C 1094.51,729.5 1086.51,729.666 1078.5,729.5C 1078.33,687.165 1078.5,644.832 1079,602.5C 1079.75,600.249 1081.25,598.916 1083.5,598.5 Z"/></g>
<g><path style="opacity:1" fill="#c2eaad" d="M 1083.5,598.5 C 1090.31,597.509 1097.31,597.175 1104.5,597.5C 1104.5,617.167 1104.5,636.833 1104.5,656.5C 1103.5,637.341 1103.17,618.007 1103.5,598.5C 1096.83,598.5 1090.17,598.5 1083.5,598.5 Z"/></g>
<g><path style="opacity:1" fill="#45bf07" d="M 1115.5,598.5 C 1137.63,594.982 1153.8,602.982 1164,622.5C 1165.37,633.111 1165.87,643.778 1165.5,654.5C 1148.83,654.5 1132.17,654.5 1115.5,654.5C 1115.5,635.833 1115.5,617.167 1115.5,598.5 Z"/></g>
<g><path style="opacity:1" fill="#b4e599" d="M 1165.5,666.5 C 1166.5,687.327 1166.83,708.327 1166.5,729.5C 1157.98,729.826 1149.65,729.493 1141.5,728.5C 1149.5,728.5 1157.5,728.5 1165.5,728.5C 1165.5,707.833 1165.5,687.167 1165.5,666.5 Z"/></g>
<g><path style="opacity:1" fill="#fcfefb" d="M 1144.5,685.5 C 1147.37,685.623 1149.87,686.623 1152,688.5C 1152.67,694.5 1152.67,700.5 1152,706.5C 1148.71,710.485 1145.38,710.485 1142,706.5C 1141.33,700.5 1141.33,694.5 1142,688.5C 1143.04,687.627 1143.88,686.627 1144.5,685.5 Z"/></g>
<g><path style="opacity:1" fill="#46c00b" d="M 886.5,734.5 C 908.37,733.491 918.537,743.824 917,765.5C 912.675,779.482 903.175,785.982 888.5,785C 869.777,778.877 863.61,766.377 870,747.5C 873.962,741.019 879.462,736.686 886.5,734.5 Z"/></g>
<g><path style="opacity:1" fill="#45c008" d="M 1115.5,734.5 C 1139.8,733.958 1149.96,745.625 1146,769.5C 1137.47,784.007 1125.3,788.174 1109.5,782C 1097.92,773.55 1094.42,762.383 1099,748.5C 1103.2,742.123 1108.7,737.456 1115.5,734.5 Z"/></g>
<g><path style="opacity:1" fill="#7ed351" d="M 1089.5,743.5 C 1062.51,742.167 1035.17,741.5 1007.5,741.5C 979.825,741.5 952.492,742.167 925.5,743.5C 924.596,742.791 924.263,741.791 924.5,740.5C 979.833,740.5 1035.17,740.5 1090.5,740.5C 1090.74,741.791 1090.4,742.791 1089.5,743.5 Z"/></g>
<g><path style="opacity:1" fill="#48c00d" d="M 836.5,740.5 C 844.5,740.5 852.5,740.5 860.5,740.5C 858.405,744.532 857.072,748.866 856.5,753.5C 849.833,753.5 843.167,753.5 836.5,753.5C 836.5,749.167 836.5,744.833 836.5,740.5 Z"/></g>
<g><path style="opacity:1" fill="#43bf02" d="M 1089.5,743.5 C 1087.59,746.452 1086.59,749.786 1086.5,753.5C 1033.83,753.833 981.162,753.5 928.5,752.5C 927.873,749.343 926.873,746.343 925.5,743.5C 952.492,742.167 979.825,741.5 1007.5,741.5C 1035.17,741.5 1062.51,742.167 1089.5,743.5 Z"/></g>
<g><path style="opacity:1" fill="#4ec218" d="M 1154.5,740.5 C 1160.5,740.5 1166.5,740.5 1172.5,740.5C 1172.5,744.833 1172.5,749.167 1172.5,753.5C 1167.79,753.827 1163.12,753.493 1158.5,752.5C 1157.15,748.478 1155.82,744.478 1154.5,740.5 Z"/></g>
<g><path style="opacity:1" fill="#bde8a6" d="M 836.5,740.5 C 836.5,744.833 836.5,749.167 836.5,753.5C 843.167,753.5 849.833,753.5 856.5,753.5C 849.687,754.491 842.687,754.825 835.5,754.5C 835.181,749.637 835.514,744.97 836.5,740.5 Z"/></g>
</svg>
