<?xml version="1.0" encoding="UTF-8"?>
<svg version="1.1" xmlns="http://www.w3.org/2000/svg" width="1024" height="1024">
<path d="M0 0 C337.92 0 675.84 0 1024 0 C1024 337.92 1024 675.84 1024 1024 C686.08 1024 348.16 1024 0 1024 C0 686.08 0 348.16 0 0 Z " fill="#FDFDFD" transform="translate(0,0)"/>
<path d="M0 0 C0.93779297 0.00126892 1.87558594 0.00253784 2.84179688 0.00384521 C33.99202812 0.08424577 65.81736202 3.39496452 95.5625 13.1875 C96.95831299 13.63319336 96.95831299 13.63319336 98.38232422 14.08789062 C144.10713866 28.77661606 184.42967271 51.7312648 220.5625 83.1875 C221.38492188 83.89777344 222.20734375 84.60804688 223.0546875 85.33984375 C233.57851581 94.6042631 243.80014247 104.46072942 252.4375 115.52734375 C254.21122453 117.74775994 256.03722642 119.8632229 257.92578125 121.984375 C296.44204153 165.7752203 320.40413279 225.76520547 327.5625 283.1875 C327.66546387 283.96303223 327.76842773 284.73856445 327.87451172 285.53759766 C332.73175629 323.55915667 330.46101216 362.99184731 321.5625 400.1875 C321.35286621 401.08178711 321.14323242 401.97607422 320.92724609 402.89746094 C312.49354932 438.22939152 297.15463346 474.78270593 275.5625 504.1875 C274.64394489 505.50429053 273.72889946 506.82353279 272.81640625 508.14453125 C266.77756367 516.86437382 260.53274183 525.18866346 253.5625 533.1875 C252.9025 533.94675781 252.2425 534.70601562 251.5625 535.48828125 C250.40598926 536.81178815 249.2461649 538.13241183 248.08203125 539.44921875 C246.66784683 541.06698756 245.29759342 542.71172786 243.9375 544.375 C241.59854734 547.14481236 239.15545012 549.65485104 236.5625 552.1875 C235.964375 552.7959375 235.36625 553.404375 234.75 554.03125 C230.20003572 558.65230747 225.49416845 562.97959177 220.5625 567.1875 C219.66273438 567.97640625 218.76296875 568.7653125 217.8359375 569.578125 C173.58727729 608.08898364 116.86872794 635.27414899 58.9375 644.75 C57.71160156 644.95818359 56.48570312 645.16636719 55.22265625 645.38085938 C51.34140464 646.02370427 47.45619597 646.62588486 43.5625 647.1875 C42.89368805 647.28433075 42.2248761 647.3811615 41.53579712 647.48092651 C27.88450078 649.38826063 14.26797794 649.6254996 0.5 649.625 C-0.63936005 649.62673218 -1.77872009 649.62846436 -2.9526062 649.63024902 C-22.26293547 649.61740353 -40.53252116 648.03984617 -59.4375 644.1875 C-61.26379749 643.84742651 -63.09057671 643.50992321 -64.91796875 643.17578125 C-116.33648933 633.43316322 -166.30952375 609.73500426 -206.4375 576.1875 C-207.40429688 575.3934375 -208.37109375 574.599375 -209.3671875 573.78125 C-229.68004879 556.97473795 -247.88206026 538.48854978 -263.4375 517.1875 C-264.13166016 516.24729004 -264.13166016 516.24729004 -264.83984375 515.28808594 C-270.41390289 507.73079271 -275.59206264 500.01911581 -280.38818359 491.9375 C-281.49525018 490.09118699 -282.63091527 488.26450559 -283.76953125 486.4375 C-299.60586266 460.70858266 -310.05258362 432.1063681 -317.68920898 402.9909668 C-318.17340429 401.17693265 -318.67691625 399.3678981 -319.20336914 397.56567383 C-331.34704554 355.6526644 -330.68107477 305.54489256 -321.4375 263.1875 C-321.19161133 262.02831055 -320.94572266 260.86912109 -320.69238281 259.67480469 C-317.95500964 246.98269665 -314.66735407 234.46574112 -310.4375 222.1875 C-310.20514648 221.4965625 -309.97279297 220.805625 -309.73339844 220.09375 C-300.2085079 191.98340113 -286.47096392 165.46247963 -269.4375 141.1875 C-268.9307373 140.45901855 -268.42397461 139.73053711 -267.90185547 138.97998047 C-261.97305417 130.48506139 -256.00867673 122.25336391 -248.8515625 114.7421875 C-246.9326929 112.71153908 -245.10757525 110.65328605 -243.2890625 108.53515625 C-238.80739339 103.38984841 -234.00897714 98.57495583 -229.1875 93.75 C-228.30964844 92.85990234 -227.43179688 91.96980469 -226.52734375 91.05273438 C-220.47966075 84.99176949 -214.14724492 79.50059549 -207.4375 74.1875 C-206.28030174 73.24595593 -205.12388867 72.30344476 -203.96875 71.359375 C-184.58373881 55.8713506 -163.68477877 42.81729319 -141.31542969 32.09179688 C-139.4974752 31.21638042 -137.6899191 30.3194708 -135.8828125 29.421875 C-93.81651583 8.98704379 -46.51141223 -0.06463338 0 0 Z " fill="#6D3691" transform="translate(510.4375,169.8125)"/>
<path d="M0 0 C4.87215386 4.14097618 9.24356224 8.40193661 13.1875 13.4375 C13.58066406 13.93572266 13.97382812 14.43394531 14.37890625 14.94726562 C27.1875 31.21609142 27.1875 31.21609142 27.1875 34.4375 C28.425 34.39109375 29.6625 34.3446875 30.9375 34.296875 C71.04303045 33.27777434 111.21087824 47.8954601 140.8125 75.25 C142.61309788 76.96986455 144.40605343 78.69780608 146.1875 80.4375 C146.826875 81.02660156 147.46625 81.61570312 148.125 82.22265625 C170.02405589 102.85440567 186.35883193 135.83462898 187.59851074 166.00152588 C187.69715076 169.85609826 187.7091215 173.70689646 187.6875 177.5625 C187.68640228 178.37121552 187.68530457 179.17993103 187.68417358 180.01315308 C187.63363428 193.01426917 186.53469133 205.08571307 182.1875 217.4375 C181.80335938 218.55769531 181.41921875 219.67789062 181.0234375 220.83203125 C179.36085741 225.14682244 177.3896659 229.13963729 175.0234375 233.10546875 C174.64872314 233.7514502 174.27400879 234.39743164 173.88793945 235.06298828 C173.15556623 236.30964118 172.39537686 237.54057209 171.60229492 238.74951172 C168.17862854 244.54787765 169.58728824 249.16619615 171.1875 255.4375 C171.49405518 256.72084229 171.80061035 258.00418457 172.11645508 259.32641602 C173.34263824 264.45296302 174.59050154 269.57438122 175.87939453 274.68554688 C181.2671377 296.12417737 181.2671377 296.12417737 177.5 303.9375 C173.79082297 307.94742112 171.79354161 309.37031401 166.21899414 309.60351562 C160.69485246 309.52960012 155.32404833 308.74096405 149.87109375 307.90625 C148.28724632 307.67319153 148.28724632 307.67319153 146.67140198 307.4354248 C143.32166088 306.9422281 139.97323558 306.44080903 136.625 305.9375 C133.27316106 305.43444683 129.92109324 304.93343279 126.56788635 304.4395752 C124.48906551 304.13340543 122.41099533 303.82207922 120.33384705 303.50476074 C112.10769899 302.29296752 105.35490591 301.4321328 97.625 305.125 C96.39656457 305.68417614 95.16601883 306.23873533 93.93359375 306.7890625 C93.31081543 307.06782227 92.68803711 307.34658203 92.04638672 307.63378906 C87.24133189 309.71130949 82.2963575 311.32449226 77.28271484 312.80664062 C75.87808183 313.22956905 74.47973246 313.67391642 73.08837891 314.13867188 C47.389758 322.58095197 12.74596712 322.01834524 -12.8125 313.4375 C-14.47985662 312.93416569 -16.14784127 312.43290772 -17.81640625 311.93359375 C-34.67641915 306.66372356 -51.0651139 298.59740754 -64.8125 287.4375 C-65.67230469 286.7775 -66.53210938 286.1175 -67.41796875 285.4375 C-80.50854315 275.16149355 -96.14746886 261.61899853 -101.8125 245.4375 C-98.5125 245.1075 -95.2125 244.7775 -91.8125 244.4375 C-92.76801758 244.4281543 -93.72353516 244.41880859 -94.70800781 244.40917969 C-130.96409825 243.99410364 -130.96409825 243.99410364 -146.8125 239.4375 C-147.49634766 239.2410791 -148.18019531 239.0446582 -148.88476562 238.84228516 C-170.95009583 232.29990417 -170.95009583 232.29990417 -174.8125 228.4375 C-180.38865537 228.14907817 -184.42696646 228.8857361 -189.8125 230.4375 C-192.49293215 230.74808976 -195.17313618 230.95096352 -197.86328125 231.16015625 C-203.95945261 231.73343859 -209.98101901 232.92804136 -216.00390625 234.01171875 C-235.05362787 237.24398199 -235.05362787 237.24398199 -240.92578125 234.421875 C-243.5506521 232.34202507 -244.75393061 230.61320818 -245.8125 227.4375 C-246.59820766 217.86357239 -244.95584355 209.38145264 -242.4375 200.1875 C-241.80380976 197.78668984 -241.17097775 195.38565296 -240.5390625 192.984375 C-240.24032227 191.85708984 -239.94158203 190.72980469 -239.63378906 189.56835938 C-236.2707224 178.37043623 -236.2707224 178.37043623 -238.31640625 167.2890625 C-239.33541016 165.69191406 -239.33541016 165.69191406 -240.375 164.0625 C-256.79231338 136.82110732 -262.13591097 101.67784679 -254.57714844 70.62426758 C-254.0210638 68.55118216 -253.42388808 66.49486136 -252.8125 64.4375 C-252.63589844 63.79151855 -252.45929688 63.14553711 -252.27734375 62.47998047 C-242.88438591 28.25656465 -216.88987134 -0.86350857 -186.52246094 -18.26513672 C-183.307088 -20.07312511 -180.07557507 -21.84207674 -176.8125 -23.5625 C-176.19745605 -23.89411133 -175.58241211 -24.22572266 -174.94873047 -24.56738281 C-117.80066483 -54.45842606 -47.81868547 -39.82607505 0 0 Z " fill="#FCFAFC" transform="translate(550.8125,340.5625)"/>
<path d="M0 0 C32.12648696 10.97791253 59.36523594 33.21395839 74.75 63.5625 C77.52218762 69.37368204 80.04000655 75.1363878 81.875 81.3125 C82.1740625 82.30121094 82.473125 83.28992188 82.78125 84.30859375 C87.14438263 101.78132394 87.0189305 123.03470119 81.875 140.3125 C81.5346875 141.52035156 81.194375 142.72820312 80.84375 143.97265625 C72.38918436 171.59280819 54.41533743 195.05109612 29.875 210.3125 C28.90046875 210.93640625 27.9259375 211.5603125 26.921875 212.203125 C14.73627241 219.69694477 1.74467336 224.06855353 -12.125 227.3125 C-13.26195312 227.61285156 -14.39890625 227.91320312 -15.5703125 228.22265625 C-35.77593364 232.91402617 -58.21779423 231.89348812 -78.125 226.3125 C-79.12974365 226.03962158 -79.12974365 226.03962158 -80.15478516 225.76123047 C-86.10005688 224.10260193 -91.74959114 222.11510556 -97.18359375 219.1796875 C-97.87291992 218.81004883 -98.56224609 218.44041016 -99.27246094 218.05957031 C-100.57982983 217.34048613 -101.87293206 216.59443317 -103.14550781 215.81542969 C-112.51895366 210.57248579 -124.47567856 214.78869013 -134.375 216.8125 C-141.2801789 218.20467317 -148.11775873 219.56050338 -155.125 220.3125 C-154.43193403 211.32244427 -152.17397996 202.72983194 -149.98535156 194.01269531 C-149.48896551 192.02619834 -149.00548936 190.03689123 -148.5234375 188.046875 C-148.08523682 186.28682129 -148.08523682 186.28682129 -147.63818359 184.49121094 C-146.67253892 178.50991045 -148.58551719 175.21033357 -151.8125 170.25 C-167.34753335 145.56076579 -172.91347414 117.49419183 -168 88.5625 C-163.80740015 70.31692658 -155.51615203 53.38462227 -143.125 39.3125 C-142.43921875 38.49523437 -141.7534375 37.67796875 -141.046875 36.8359375 C-122.32192399 15.07996925 -94.18928945 -0.60783982 -65.70703125 -4.29296875 C-43.99017765 -7.6112777 -21.22141467 -6.78034193 0 0 Z " fill="#6E3691" transform="translate(487.125,330.6875)"/>
<path d="M0 0 C30.35094979 -1.73617721 61.9042052 12.94688585 84.26782227 32.68530273 C85.85401298 34.11422696 87.42808776 35.55541106 89 37 C89.74636719 37.66386719 90.49273438 38.32773437 91.26171875 39.01171875 C110.18833723 56.70983461 123.89820852 83.68886855 125.12402344 109.62402344 C125.80438303 134.09177041 121.81877068 155.84775415 109 177 C108.21753906 177.73992187 107.43507813 178.47984375 106.62890625 179.2421875 C103.91886313 183.83041398 105.73059288 188.04429196 107 193 C107.23992676 193.99306152 107.47985352 194.98612305 107.72705078 196.00927734 C108.73681003 200.1177477 109.80684539 204.20963644 110.87695312 208.30273438 C112.30712743 213.87720429 113.44411556 219.26958633 114 225 C107.60767477 224.46057825 101.31855477 223.61254263 94.99487305 222.5378418 C90.64163208 221.80211569 86.2788886 221.13285567 81.91503906 220.46337891 C79.51361843 220.08164554 77.13082869 219.65146025 74.7421875 219.19921875 C64.67228562 217.74959551 57.74982121 221.29115112 48.93359375 225.640625 C19.83275981 239.93973455 -17.33396205 241.22936573 -47.9375 231.375 C-63.26029007 226.10339791 -77.34158054 219.14505455 -90 209 C-90.59151855 208.53190918 -91.18303711 208.06381836 -91.79248047 207.58154297 C-100.15941951 200.89916255 -107.78997679 193.78560887 -114 185 C-114 184.34 -114 183.68 -114 183 C-112.94683594 182.69707031 -111.89367187 182.39414062 -110.80859375 182.08203125 C-106.19771116 180.74793988 -101.59765297 179.37890692 -97 178 C-96.33355469 177.80245117 -95.66710937 177.60490234 -94.98046875 177.40136719 C-84.69917406 174.32017173 -75.39809584 170.13126351 -66 165 C-65.34435059 164.64389648 -64.68870117 164.28779297 -64.01318359 163.92089844 C-54.87299922 158.88756766 -47.52223964 153.26745411 -40 146 C-38.61156992 144.8038525 -37.2163377 143.6155266 -35.8125 142.4375 C-13.15379852 122.52530779 2.4671997 90.8465549 6 61 C6.18533739 56.54193497 6.18581695 52.08534085 6.18530273 47.62402344 C6.18746587 45.5329885 6.20559634 43.44250281 6.22460938 41.3515625 C6.27776566 28.92875532 5.62603078 16.78532962 0.8046875 5.171875 C0 3 0 3 0 0 Z " fill="#6F3891" transform="translate(589,399)"/>
<path d="M0 0 C0.87180908 0.00499512 1.74361816 0.00999023 2.6418457 0.01513672 C10.25553097 0.21906844 16.50020265 1.89564646 23.25 5.5 C24.07757813 5.93441406 24.90515625 6.36882812 25.7578125 6.81640625 C34.54494221 12.04400376 40.77676418 20.47867809 44.40625 29.95703125 C47.15082396 41.4817006 46.71774111 55.06403548 40.55078125 65.328125 C36.52459571 71.24479844 32.31549655 75.71669229 26.25 79.5 C25.33541016 80.09941406 25.33541016 80.09941406 24.40234375 80.7109375 C20.68793442 83.01305493 17.53177579 83.89431463 13.25 84.5 C13.27618408 85.36689453 13.30236816 86.23378906 13.3293457 87.12695312 C13.41511891 90.37721496 13.47751444 93.62689555 13.5246582 96.87792969 C13.54963412 98.27851469 13.58362817 99.67897161 13.62719727 101.07910156 C14.0511257 115.06375248 14.0511257 115.06375248 9.62573242 121.19726562 C6.39784273 124.25387954 1.8778548 123.88377579 -2.30078125 123.859375 C-4.75 123.5 -4.75 123.5 -7.8125 121.125 C-10.35468633 117.68074756 -10.87954774 116.04325817 -10.94287109 111.83837891 C-10.95893402 110.87042389 -10.97499695 109.90246887 -10.99154663 108.90518188 C-11.03593022 104.48139094 -11.0770497 100.05775041 -11.10009766 95.63378906 C-11.11667452 93.29807585 -11.14398696 90.96241372 -11.18212891 88.62695312 C-11.23678314 85.26405452 -11.25875342 81.90234489 -11.2734375 78.5390625 C-11.29610687 77.49416656 -11.31877625 76.44927063 -11.34213257 75.37271118 C-11.32099162 68.14586992 -11.32099162 68.14586992 -8.40795898 64.85083008 C-5.31653976 63.27970648 -2.88634313 62.86401563 0.5625 62.5625 C8.03425276 61.59894817 12.58352383 59.37158972 17.6875 53.875 C21.01038652 48.8242125 21.07379547 43.35454643 20.25 37.5 C17.87706748 32.21125002 13.89968715 28.41693194 8.59375 26.12109375 C2.54680455 24.5186532 -3.52321574 24.60147302 -9.3125 26.9375 C-10.5190625 27.7109375 -10.5190625 27.7109375 -11.75 28.5 C-12.74 28.83 -13.73 29.16 -14.75 29.5 C-15.87085312 31.8430809 -15.87085312 31.8430809 -16.75 34.5 C-17.09160156 35.12519531 -17.43320312 35.75039063 -17.78515625 36.39453125 C-18.83947961 38.69526117 -19.01034925 40.36150271 -19.125 42.875 C-19.56043443 47.36218875 -20.71062372 50.0498972 -23.75 53.5 C-27.79318967 56.13686283 -30.94711778 57.28414404 -35.75 56.5 C-39.38275119 54.64935317 -42.08164791 52.84114506 -43.92578125 49.140625 C-46.82096091 39.8650731 -44.01046214 31.84903243 -39.75 23.5 C-37.8125 20.1875 -37.8125 20.1875 -35.75 17.5 C-35.35554688 16.95085937 -34.96109375 16.40171875 -34.5546875 15.8359375 C-26.1573928 4.94344667 -13.43401011 -0.10204039 0 0 Z " fill="#FBF9FC" transform="translate(443.75,361.5)"/>
<path d="M0 0 C0.91826065 -0.0071553 1.8365213 -0.01431061 2.78260803 -0.02168274 C3.79816772 -0.02437164 4.81372742 -0.02706055 5.86006165 -0.02983093 C7.45516319 -0.03968773 7.45516319 -0.03968773 9.08248901 -0.04974365 C12.61943117 -0.06953528 16.15633072 -0.08115324 19.6933136 -0.09111023 C20.89848948 -0.09518576 22.10366535 -0.09926128 23.34536171 -0.10346031 C29.72591101 -0.12434764 36.10643864 -0.13863692 42.48701477 -0.147995 C49.0836494 -0.15905551 55.67994632 -0.19344414 62.2764616 -0.23316669 C67.34223056 -0.2592971 72.40791873 -0.26768376 77.47374916 -0.27127647 C79.90543202 -0.27615289 82.33711102 -0.28779669 84.76872826 -0.30631447 C88.17314323 -0.33062543 91.57668044 -0.32975493 94.9811554 -0.32279968 C95.98659393 -0.33560974 96.99203247 -0.3484198 98.02793884 -0.36161804 C105.13657754 -0.30867594 108.40507425 1.03075179 113.61909485 5.89717102 C115.30704711 9.27307554 115.26820395 12.4929659 114.74409485 16.14717102 C113.34929072 19.63418134 112.26428862 20.83721815 109.03503227 22.76134205 C105.46549888 24.26448907 103.06812967 24.51742726 99.21409607 24.50793457 C97.91848251 24.51205856 96.62286896 24.51618256 95.28799438 24.52043152 C93.86466769 24.50981608 92.44134312 24.49891168 91.01802063 24.48774719 C89.5097658 24.4869004 88.00150973 24.48737708 86.49325562 24.48907471 C82.40892149 24.48993405 78.32485266 24.47231825 74.24058008 24.45135283 C69.96848051 24.43257585 65.69637459 24.43083479 61.42424011 24.42727661 C53.33891606 24.41795914 45.25371396 24.39334941 37.16844356 24.36322814 C27.96172534 24.32967484 18.75500124 24.31319579 9.54823709 24.29814184 C-9.38654609 24.26679958 -28.32121581 24.21404489 -47.25590515 24.14717102 C-47.25590515 23.48717102 -47.25590515 22.82717102 -47.25590515 22.14717102 C-46.25430359 21.89580383 -45.25270203 21.64443665 -44.2207489 21.38545227 C-40.11395505 20.20927973 -36.5461912 18.3922745 -32.81840515 16.33467102 C-32.15735779 15.97647278 -31.49631042 15.61827454 -30.81523132 15.2492218 C-26.87843216 13.09817221 -23.06371922 10.82000805 -19.30278015 8.37373352 C-15.56282356 6.13261449 -11.61690384 4.28492758 -7.6973114 2.38154602 C-3.01877167 0.01607633 -3.01877167 0.01607633 0 0 Z " fill="#FAF7FB" transform="translate(553.2559051513672,551.8528289794922)"/>
<path d="M0 0 C2.97822571 -0.38095093 2.97822571 -0.38095093 6.84887695 -0.38818359 C7.90528381 -0.39606903 7.90528381 -0.39606903 8.98303223 -0.40411377 C11.31833893 -0.41734964 13.65296722 -0.40856071 15.98828125 -0.3984375 C17.61012401 -0.4004579 19.23196589 -0.40336905 20.85380554 -0.40713501 C24.25768661 -0.41156376 27.66133185 -0.40511229 31.06518555 -0.39111328 C35.42328692 -0.37406169 39.78083241 -0.3838332 44.13891315 -0.40183067 C47.4907192 -0.41268863 50.84239426 -0.40921227 54.19420433 -0.4014473 C55.80052951 -0.39944872 57.40686667 -0.40189254 59.01317787 -0.40888596 C61.26341682 -0.41652916 63.51276649 -0.40485533 65.76293945 -0.38818359 C67.68249199 -0.38460342 67.68249199 -0.38460342 69.64082336 -0.38095093 C74.28589305 0.14582804 76.89721706 1.63102808 79.8125 5.25 C81.35025658 8.8111205 81.47290668 11.14918846 81 15 C78.89512597 18.98422585 77.26565257 21.48770962 73 23 C70.15254668 23.18098862 67.40557575 23.25265897 64.55957031 23.22705078 C63.71042557 23.22734283 62.86128082 23.22763489 61.98640442 23.22793579 C59.18354017 23.22654398 56.38094273 23.21098976 53.578125 23.1953125 C51.63328191 23.19158184 49.68843695 23.18873512 47.74359131 23.18673706 C42.62749025 23.17910477 37.51150293 23.1594597 32.39544678 23.1373291 C27.17380309 23.116862 21.952141 23.10773349 16.73046875 23.09765625 C6.48692922 23.07621348 -3.75652593 23.04208235 -14 23 C-12.67327183 20.3152336 -11.28033436 17.75164001 -9.6875 15.21484375 C-9.25179687 14.51939453 -8.81609375 13.82394531 -8.3671875 13.10742188 C-7.91601562 12.39134766 -7.46484375 11.67527344 -7 10.9375 C-6.32324219 9.85758789 -6.32324219 9.85758789 -5.6328125 8.75585938 C-3.78612852 5.8137312 -1.92706269 2.89059403 0 0 Z " fill="#FDFBFD" transform="translate(587,502)"/>
<path d="M0 0 C7.60622012 -0.06959844 15.2124071 -0.12286116 22.81887341 -0.15543652 C26.35112466 -0.17107343 29.88315759 -0.19227501 33.4152832 -0.22631836 C37.47869937 -0.26523603 41.54188721 -0.27972547 45.60546875 -0.29296875 C46.8702153 -0.30845261 48.13496185 -0.32393646 49.43803406 -0.33988953 C50.61888077 -0.34011612 51.79972748 -0.34034271 53.01635742 -0.34057617 C54.05338303 -0.34723801 55.09040863 -0.35389984 56.15885925 -0.36076355 C60.2213408 0.15508392 62.8071898 1.93058396 65.8125 4.625 C67.68587786 8.37175571 67.77902557 11.90657475 67 16 C65.28095248 19.06881816 63.19285833 21.40357084 60 23 C57.93707015 23.09160337 55.87111115 23.1175118 53.80615234 23.11352539 C52.50495453 23.11344986 51.20375671 23.11337433 49.86312866 23.11329651 C48.43739789 23.10818947 47.0116675 23.10297347 45.5859375 23.09765625 C44.13148039 23.09579147 42.67702266 23.09436785 41.2225647 23.09336853 C37.39207224 23.08954805 33.56161763 23.07972176 29.73114014 23.06866455 C25.82336947 23.05844035 21.91559269 23.05386874 18.0078125 23.04882812 C10.3385244 23.03809908 2.6692675 23.02102828 -5 23 C-4.44636539 14.97229811 -2.34312056 7.66145933 0 0 Z " fill="#FDFAFD" transform="translate(601,451)"/>
<path d="M0 0 C4.5926563 1.79712638 6.74740081 4.66166082 9 9 C9.6065099 13.24556929 9.32632523 15.35990051 7.375 19.1875 C4.70104257 22.35402854 2.76335542 24.22483235 -1 26 C-5.6067052 26.33370126 -9.00672376 25.61287257 -12.9375 23.1875 C-17.00991306 18.86827403 -17.43497735 15.19516336 -17.32421875 9.41015625 C-16.8638942 5.98822556 -15.51522593 4.29963513 -13 2 C-8.73797413 -0.84135058 -5.00011825 -0.50481963 0 0 Z " fill="#FAF7FB" transform="translate(449,498)"/>
<path d="M0 0 C0.33 0 0.66 0 1 0 C2 5.75 2 5.75 2 8 C2.99 8.33 3.98 8.66 5 9 C5 9.33 5 9.66 5 10 C38.165 10.495 38.165 10.495 72 11 C72 11.33 72 11.66 72 12 C71.1135228 11.98588074 70.22704559 11.97176147 69.31370544 11.95721436 C60.94205722 11.83456659 52.5723641 11.76981897 44.19978237 11.76940536 C39.89540978 11.76716888 35.59355686 11.74288813 31.28979492 11.66748047 C27.13260124 11.59546425 22.97893372 11.582333 18.82124519 11.60929108 C17.23876197 11.6093467 15.65613027 11.58850593 14.07421684 11.5460434 C9.1337723 11.42150871 4.73922318 11.50225016 0 13 C-2.56326718 15.65976768 -3.91825928 18.06018508 -5.36289978 21.44732666 C-7.60485291 26.3125921 -10.9279776 30.61139657 -14 35 C14.38 35 42.76 35 72 35 C72 35.33 72 35.66 72 36 C60.7084605 36.0694394 49.4169716 36.12278043 38.12526226 36.15543652 C32.88234109 36.17110796 27.63956575 36.19237325 22.39672852 36.22631836 C17.33929316 36.25885901 12.28199827 36.27684187 7.22446632 36.28463173 C5.2927002 36.29018476 3.36094196 36.30102819 1.42923546 36.31719017 C-1.27171204 36.33889413 -3.97207536 36.34196989 -6.6730957 36.34057617 C-7.47582413 36.351362 -8.27855255 36.36214783 -9.10560608 36.3732605 C-14.54473785 36.34279011 -14.54473785 36.34279011 -17.02043152 34.47871399 C-17.34368912 33.99073837 -17.66694672 33.50276276 -18 33 C-17.53851562 32.46117187 -17.07703125 31.92234375 -16.6015625 31.3671875 C-9.10471608 21.91464202 -4.72374315 11.01769352 0 0 Z " fill="#9774AB" transform="translate(587,490)"/>
<path d="M0 0 C0.33 0 0.66 0 1 0 C1.33 6.27 1.66 12.54 2 19 C2.66 19 3.32 19 4 19 C5.06366506 22.24595661 4.91053386 24.27417046 4.00390625 27.546875 C3.66069336 28.81337891 3.66069336 28.81337891 3.31054688 30.10546875 C3.06369141 30.97816406 2.81683594 31.85085938 2.5625 32.75 C2.31951172 33.63816406 2.07652344 34.52632813 1.82617188 35.44140625 C1.22603684 37.63013403 0.61706655 39.81599686 0 42 C-0.33 41.34 -0.66 40.68 -1 40 C-1.66 40 -2.32 40 -3 40 C-2.79431396 38.95730957 -2.79431396 38.95730957 -2.58447266 37.89355469 C-1.07419323 29.66476274 -0.58427683 21.60363366 -0.375 13.25 C-0.33632813 11.96867187 -0.29765625 10.68734375 -0.2578125 9.3671875 C-0.16461064 6.2449253 -0.0788031 3.12265307 0 0 Z " fill="#805898" transform="translate(596,432)"/>
<path d="M0 0 C0.33 0 0.66 0 1 0 C2 5.75 2 5.75 2 8 C2.99 8.33 3.98 8.66 5 9 C2 11 2 11 0 11 C-0.28875 11.969375 -0.5775 12.93875 -0.875 13.9375 C-2 17 -2 17 -4 18 C-4.66 17.67 -5.32 17.34 -6 17 C-5.49487476 10.77012202 -2.67395877 5.54525767 0 0 Z " fill="#7B5098" transform="translate(587,490)"/>
<path d="M0 0 C0.33 0 0.66 0 1 0 C1.04944066 4.64475959 1.08573863 9.28936596 1.10986328 13.93432617 C1.11992041 15.51443144 1.13356785 17.0945181 1.15087891 18.67456055 C1.17514022 20.9458475 1.18648582 23.21688836 1.1953125 25.48828125 C1.20563507 26.19463211 1.21595764 26.90098297 1.22659302 27.6287384 C1.22743775 31.32197792 1.10720523 32.83919216 -1 36 C-1.66 36 -2.32 36 -3 36 C-3 36.99 -3 37.98 -3 39 C-4.65 38.34 -6.3 37.68 -8 37 C-7.21625 36.2575 -6.4325 35.515 -5.625 34.75 C-1.44006551 30.36578292 -0.75076081 27.52789646 -0.5859375 21.484375 C-0.54726563 20.23398437 -0.50859375 18.98359375 -0.46875 17.6953125 C-0.42234375 15.74238281 -0.42234375 15.74238281 -0.375 13.75 C-0.33632813 12.43257813 -0.29765625 11.11515625 -0.2578125 9.7578125 C-0.16353818 6.50534839 -0.0779325 3.25289004 0 0 Z " fill="#704989" transform="translate(457,448)"/>
<path d="M0 0 C0.66 0.66 1.32 1.32 2 2 C1.02417969 2.55429687 0.04835938 3.10859375 -0.95703125 3.6796875 C-2.24222019 4.41140091 -3.52737464 5.14317492 -4.8125 5.875 C-5.45509766 6.23980469 -6.09769531 6.60460937 -6.75976562 6.98046875 C-9.56768798 8.58083901 -12.30964298 10.20642866 -15 12 C-18.1875 12.125 -18.1875 12.125 -21 12 C-21.33 12.66 -21.66 13.32 -22 14 C-22.33 13.01 -22.66 12.02 -23 11 C-21.92621094 10.54109375 -20.85242188 10.0821875 -19.74609375 9.609375 C-18.30980296 8.98979858 -16.87361026 8.36999474 -15.4375 7.75 C-14.73302734 7.44964844 -14.02855469 7.14929688 -13.30273438 6.83984375 C-8.67259467 4.83416111 -4.33895575 2.57714586 0 0 Z " fill="#6E4E89" transform="translate(527,562)"/>
<path d="M0 0 C0.66 0.33 1.32 0.66 2 1 C2 1.99 2 2.98 2 4 C-0.26727333 5.17407021 -2.53834624 6.33939739 -4.8125 7.5 C-5.45509766 7.83386719 -6.09769531 8.16773438 -6.75976562 8.51171875 C-9.69547699 10.00239084 -11.66126517 11 -15 11 C-15 10.34 -15 9.68 -15 9 C-12.734375 7.34375 -12.734375 7.34375 -9.75 5.5 C-8.77546875 4.8915625 -7.8009375 4.283125 -6.796875 3.65625 C-1.99198718 0.81089744 -1.99198718 0.81089744 0 0 Z " fill="#673D81" transform="translate(543,552)"/>
<path d="M0 0 C-2.19073888 2.70620685 -4.62788796 3.8232044 -7.81640625 5.10546875 C-10.55734949 6.22832385 -13.24344041 7.45662335 -15.9375 8.6875 C-17.37416016 9.34298828 -17.37416016 9.34298828 -18.83984375 10.01171875 C-19.55269531 10.33785156 -20.26554687 10.66398438 -21 11 C-21.66 10.34 -22.32 9.68 -23 9 C-20.23116804 7.51706418 -17.4596027 6.03931138 -14.6875 4.5625 C-13.90181641 4.14162109 -13.11613281 3.72074219 -12.30664062 3.28710938 C-11.54931641 2.88427734 -10.79199219 2.48144531 -10.01171875 2.06640625 C-9.31522217 1.69459229 -8.61872559 1.32277832 -7.90112305 0.93969727 C-4.68874642 -0.64813343 -3.49275682 -1.16425227 0 0 Z " fill="#70468B" transform="translate(372,203)"/>
<path d="M0 0 C0.33 0 0.66 0 1 0 C1.31084108 6.52766278 0.97361649 12.07646118 -2 18 C-4.65368333 20.86318464 -5.92333536 21.90429648 -9.8125 22.25 C-10.534375 22.1675 -11.25625 22.085 -12 22 C-11.01 21.34 -10.02 20.68 -9 20 C-3.31783412 14.58841345 -2.65946006 11.27035869 -1.5 3.65234375 C-1 1 -1 1 0 0 Z " fill="#6D4488" transform="translate(426,396)"/>
<path d="M0 0 C0.93423645 3.01031744 1.04449911 3.86650268 0 7 C-0.66 7 -1.32 7 -2 7 C-2.04125 7.61875 -2.0825 8.2375 -2.125 8.875 C-2.41375 9.57625 -2.7025 10.2775 -3 11 C-6.0625 12.25 -6.0625 12.25 -9 13 C-9 8.86218946 -7.28490393 7.79080004 -4.5 4.8125 C-3.6646875 3.91144531 -2.829375 3.01039063 -1.96875 2.08203125 C-0.99421875 1.05142578 -0.99421875 1.05142578 0 0 Z " fill="#693C86" transform="translate(265,281)"/>
<path d="M0 0 C1.98 0 3.96 0 6 0 C6.33 0.99 6.66 1.98 7 3 C7.66 3.495 8.32 3.99 9 4.5 C11 6 11 6 12 9 C12.99 9.66 13.98 10.32 15 11 C14.67 11.66 14.34 12.32 14 13 C12.2244709 11.58922306 10.45474969 10.17113464 8.6875 8.75 C7.70136719 7.96109375 6.71523438 7.1721875 5.69921875 6.359375 C3.3981453 4.34801702 1.69394604 2.5206842 0 0 Z " fill="#6D4288" transform="translate(490,599)"/>
<path d="M0 0 C0 3.84308365 -1.30179208 5.41787428 -3.375 8.625 C-4.00148438 9.60726563 -4.62796875 10.58953125 -5.2734375 11.6015625 C-7 14 -7 14 -9 15 C-9.99 14.34 -10.98 13.68 -12 13 C-8.04 8.71 -4.08 4.42 0 0 Z " fill="#72478B" transform="translate(353,360)"/>
<path d="M0 0 C-1.47692308 7.63076923 -1.47692308 7.63076923 -4.125 9.5 C-4.74375 9.665 -5.3625 9.83 -6 10 C-6.66 9.34 -7.32 8.68 -8 8 C-8.66 7.67 -9.32 7.34 -10 7 C-8.71372289 5.82739389 -7.42080217 4.6620717 -6.125 3.5 C-5.04605469 2.52546875 -5.04605469 2.52546875 -3.9453125 1.53125 C-2 0 -2 0 0 0 Z " fill="#744C90" transform="translate(551,545)"/>
<path d="M0 0 C3.3125 0.125 3.3125 0.125 7 1 C8.625 3.75 8.625 3.75 10 7 C11.64646685 8.68662458 13.31183067 10.35511706 15 12 C15.70460885 13.31367751 16.37947867 14.64457553 17 16 C12.80838948 12.44624326 8.66663011 8.84210234 4.5625 5.1875 C3.69753906 4.41792969 2.83257813 3.64835937 1.94140625 2.85546875 C1.30074219 2.24316406 0.66007813 1.63085938 0 1 C0 0.67 0 0.34 0 0 Z " fill="#673E81" transform="translate(685,410)"/>
<path d="M0 0 C0.99 0 1.98 0 3 0 C3.33 0.99 3.66 1.98 4 3 C4.66 3.33 5.32 3.66 6 4 C6 4.99 6 5.98 6 7 C6.66 7.33 7.32 7.66 8 8 C10 9 10 9 11.1875 11.375 C12 14 12 14 11 17 C9.16291774 14.35675132 7.33097086 11.70998489 5.5 9.0625 C4.97535156 8.30775391 4.45070312 7.55300781 3.91015625 6.77539062 C3.41386719 6.05673828 2.91757813 5.33808594 2.40625 4.59765625 C1.94541016 3.93258057 1.48457031 3.26750488 1.00976562 2.58227539 C0 1 0 1 0 0 Z " fill="#6B4284" transform="translate(238,673)"/>
<path d="M0 0 C3.4375 0.8125 3.4375 0.8125 7 2 C7.33 2.99 7.66 3.98 8 5 C8.5775 5.144375 9.155 5.28875 9.75 5.4375 C12.82132093 6.20533023 14.63029145 7.95941764 17 10 C16.67 10.66 16.34 11.32 16 12 C15.26394531 11.52949219 14.52789063 11.05898438 13.76953125 10.57421875 C12.79371094 9.95160156 11.81789063 9.32898438 10.8125 8.6875 C9.84957031 8.07261719 8.88664063 7.45773437 7.89453125 6.82421875 C6.00459294 5.63312403 4.08527196 4.48710338 2.13671875 3.39453125 C1.43160156 2.93433594 0.72648438 2.47414063 0 2 C0 1.34 0 0.68 0 0 Z " fill="#704687" transform="translate(520,318)"/>
<path d="M0 0 C0.66 0.33 1.32 0.66 2 1 C-0.41911176 4.28308024 -2.19469238 6.48207398 -6 8 C-11.66173386 8.62789906 -17.39532155 7.81522596 -23 7 C-23 6.67 -23 6.34 -23 6 C-21.92621094 6.06960938 -20.85242188 6.13921875 -19.74609375 6.2109375 C-10.48471196 6.96011598 -10.48471196 6.96011598 -2.5 3 C-1.675 2.01 -0.85 1.02 0 0 Z " fill="#E2CEEC" transform="translate(727,642)"/>
<path d="M0 0 C3.68069887 1.53643852 5.98775204 3.78150945 8.75 6.625 C9.54921875 7.44226563 10.3484375 8.25953125 11.171875 9.1015625 C12.07679688 10.04128906 12.07679688 10.04128906 13 11 C12.34 11.66 11.68 12.32 11 13 C10.34 12.67 9.68 12.34 9 12 C9 11.34 9 10.68 9 10 C8.34 10 7.68 10 7 10 C5.2734375 8.3203125 5.2734375 8.3203125 3.375 6.125 C2.74335937 5.40570313 2.11171875 4.68640625 1.4609375 3.9453125 C0 2 0 2 0 0 Z " fill="#784B93" transform="translate(733,256)"/>
<path d="M0 0 C0.99 0.33 1.98 0.66 3 1 C1.02 6.61 -0.96 12.22 -3 18 C-3.33 18 -3.66 18 -4 18 C-4.18603535 13.9072224 -3.84865614 11.58856779 -2 8 C-1.64456573 5.66993089 -1.3086247 3.33672984 -1 1 C-0.67 0.67 -0.34 0.34 0 0 Z " fill="#6B4185" transform="translate(301,389)"/>
<path d="M0 0 C0.66 1.32 1.32 2.64 2 4 C0.35 4.33 -1.3 4.66 -3 5 C-3 5.66 -3 6.32 -3 7 C-5.97 7.66 -8.94 8.32 -12 9 C-8.11327187 5.81994972 -4.10047867 2.89445553 0 0 Z " fill="#6C428B" transform="translate(330,224)"/>
<path d="M0 0 C0.66 0.33 1.32 0.66 2 1 C2 1.66 2 2.32 2 3 C1.34 3 0.68 3 0 3 C0 3.99 0 4.98 0 6 C-3.3 6 -6.6 6 -10 6 C-6.66754467 3.5006585 -3.79082803 1.6481861 0 0 Z " fill="#F5EAF8" transform="translate(519,569)"/>
<path d="M0 0 C0.886875 0.309375 1.77375 0.61875 2.6875 0.9375 C5.46709155 1.8290671 8.13136375 2.49377007 11 3 C11 3.99 11 4.98 11 6 C12.65 6.33 14.3 6.66 16 7 C16 7.66 16 8.32 16 9 C10.0942118 7.44584521 5.02261107 4.40465533 0 1 C0 0.67 0 0.34 0 0 Z " fill="#6F4A8B" transform="translate(352,777)"/>
<path d="M0 0 C0.33 1.32 0.66 2.64 1 4 C0.34 4 -0.32 4 -1 4 C-0.67 5.32 -0.34 6.64 0 8 C-2.31 9.65 -4.62 11.3 -7 13 C-7.66 12.67 -8.32 12.34 -9 12 C-8.27683594 11.07767578 -8.27683594 11.07767578 -7.5390625 10.13671875 C-6.90742188 9.32847656 -6.27578125 8.52023437 -5.625 7.6875 C-4.99851562 6.88699219 -4.37203125 6.08648437 -3.7265625 5.26171875 C-2.42243282 3.55336788 -1.19218183 1.78827274 0 0 Z " fill="#72498D" transform="translate(485,424)"/>
<path d="M0 0 C4.42259121 2.94839414 5.47192785 7.02806375 7 12 C7.25 15.625 7.25 15.625 7 18 C5.36234996 15.54352494 4.45883379 13.77745872 3.5 11.0625 C2.69724392 8.83760243 1.8949815 6.7954903 0.8125 4.6875 C0 3 0 3 0 0 Z " fill="#6B4384" transform="translate(559,392)"/>
<path d="M0 0 C0.66 0 1.32 0 2 0 C4.80858753 3.67276831 5.59885798 6.4087555 5 11 C3.4765625 12.6796875 3.4765625 12.6796875 2 14 C1.93941406 13.32453125 1.87882813 12.6490625 1.81640625 11.953125 C1.73261719 11.06109375 1.64882813 10.1690625 1.5625 9.25 C1.48128906 8.36828125 1.40007813 7.4865625 1.31640625 6.578125 C1.03761535 4.30649548 0.61209423 2.20148177 0 0 Z " fill="#643A81" transform="translate(666,556)"/>
<path d="M0 0 C4.29 0.33 8.58 0.66 13 1 C13 1.66 13 2.32 13 3 C14.65 3.33 16.3 3.66 18 4 C18 4.66 18 5.32 18 6 C17.45472656 5.80664062 16.90945313 5.61328125 16.34765625 5.4140625 C10.9561948 3.55239547 5.59078274 2.12344334 0 1 C0 0.67 0 0.34 0 0 Z " fill="#764F8F" transform="translate(625,380)"/>
<path d="M0 0 C2.31242092 2.16323247 4.0156396 4.37647804 5.6875 7.0625 C6.12449219 7.75472656 6.56148437 8.44695312 7.01171875 9.16015625 C8 11 8 11 8 13 C7.01 12.67 6.02 12.34 5 12 C4.690625 11.195625 4.38125 10.39125 4.0625 9.5625 C3.23391841 6.85842507 3.23391841 6.85842507 0.875 5.6875 C0.25625 5.460625 -0.3625 5.23375 -1 5 C-0.67 3.35 -0.34 1.7 0 0 Z " fill="#744C8E" transform="translate(694,456)"/>
<path d="M0 0 C5.20553944 2.4168576 9.15868278 5.73186976 13 10 C13 10.99 13 11.98 13 13 C10.8303243 11.02404535 8.66418031 9.04445723 6.5 7.0625 C5.87996094 6.49853516 5.25992187 5.93457031 4.62109375 5.35351562 C3.06178382 3.92272025 1.52862521 2.46353265 0 1 C0 0.67 0 0.34 0 0 Z " fill="#6C4684" transform="translate(287,730)"/>
<path d="M0 0 C5.78461538 4.06153846 5.78461538 4.06153846 6.875 8.8125 C6.91625 9.864375 6.9575 10.91625 7 12 C3.71534104 9.20803989 1.98678042 5.76803183 0 2 C0 1.34 0 0.68 0 0 Z " fill="#653C82" transform="translate(225,651)"/>
<path d="M0 0 C0.66 0 1.32 0 2 0 C1.54901762 1.93922422 1.08894441 3.87633594 0.625 5.8125 C0.36976563 6.89144531 0.11453125 7.97039063 -0.1484375 9.08203125 C-1 12 -1 12 -3 15 C-2.44854729 9.76119922 -1.57077907 5.02649303 0 0 Z " fill="#6C4489" transform="translate(826,582)"/>
<path d="M0 0 C0.33 0 0.66 0 1 0 C1.33 2.31 1.66 4.62 2 7 C-1.01031744 7.93423645 -1.86650268 8.04449911 -5 7 C-4.19152271 5.83054208 -3.37810888 4.66449539 -2.5625 3.5 C-2.11003906 2.8503125 -1.65757812 2.200625 -1.19140625 1.53125 C-0.79824219 1.0259375 -0.40507812 0.520625 0 0 Z " fill="#6A3A86" transform="translate(252,296)"/>
<path d="M0 0 C3.08628136 1.02876045 3.99584162 1.56015502 6 4 C7.1875 6.6875 7.1875 6.6875 8 9 C7.01 9 6.02 9 5 9 C0 3.76744186 0 3.76744186 0 0 Z " fill="#70488C" transform="translate(256,696)"/>
<path d="M0 0 C3.9252025 3.70090521 6.94580156 7.54959656 10 12 C9.67 12.66 9.34 13.32 9 14 C0 3.89320388 0 3.89320388 0 0 Z " fill="#6B4483" transform="translate(777,305)"/>
<path d="M0 0 C2 2 2 2 2 5 C0.25 6.9375 0.25 6.9375 -2 9 C-3.11375 10.11375 -3.11375 10.11375 -4.25 11.25 C-4.8275 11.8275 -5.405 12.405 -6 13 C-4.31326082 8.50202887 -2.18326108 4.27113698 0 0 Z " fill="#EFE1F4" transform="translate(803,644)"/>
<path d="M0 0 C0 0.66 0 1.32 0 2 C-0.99 2 -1.98 2 -3 2 C-3.268125 2.639375 -3.53625 3.27875 -3.8125 3.9375 C-5 6 -5 6 -8 7 C-8.33 7.66 -8.66 8.32 -9 9 C-9 6 -9 6 -6.625 3.375 C-2.89473684 0 -2.89473684 0 0 0 Z " fill="#795095" transform="translate(437,387)"/>
<path d="M0 0 C1.65 0 3.3 0 5 0 C3.02 3.63 1.04 7.26 -1 11 C-2.41687119 6.74938644 -1.19320039 4.28148375 0 0 Z " fill="#744B8E" transform="translate(404,378)"/>
<path d="M0 0 C4.75 0.75 4.75 0.75 7 3 C3.62182575 3.84454356 1.32534757 4.10844919 -2 3 C-1.34 2.01 -0.68 1.02 0 0 Z " fill="#724095" transform="translate(515,346)"/>
<path d="M0 0 C-2.46115371 2.27183419 -3.73620199 2.9736202 -7.125 3.3125 C-10 3 -10 3 -12 1 C-8.0186217 -0.3271261 -4.14954773 -0.06915913 0 0 Z " fill="#7F5795" transform="translate(376,568)"/>
<path d="M0 0 C0.66 0.33 1.32 0.66 2 1 C2.59355614 3.64860427 2.74209269 6.29197322 3 9 C1.68 8.34 0.36 7.68 -1 7 C-0.67 4.69 -0.34 2.38 0 0 Z " fill="#693885" transform="translate(827,409)"/>
<path d="M0 0 C1.32 0.33 2.64 0.66 4 1 C3.67 1.99 3.34 2.98 3 4 C3.66 4 4.32 4 5 4 C6.625 6 6.625 6 8 8 C7.67 8.66 7.34 9.32 7 10 C5.82739389 8.71372289 4.6620717 7.42080217 3.5 6.125 C2.8503125 5.40570312 2.200625 4.68640625 1.53125 3.9453125 C0 2 0 2 0 0 Z " fill="#674081" transform="translate(475,582)"/>
<path d="M0 0 C2.87529818 1.28892677 5.05008298 2.49296383 7 5 C7.6875 7.6875 7.6875 7.6875 8 10 C4.71211176 6.88983545 2.16264012 3.98381075 0 0 Z " fill="#6E4586" transform="translate(702,426)"/>
<path d="M0 0 C0.33 0 0.66 0 1 0 C1.05399736 1.45792884 1.09279177 2.91642712 1.125 4.375 C1.14820313 5.18710937 1.17140625 5.99921875 1.1953125 6.8359375 C1 9 1 9 -1 11 C-1.33 10.67 -1.66 10.34 -2 10 C-1.9140625 7.96875 -1.9140625 7.96875 -1.625 5.5 C-1.53476562 4.6853125 -1.44453125 3.870625 -1.3515625 3.03125 C-1 1 -1 1 0 0 Z " fill="#7A4F99" transform="translate(426,396)"/>
<path d="M0 0 C0.99 0 1.98 0 3 0 C2.40312566 3.34249629 1.26396123 5.46436342 -1 8 C-1.66 8 -2.32 8 -3 8 C-1.125 2.25 -1.125 2.25 0 0 Z " fill="#734A90" transform="translate(218,349)"/>
<path d="M0 0 C0.33 0 0.66 0 1 0 C1.33 2.64 1.66 5.28 2 8 C-1.3 7.67 -4.6 7.34 -8 7 C-8 6.67 -8 6.34 -8 6 C-5.36 6 -2.72 6 0 6 C0 4.02 0 2.04 0 0 Z " fill="#835F9A" transform="translate(701,616)"/>
<path d="M0 0 C0.33 0 0.66 0 1 0 C1 2.97 1 5.94 1 9 C0.01 9 -0.98 9 -2 9 C-1.125 2.25 -1.125 2.25 0 0 Z " fill="#744391" transform="translate(700,613)"/>
<path d="M0 0 C0.93045933 2.55144824 1.08564091 3.74006478 0.22265625 6.359375 C-0.16019531 7.14828125 -0.54304687 7.9371875 -0.9375 8.75 C-1.50791016 9.94882812 -1.50791016 9.94882812 -2.08984375 11.171875 C-2.39019531 11.77515625 -2.69054687 12.3784375 -3 13 C-4.53445094 9.93109813 -3.54984289 7.29905734 -3 4 C-2.01 3.67 -1.02 3.34 0 3 C0 2.01 0 1.02 0 0 Z " fill="#623B80" transform="translate(821,599)"/>
<path d="M0 0 C0.66 0.33 1.32 0.66 2 1 C2 3.97 2 6.94 2 10 C1.34 10 0.68 10 0 10 C-0.19412181 8.52168779 -0.38012131 7.04230684 -0.5625 5.5625 C-0.66691406 4.73878906 -0.77132812 3.91507812 -0.87890625 3.06640625 C-0.91886719 2.38449219 -0.95882812 1.70257813 -1 1 C-0.67 0.67 -0.34 0.34 0 0 Z " fill="#663C83" transform="translate(668,506)"/>
<path d="M0 0 C2.49388574 4.98777148 1.88836125 6.66983248 1 12 C0.34 12 -0.32 12 -1 12 C-0.67 8.04 -0.34 4.08 0 0 Z " fill="#744D90" transform="translate(188,438)"/>
<path d="M0 0 C0.99 0.33 1.98 0.66 3 1 C2.67 1.99 2.34 2.98 2 4 C2.99 4 3.98 4 5 4 C4.67 4.99 4.34 5.98 4 7 C1.69 5.35 -0.62 3.7 -3 2 C-2.01 1.34 -1.02 0.68 0 0 Z " fill="#6B4189" transform="translate(677,401)"/>
<path d="M0 0 C2.475 0.495 2.475 0.495 5 1 C5 1.66 5 2.32 5 3 C5.66 3.33 6.32 3.66 7 4 C6.67 4.99 6.34 5.98 6 7 C3 5.1875 3 5.1875 0 3 C0 2.01 0 1.02 0 0 Z " fill="#70468C" transform="translate(666,395)"/>
<path d="M0 0 C-0.66 1.32 -1.32 2.64 -2 4 C-4.64 4 -7.28 4 -10 4 C-6.86268382 1.90845588 -3.85464592 0 0 0 Z " fill="#785192" transform="translate(396,191)"/>
<path d="M0 0 C4.571279 0.54855348 8.67435795 1.41744803 13 3 C9.92677456 3.91058531 7.19902639 4.08886184 4 4 C3.67 3.01 3.34 2.02 3 1 C2.01 0.67 1.02 0.34 0 0 Z " fill="#6B438A" transform="translate(608,185)"/>
<path d="M0 0 C1.5 1.375 1.5 1.375 3 3 C3 3.66 3 4.32 3 5 C3.66 5.33 4.32 5.66 5 6 C5 6.99 5 7.98 5 9 C2.5 7.3125 2.5 7.3125 0 5 C-0.3125 2.25 -0.3125 2.25 0 0 Z " fill="#734B91" transform="translate(483,589)"/>
<path d="M0 0 C0.66 0.33 1.32 0.66 2 1 C0.7508258 4.45925163 -0.67527795 7.14693203 -3 10 C-3 8.02 -3 6.04 -3 4 C-2.34 3.67 -1.68 3.34 -1 3 C-0.67 2.01 -0.34 1.02 0 0 Z " fill="#71488D" transform="translate(559,490)"/>
<path d="M0 0 C3.68266103 0.59950296 7.34543185 1.24758891 11 2 C11 2.99 11 3.98 11 5 C9.53932801 4.54917531 8.08151968 4.08906463 6.625 3.625 C5.81289063 3.36976563 5.00078125 3.11453125 4.1640625 2.8515625 C2 2 2 2 0 0 Z " fill="#704A8B" transform="translate(644,386)"/>
<path d="M0 0 C2.89932357 2.39509338 3.50168276 4.31245243 4 8 C2.68 8 1.36 8 0 8 C0 5.36 0 2.72 0 0 Z " fill="#734990" transform="translate(811,363)"/>
<path d="M0 0 C4.55015893 1.51671964 6.50057264 5.16891053 9 9 C7.0625 8.1875 7.0625 8.1875 5 7 C4.67 6.01 4.34 5.02 4 4 C3.01 3.67 2.02 3.34 1 3 C0.67 2.01 0.34 1.02 0 0 Z " fill="#734C8B" transform="translate(763,288)"/>
<path d="M0 0 C0.99 0 1.98 0 3 0 C3.33 0.99 3.66 1.98 4 3 C4.66 3.33 5.32 3.66 6 4 C6 5.65 6 7.3 6 9 C3.59927045 6.11912454 1.52708963 3.43595166 0 0 Z " fill="#72498A" transform="translate(238,673)"/>
<path d="M0 0 C0.33 0.66 0.66 1.32 1 2 C-1.33679861 5.83902629 -2.86281109 8.20953589 -7 10 C-6.02223933 8.51990357 -5.0427506 7.04094856 -4.0625 5.5625 C-3.51722656 4.73878906 -2.97195313 3.91507812 -2.41015625 3.06640625 C-1 1 -1 1 0 0 Z " fill="#EDDCF4" transform="translate(553,505)"/>
<path d="M0 0 C0.93065133 2.60582371 1.14917407 3.64198224 0.0625 6.25 C-0.4634375 7.11625 -0.4634375 7.11625 -1 8 C-1.99 8 -2.98 8 -4 8 C-2.25 2.25 -2.25 2.25 0 0 Z " fill="#673C84" transform="translate(336,381)"/>
<path d="M0 0 C0.66 0 1.32 0 2 0 C2.99 1.98 3.98 3.96 5 6 C2 6 2 6 0.3125 4.5 C-0.120625 4.005 -0.55375 3.51 -1 3 C-0.67 2.01 -0.34 1.02 0 0 Z " fill="#6F4887" transform="translate(274,715)"/>
<path d="M0 0 C0.598125 0.350625 1.19625 0.70125 1.8125 1.0625 C0.8225 2.0525 -0.1675 3.0425 -1.1875 4.0625 C-2.1775 3.7325 -3.1675 3.4025 -4.1875 3.0625 C-4.5175 2.0725 -4.8475 1.0825 -5.1875 0.0625 C-2.1875 -0.9375 -2.1875 -0.9375 0 0 Z " fill="#7E4D9F" transform="translate(643.1875,648.9375)"/>
<path d="M0 0 C0.33 0 0.66 0 1 0 C1.22036864 3.85645121 0.60355101 6.49223216 -1 10 C-1.66 9.34 -2.32 8.68 -3 8 C-2.60495559 5.0371669 -1.40182371 2.61673759 0 0 Z " fill="#6B4385" transform="translate(722,580)"/>
<path d="M0 0 C0.99 0.33 1.98 0.66 3 1 C-1.18586481 4.18923033 -3.70558305 5.50423019 -9 5 C-9 4.67 -9 4.34 -9 4 C-7.88625 3.71125 -6.7725 3.4225 -5.625 3.125 C-1.99708908 2.30758671 -1.99708908 2.30758671 0 0 Z " fill="#E4D1EC" transform="translate(451,519)"/>
<path d="M0 0 C0.33 0.66 0.66 1.32 1 2 C1.66 2 2.32 2 3 2 C2.6875 3.9375 2.6875 3.9375 2 6 C1.01 6.33 0.02 6.66 -1 7 C-0.67 4.69 -0.34 2.38 0 0 Z " fill="#7C4E95" transform="translate(193,416)"/>
<path d="M0 0 C0.66 0.66 1.32 1.32 2 2 C1.625 5.125 1.625 5.125 1 8 C0.01 6.68 -0.98 5.36 -2 4 C-1.34 2.68 -0.68 1.36 0 0 Z " fill="#734197" transform="translate(310,369)"/>
<path d="M0 0 C-1.98 0.66 -3.96 1.32 -6 2 C-6.99 1.01 -7.98 0.02 -9 -1 C-5.22102349 -2.0497157 -3.35080929 -2.10976881 0 0 Z " fill="#754794" transform="translate(437,181)"/>
<path d="M0 0 C0 0.66 0 1.32 0 2 C-1.98 2 -3.96 2 -6 2 C-6.33 2.66 -6.66 3.32 -7 4 C-7.33 3.01 -7.66 2.02 -8 1 C-3.375 -1.125 -3.375 -1.125 0 0 Z " fill="#8A669D" transform="translate(512,572)"/>
<path d="M0 0 C0.75 1.75 0.75 1.75 1 4 C-0.9375 6.25 -0.9375 6.25 -3 8 C-3.33 7.01 -3.66 6.02 -4 5 C-2.0625 2.3125 -2.0625 2.3125 0 0 Z " fill="#775095" transform="translate(566,527)"/>
<path d="M0 0 C1.9451 2.91765 2.45276317 4.62537285 3 8 C2.34 8 1.68 8 1 8 C1 7.34 1 6.68 1 6 C0.34 6 -0.32 6 -1 6 C-0.67 4.02 -0.34 2.04 0 0 Z " fill="#785194" transform="translate(300,482)"/>
<path d="M0 0 C0.625 1.8125 0.625 1.8125 1 4 C0.01 5.485 0.01 5.485 -1 7 C-1.99 6.67 -2.98 6.34 -4 6 C-2.68 4.02 -1.36 2.04 0 0 Z " fill="#6B4088" transform="translate(236,319)"/>
<path d="M0 0 C-0.6875 1.9375 -0.6875 1.9375 -2 4 C-4.625 4.75 -4.625 4.75 -7 5 C-2.25 0 -2.25 0 0 0 Z " fill="#673A85" transform="translate(317,235)"/>
</svg>
