<?xml version="1.0" encoding="UTF-8"?>
<!-- Generator: visioncortex VTracer 0.6.4 -->
<svg version="1.1" xmlns="http://www.w3.org/2000/svg" width="422" height="374">
<path d="M0 0 C2.69 2.24 5.28 4.54 7.82 6.96 C10.01 9.06 10.01 9.06 12.56 11.02 C14.81 12.85 16.63 14.67 18.5 16.88 C19.09 17.56 19.68 18.25 20.29 18.96 C20.85 19.63 21.42 20.31 22 21 C22.77 21.92 22.77 21.92 23.56 22.85 C24.71 24.23 25.86 25.61 27 27 C29.88 24.21 32.58 21.36 35.19 18.31 C53.21 -2.31 76.32 -16.98 104 -20 C138.29 -21.69 166.9 -14.64 193.19 8.44 C217.78 31.25 230.7 62.83 232.35 96.1 C233.78 141.41 213.72 179.88 183.48 212.3 C181.55 214.4 179.68 216.53 177.82 218.69 C173.46 223.7 168.77 228.38 164.06 233.06 C162.78 234.35 162.78 234.35 161.47 235.67 C157.04 240.09 152.54 244.37 147.79 248.46 C145.19 250.7 142.7 253.04 140.19 255.38 C135.51 259.7 130.68 263.76 125.71 267.75 C122.89 270.09 120.19 272.52 117.5 275 C113.05 279.09 108.45 282.92 103.75 286.72 C100.92 289.07 98.21 291.51 95.5 294 C91.05 298.09 86.45 301.92 81.75 305.72 C78.92 308.07 76.21 310.51 73.5 313 C69.06 317.09 64.46 320.92 59.75 324.71 C56.88 327.1 54.16 329.62 51.44 332.19 C43.14 339.83 35.61 344.5 24.18 344.32 C14.75 343.36 8.55 337.1 2 330.83 C-0.71 328.23 -3.56 325.85 -6.5 323.5 C-10.48 320.3 -14.27 316.97 -18 313.5 C-22.61 309.21 -27.38 305.2 -32.29 301.25 C-36.07 298.12 -39.65 294.78 -43.26 291.46 C-45.9 289.09 -48.61 286.85 -51.38 284.62 C-56.81 280.24 -61.91 275.54 -67.02 270.77 C-71.6 266.5 -76.33 262.42 -81.11 258.37 C-87.94 252.56 -94.63 246.64 -101.17 240.51 C-104.1 237.75 -107.06 235.05 -110.12 232.44 C-118.42 225.24 -125.97 217.37 -132.79 208.77 C-135.11 205.87 -137.52 203.06 -139.94 200.25 C-165.83 169.15 -181.22 130.25 -177.79 89.49 C-174.19 55.84 -159.17 25.38 -133.65 3.09 C-122.59 -5.63 -109.88 -11.72 -96.44 -15.75 C-95.78 -15.95 -95.12 -16.15 -94.44 -16.35 C-61.44 -25.73 -27.53 -20.13 0 0 Z M-121 26 C-121.83 26.74 -122.66 27.48 -123.52 28.24 C-142.5 46.05 -151.97 72.92 -153.29 98.55 C-154.31 132.33 -138.73 161.43 -118 187 C-117.35 187.8 -117.35 187.8 -116.69 188.62 C-105.4 202.54 -92.58 215.31 -79 227 C-77.45 228.39 -75.91 229.79 -74.38 231.19 C-70.35 234.82 -66.26 238.36 -62.12 241.88 C-57.6 245.72 -53.16 249.64 -48.81 253.69 C-44.29 257.89 -39.59 261.82 -34.78 265.69 C-31.23 268.64 -27.86 271.77 -24.48 274.91 C-21.25 277.9 -17.93 280.74 -14.5 283.5 C-10.52 286.7 -6.73 290.03 -3 293.5 C1.62 297.8 6.4 301.84 11.33 305.79 C14.94 308.78 18.33 312 21.71 315.25 C24.32 317.25 25.7 318.03 29 318 C31.65 316.23 31.65 316.23 34.12 313.62 C35.09 312.69 36.07 311.75 37.04 310.82 C37.53 310.34 38.02 309.87 38.53 309.38 C40.75 307.29 43.12 305.4 45.5 303.5 C49.28 300.45 52.92 297.29 56.5 294 C60.95 289.91 65.55 286.08 70.25 282.28 C73.08 279.93 75.79 277.49 78.5 275 C82.95 270.91 87.55 267.08 92.25 263.28 C96.04 260.13 99.64 256.79 103.27 253.45 C105.86 251.12 108.52 248.93 111.25 246.75 C116.58 242.45 121.56 237.84 126.52 233.14 C129.51 230.3 132.53 227.53 135.66 224.86 C141.03 220.18 146.06 215.16 151.11 210.13 C152.79 208.46 154.49 206.79 156.18 205.13 C163.82 197.57 170.54 189.59 177 181 C177.59 180.24 178.17 179.47 178.77 178.68 C199.4 151.69 210.53 121.72 206.53 87.46 C203.73 67.78 196.33 48.9 183 34 C182.26 33.17 181.52 32.33 180.76 31.48 C168.05 17.95 150.19 8.47 132 5 C130.87 4.77 129.73 4.55 128.56 4.31 C104.21 2.18 83.09 9.34 64.07 24.31 C54.27 32.77 46.61 43.24 39.54 54.01 C37.09 57.18 34.78 58.74 31 60 C25.46 60.56 21.75 60.19 17.12 56.99 C13.88 53.95 11.48 50.36 8.98 46.72 C-5.25 25.97 -23.6 9.94 -49 5 C-74.52 1.36 -101.77 8.55 -121 26 Z " fill="#FFFFFF" transform="translate(183,24)"/>
</svg>
