<?xml version="1.0" encoding="UTF-8"?>
<!-- Generator: visioncortex VTracer 0.6.4 -->
<svg version="1.1" xmlns="http://www.w3.org/2000/svg" width="297" height="350">
<path d="M0 0 C6.5 5.94 10.45 12.55 11.21 21.4 C11.24 22.22 11.28 23.03 11.32 23.86 C11.38 25.19 11.38 25.19 11.44 26.55 C11.48 27.46 11.52 28.37 11.56 29.31 C11.61 30.24 11.65 31.18 11.69 32.13 C11.8 34.42 11.9 36.71 12 39 C13.03 39.42 14.05 39.85 15.11 40.29 C39.34 50.46 59.99 66.92 70.56 91.57 C76.68 106.72 79.12 121.44 79.21 137.75 C79.22 139.08 79.24 140.42 79.25 141.76 C79.31 147.4 79.37 153.03 79.4 158.67 C79.59 188.92 81.82 218.36 103.98 241.12 C107.13 244.21 110.52 246.97 113.94 249.75 C119.96 254.71 123.45 258.22 124.36 266.1 C124.64 272.88 124.24 278.54 120 284 C115.21 289.18 110.6 291.72 103.43 292.28 C102.11 292.29 100.79 292.31 99.43 292.32 C98.7 292.33 97.97 292.34 97.21 292.35 C94.81 292.38 92.41 292.4 90.01 292.41 C88.33 292.43 86.66 292.45 84.99 292.47 C80.6 292.52 76.21 292.56 71.82 292.6 C67.34 292.64 62.85 292.69 58.37 292.74 C49.58 292.84 40.79 292.92 32 293 C31.73 293.62 31.45 294.23 31.17 294.86 C30.82 295.67 30.46 296.48 30.09 297.31 C29.73 298.12 29.38 298.92 29.01 299.74 C22.82 313.58 14.56 322.46 0.85 329.03 C-9.04 332.78 -23.16 332.77 -33.12 329.38 C-34.77 328.63 -36.4 327.84 -38 327 C-38.85 326.59 -39.69 326.18 -40.56 325.75 C-52.47 319.36 -58.96 309.16 -63.57 296.84 C-63.84 296.12 -64.1 295.4 -64.38 294.66 C-64.59 294.11 -64.79 293.56 -65 293 C-65.97 293 -66.94 292.99 -67.93 292.99 C-77.08 292.95 -86.23 292.89 -95.38 292.82 C-100.09 292.78 -104.79 292.74 -109.49 292.73 C-114.04 292.71 -118.58 292.68 -123.13 292.63 C-124.86 292.62 -126.58 292.61 -128.31 292.61 C-149.68 292.59 -149.68 292.59 -157.44 284.88 C-161.51 279.46 -163.38 273.13 -163 266.38 C-161.44 257.43 -155.76 252.73 -149.01 247.2 C-131.18 232.52 -121.22 211.61 -118.27 188.87 C-117.21 177.65 -117.53 166.26 -117.5 155 C-117.42 122.99 -115.58 91.95 -93 67 C-92.32 66.24 -91.65 65.49 -90.95 64.71 C-79.06 52.1 -63.75 44.63 -48 38 C-47.96 36.82 -47.93 35.63 -47.89 34.41 C-46.99 11.09 -46.99 11.09 -38.43 2.41 C-27.22 -7.85 -12.44 -8.47 0 0 Z M-29.81 12.19 C-35.21 19.13 -34 26.31 -34 35 C-23.44 35 -12.88 35 -2 35 C-1.37 21.43 -1.37 21.43 -7.31 11.19 C-14.87 5.04 -22.43 6.44 -29.81 12.19 Z M-81 74 C-95.33 89.27 -104.07 109.36 -104.14 130.44 C-104.15 131.68 -104.16 132.92 -104.16 134.19 C-104.17 135.17 -104.17 135.17 -104.17 136.17 C-104.18 138.24 -104.19 140.32 -104.21 142.4 C-104.26 148.3 -104.31 154.2 -104.33 160.1 C-104.43 195.13 -109.15 226.33 -134.38 252.62 C-137.95 256.11 -141.88 259.11 -145.86 262.11 C-148.02 264.01 -149.04 265.31 -150 268 C-149.85 271.69 -149.45 273.47 -147.06 276.31 C-144.15 278.69 -142.57 279.13 -138.9 279.14 C-137.6 279.14 -137.6 279.14 -136.28 279.15 C-134.85 279.15 -134.85 279.15 -133.38 279.15 C-132.37 279.16 -131.36 279.16 -130.32 279.17 C-126.92 279.18 -123.51 279.19 -120.1 279.19 C-117.67 279.2 -115.23 279.21 -112.8 279.22 C-105.48 279.24 -98.16 279.26 -90.84 279.27 C-88.77 279.27 -86.71 279.28 -84.64 279.28 C-71.81 279.31 -58.97 279.33 -46.14 279.34 C-43.17 279.34 -40.19 279.35 -37.22 279.35 C-36.11 279.35 -36.11 279.35 -34.98 279.35 C-23.01 279.37 -11.04 279.4 0.93 279.44 C13.22 279.48 25.51 279.51 37.8 279.51 C44.7 279.51 51.6 279.53 58.5 279.56 C64.99 279.59 71.48 279.6 77.97 279.58 C80.35 279.58 82.74 279.59 85.12 279.61 C88.37 279.63 91.62 279.62 94.88 279.61 C95.82 279.62 96.77 279.64 97.74 279.65 C102.09 279.6 105.08 279.4 108.56 276.65 C111.4 273.56 112.17 272.18 112 268 C109.46 262.28 104.6 259.1 99.8 255.27 C85.29 243.52 76.61 227.19 71.25 209.5 C71.05 208.85 70.85 208.2 70.65 207.53 C67.52 196.56 66.71 185.49 66.66 174.13 C66.64 172.86 66.63 171.58 66.61 170.26 C66.57 166.22 66.53 162.17 66.5 158.12 C66.24 124.73 64.79 96.61 40.51 71.42 C29.71 61 17.33 54.25 3 50 C2.24 49.77 1.47 49.53 0.69 49.29 C-28.77 41.54 -60.19 52.66 -81 74 Z M-50 292 C-48.59 300.47 -44.58 306.41 -37.83 311.72 C-29.87 317.27 -20.61 320.05 -10.88 318.44 C-3.12 316.49 3.77 313.13 9 307 C9.87 306.09 10.73 305.19 11.62 304.25 C14.72 300.36 14.72 300.36 17 292 C-5.11 292 -27.22 292 -50 292 Z " fill="#FFFFFF" transform="translate(168,13)"/>
</svg>
