<?xml version="1.0" encoding="UTF-8"?>
<!-- Generator: visioncortex VTracer 0.6.4 -->
<svg version="1.1" xmlns="http://www.w3.org/2000/svg" width="310" height="349">
<path d="M0 0 C25.8 24.54 35.4 57.22 36.28 91.96 C36.51 102.59 36.49 113.23 36.47 123.86 C36.47 125.3 36.46 126.74 36.46 128.18 C36.45 134.72 36.43 141.26 36.38 147.79 C36.36 149.88 36.35 151.97 36.34 154.06 C36.33 156.65 36.31 159.24 36.28 161.83 C36.26 170.33 36.42 178.47 41.36 185.74 C41.98 186.65 42.59 187.57 43.23 188.52 C43.97 189.58 44.72 190.64 45.48 191.74 C45.94 192.39 46.4 193.05 46.87 193.73 C51.12 199.81 55.41 205.86 59.74 211.88 C60.36 212.74 60.97 213.6 61.61 214.49 C62.39 215.56 62.39 215.56 63.18 216.66 C67.36 223.32 67.19 230.07 66.48 237.74 C64.9 243.25 61.78 246.98 57.48 250.74 C56.91 251.3 56.33 251.85 55.73 252.43 C47.63 257.15 37.35 256 28.29 255.93 C26.74 255.93 25.18 255.93 23.62 255.93 C19.55 255.92 15.49 255.9 11.42 255.88 C7.25 255.86 3.09 255.85 -1.07 255.84 C-9.22 255.81 -17.37 255.78 -25.52 255.74 C-25.65 256.35 -25.78 256.97 -25.91 257.6 C-26.18 258.81 -26.18 258.81 -26.45 260.05 C-26.7 261.24 -26.7 261.24 -26.97 262.47 C-30.28 276.2 -41.87 288.33 -53.52 295.74 C-67.72 303.92 -83.96 305.58 -99.73 301.9 C-117.09 296.57 -130.45 285.94 -139.09 269.8 C-141.34 265.07 -142.7 260.93 -143.52 255.74 C-144.36 255.74 -145.2 255.75 -146.07 255.75 C-154.06 255.79 -162.05 255.82 -170.04 255.84 C-174.14 255.85 -178.25 255.87 -182.36 255.89 C-186.32 255.91 -190.29 255.92 -194.26 255.93 C-195.77 255.93 -197.28 255.94 -198.79 255.95 C-219.75 256.09 -219.75 256.09 -227.52 249.74 C-233.67 243.3 -235.81 237.52 -236.01 228.78 C-234.7 220.76 -230.06 214.18 -225.45 207.68 C-224.89 206.86 -224.32 206.04 -223.74 205.2 C-220.95 201.18 -218.12 197.19 -215.29 193.2 C-214.79 192.48 -214.29 191.77 -213.77 191.04 C-212.84 189.71 -211.9 188.39 -210.94 187.08 C-210.52 186.48 -210.1 185.87 -209.66 185.25 C-209.29 184.74 -208.92 184.23 -208.55 183.7 C-205.43 177.77 -205.22 171.91 -205.24 165.36 C-205.24 163.98 -205.24 163.98 -205.23 162.58 C-205.22 160.6 -205.21 158.62 -205.21 156.65 C-205.21 153.49 -205.19 150.34 -205.17 147.19 C-205.11 138.23 -205.08 129.27 -205.06 120.31 C-205.04 114.81 -205.01 109.32 -204.97 103.82 C-204.96 101.75 -204.96 99.68 -204.96 97.6 C-204.96 71.52 -201.37 47.69 -188.52 24.74 C-187.96 23.74 -187.4 22.74 -186.83 21.71 C-170.57 -5.5 -141.43 -22.94 -111.52 -31.26 C-70.81 -41.28 -30.41 -27.34 0 0 Z M-157.02 24.46 C-175.7 46.43 -179.96 70.81 -179.96 98.73 C-179.97 100.92 -179.98 103.12 -180 105.32 C-180.03 111.06 -180.05 116.8 -180.07 122.54 C-180.09 131.75 -180.13 140.95 -180.19 150.16 C-180.21 153.35 -180.21 156.55 -180.21 159.74 C-180.22 161.72 -180.23 163.69 -180.24 165.66 C-180.24 166.54 -180.24 167.41 -180.24 168.31 C-180.39 187.02 -188.77 200.17 -199.52 214.74 C-200.99 216.76 -202.46 218.79 -203.93 220.82 C-204.8 222.03 -205.68 223.24 -206.57 224.45 C-208.82 227.3 -208.82 227.3 -209.52 230.74 C-127.02 230.74 -44.52 230.74 40.48 230.74 C39.05 227.15 38.14 224.98 35.98 222.02 C35.49 221.34 35 220.66 34.5 219.97 C33.98 219.25 33.46 218.54 32.92 217.8 C16.85 195.33 11.13 178.91 11.39 151.1 C11.44 145.33 11.45 139.56 11.47 133.79 C11.47 132.62 11.48 131.45 11.48 130.24 C11.5 119.42 11.42 108.61 11.22 97.8 C11.19 95.91 11.16 94.02 11.14 92.13 C10.77 62.89 2.25 39.35 -18.08 17.74 C-37.18 -0.83 -61.68 -8.96 -87.92 -8.73 C-115.27 -7.98 -138.64 4.48 -157.02 24.46 Z M-116.52 255.74 C-113.38 265.15 -107.33 271.2 -98.52 275.74 C-89.29 279.49 -80.73 279.45 -71.39 276.11 C-63.22 272.5 -56.14 267.11 -52.52 258.74 C-52.52 257.75 -52.52 256.76 -52.52 255.74 C-73.64 255.74 -94.76 255.74 -116.52 255.74 Z " fill="#FFFFFF" transform="translate(238.515625,38.26171875)"/>
</svg>
