<?xml version="1.0" encoding="UTF-8"?>
<!DOCTYPE svg PUBLIC "-//W3C//DTD SVG 1.1//EN" "http://www.w3.org/Graphics/SVG/1.1/DTD/svg11.dtd">
<svg xmlns="http://www.w3.org/2000/svg" version="1.1" width="1920px" height="1080px" style="shape-rendering:geometricPrecision; text-rendering:geometricPrecision; image-rendering:optimizeQuality; fill-rule:evenodd; clip-rule:evenodd" xmlns:xlink="http://www.w3.org/1999/xlink">
<g><path style="opacity:0.998" fill="#d313b8" d="M 954.5,181.5 C 1074.05,176.868 1169.22,222.201 1240,317.5C 1295.99,402.081 1310.65,493.415 1284,591.5C 1257.82,675.005 1206.65,738.172 1130.5,781C 1040.62,827.017 948.621,831.684 854.5,795C 751.177,748.334 687.677,669.501 664,558.5C 646.414,444.261 678.58,346.761 760.5,266C 815.629,216.276 880.296,188.109 954.5,181.5 Z"/></g>
<g><path style="opacity:1" fill="#fefcfe" d="M 860.5,314.5 C 938.167,314.333 1015.83,314.5 1093.5,315C 1110.97,331.471 1128.14,348.304 1145,365.5C 1145.67,471.167 1145.67,576.833 1145,682.5C 1143.83,683.667 1142.67,684.833 1141.5,686C 1048.17,686.667 954.833,686.667 861.5,686C 811.463,678.297 782.297,649.463 774,599.5C 772.216,554.559 791.382,522.059 831.5,502C 839.961,498.876 848.628,496.709 857.5,495.5C 857.333,436.166 857.5,376.832 858,317.5C 859.045,316.627 859.878,315.627 860.5,314.5 Z"/></g>
<g><path style="opacity:1" fill="#f3beeb" d="M 869.5,326.5 C 869.5,326.167 869.5,325.833 869.5,325.5C 941.833,325.5 1014.17,325.5 1086.5,325.5C 1086.5,340.5 1086.5,355.5 1086.5,370.5C 1085.5,356.01 1085.17,341.343 1085.5,326.5C 1013.5,326.5 941.5,326.5 869.5,326.5 Z"/></g>
<g><path style="opacity:1" fill="#f6d3f1" d="M 869.5,325.5 C 869.5,325.833 869.5,326.167 869.5,326.5C 869.5,382.5 869.5,438.5 869.5,494.5C 872.713,494.19 875.713,494.523 878.5,495.5C 875.167,495.5 871.833,495.5 868.5,495.5C 868.168,438.664 868.501,381.998 869.5,325.5 Z"/></g>
<g><path style="opacity:1" fill="#d316b8" d="M 869.5,326.5 C 941.5,326.5 1013.5,326.5 1085.5,326.5C 1085.17,341.343 1085.5,356.01 1086.5,370.5C 1087.17,371.833 1088.17,372.833 1089.5,373.5C 1103.99,374.496 1118.66,374.829 1133.5,374.5C 1133.5,474.5 1133.5,574.5 1133.5,674.5C 1061,674.833 988.665,674.499 916.5,673.5C 954.894,648.872 970.394,613.872 963,568.5C 950.679,525.67 922.512,501.337 878.5,495.5C 875.713,494.523 872.713,494.19 869.5,494.5C 869.5,438.5 869.5,382.5 869.5,326.5 Z"/></g>
<g><path style="opacity:1" fill="#d41eb9" d="M 1097.5,335.5 C 1106.48,344.145 1115.48,352.812 1124.5,361.5C 1115.52,362.498 1106.52,362.832 1097.5,362.5C 1097.5,353.5 1097.5,344.5 1097.5,335.5 Z"/></g>
<g><path style="opacity:1" fill="#fefafd" d="M 897.5,350.5 C 922.836,350.333 948.169,350.5 973.5,351C 974.5,351.833 975.5,352.667 976.5,353.5C 977.657,379.124 977.824,404.791 977,430.5C 975.833,431.667 974.667,432.833 973.5,434C 948.167,434.667 922.833,434.667 897.5,434C 896.333,432.833 895.167,431.667 894,430.5C 893.333,405.167 893.333,379.833 894,354.5C 894.69,352.65 895.856,351.316 897.5,350.5 Z"/></g>
<g><path style="opacity:1" fill="#fae6f7" d="M 928.5,361.5 C 933.167,361.5 937.833,361.5 942.5,361.5C 942.5,370.167 942.5,378.833 942.5,387.5C 937.833,387.5 933.167,387.5 928.5,387.5C 928.5,378.833 928.5,370.167 928.5,361.5 Z"/></g>
<g><path style="opacity:1" fill="#eface6" d="M 918.5,393.5 C 917.506,383.347 917.172,373.014 917.5,362.5C 913.5,362.5 909.5,362.5 905.5,362.5C 905.5,382.5 905.5,402.5 905.5,422.5C 925.5,422.5 945.5,422.5 965.5,422.5C 965.833,422.5 966.167,422.5 966.5,422.5C 946.007,423.497 925.34,423.831 904.5,423.5C 904.5,402.833 904.5,382.167 904.5,361.5C 909.167,361.5 913.833,361.5 918.5,361.5C 918.5,372.167 918.5,382.833 918.5,393.5 Z"/></g>
<g><path style="opacity:1" fill="#d317b8" d="M 918.5,393.5 C 918.511,395.017 919.177,396.184 920.5,397C 930.167,397.667 939.833,397.667 949.5,397C 951.426,396.578 952.426,395.411 952.5,393.5C 953.494,383.347 953.828,373.014 953.5,362.5C 957.5,362.5 961.5,362.5 965.5,362.5C 965.5,382.5 965.5,402.5 965.5,422.5C 945.5,422.5 925.5,422.5 905.5,422.5C 905.5,402.5 905.5,382.5 905.5,362.5C 909.5,362.5 913.5,362.5 917.5,362.5C 917.172,373.014 917.506,383.347 918.5,393.5 Z"/></g>
<g><path style="opacity:1" fill="#d315b8" d="M 929.5,362.5 C 933.5,362.5 937.5,362.5 941.5,362.5C 941.5,370.5 941.5,378.5 941.5,386.5C 937.5,386.5 933.5,386.5 929.5,386.5C 929.5,378.5 929.5,370.5 929.5,362.5 Z"/></g>
<g><path style="opacity:1" fill="#eea4e4" d="M 966.5,422.5 C 966.167,422.5 965.833,422.5 965.5,422.5C 965.5,402.5 965.5,382.5 965.5,362.5C 961.5,362.5 957.5,362.5 953.5,362.5C 953.828,373.014 953.494,383.347 952.5,393.5C 952.5,382.833 952.5,372.167 952.5,361.5C 957.167,361.5 961.833,361.5 966.5,361.5C 966.5,381.833 966.5,402.167 966.5,422.5 Z"/></g>
<g><path style="opacity:1" fill="#f7d4f2" d="M 1089.5,373.5 C 1104.5,373.5 1119.5,373.5 1134.5,373.5C 1134.5,474.167 1134.5,574.833 1134.5,675.5C 1061.5,675.833 988.497,675.5 915.5,674.5C 915.624,673.893 915.957,673.56 916.5,673.5C 988.665,674.499 1061,674.833 1133.5,674.5C 1133.5,574.5 1133.5,474.5 1133.5,374.5C 1118.66,374.829 1103.99,374.496 1089.5,373.5 Z"/></g>
<g><path style="opacity:1" fill="#fdf5fc" d="M 987.5,404.5 C 1026.83,404.333 1066.17,404.5 1105.5,405C 1110.81,408.617 1110.81,412.283 1105.5,416C 1066.17,416.667 1026.83,416.667 987.5,416C 982.284,412.076 982.284,408.242 987.5,404.5 Z"/></g>
<g><path style="opacity:1" fill="#fdf5fc" d="M 987.5,422.5 C 1026.83,422.333 1066.17,422.5 1105.5,423C 1110.81,426.617 1110.81,430.283 1105.5,434C 1066.17,434.667 1026.83,434.667 987.5,434C 982.284,430.076 982.284,426.242 987.5,422.5 Z"/></g>
<g><path style="opacity:1" fill="#fdf5fc" d="M 897.5,446.5 C 966.834,446.333 1036.17,446.5 1105.5,447C 1110.81,450.617 1110.81,454.283 1105.5,458C 1036.17,458.667 966.833,458.667 897.5,458C 892.284,454.076 892.284,450.242 897.5,446.5 Z"/></g>
<g><path style="opacity:1" fill="#fdf5fc" d="M 897.5,464.5 C 950.834,464.333 1004.17,464.5 1057.5,465C 1062.81,468.617 1062.81,472.283 1057.5,476C 1004.17,476.667 950.833,476.667 897.5,476C 892.284,472.076 892.284,468.242 897.5,464.5 Z"/></g>
<g><path style="opacity:1" fill="#fdf5fc" d="M 981.5,488.5 C 1022.83,488.333 1064.17,488.5 1105.5,489C 1110.81,492.617 1110.81,496.283 1105.5,500C 1064.17,500.667 1022.83,500.667 981.5,500C 976.284,496.076 976.284,492.242 981.5,488.5 Z"/></g>
<g><path style="opacity:1" fill="#d317b8" d="M 854.5,506.5 C 857.5,506.5 860.5,506.5 863.5,506.5C 863.336,509.187 863.503,511.854 864,514.5C 867.667,518.5 871.333,518.5 875,514.5C 875.497,511.854 875.664,509.187 875.5,506.5C 894.174,507.995 910.507,514.828 924.5,527C 919.249,530.462 918.249,534.796 921.5,540C 923.5,540.667 925.5,540.667 927.5,540C 930.769,534.873 933.935,534.706 937,539.5C 946.736,552.867 952.236,567.867 953.5,584.5C 950.813,584.336 948.146,584.503 945.5,585C 940.204,588.567 940.204,592.234 945.5,596C 948.226,596.182 950.893,596.682 953.5,597.5C 951.418,615.592 944.585,631.592 933,645.5C 931.127,643.291 928.96,641.458 926.5,640C 920.437,639.578 918.27,642.411 920,648.5C 921.158,650.491 922.658,652.158 924.5,653.5C 910.635,666.016 894.301,672.682 875.5,673.5C 876.85,667.858 874.85,664.192 869.5,662.5C 867.813,662.76 866.313,663.427 865,664.5C 863.684,667.688 863.184,671.022 863.5,674.5C 844.616,673.106 828.283,666.106 814.5,653.5C 815.815,651.684 817.315,650.017 819,648.5C 820.68,641.906 818.18,639.073 811.5,640C 809.667,641.833 807.833,643.667 806,645.5C 794.206,631.297 787.373,614.963 785.5,596.5C 791.397,597.966 795.397,595.966 797.5,590.5C 795.447,585.03 791.447,583.03 785.5,584.5C 786.714,565.84 793.38,549.507 805.5,535.5C 807.679,536.757 809.679,538.257 811.5,540C 818.505,541.324 821.005,538.49 819,531.5C 817.5,530 816,528.5 814.5,527C 826.059,516.651 839.392,509.818 854.5,506.5 Z"/></g>
<g><path style="opacity:1" fill="#fdf5fc" d="M 981.5,506.5 C 1014.83,506.333 1048.17,506.5 1081.5,507C 1086.81,510.617 1086.81,514.283 1081.5,518C 1048.17,518.667 1014.83,518.667 981.5,518C 976.284,514.076 976.284,510.242 981.5,506.5 Z"/></g>
<g><path style="opacity:1" fill="#fef8fd" d="M 867.5,530.5 C 870.809,530.308 873.309,531.641 875,534.5C 875.5,547.829 875.667,561.163 875.5,574.5C 881.167,575.5 884.5,578.833 885.5,584.5C 892.841,584.334 900.174,584.5 907.5,585C 912.815,588.617 912.815,592.283 907.5,596C 900.144,596.169 892.811,596.669 885.5,597.5C 879.21,607.818 870.543,610.318 859.5,605C 848.148,593.3 849.148,582.8 862.5,573.5C 863.333,560.513 863.833,547.513 864,534.5C 864.69,532.65 865.856,531.316 867.5,530.5 Z"/></g>
<g><path style="opacity:1" fill="#fdf5fc" d="M 981.5,530.5 C 1022.83,530.333 1064.17,530.5 1105.5,531C 1110.81,534.617 1110.81,538.283 1105.5,542C 1064.17,542.667 1022.83,542.667 981.5,542C 976.284,538.076 976.284,534.242 981.5,530.5 Z"/></g>
<g><path style="opacity:1" fill="#fdf5fc" d="M 981.5,548.5 C 1014.83,548.333 1048.17,548.5 1081.5,549C 1086.81,552.617 1086.81,556.283 1081.5,560C 1048.17,560.667 1014.83,560.667 981.5,560C 976.284,556.076 976.284,552.242 981.5,548.5 Z"/></g>
<g><path style="opacity:1" fill="#fdf5fc" d="M 981.5,572.5 C 1022.83,572.333 1064.17,572.5 1105.5,573C 1110.81,576.617 1110.81,580.283 1105.5,584C 1064.17,584.667 1022.83,584.667 981.5,584C 976.284,580.076 976.284,576.242 981.5,572.5 Z"/></g>
<g><path style="opacity:1" fill="#d529bc" d="M 866.5,584.5 C 874.94,584.007 877.273,587.507 873.5,595C 865.789,597.632 862.622,594.799 864,586.5C 864.995,585.934 865.828,585.267 866.5,584.5 Z"/></g>
<g><path style="opacity:1" fill="#fdf5fc" d="M 981.5,590.5 C 1014.83,590.333 1048.17,590.5 1081.5,591C 1086.81,594.617 1086.81,598.283 1081.5,602C 1048.17,602.667 1014.83,602.667 981.5,602C 976.284,598.076 976.284,594.242 981.5,590.5 Z"/></g>
<g><path style="opacity:1" fill="#fdf5fc" d="M 981.5,614.5 C 1022.83,614.333 1064.17,614.5 1105.5,615C 1110.81,618.617 1110.81,622.283 1105.5,626C 1064.17,626.667 1022.83,626.667 981.5,626C 976.284,622.076 976.284,618.242 981.5,614.5 Z"/></g>
<g><path style="opacity:1" fill="#fdf5fc" d="M 981.5,632.5 C 1014.83,632.333 1048.17,632.5 1081.5,633C 1086.81,636.617 1086.81,640.283 1081.5,644C 1048.17,644.667 1014.83,644.667 981.5,644C 976.284,640.076 976.284,636.242 981.5,632.5 Z"/></g>
</svg>
