<?xml version="1.0" encoding="UTF-8"?>
<!DOCTYPE svg PUBLIC "-//W3C//DTD SVG 1.1//EN" "http://www.w3.org/Graphics/SVG/1.1/DTD/svg11.dtd">
<svg xmlns="http://www.w3.org/2000/svg" version="1.1" width="1920px" height="1080px" style="shape-rendering:geometricPrecision; text-rendering:geometricPrecision; image-rendering:optimizeQuality; fill-rule:evenodd; clip-rule:evenodd" xmlns:xlink="http://www.w3.org/1999/xlink">
<g><path style="opacity:0.996" fill="#8c0000" d="M 961.5,284.5 C 1074.23,283.12 1164.73,326.786 1233,415.5C 1294.81,505.524 1309.48,602.858 1277,707.5C 1238.67,810.257 1167.17,878.09 1062.5,911C 948.952,939.358 847.952,915.692 759.5,840C 679.409,762.746 645.909,668.58 659,557.5C 675.811,457.304 727.311,380.804 813.5,328C 859.507,301.827 908.841,287.327 961.5,284.5 Z"/></g>
<g><path style="opacity:1" fill="#fefdfd" d="M 835.5,457.5 C 878.61,453.522 909.443,470.856 928,509.5C 938.951,543.212 932.451,573.045 908.5,599C 880.346,623.227 849.013,628.227 814.5,614C 779.37,594.577 764.204,564.744 769,524.5C 778.019,488.982 800.185,466.648 835.5,457.5 Z"/></g>
<g><path style="opacity:1" fill="#fefdfd" d="M 1101.5,493.5 C 1101.5,503.167 1101.5,512.833 1101.5,522.5C 1049.83,522.5 998.167,522.5 946.5,522.5C 943.426,513.612 940.759,504.612 938.5,495.5C 985.823,489.168 1033.16,482.835 1080.5,476.5C 1092.03,476.709 1099.03,482.376 1101.5,493.5 Z"/></g>
<g><path style="opacity:1" fill="#8e0705" d="M 847.5,483.5 C 851.684,482.704 854.85,484.037 857,487.5C 857.333,503.167 857.667,518.833 858,534.5C 859.518,536.348 861.351,537.848 863.5,539C 871.747,543.373 879.914,547.873 888,552.5C 891.05,560.099 888.55,563.933 880.5,564C 869.167,557.667 857.833,551.333 846.5,545C 845.54,543.581 844.707,542.081 844,540.5C 843.333,522.833 843.333,505.167 844,487.5C 844.69,485.65 845.856,484.316 847.5,483.5 Z"/></g>
<g><path style="opacity:1" fill="#c37b7b" d="M 1101.5,493.5 C 1102.49,503.319 1102.83,513.319 1102.5,523.5C 1050.33,523.832 998.331,523.499 946.5,522.5C 998.167,522.5 1049.83,522.5 1101.5,522.5C 1101.5,512.833 1101.5,503.167 1101.5,493.5 Z"/></g>
<g><path style="opacity:1" fill="#fefefe" d="M 947.5,536.5 C 1000.5,536.333 1053.5,536.5 1106.5,537C 1131.23,541.392 1146.06,555.892 1151,580.5C 1151.67,626.167 1151.67,671.833 1151,717.5C 1148.18,745.354 1133.01,761.521 1105.5,766C 1032.5,766.667 959.5,766.667 886.5,766C 864.522,762.356 850.355,749.856 844,728.5C 842.555,697.532 842.055,666.532 842.5,635.5C 885.708,637.32 917.542,619.32 938,581.5C 944.173,567.127 947.34,552.127 947.5,536.5 Z"/></g>
</svg>
