<?xml version="1.0" encoding="UTF-8"?>
<!DOCTYPE svg PUBLIC "-//W3C//DTD SVG 1.1//EN" "http://www.w3.org/Graphics/SVG/1.1/DTD/svg11.dtd">
<svg xmlns="http://www.w3.org/2000/svg" version="1.1" width="1920px" height="1080px" style="shape-rendering:geometricPrecision; text-rendering:geometricPrecision; image-rendering:optimizeQuality; fill-rule:evenodd; clip-rule:evenodd" xmlns:xlink="http://www.w3.org/1999/xlink">
<g><path style="opacity:0.998" fill="#0539dd" d="M 956.5,305.5 C 1066.91,300.552 1157.75,339.885 1229,423.5C 1295.46,510.464 1314.79,607.131 1287,713.5C 1252.34,822.161 1180.84,894.328 1072.5,930C 964.648,959.096 866.648,939.762 778.5,872C 692.594,798.021 654.094,704.188 663,590.5C 677.923,478.746 734.423,395.579 832.5,341C 871.645,321.113 912.979,309.28 956.5,305.5 Z"/></g>
<g><path style="opacity:1" fill="#fcfcfe" d="M 1088.5,489.5 C 1088.83,537.003 1088.5,584.336 1087.5,631.5C 1080.07,628.747 1072.41,627.58 1064.5,628C 1040.28,635.386 1016.28,643.386 992.5,652C 987.211,655.064 983.711,659.564 982,665.5C 982.096,676.6 983.262,687.6 985.5,698.5C 985.41,701.152 986.076,703.485 987.5,705.5C 991.634,722.235 996.967,738.568 1003.5,754.5C 956.845,756.495 909.845,757.162 862.5,756.5C 861.21,755.942 860.377,754.942 860,753.5C 859.333,665.5 859.333,577.5 860,489.5C 860.833,488.667 861.667,487.833 862.5,487C 936.833,486.333 1011.17,486.333 1085.5,487C 1086.94,487.377 1087.94,488.21 1088.5,489.5 Z"/></g>
<g><path style="opacity:1" fill="#446ae5" d="M 1088.5,489.5 C 1089.83,537.002 1089.83,584.668 1088.5,632.5C 1087.89,632.376 1087.56,632.043 1087.5,631.5C 1088.5,584.336 1088.83,537.003 1088.5,489.5 Z"/></g>
<g><path style="opacity:1" fill="#2645df" d="M 904.5,522.5 C 914.839,522.334 925.172,522.5 935.5,523C 940.796,526.766 940.796,530.433 935.5,534C 924.833,534.667 914.167,534.667 903.5,534C 899.376,529.695 899.709,525.862 904.5,522.5 Z"/></g>
<g><path style="opacity:1" fill="#2343de" d="M 955.5,522.5 C 984.835,522.333 1014.17,522.5 1043.5,523C 1048.41,526.171 1048.75,529.837 1044.5,534C 1014.83,534.667 985.167,534.667 955.5,534C 951.555,530.169 951.555,526.336 955.5,522.5 Z"/></g>
<g><path style="opacity:1" fill="#2543de" d="M 904.5,553.5 C 950.835,553.333 997.168,553.5 1043.5,554C 1048.41,557.171 1048.75,560.837 1044.5,565C 997.833,565.667 951.167,565.667 904.5,565C 902.079,564.002 900.745,562.168 900.5,559.5C 901.432,557.235 902.765,555.235 904.5,553.5 Z"/></g>
<g><path style="opacity:1" fill="#103cdd" d="M 903.5,585.5 C 930.502,585.333 957.502,585.5 984.5,586C 988.729,589.843 988.395,593.177 983.5,596C 956.833,596.667 930.167,596.667 903.5,596C 899.565,592.504 899.565,589.004 903.5,585.5 Z"/></g>
<g><path style="opacity:1" fill="#123ddd" d="M 1001.5,585.5 C 1015.84,585.333 1030.17,585.5 1044.5,586C 1048.44,589.159 1048.44,592.492 1044.5,596C 1030.5,596.667 1016.5,596.667 1002.5,596C 998.842,592.862 998.509,589.362 1001.5,585.5 Z"/></g>
<g><path style="opacity:1" fill="#083add" d="M 903.5,616.5 C 950.501,616.333 997.501,616.5 1044.5,617C 1048.44,620.159 1048.44,623.492 1044.5,627C 997.833,627.667 951.167,627.667 904.5,627C 899.686,623.914 899.352,620.414 903.5,616.5 Z"/></g>
<g><path style="opacity:1" fill="#fcfcfe" d="M 1066.5,638.5 C 1070.96,638.598 1075.3,639.431 1079.5,641C 1099.4,647.975 1119.4,654.642 1139.5,661C 1144.66,662.653 1147.33,666.153 1147.5,671.5C 1143.99,704.545 1134.16,735.545 1118,764.5C 1111.5,775 1103,783.5 1092.5,790C 1069.81,801.063 1049.98,797.229 1033,778.5C 1017.85,759.196 1007.18,737.529 1001,713.5C 996.609,698.092 994.275,682.425 994,666.5C 995.944,663.266 998.778,661.1 1002.5,660C 1024.02,653.06 1045.35,645.893 1066.5,638.5 Z"/></g>
<g><path style="opacity:1" fill="#0c3bdd" d="M 903.5,647.5 C 922.503,647.333 941.503,647.5 960.5,648C 964.566,651.745 964.233,655.078 959.5,658C 940.833,658.667 922.167,658.667 903.5,658C 899.552,654.422 899.552,650.922 903.5,647.5 Z"/></g>
<g><path style="opacity:1" fill="#153ddd" d="M 1060.5,670.5 C 1085.95,667.515 1103.12,677.848 1112,701.5C 1115.93,730.491 1103.76,748.657 1075.5,756C 1051.11,757.048 1035.28,745.882 1028,722.5C 1024.45,695.901 1035.28,678.568 1060.5,670.5 Z"/></g>
<g><path style="opacity:1" fill="#0d3cdd" d="M 903.5,678.5 C 923.503,678.333 943.503,678.5 963.5,679C 967.5,682.333 967.5,685.667 963.5,689C 943.5,689.667 923.5,689.667 903.5,689C 899.565,685.504 899.565,682.004 903.5,678.5 Z"/></g>
<g><path style="opacity:1" fill="#f9fafe" d="M 1061.5,681.5 C 1092.7,680.522 1105.2,695.188 1099,725.5C 1093.12,738.117 1083.12,744.45 1069,744.5C 1047.15,741.306 1037.15,728.639 1039,706.5C 1042.15,694.186 1049.65,685.853 1061.5,681.5 Z"/></g>
<g><path style="opacity:1" fill="#183fde" d="M 1084.5,698.5 C 1090.6,697.263 1093.43,699.597 1093,705.5C 1085.83,714 1078,721.833 1069.5,729C 1066.37,729.79 1063.37,729.457 1060.5,728C 1056.67,724.167 1052.83,720.333 1049,716.5C 1046.99,709.51 1049.49,706.676 1056.5,708C 1059.38,711.586 1062.72,714.252 1066.5,716C 1072.37,709.964 1078.37,704.13 1084.5,698.5 Z"/></g>
<g><path style="opacity:1" fill="#a1b1f2" d="M 985.5,698.5 C 986.924,700.515 987.59,702.848 987.5,705.5C 986.076,703.485 985.41,701.152 985.5,698.5 Z"/></g>
<g><path style="opacity:1" fill="#0e3cdd" d="M 903.5,709.5 C 927.836,709.333 952.169,709.5 976.5,710C 979.661,712.079 980.328,714.913 978.5,718.5C 977.975,719.192 977.308,719.692 976.5,720C 952.167,720.667 927.833,720.667 903.5,720C 899.565,716.504 899.565,713.004 903.5,709.5 Z"/></g>
<g><path style="opacity:1" fill="#cfd9f8" d="M 1003.5,754.5 C 1004.34,754.842 1004.67,755.508 1004.5,756.5C 957.67,757.499 910.67,757.832 863.5,757.5C 862.833,757.5 862.5,757.167 862.5,756.5C 909.845,757.162 956.845,756.495 1003.5,754.5 Z"/></g>
<g><path style="opacity:1" fill="#1d4be0" d="M 1004.5,756.5 C 1005.04,756.56 1005.38,756.893 1005.5,757.5C 958.002,758.831 910.668,758.831 863.5,757.5C 910.67,757.832 957.67,757.499 1004.5,756.5 Z"/></g>
</svg>
