<?xml version="1.0" encoding="UTF-8"?>
<!DOCTYPE svg PUBLIC "-//W3C//DTD SVG 1.1//EN" "http://www.w3.org/Graphics/SVG/1.1/DTD/svg11.dtd">
<svg xmlns="http://www.w3.org/2000/svg" version="1.1" width="3840px" height="2160px" style="shape-rendering:geometricPrecision; text-rendering:geometricPrecision; image-rendering:optimizeQuality; fill-rule:evenodd; clip-rule:evenodd" xmlns:xlink="http://www.w3.org/1999/xlink">
<g><path style="opacity:1" fill="#f9faf9" d="M 1819.5,843.5 C 1886.17,843.333 1952.83,843.5 2019.5,844C 2045.07,847.698 2064.57,860.531 2078,882.5C 2110.17,937.508 2141.84,992.841 2173,1048.5C 2182.76,1072.93 2181.1,1096.6 2168,1119.5C 2137.09,1174.33 2105.42,1228.66 2073,1282.5C 2059.7,1300.57 2041.87,1311.07 2019.5,1314C 1952.5,1314.67 1885.5,1314.67 1818.5,1314C 1792.93,1310.31 1773.43,1297.47 1760,1275.5C 1727.83,1220.49 1696.16,1165.16 1665,1109.5C 1656.33,1089.17 1656.33,1068.83 1665,1048.5C 1696.99,990.514 1729.99,933.18 1764,876.5C 1777.93,857.72 1796.43,846.72 1819.5,843.5 Z M 1825.5,877.5 C 1887.83,877.333 1950.17,877.5 2012.5,878C 2028.71,879.681 2040.88,887.515 2049,901.5C 2079,953.5 2109,1005.5 2139,1057.5C 2145.5,1070.19 2146.17,1083.19 2141,1096.5C 2108.5,1153.49 2075.5,1210.16 2042,1266.5C 2033.1,1275.53 2022.27,1280.03 2009.5,1280C 1949.17,1280.67 1888.83,1280.67 1828.5,1280C 1813.73,1279.86 1801.9,1274.03 1793,1262.5C 1762.92,1210 1732.59,1157.67 1702,1105.5C 1690.67,1087.83 1690.67,1070.17 1702,1052.5C 1732.33,1000.17 1762.67,947.833 1793,895.5C 1801.35,884.912 1812.18,878.912 1825.5,877.5 Z M 1910.5,1013.5 C 1938.69,1012.18 1960.53,1023.18 1976,1046.5C 1989.47,1073.56 1986.8,1098.89 1968,1122.5C 1938.07,1150.01 1906.91,1151.51 1874.5,1127C 1849.99,1100.34 1847.15,1071.5 1866,1040.5C 1877.52,1025.99 1892.35,1016.99 1910.5,1013.5 Z"/></g>
<g><path style="opacity:1" fill="#f9faf9" d="M 1902.5,979.5 C 1938.46,975.761 1968.96,986.761 1994,1012.5C 2018.93,1042.14 2025.26,1075.48 2013,1112.5C 1992.85,1159.97 1957.01,1181.81 1905.5,1178C 1863.29,1169.78 1835.45,1145.28 1822,1104.5C 1812.48,1050.03 1832.32,1010.53 1881.5,986C 1888.53,983.488 1895.53,981.321 1902.5,979.5 Z M 1910.5,1013.5 C 1892.35,1016.99 1877.52,1025.99 1866,1040.5C 1847.15,1071.5 1849.99,1100.34 1874.5,1127C 1906.91,1151.51 1938.07,1150.01 1968,1122.5C 1986.8,1098.89 1989.47,1073.56 1976,1046.5C 1960.53,1023.18 1938.69,1012.18 1910.5,1013.5 Z"/></g>
</svg>
