<?xml version="1.0" encoding="UTF-8"?>
<!-- Generator: visioncortex VTracer 0.6.4 -->
<svg version="1.1" xmlns="http://www.w3.org/2000/svg" width="284" height="284">
<path d="M0 0 C24.84 21.73 40.53 50.21 43.59 83.39 C45.28 112.99 38.13 142.25 19.74 165.88 C17.26 169.12 16.59 170.15 16.59 174.39 C18.35 176.52 20.09 178.38 22.07 180.29 C22.94 181.16 22.94 181.16 23.83 182.05 C25.76 183.96 27.7 185.86 29.65 187.77 C30.99 189.1 32.33 190.43 33.67 191.76 C37.2 195.26 40.74 198.76 44.29 202.25 C49.96 207.83 55.62 213.43 61.27 219.04 C63.25 220.99 65.23 222.94 67.22 224.89 C68.43 226.09 69.64 227.29 70.86 228.49 C71.41 229.03 71.96 229.57 72.53 230.13 C76.18 233.75 78.33 236.28 78.97 241.39 C78.59 244.39 78.59 244.39 77.09 246.77 C74.26 248.61 72.08 249.15 68.7 248.95 C60.19 246.7 51.7 234.62 45.56 228.46 C44.32 227.21 43.07 225.97 41.83 224.72 C38.58 221.47 35.33 218.21 32.08 214.95 C28.76 211.62 25.43 208.29 22.11 204.96 C15.6 198.44 9.09 191.92 2.59 185.39 C1.16 186.34 -0.27 187.3 -1.7 188.25 C-2.89 189.04 -2.89 189.04 -4.11 189.85 C-6.01 191.13 -7.9 192.41 -9.79 193.7 C-29.76 207.05 -51.51 213.81 -75.6 213.7 C-76.87 213.7 -78.15 213.69 -79.46 213.69 C-89.1 213.57 -98.08 212.79 -107.41 210.39 C-108.07 210.23 -108.72 210.06 -109.4 209.89 C-123.88 206.12 -137.66 199.72 -149.41 190.39 C-150.2 189.77 -150.2 189.77 -151.01 189.13 C-164.12 178.65 -174.2 167.09 -182.41 152.39 C-183.32 150.79 -183.32 150.79 -184.25 149.17 C-198.96 121.74 -201.48 88.97 -192.97 59.24 C-183.34 27.46 -162.24 2.49 -133.16 -13.36 C-91.07 -35.31 -36.67 -30.77 0 0 Z M-154.66 24.7 C-173.85 46.67 -182.31 74.41 -180.41 103.39 C-177.18 131.8 -163.07 157.11 -141.09 175.31 C-122.56 189.01 -100.77 196.82 -77.72 196.7 C-76.57 196.7 -75.43 196.69 -74.24 196.69 C-46.78 196.31 -20.85 184.74 -1.68 165.12 C18.5 143.63 27.62 116.14 26.73 86.88 C25.41 62.75 15.19 41.44 -0.41 23.39 C-1.39 22.25 -1.39 22.25 -2.4 21.09 C-19.38 2.94 -46.04 -8.97 -70.71 -9.83 C-103.8 -10.56 -131.77 0.72 -154.66 24.7 Z " fill="#FFFFFF" transform="translate(201.4091796875,31.6083984375)"/>
</svg>
