<?xml version="1.0" encoding="utf-8"?>
<!-- Generator: Adobe Illustrator 27.1.1, SVG Export Plug-In . SVG Version: 6.00 Build 0)  -->
<svg version="1.1" id="Layer_1" xmlns="http://www.w3.org/2000/svg" xmlns:xlink="http://www.w3.org/1999/xlink" x="0px" y="0px"
	 viewBox="0 0 1920 1080" style="enable-background:new 0 0 1920 1080;" xml:space="preserve">
<style type="text/css">
	.st0{display:none;fill:#9E9B9B;}
	.st1{fill:#00005B;}
	.st2{fill:#FFFFFF;}
	.st3{fill:#000062;}
	.st4{fill:#ABB7C2;}
	.st5{fill:#B5B5B5;}
</style>
<rect x="-5177.6" y="-1856.83" class="st0" width="486.13" height="486.13"/>
<rect x="-3075.81" y="-1831" class="st0" width="486.13" height="486.13"/>
<rect x="-1276.32" y="-1858.87" class="st0" width="486.13" height="486.13"/>
<rect x="-3871.51" y="1100" class="st1" width="1920" height="1080"/>
<rect x="671.26" y="-1858.87" class="st0" width="486.13" height="486.13"/>
<rect x="-1266.5" y="-803.06" class="st0" width="486.13" height="486.13"/>
<rect x="-3075.81" y="-803.06" class="st0" width="486.13" height="486.13"/>
<path class="st2" d="M-5099.43-1641.2c-1.41,7.96-2.4,16.03-4.31,23.87c-5.05,20.73-15.19,39.05-27.85,56.02
	c-19.54,26.18-43.3,48.31-67.82,69.64c-28.91,25.15-57.97,50.12-87.02,75.11c-11.15,9.59-23.14,10.01-33.89,0.68
	c-37.79-32.77-75.68-65.44-113.02-98.73c-19.19-17.11-36.44-36.18-50.49-57.9c-25.2-38.93-32.03-80.63-16.06-124.47
	c14.44-39.65,42.48-65.58,84.58-73.7c43.63-8.41,78.77,7.22,106.67,40.82c1.52,1.83,2.93,3.76,4.79,6.15
	c1.71-2.18,3.2-4.14,4.75-6.04c16.18-19.8,35.9-34.3,61.13-40.27c43.99-10.42,90.68,7.95,116.09,45.31
	c12.54,18.45,19.49,38.81,21.73,60.9c0.14,1.42,0.48,2.83,0.72,4.25C-5099.43-1653.44-5099.43-1647.32-5099.43-1641.2z
	 M-5303.96-1433.31c1.05-0.82,1.89-1.43,2.68-2.11c32.31-27.93,64.81-55.63,96.84-83.87c22.37-19.73,43.65-40.62,60.23-65.72
	c15.78-23.88,23.58-49.87,19.96-78.64c-3.91-31.05-17.2-56.82-44.78-73.04c-25.7-15.11-52.81-16.97-80.11-3.87
	c-16.14,7.74-28.05,20.38-38.02,34.98c-1.42,2.09-2.7,4.28-4.19,6.31c-6.58,9-18.3,8.96-24.98,0.06
	c-5.82-7.75-11.15-15.98-17.77-22.98c-21.41-22.61-47.84-31.38-78.32-24.78c-32.88,7.11-54.47,27.94-65.41,59.29
	c-12.71,36.43-6.65,70.7,14.34,102.65c13.02,19.82,28.97,37.18,46.49,52.95c28.97,26.07,58.53,51.49,87.87,77.14
	C-5320.84-1447.7-5312.43-1440.58-5303.96-1433.31z"/>
<path class="st3" d="M-5321.83-566.43c0,18.08,0.01,36.17,0,54.25c-0.01,8.94-4.7,13.69-13.55,13.69
	c-35.54,0.01-71.08,0.04-106.63-0.01c-24.15-0.03-41.45-17.36-41.49-41.52c-0.04-26.19-0.04-52.38,0-78.57
	c0.04-24.19,17.3-41.52,41.44-41.57c26.31-0.05,52.63-0.06,78.94,0c23.93,0.05,41.21,17.39,41.28,41.35
	C-5321.79-601.35-5321.83-583.89-5321.83-566.43z M-5345.78-522.44c0-1.66,0-2.77,0-3.88c0-30.67,0.01-61.34,0-92.01
	c0-11.37-6.49-17.88-17.82-17.89c-26.06-0.01-52.11-0.01-78.17,0c-11.33,0.01-17.78,6.51-17.78,17.92
	c-0.01,25.81-0.01,51.62,0,77.42c0,12.13,6.29,18.43,18.4,18.43c30.42,0.01,60.84,0,91.26,0
	C-5348.67-522.44-5347.44-522.44-5345.78-522.44z"/>
<path class="st3" d="M-5285.89-566.42c0-17.33-0.02-34.67,0.01-52c0.04-24.43,17.26-41.7,41.65-41.74c26.19-0.04,52.38-0.05,78.57,0
	c24.16,0.05,41.41,17.35,41.45,41.55c0.04,26.19,0.04,52.38,0,78.57c-0.04,24.18-17.32,41.5-41.48,41.54
	c-35.54,0.05-71.08,0.02-106.63,0.01c-8.83,0-13.56-4.78-13.57-13.68C-5285.9-530.25-5285.89-548.34-5285.89-566.42z
	 M-5261.94-522.44c1.64,0,2.74,0,3.85,0c30.67,0,61.34,0.01,92.01,0c11.38,0,17.91-6.49,17.92-17.8c0.01-26.06,0.01-52.11,0-78.17
	c-0.01-11.33-6.51-17.8-17.91-17.8c-25.93-0.01-51.86-0.01-77.8,0c-11.64,0-18.07,6.41-18.07,18.01c-0.01,30.54,0,61.09,0,91.63
	C-5261.94-525.35-5261.94-524.13-5261.94-522.44z"/>
<path class="st3" d="M-5285.89-394.64c0-18.08-0.01-36.17,0-54.25c0.01-8.88,4.75-13.66,13.58-13.66
	c35.54-0.01,71.08-0.04,106.62,0.01c24.17,0.03,41.43,17.34,41.47,41.54c0.04,26.19,0.04,52.38,0,78.57
	c-0.04,24.19-17.31,41.51-41.46,41.55c-26.31,0.05-52.63,0.06-78.94,0c-23.89-0.06-41.2-17.44-41.26-41.37
	C-5285.93-359.72-5285.89-377.18-5285.89-394.64z M-5261.79-438.61c-0.07,0.99-0.14,1.58-0.14,2.18
	c-0.01,31.79-0.05,63.58,0.03,95.37c0.02,9.51,7.05,16.19,16.84,16.21c26.55,0.05,53.11,0.04,79.66,0.01
	c10.56-0.01,17.23-6.73,17.24-17.35c0.03-26.31,0.02-52.61,0-78.92c-0.01-10.87-6.61-17.48-17.45-17.5
	c-11.72-0.03-23.44-0.01-35.16-0.01C-5220.97-438.61-5241.16-438.61-5261.79-438.61z"/>
<path class="st3" d="M-5389.75-462.56c18.08,0,36.17-0.01,54.25,0c8.89,0.01,13.67,4.73,13.67,13.57
	c0.01,35.54,0.04,71.08-0.01,106.62c-0.03,24.16-17.34,41.43-41.54,41.47c-26.19,0.05-52.38,0.04-78.57,0
	c-24.17-0.04-41.52-17.34-41.56-41.46c-0.04-26.31-0.05-52.63,0-78.94c0.05-23.89,17.42-41.2,41.37-41.26
	C-5424.67-462.6-5407.21-462.56-5389.75-462.56z M-5345.78-438.61c-1.72,0-2.84,0-3.96,0c-30.67,0-61.34-0.01-92.01,0
	c-11.34,0-17.81,6.5-17.81,17.89c-0.01,25.93-0.01,51.86,0,77.8c0,11.64,6.41,18.08,18,18.09c25.93,0.01,51.86,0.01,77.8,0
	c11.56-0.01,17.98-6.47,17.98-18.11c0.01-30.54,0-61.09,0-91.63C-5345.78-435.79-5345.78-437-5345.78-438.61z"/>
<path class="st4" d="M-652.61,1694.34c0,18.08,0.01,36.17,0,54.25c-0.01,8.94-4.7,13.69-13.55,13.69
	c-35.54,0.01-71.08,0.04-106.63-0.01c-24.15-0.03-41.45-17.36-41.49-41.52c-0.04-26.19-0.04-52.38,0-78.57
	c0.04-24.19,17.3-41.52,41.44-41.57c26.31-0.05,52.63-0.06,78.94,0c23.93,0.05,41.21,17.39,41.28,41.35
	C-652.57,1659.42-652.61,1676.88-652.61,1694.34z M-676.56,1738.33c0-1.66,0-2.77,0-3.88c0-30.67,0.01-61.34,0-92.01
	c0-11.37-6.49-17.88-17.82-17.89c-26.06-0.01-52.11-0.01-78.17,0c-11.33,0.01-17.78,6.51-17.78,17.92
	c-0.01,25.81-0.01,51.62,0,77.42c0,12.13,6.29,18.43,18.4,18.43c30.42,0.01,60.84,0,91.26,0
	C-679.45,1738.33-678.23,1738.33-676.56,1738.33z"/>
<path class="st4" d="M-616.67,1694.35c0-17.33-0.02-34.67,0.01-52c0.04-24.43,17.26-41.7,41.65-41.74c26.19-0.04,52.38-0.05,78.57,0
	c24.16,0.05,41.41,17.35,41.45,41.56c0.04,26.19,0.04,52.38,0,78.57c-0.04,24.18-17.32,41.5-41.48,41.54
	c-35.54,0.05-71.08,0.02-106.63,0.01c-8.83,0-13.56-4.78-13.57-13.68C-616.68,1730.52-616.67,1712.44-616.67,1694.35z
	 M-592.72,1738.33c1.64,0,2.74,0,3.85,0c30.67,0,61.34,0.01,92.01,0c11.38,0,17.91-6.49,17.91-17.8c0.01-26.06,0.01-52.11,0-78.17
	c-0.01-11.33-6.51-17.8-17.91-17.8c-25.93-0.01-51.86-0.01-77.8,0c-11.64,0-18.07,6.41-18.07,18.01c-0.01,30.54,0,61.09,0,91.63
	C-592.72,1735.42-592.72,1736.65-592.72,1738.33z"/>
<path class="st4" d="M-616.67,1866.13c0-18.08-0.01-36.17,0-54.25c0.01-8.88,4.75-13.66,13.58-13.66
	c35.54-0.01,71.08-0.04,106.62,0.01c24.17,0.03,41.43,17.34,41.47,41.54c0.04,26.19,0.04,52.38,0,78.57
	c-0.04,24.19-17.31,41.51-41.46,41.55c-26.31,0.05-52.63,0.06-78.94,0c-23.89-0.06-41.2-17.44-41.26-41.37
	C-616.71,1901.05-616.67,1883.59-616.67,1866.13z M-592.57,1822.17c-0.07,0.99-0.14,1.58-0.14,2.18
	c-0.01,31.79-0.05,63.58,0.03,95.37c0.02,9.51,7.05,16.19,16.84,16.21c26.55,0.05,53.11,0.04,79.66,0.01
	c10.56-0.01,17.23-6.73,17.24-17.35c0.03-26.31,0.02-52.61,0-78.92c-0.01-10.87-6.61-17.48-17.45-17.5
	c-11.72-0.03-23.44-0.01-35.16-0.01C-551.75,1822.17-571.94,1822.17-592.57,1822.17z"/>
<path class="st4" d="M-720.53,1798.22c18.08,0,36.17-0.01,54.25,0c8.89,0.01,13.67,4.73,13.67,13.57
	c0.01,35.54,0.04,71.08-0.01,106.62c-0.03,24.16-17.34,41.43-41.54,41.47c-26.19,0.05-52.38,0.04-78.57,0
	c-24.17-0.04-41.52-17.34-41.56-41.46c-0.05-26.31-0.05-52.63,0-78.94c0.05-23.89,17.42-41.2,41.37-41.26
	C-755.45,1798.18-737.99,1798.22-720.53,1798.22z M-676.56,1822.17c-1.72,0-2.84,0-3.96,0c-30.67,0-61.34-0.01-92.01,0
	c-11.34,0-17.81,6.5-17.81,17.89c-0.01,25.93-0.01,51.86,0,77.8c0,11.64,6.41,18.08,17.99,18.09c25.93,0.01,51.86,0.01,77.8,0
	c11.56-0.01,17.98-6.47,17.98-18.11c0.01-30.54,0-61.09,0-91.63C-676.56,1824.99-676.56,1823.77-676.56,1822.17z"/>
<path class="st2" d="M-5279.95,783.74c-44.18,0-88.37,0.02-132.55-0.01c-16.36-0.01-28.84-8.4-33.34-22.68
	c-1.18-3.74-1.75-7.83-1.76-11.76c-0.11-62.27-0.12-124.53-0.05-186.8c0.02-20.3,14.18-34.33,34.41-34.42
	c3.87-0.02,7.76-0.23,11.6,0.07c3.34,0.26,4.98-0.78,6.25-4.07c6.93-17.89,14.15-35.66,21.31-53.46
	c6.17-15.34,19.38-20.88,34.57-14.56c56.59,23.55,113.17,47.11,169.79,70.59c2.11,0.88,4.54,1.27,6.84,1.36
	c7.6,0.32,15.27-0.19,22.79,0.68c15.43,1.79,27.34,15.02,27.76,30.53c0.34,12.59,0.15,25.2,0.12,37.81c-0.01,2,0.33,3.07,2.65,3.55
	c8.17,1.7,13.35,7.72,13.4,16.14c0.16,26.08,0.15,52.16,0.01,78.24c-0.04,8.21-5.26,14.7-12.94,16.18
	c-2.94,0.56-3.15,1.88-3.14,4.24c0.08,10.98-0.38,21.98,0.13,32.94c0.87,18.9-13.21,35.71-35.68,35.53
	C-5191.83,783.49-5235.89,783.74-5279.95,783.74z M-5128.09,599.95c0-1.57,0-2.79,0-4c0-10.73,0-21.46,0-32.19
	c0-13.03-6.52-19.6-19.49-19.6c-43.18-0.01-86.36,0-129.54,0c-45.3,0-90.6-0.01-135.9,0.01c-11.33,0.01-18.51,6.66-18.52,17.47
	c-0.06,62.88-0.05,125.76,0,188.65c0.01,8.48,4.9,14.93,12.67,16.82c2.26,0.55,4.7,0.54,7.05,0.54
	c51.17,0.03,102.33,0.02,153.5,0.02c36.81,0,73.63-0.28,110.44,0.15c13.23,0.16,20.46-8.95,19.92-19.79
	c-0.53-10.58-0.12-21.2-0.12-31.81c0-1.33,0-2.67,0-4.34c-1.9,0-3.37,0-4.84,0c-21.96,0-43.93,0.13-65.89-0.03
	c-35.22-0.27-60.04-28.02-56.6-63.05c2.66-27.06,27.13-48.65,55.54-48.8c22.34-0.12,44.68-0.03,67.02-0.03
	C-5131.41,599.95-5129.94,599.95-5128.09,599.95z M-5112.42,616.45c-4.82,0-9.4,0.01-13.99,0c-25.44-0.09-50.9-0.68-76.32-0.14
	c-23.17,0.5-40.79,23.33-36.63,46.17c3.61,19.81,19.52,33.16,40.12,33.26c27.94,0.14,55.88,0.04,83.82,0.03
	c0.96,0,1.92-0.15,3.01-0.25C-5112.42,669.19-5112.42,643.08-5112.42,616.45z M-5209.1,528.05c-1.21-0.78-1.48-1.02-1.79-1.15
	c-45.18-18.82-90.35-37.65-135.55-56.43c-5.97-2.48-10.05-0.66-12.5,5.41c-6.66,16.51-13.28,33.05-19.89,49.58
	c-0.3,0.74-0.4,1.55-0.66,2.61c5.17,0,10.03-0.11,14.88,0.05c2.22,0.07,3.32-0.66,4.09-2.78c2.61-7.13,5.43-14.19,8.17-21.27
	c2.97-7.66,6.07-9.12,13.8-6.55c29.52,9.83,59.05,19.67,88.58,29.49c1.29,0.43,2.64,0.97,3.96,0.98
	C-5234.04,528.08-5222.07,528.05-5209.1,528.05z M-5299.81,527.9c0.04-0.22,0.07-0.43,0.11-0.65c-13.04-4.31-26.07-8.62-39.42-13.02
	c-1.76,4.63-3.41,9-5.18,13.67C-5329.14,527.9-5314.48,527.9-5299.81,527.9z"/>
<path class="st2" d="M-5359.49,608.02c10.1,0,20.21-0.02,30.31,0.01c5.7,0.01,9.34,3.13,9.35,7.92c0.01,4.8-3.58,7.93-9.31,7.94
	c-20.46,0.03-40.91,0.03-61.37,0c-5.62-0.01-9.29-3.34-9.17-8.09c0.12-4.67,3.68-7.74,9.14-7.76
	C-5380.19,608-5369.84,608.02-5359.49,608.02z"/>
<path class="st2" d="M-5375.51,575.99c4.87,0,9.73-0.05,14.6,0.01c5.51,0.08,8.95,3.14,9.03,7.87c0.07,4.81-3.22,8.08-8.72,8.15
	c-10.11,0.13-20.22,0.14-30.32,0c-5.34-0.07-8.91-3.63-8.75-8.22c0.15-4.53,3.63-7.69,8.82-7.78
	C-5385.75,575.92-5380.63,576-5375.51,575.99z"/>
<path class="st2" d="M-5199.87,631.99c13.27,0.06,23.91,10.83,23.84,24.14c-0.07,13.02-10.86,23.74-23.89,23.75
	c-13.24,0.01-24.04-10.78-24.02-23.99C-5223.93,642.61-5213.16,631.93-5199.87,631.99z M-5200.02,647.89
	c-4.35,0.02-8.1,3.88-7.98,8.21c0.12,4.25,3.77,7.78,8.02,7.75c4.41-0.02,8.1-3.81,7.98-8.17
	C-5192.11,651.47-5195.82,647.87-5200.02,647.89z"/>
<path class="st2" d="M-5245.01,1768.16c-7.58,32.08-34.21,47.86-58.3,48.08c-24.1,0.22-51.53-15.22-59.42-48.08
	c-1.25,0-2.6,0-3.94,0c-20.96,0-41.93,0-62.89,0c-10.14,0-17.98-4.22-22.47-13.38c-4.54-9.27-2.98-17.99,3.16-26.33
	c7.4-10.05,14.37-20.42,21.41-30.74c2.9-4.25,3.85-9.1,3.84-14.24c-0.05-27.75-0.63-55.52,0.11-83.25
	c1.37-51.46,25.54-88.95,72.32-110.12c67.61-30.6,147.83,10.4,163.95,83.08c2.07,9.31,2.92,19.04,3.06,28.6c0.4,27,0.2,54,0.09,81
	c-0.03,6.38,1.62,12.01,5.31,17.19c7.1,9.97,14.09,20.01,21.07,30.06c5.46,7.85,6.25,16.29,2.04,24.82
	c-4.23,8.56-11.49,13.16-21.01,13.25c-21.34,0.2-42.68,0.07-64.02,0.07C-5242.06,1768.16-5243.42,1768.16-5245.01,1768.16z
	 M-5177.39,1743.97c-7.24-10.46-14.12-20.54-21.15-30.51c-6.48-9.19-9.55-19.31-9.51-30.56c0.11-27,0.06-54,0.01-80.99
	c-0.01-3.99-0.2-8-0.61-11.97c-5.99-58.67-63.85-98.19-120.58-82.39c-41.65,11.59-70.22,48.87-70.45,92.22
	c-0.15,27.75-0.1,55.5,0,83.24c0.04,11.26-3.08,21.38-9.56,30.55c-6.34,8.97-12.54,18.05-18.79,27.08
	c-0.68,0.99-1.35,1.98-2.28,3.33C-5345.87,1743.97-5261.96,1743.97-5177.39,1743.97z M-5270.51,1768.35c-22.24,0-44.44,0-66.69,0
	c3.73,13.47,18.33,23.82,33.38,23.81C-5288.77,1792.15-5274.05,1781.68-5270.51,1768.35z"/>
<path class="st3" d="M-3426.27-1394.06c-6.65-3.07-8.42-8.35-8.28-15.45c1.33-68.78,53.78-129.91,121.48-140.99
	c8.45-1.38,17.09-1.97,25.66-2.16c15.08-0.34,30.19-0.52,45.26,0c58.02,2.03,100.42,29.52,128.12,80.03
	c10.78,19.66,15.44,41.12,16.4,63.48c0.3,7.01-1.82,12.07-8.27,15.08C-3212.69-1394.06-3319.48-1394.06-3426.27-1394.06z
	 M-3120.39-1416.68c-0.96-5.63-1.71-10.81-2.75-15.92c-11.22-54.94-61.74-96.89-117.71-97.63c-16.83-0.22-33.68-0.27-50.51,0.08
	c-7.31,0.15-14.78,0.79-21.87,2.47c-48,11.35-79.17,41.02-93.94,87.9c-2.32,7.36-3.22,15.17-4.85,23.1
	C-3314.37-1416.68-3217.76-1416.68-3120.39-1416.68z"/>
<circle class="st3" cx="-3001.77" cy="635.6" r="262.98"/>
<path class="st3" d="M-3266.04-1575.21c-55.73,0.02-101.17-45.46-101.09-101.19c0.08-55.59,45.41-100.88,101-100.9
	c55.75-0.02,101.17,45.43,101.09,101.18C-3165.12-1620.52-3210.45-1575.24-3266.04-1575.21z M-3266.37-1597.67
	c43.29,0.13,78.71-35,78.87-78.23c0.17-43.31-34.92-78.76-78.13-78.96c-43.48-0.19-78.98,35.01-79.06,78.41
	C-3344.76-1633.16-3309.6-1597.79-3266.37-1597.67z"/>
<path class="st4" d="M1151.07-1399.69c-6.65-3.07-8.42-8.35-8.28-15.45c1.33-68.78,53.78-129.91,121.48-140.99
	c8.45-1.38,17.09-1.97,25.66-2.16c15.08-0.34,30.19-0.52,45.26,0c58.02,2.03,100.42,29.52,128.12,80.03
	c10.78,19.66,15.44,41.12,16.4,63.48c0.3,7.01-1.82,12.07-8.27,15.08C1364.65-1399.69,1257.86-1399.69,1151.07-1399.69z
	 M1456.95-1422.31c-0.96-5.63-1.71-10.81-2.75-15.92c-11.22-54.94-61.74-96.89-117.71-97.63c-16.83-0.22-33.68-0.28-50.51,0.08
	c-7.31,0.15-14.78,0.79-21.87,2.47c-48,11.35-79.17,41.02-93.94,87.9c-2.32,7.36-3.22,15.17-4.85,23.1
	C1262.97-1422.31,1359.58-1422.31,1456.95-1422.31z"/>
<path class="st4" d="M1311.3-1580.84c-55.73,0.02-101.17-45.46-101.09-101.19c0.08-55.59,45.4-100.88,101-100.9
	c55.75-0.02,101.17,45.43,101.09,101.18C1412.23-1626.15,1366.9-1580.86,1311.3-1580.84z M1310.98-1603.29
	c43.29,0.13,78.71-35,78.87-78.23c0.17-43.31-34.92-78.76-78.13-78.96c-43.48-0.19-78.98,35.01-79.06,78.41
	C1232.59-1638.78,1267.74-1603.42,1310.98-1603.29z"/>
<path class="st4" d="M-3263.2-394.79c-27.95,0-55.89,0.08-83.84-0.02c-26.99-0.1-49.15-17.26-55.86-42.85
	c-2.36-9.01-1.62-18.05-0.86-27.13c2.47-29.32,4.89-58.64,7.35-87.97c1.63-19.38,3.32-38.76,4.89-58.14
	c0.26-3.21,0.52-6.55-0.07-9.67c-1.5-7.95-8.3-13.54-16.47-13.71c-9.23-0.19-18.46,0.03-27.69-0.11
	c-8.34-0.13-13.72-6.37-12.47-14.18c0.76-4.72,4.65-9.35,9.35-9.42c12.7-0.17,25.55-0.86,38.07,0.74
	c14.78,1.89,24.94,11.31,30.54,25.13c1.2,2.96,2.56,3.82,5.62,3.81c64.87-0.09,129.75-0.09,194.62-0.05
	c26.47,0.02,48.26,15.75,55.2,40.37c1.73,6.12,2.58,12.83,2.18,19.17c-2.43,38.58-5.44,77.12-8.02,115.68
	c-0.67,9.97-2.32,19.59-7.37,28.29c-11.41,19.66-28.67,29.76-51.33,29.99C-3207.31-394.58-3235.26-394.79-3263.2-394.79z
	 M-3367.93-604.16c-0.13,0.99-0.27,1.83-0.34,2.68c-2.17,25.72-4.34,51.44-6.5,77.17c-1.88,22.49-3.49,45.01-5.7,67.47
	c-2.09,21.22,12.12,37.98,33.4,38.04c55.9,0.15,111.81,0.12,167.71,0.01c19.21-0.04,33.36-14.04,34.54-33.21
	c1.19-19.17,2.84-38.31,4.12-57.47c0.7-10.43,0.97-20.89,1.58-31.33c0.41-6.95,1.2-13.89,1.59-20.84
	c0.32-5.78,1.31-11.79,0.23-17.34c-3.02-15.43-15.99-25.32-32.13-25.33c-65.01-0.04-130.02-0.02-195.04-0.01
	C-3365.55-604.32-3366.65-604.22-3367.93-604.16z"/>
<path class="st4" d="M-3209-315.08c-17.88-0.1-31.91-14.32-31.79-32.23c0.12-17.53,14.57-31.71,32.16-31.55
	c17.75,0.16,31.75,14.54,31.61,32.49C-3177.16-329.03-3191.51-314.99-3209-315.08z M-3200.99-347.06c-0.05-4.29-3.55-7.81-7.84-7.85
	c-4.43-0.05-8.04,3.6-7.99,8.07c0.05,4.38,3.45,7.76,7.83,7.79C-3204.44-339.02-3200.94-342.53-3200.99-347.06z"/>
<path class="st4" d="M-3336.78-315.09c-17.67-0.08-31.9-14.27-31.91-31.83c-0.01-17.65,14.55-32.09,32.23-31.95
	c17.6,0.14,31.66,14.38,31.65,32.08C-3304.8-329.23-3319.15-315.01-3336.78-315.09z M-3336.82-339.06c4.57,0.04,8.07-3.43,8.04-7.97
	c-0.03-4.32-3.51-7.82-7.82-7.88c-4.4-0.06-8.15,3.65-8.11,8.03C-3344.67-342.62-3341.12-339.09-3336.82-339.06z"/>
<path class="st3" d="M-617.43,787.71c-27.95,0-55.89,0.08-83.84-0.02c-26.99-0.1-49.15-17.26-55.87-42.85
	c-2.36-9.01-1.62-18.05-0.86-27.13c2.47-29.32,4.89-58.64,7.35-87.97c1.63-19.38,3.32-38.76,4.89-58.14
	c0.26-3.21,0.52-6.55-0.07-9.67c-1.5-7.95-8.3-13.54-16.47-13.71c-9.23-0.19-18.46,0.03-27.69-0.11
	c-8.34-0.13-13.72-6.37-12.47-14.18c0.76-4.72,4.65-9.35,9.35-9.42c12.7-0.17,25.55-0.86,38.07,0.74
	c14.78,1.89,24.94,11.31,30.54,25.13c1.2,2.96,2.56,3.82,5.62,3.81c64.87-0.09,129.75-0.09,194.62-0.05
	c26.47,0.02,48.26,15.75,55.2,40.37c1.73,6.12,2.58,12.83,2.18,19.16c-2.43,38.58-5.44,77.12-8.02,115.69
	c-0.67,9.97-2.32,19.59-7.37,28.29c-11.41,19.66-28.67,29.76-51.33,29.99C-561.54,787.93-589.49,787.71-617.43,787.71z
	 M-722.16,578.35c-0.13,0.99-0.27,1.83-0.34,2.68c-2.17,25.72-4.34,51.44-6.5,77.17c-1.88,22.49-3.49,45.01-5.7,67.47
	c-2.09,21.22,12.12,37.98,33.4,38.04c55.9,0.15,111.81,0.12,167.71,0.01c19.21-0.04,33.36-14.04,34.54-33.21
	c1.19-19.17,2.84-38.31,4.13-57.47c0.7-10.43,0.97-20.89,1.58-31.33c0.41-6.95,1.2-13.89,1.59-20.84
	c0.32-5.78,1.31-11.79,0.23-17.34c-3.02-15.43-15.99-25.32-32.13-25.33c-65.01-0.04-130.02-0.02-195.04-0.01
	C-719.78,578.19-720.88,578.29-722.16,578.35z"/>
<path class="st3" d="M-563.23,867.42c-17.88-0.1-31.91-14.32-31.79-32.23c0.12-17.53,14.57-31.71,32.16-31.55
	c17.75,0.16,31.75,14.54,31.61,32.49C-531.39,853.47-545.74,867.52-563.23,867.42z M-555.22,835.45c-0.05-4.29-3.55-7.81-7.84-7.85
	c-4.43-0.05-8.04,3.6-7.99,8.07c0.05,4.38,3.45,7.76,7.83,7.79C-558.67,843.48-555.17,839.98-555.22,835.45z"/>
<path class="st3" d="M-691.01,867.42c-17.67-0.08-31.9-14.27-31.91-31.83c-0.01-17.65,14.55-32.09,32.23-31.95
	c17.6,0.14,31.66,14.38,31.65,32.08C-659.03,853.28-673.38,867.5-691.01,867.42z M-691.06,843.45c4.57,0.04,8.07-3.43,8.04-7.97
	c-0.03-4.32-3.51-7.82-7.82-7.88c-4.4-0.06-8.15,3.65-8.11,8.03C-698.9,839.89-695.35,843.41-691.06,843.45z"/>
<path class="st2" d="M-3025.39,611.97c0,12.05,0,23.79,0,35.54c0,0.94-0.2,1.95,0.05,2.82c0.37,1.29,0.77,2.96,1.72,3.54
	c0.64,0.39,2.55-0.52,3.4-1.35c7.03-6.92,13.94-13.97,20.89-20.97c0.72-0.73,1.49-1.41,2.17-2.06c6.56,6.44,12.98,12.75,19.4,19.06
	c1.12,1.1,2.09,2.41,3.35,3.32c1.25,0.91,2.78,1.45,4.18,2.14c0.54-1.45,1.54-2.9,1.56-4.35c0.13-11.33,0.07-22.67,0.07-34.01
	c0-1.14,0-2.28,0-3.7c28.33,0,56.48,0,84.97,0c0,1.18,0,2.31,0,3.43c0,50.91,0,101.82,0,152.73c0,7.28-2.77,10.03-10.09,10.03
	c-68.86,0-137.72,0-206.57,0c-7.27,0-10.05-2.79-10.05-10.07c0-50.91,0-101.82,0-152.73c0-1.04,0-2.08,0-3.39
	C-3082.04,611.97-3053.9,611.97-3025.39,611.97z"/>
<path class="st2" d="M-3025.56,533.76c0,24.53,0,48.52,0,72.89c-1.29,0-2.42,0-3.54,0c-28.44,0-56.88,0-85.32,0
	c-7.47,0-10.19-2.75-10.2-10.31c-0.01-17.42-0.01-34.84,0-52.27c0-7.6,2.69-10.31,10.17-10.31c28.44,0,56.88,0,85.32,0
	C-3028,533.76-3026.87,533.76-3025.56,533.76z"/>
<path class="st2" d="M-2968.42,606.49c0-24.26,0-48.33,0-72.73c1.27,0,2.4,0,3.52,0c28.44,0,56.88,0,85.32,0
	c7.51,0,10.2,2.7,10.2,10.28c0.01,17.53,0.02,35.05,0,52.58c-0.01,7.27-2.81,10.02-10.16,10.02c-28.55,0.01-57.09,0-85.64,0
	C-2966.2,606.64-2967.22,606.55-2968.42,606.49z"/>
<path class="st2" d="M-2973.82,534.02c0,36.97,0,73.83,0,111.13c-2.96-2.91-5.64-5.5-8.28-8.13c-3.86-3.86-7.67-7.77-11.52-11.63
	c-3.13-3.14-3.6-3.09-6.85,0.09c-6.52,6.37-13.08,12.71-19.61,19.05c0-36.54,0-73.39,0-110.5
	C-3004.87,534.02-2989.51,534.02-2973.82,534.02z"/>
<path class="st2" d="M-2981.96,498.9c18.71-16.49,39.63-27.01,64.66-28.18c2.68-0.12,4.46,0.66,6.14,2.8
	c6.03,7.68,10.54,16.11,13.2,25.52c0.28,0.97,0.46,1.98,0.79,3.43c-27.54-5.75-52.06,2.24-75.87,14.91
	C-2972.78,509.54-2975.74,503.47-2981.96,498.9z"/>
<path class="st2" d="M-3021.56,517.05c-23.33-12.47-47.79-20.22-75.32-14.61c0.53-2.01,0.88-3.6,1.36-5.15
	c2.76-8.91,7.19-16.92,13.04-24.19c1.38-1.72,2.84-2.45,5.07-2.38c19.57,0.63,37.04,7.3,52.95,18.37c4.2,2.92,8.13,6.25,12.01,9.25
	c-2.31,3.04-4.89,5.6-6.39,8.68C-3020.32,510.03-3020.68,513.58-3021.56,517.05z"/>
<path class="st2" d="M-3098.3,528.55c0-6.52-0.12-12.68,0.14-18.82c0.04-0.85,1.83-2.06,2.99-2.35c11.21-2.79,22.47-2.16,33.67,0.12
	c12.82,2.6,24.86,7.31,36.41,13.42c3.27,1.73,5.15,3.67,4.25,7.64C-3046.4,528.55-3072.05,528.55-3098.3,528.55z"/>
<path class="st2" d="M-2973.2,528.57c-0.72-3.71,0.78-5.75,3.99-7.45c17.35-9.2,35.51-15.53,55.37-15.51
	c5.18,0,10.38,1.14,15.54,1.98c0.96,0.16,2.46,1.37,2.49,2.13c0.2,6.24,0.11,12.49,0.11,18.85
	C-2921.93,528.57-2947.58,528.57-2973.2,528.57z"/>
<path class="st2" d="M-2978.56,528.63c-12.46,0-24.41,0-36.9,0c-0.21-6.68-1.59-13.37,1.14-19.76c1.85-4.32,5.48-7,10.24-7.33
	c4.59-0.32,9.24-0.37,13.83-0.04c6.04,0.43,10.88,4.64,11.55,10.64C-2978.08,517.48-2978.56,522.95-2978.56,528.63z"/>
<path class="st2" d="M-3178.36,1605.88c5.32,1.17,10.54,1.85,15.45,3.48c18.66,6.22,31.46,23.45,32.21,43.09
	c0.23,6.11,0.1,12.23,0.1,18.34c0.01,60.27,0.01,120.53,0.06,180.8c0,4.18-0.8,7.92-4.02,10.83c-4.56,4.12-10.55,4.18-16.05,0
	c-15.7-11.91-31.36-23.89-47.03-35.83c-4.17-3.18-8.26-6.46-12.55-9.46c-1.3-0.91-3.18-1.5-4.75-1.41
	c-48.15,2.63-96.28,2.72-144.42-0.24c-13.2-0.81-26.4-1.63-39.56-2.9c-15.5-1.5-27.4-9.22-35.89-22.23
	c-0.27-0.41-0.58-0.8-1.14-1.55c-1.12,0.79-2.22,1.51-3.26,2.3c-10.13,7.7-20.27,15.38-30.35,23.15c-4.32,3.33-8.86,4.58-13.9,1.97
	c-4.86-2.51-6.57-6.76-6.57-12.08c0.05-65.51,0-131.01,0.08-196.52c0.03-26.69,18.64-46.71,45.28-48.91
	c45.17-3.74,90.43-5.61,135.75-4.31c28.42,0.82,56.84,2.46,85.21,4.43c25.65,1.78,43.22,20.14,45.16,45.92
	C-3178.5,1605.23-3178.39,1605.7-3178.36,1605.88z M-3154.53,1829.32c0-1.9,0-2.88,0-3.86c-0.01-56.51-0.02-113.02-0.03-169.54
	c0-0.87,0-1.75-0.04-2.62c-0.71-12.79-12.02-23.49-23.89-22.35c0,1.46,0,2.94,0,4.42c0,27.32,0.15,54.64-0.06,81.96
	c-0.18,24.46-17.92,44.49-42.06,47.14c-15.36,1.69-30.81,2.69-46.25,3.52c-44.76,2.4-89.55,2.5-134.3-0.11
	c-6.54-0.38-10.92,1.73-15.14,6.28c3.46,7.56,9.06,12.63,17.4,14.26c3.16,0.62,6.43,0.77,9.67,0.94
	c26.78,1.43,53.54,3.72,80.33,3.98c31.91,0.31,63.85-1.02,95.77-1.9c5.81-0.16,10.68,0.92,15.18,4.73
	c5.23,4.43,10.85,8.39,16.31,12.54C-3172.84,1815.41-3164.03,1822.1-3154.53,1829.32z M-3394.16,1658.99
	c0.04-9.82-7.89-17.92-17.68-18.05c-9.99-0.13-18.2,7.91-18.24,17.86c-0.04,9.81,7.9,17.92,17.68,18.06
	C-3402.43,1676.99-3394.2,1668.94-3394.16,1658.99z M-3316.28,1658.89c-0.01-9.81-7.99-17.86-17.79-17.94
	c-9.98-0.08-18.14,8.01-18.13,17.97c0.01,9.81,7.99,17.87,17.78,17.95C-3324.45,1676.94-3316.28,1668.84-3316.28,1658.89z
	 M-3238.41,1658.87c-0.01-9.81-8-17.86-17.8-17.93c-9.98-0.07-18.13,8.02-18.12,17.98c0.01,9.8,8.01,17.86,17.8,17.93
	C-3246.56,1676.93-3238.4,1668.83-3238.41,1658.87z"/>
<path class="st5" d="M-634.85-390.56c-42.17,0-84.34,0.04-126.5-0.02c-20.9-0.03-38.72-11.86-45.63-30.85
	c-2.05-5.63-3.23-11.91-3.28-17.9c-0.29-37.87-0.19-75.75-0.12-113.62c0.02-13.5,4.83-25.1,14.4-34.68
	c42.35-42.42,84.65-84.89,127.05-127.26c19.41-19.4,49-19.45,68.43-0.05c42.51,42.44,84.89,85,127.31,127.53
	c9.36,9.38,14.12,20.82,14.16,34.02c0.12,38.25,0.24,76.5-0.03,114.75c-0.2,27.39-21.37,48-48.92,48.05
	C-550.27-390.49-592.56-390.56-634.85-390.56z M-635.06-454.72c0,0.01,0,0.02,0,0.04c10.47,0,20.94,0.26,31.4-0.15
	c3.54-0.14,7.43-1.31,10.41-3.19c5.7-3.61,7.69-10.75,5.74-17.22c-1.98-6.58-7.68-11.2-14.69-11.24
	c-21.68-0.12-43.36-0.05-65.04-0.02c-1.35,0-2.74,0.24-4.03,0.63c-7.49,2.26-12.25,9.66-11.22,17.32
	c1.04,7.72,7.38,13.65,15.29,13.79C-656.49-454.58-645.77-454.72-635.06-454.72z"/>
<path class="st3" d="M-634.82-1421.58c-42.17,0-84.34,0.04-126.5-0.02c-20.9-0.03-38.72-11.86-45.63-30.85
	c-2.05-5.63-3.23-11.91-3.28-17.9c-0.29-37.87-0.19-75.75-0.12-113.62c0.02-13.5,4.83-25.1,14.4-34.68
	c42.35-42.42,84.65-84.89,127.05-127.26c19.41-19.4,49-19.45,68.43-0.05c42.51,42.44,84.89,85,127.31,127.53
	c9.36,9.38,14.12,20.82,14.16,34.02c0.12,38.25,0.24,76.5-0.03,114.75c-0.2,27.39-21.37,48-48.92,48.05
	C-550.24-1421.52-592.53-1421.58-634.82-1421.58z M-635.02-1485.74c0,0.01,0,0.02,0,0.04c10.47,0,20.94,0.26,31.4-0.15
	c3.54-0.14,7.43-1.31,10.41-3.19c5.7-3.6,7.69-10.75,5.74-17.22c-1.98-6.58-7.68-11.2-14.69-11.24
	c-21.68-0.12-43.36-0.05-65.04-0.02c-1.35,0-2.74,0.24-4.03,0.63c-7.49,2.26-12.25,9.66-11.22,17.32
	c1.04,7.72,7.38,13.65,15.29,13.79C-656.46-1485.6-645.74-1485.74-635.02-1485.74z"/>
<path class="st2" d="M1032.71,645.28c3.74,3.58,7.58,7.14,11.28,10.83c16.56,16.47,33.12,32.94,49.56,49.54
	c1.74,1.76,3.19,4.2,3.8,6.57c0.8,3.15-0.79,5.9-3.67,7.53c-2.96,1.67-6.01,1.58-8.8-0.5c-1.19-0.89-2.24-1.99-3.3-3.05
	c-19.02-18.96-38.03-37.93-57.02-56.91c-0.96-0.96-1.72-2.13-2.68-3.32c-28.88,24.22-61.47,33.96-98.1,28.41
	c-30.7-4.65-55.94-19.52-75.21-43.81c-38.65-48.72-33.86-118.31,10.77-160.78c44.77-42.6,114.71-44.44,160.95-5.01
	C1069.37,516.63,1078.22,592.85,1032.71,645.28z M1046.46,566.06c-0.06-57.44-46.43-103.71-103.93-103.73
	c-57.44-0.02-104.01,46.38-104.04,103.66c-0.03,57.55,46.52,103.97,104.17,103.87C1000.23,669.77,1046.53,623.47,1046.46,566.06z"/>
</svg>
