<?xml version="1.0" encoding="utf-8"?>
<!-- Generator: Adobe Illustrator 27.1.1, SVG Export Plug-In . SVG Version: 6.00 Build 0)  -->
<svg version="1.1" id="Layer_1" xmlns="http://www.w3.org/2000/svg" xmlns:xlink="http://www.w3.org/1999/xlink" x="0px" y="0px"
	 viewBox="0 0 1920 1080" style="enable-background:new 0 0 1920 1080;" xml:space="preserve">
<style type="text/css">
	.st0{fill:#009245;}
	.st1{fill:#FFFFFF;}
	.st2{fill:#2E3192;}
</style>
<circle class="st0" cx="960" cy="-1660" r="271.43"/>
<path class="st1" d="M1002.77-1532.66c-4.31-0.72-8.65-1.29-12.93-2.17c-11.43-2.36-22.13-6.83-32.54-11.97
	c-41.22-20.37-74.23-50.13-100-88.05c-11.19-16.46-20.12-34.09-26.05-53.12c-3.45-11.07-5.47-22.37-3.17-34.04
	c1.09-5.52,3.47-10.38,7.38-14.38c6.73-6.87,13.49-13.72,20.44-20.37c8.7-8.32,18.44-8.34,27.08,0.07
	c10.1,9.83,19.99,19.88,29.89,29.91c4.42,4.47,7.27,9.67,6.29,16.27c-0.73,4.92-3.54,8.67-6.92,12.07
	c-5.62,5.64-11.28,11.23-16.91,16.86c-2.92,2.92-2.98,3.69-1.31,7.43c6.41,14.37,16.23,26.33,26.77,37.75
	c10.5,11.38,22.05,21.57,35.19,29.82c4.48,2.81,9.3,5.06,13.96,7.58c2.17,1.18,3.78,0.26,5.3-1.27
	c5.79-5.82,11.54-11.68,17.41-17.42c1.76-1.73,3.68-3.38,5.78-4.65c6.68-4.05,14.01-3.41,20.07,1.54c1.22,0.99,2.41,2.04,3.52,3.15
	c9.4,9.36,18.85,18.67,28.12,28.17c2.28,2.33,4.4,5.06,5.75,8c2.91,6.31,1.78,12.62-2.75,17.62c-7.35,8.1-15.12,15.82-22.98,23.43
	c-4.32,4.19-9.87,6.28-15.81,7.26c-0.72,0.12-1.43,0.35-2.15,0.52C1009.07-1532.66,1005.92-1532.66,1002.77-1532.66z"/>
<path class="st1" d="M1081.87-1668.01c-6.42,1.16-12.84,2.31-19.56,3.52c-4.87-26.89-16.87-49.88-36.34-68.8
	c-19.49-18.94-42.79-30.31-70.12-34.44c0.91-6.57,1.81-13.06,2.72-19.61c16.36,2.3,31.69,7.08,46.16,14.53
	c19.92,10.26,36.61,24.42,50.07,42.33c13.03,17.34,21.75,36.67,26.1,57.94c0.24,1.2,0.65,2.36,0.98,3.54
	C1081.87-1668.67,1081.87-1668.34,1081.87-1668.01z"/>
<path class="st1" d="M955.96-1736.29c34.46,3.94,67.48,32.12,74.18,71.79c-6.38,1.1-12.77,2.2-19.2,3.31
	c-7.24-30.96-26.33-49.51-57.65-55.93C954.17-1723.45,955.06-1729.87,955.96-1736.29z"/>
<circle class="st2" cx="960" cy="-560" r="278.01"/>
<path class="st1" d="M972.99-415.75c-19.32-0.74-35.69-0.94-51.99-2.11c-14.51-1.04-27.68-5.8-37.04-17.91
	c-6.4-8.29-9.61-17.97-10.75-28.15c-1.93-17.23-3.39-34.52-4.68-51.82c-1.89-25.35-3.44-50.73-5.14-76.09
	c-0.25-3.75-0.57-7.5-0.74-11.25c-0.28-6.23,4.29-11.32,10.29-11.56c5.67-0.23,10.45,4.2,10.87,10.26c2.01,29.55,3.83,59.12,6,88.66
	c1.22,16.63,2.99,33.22,4.54,49.83c0.13,1.42,0.5,2.83,0.83,4.22c3.53,14.74,11.08,21.29,27.07,22.62
	c10.23,0.85,20.52,1.28,30.79,1.31c18.9,0.05,37.81-0.2,56.7-0.62c5.15-0.11,10.34-0.99,15.41-2.03c9.49-1.93,16.19-7.66,18.3-17.09
	c2.26-10.09,3.91-20.4,4.72-30.7c2.48-31.62,4.43-63.29,6.58-94.94c0.48-7.06,0.91-14.12,1.43-21.17
	c0.46-6.22,5.36-10.74,11.11-10.33c6.04,0.42,10.46,5.49,10.04,11.78c-2.06,30.99-4.07,61.98-6.33,92.96
	c-1.12,15.31-2.5,30.61-4.19,45.87c-0.94,8.48-3.47,16.64-7.94,24.05c-8,13.26-20.39,19.98-35.21,21.38
	C1005.86-416.89,987.94-416.53,972.99-415.75z"/>
<path class="st1" d="M970.01-628.76c-39.69,0-79.39,0.01-119.08-0.01c-6.93,0-11.65-4.15-11.8-10.28
	c-0.15-6.31,4.46-10.91,11.12-10.93c13.71-0.05,27.42-0.01,41.13-0.02c9.7-0.01,15.77-4.38,18.86-13.55
	c1.06-3.14,1.96-6.35,3.3-9.36c5.47-12.25,15.03-19.11,28.38-19.42c18.68-0.43,37.37-0.2,56.05-0.07
	c12.55,0.09,23.91,8.04,28.55,19.74c1.38,3.48,2.47,7.09,3.75,10.61c2.69,7.43,9.05,12.01,16.93,12.04
	c13.93,0.06,27.86,0.01,41.79,0.02c7.09,0.01,11.82,4.26,11.84,10.57c0.02,6.34-4.7,10.65-11.76,10.65
	C1049.39-628.75,1009.7-628.76,970.01-628.76z M1011.99-650.09c-1.72-4.98-3.22-9.59-4.92-14.12c-1.63-4.37-4.91-6.91-9.56-6.94
	c-18.35-0.11-36.7-0.09-55.05-0.01c-4.07,0.02-7.39,1.99-8.98,5.76c-2.09,4.94-3.68,10.08-5.55,15.31
	C956.07-650.09,983.91-650.09,1011.99-650.09z"/>
<path class="st1" d="M952.12-499.87c0.33,7.18-3.5,12.04-9.33,12.54c-6.19,0.53-11.05-3.39-11.74-9.96
	c-1.93-18.34-3.69-36.71-5.51-55.06c-0.49-4.95-1.07-9.89-1.4-14.85c-0.43-6.5,3.49-11.38,9.33-11.88
	c6.35-0.54,11.07,3.47,11.8,10.28c1.21,11.31,2.29,22.64,3.41,33.96C949.86-522.96,951.02-511.09,952.12-499.87z"/>
<path class="st1" d="M987.88-500.31c1.6-16.05,3.29-32.98,4.98-49.9c0.6-6.05,1.17-12.09,1.78-18.14c0.6-5.94,4.09-10.01,9.1-10.68
	c7.01-0.93,12.62,4.14,12.08,11.4c-0.76,10.24-1.89,20.46-2.9,30.68c-1.26,12.75-2.59,25.49-3.82,38.25
	c-0.62,6.41-3.96,10.66-9.18,11.34C992.68-486.43,987.43-491.66,987.88-500.31z"/>
<path class="st1" d="M959.95,422.02c14.9,0,29.8-0.2,44.69,0.06c15.06,0.26,26.87,6.89,34.52,19.9
	c15.16,25.81,30.11,51.74,44.93,77.75c7.53,13.22,7.49,26.82-0.04,40.03c-14.78,25.93-29.72,51.77-44.8,77.52
	c-7.69,13.13-19.52,19.93-34.69,20.05c-29.88,0.23-59.76,0.24-89.64,0c-15.05-0.12-26.87-6.88-34.52-19.89
	c-15.2-25.89-30.23-51.88-45.05-77.98c-7.4-13.03-7.38-26.52,0.04-39.56c14.72-25.86,29.64-51.61,44.63-77.32
	c7.88-13.51,19.9-20.34,35.51-20.52C930.33,421.89,945.14,422.02,959.95,422.02z M959.71,438.84c-15.07,0-30.15-0.14-45.21,0.06
	c-8.38,0.11-15.12,3.89-19.35,11.15c-15.22,26.08-30.32,52.22-45.31,78.43c-4.22,7.38-4.17,15.18,0.06,22.55
	c14.96,26.13,30.02,52.2,45.18,78.21c4.29,7.37,11.08,11.23,19.55,11.27c30.14,0.15,60.29,0.15,90.43-0.01
	c8.36-0.04,15.12-3.88,19.36-11.15c15.21-26.08,30.32-52.23,45.3-78.44c4.22-7.37,4.17-15.18-0.06-22.56
	c-14.91-26.05-29.94-52.04-45.04-77.99c-4.39-7.55-11.25-11.42-19.96-11.5C989.68,438.74,974.69,438.84,959.71,438.84z"/>
<path class="st1" d="M961.45,489.96c27.89,1.45,49.51,24.61,48.08,51.49c-1.48,27.78-24.52,49.33-51.31,48
	c-28-1.39-49.71-24.64-48.21-51.63C911.56,510.07,934.66,488.57,961.45,489.96z M992.76,539.66c-0.04-18.05-15-32.97-33.03-32.93
	c-18.06,0.04-32.97,14.99-32.94,33.02c0.03,18.04,15.01,32.98,33.03,32.94C977.87,572.64,992.79,557.68,992.76,539.66z"/>
</svg>
