<?xml version="1.0" encoding="utf-8"?>
<!-- Generator: Adobe Illustrator 27.1.1, SVG Export Plug-In . SVG Version: 6.00 Build 0)  -->
<svg version="1.1" id="Layer_1" xmlns="http://www.w3.org/2000/svg" xmlns:xlink="http://www.w3.org/1999/xlink" x="0px" y="0px"
	 viewBox="0 0 1920 1080" style="enable-background:new 0 0 1920 1080;" xml:space="preserve">
<style type="text/css">
	.st0{fill:#009245;}
	.st1{fill:#2E3192;}
	.st2{fill:#FFFFFF;}
</style>
<circle class="st0" cx="-1024.6" cy="552.17" r="318.64"/>
<circle class="st1" cx="1001.86" cy="552.17" r="318.64"/>
<g>
	<path class="st2" d="M-963.12,722.88c-5.78-0.96-11.6-1.73-17.33-2.91c-15.33-3.17-29.67-9.15-43.62-16.05
		c-55.27-27.31-99.51-67.2-134.06-118.04c-15-22.07-26.98-45.7-34.92-71.22c-4.62-14.84-7.34-30-4.25-45.64
		c1.46-7.4,4.65-13.92,9.9-19.28c9.02-9.21,18.09-18.39,27.4-27.31c11.66-11.16,24.73-11.18,36.31,0.1
		c13.54,13.18,26.8,26.65,40.07,40.1c5.92,6,9.74,12.97,8.43,21.82c-0.97,6.59-4.74,11.63-9.27,16.18
		c-7.53,7.56-15.12,15.06-22.67,22.6c-3.92,3.91-4,4.94-1.76,9.95c8.59,19.27,21.76,35.29,35.89,50.61
		c14.07,15.26,29.56,28.92,47.18,39.98c6,3.77,12.47,6.78,18.71,10.17c2.91,1.58,5.07,0.35,7.11-1.7
		c7.76-7.81,15.48-15.65,23.34-23.35c2.36-2.31,4.94-4.53,7.75-6.24c8.96-5.42,18.78-4.57,26.91,2.07c1.63,1.33,3.22,2.73,4.72,4.22
		c12.6,12.55,25.28,25.03,37.69,37.76c3.05,3.13,5.9,6.79,7.71,10.72c3.9,8.46,2.39,16.92-3.69,23.62
		c-9.85,10.85-20.27,21.2-30.8,31.41c-5.79,5.61-13.23,8.42-21.19,9.73c-0.97,0.16-1.92,0.46-2.88,0.7
		C-954.67,722.88-958.9,722.88-963.12,722.88z"/>
	<path class="st2" d="M-857.07,541.43c-8.61,1.55-17.22,3.1-26.23,4.72c-6.53-36.05-22.62-66.87-48.72-92.24
		c-26.12-25.4-57.37-40.64-94-46.17c1.22-8.81,2.43-17.51,3.64-26.29c21.93,3.08,42.49,9.49,61.88,19.48
		c26.71,13.76,49.08,32.74,67.12,56.75c17.47,23.25,29.16,49.16,34.99,77.68c0.33,1.6,0.87,3.16,1.32,4.74
		C-857.07,540.54-857.07,540.99-857.07,541.43z"/>
	<path class="st2" d="M-1025.88,449.89c46.2,5.29,90.46,43.06,99.44,96.24c-8.55,1.47-17.11,2.95-25.74,4.44
		c-9.7-41.5-35.3-66.37-77.29-74.97C-1028.28,467.1-1027.08,458.49-1025.88,449.89z"/>
</g>
<g>
	<path class="st2" d="M1013.53,739.49c-25.31-0.97-46.76-1.23-68.11-2.77c-19.02-1.37-36.27-7.59-48.53-23.46
		c-8.39-10.86-12.59-23.55-14.09-36.88c-2.53-22.58-4.45-45.23-6.13-67.89c-2.47-33.21-4.51-66.46-6.74-99.69
		c-0.33-4.91-0.75-9.82-0.98-14.74c-0.37-8.16,5.62-14.83,13.48-15.14c7.43-0.3,13.7,5.5,14.24,13.44
		c2.63,38.72,5.02,77.46,7.86,116.16c1.6,21.79,3.91,43.53,5.95,65.28c0.17,1.86,0.65,3.7,1.09,5.53
		c4.63,19.31,14.51,27.89,35.47,29.63c13.4,1.11,26.89,1.68,40.34,1.72c24.76,0.07,49.53-0.26,74.29-0.81
		c6.75-0.15,13.55-1.3,20.19-2.66c12.44-2.53,21.21-10.04,23.98-22.39c2.96-13.22,5.13-26.73,6.18-40.23
		c3.25-41.43,5.8-82.92,8.62-124.38c0.63-9.25,1.19-18.5,1.88-27.74c0.6-8.15,7.02-14.07,14.55-13.54
		c7.91,0.55,13.71,7.2,13.16,15.44c-2.7,40.6-5.34,81.21-8.29,121.79c-1.46,20.06-3.27,40.11-5.49,60.1
		c-1.24,11.11-4.55,21.81-10.4,31.51c-10.48,17.38-26.71,26.18-46.13,28.01C1056.59,738.01,1033.12,738.47,1013.53,739.49z"/>
	<path class="st2" d="M1009.62,460.42c-52.01,0-104.01,0.01-156.02-0.01c-9.08,0-15.27-5.44-15.46-13.47
		c-0.2-8.26,5.84-14.29,14.57-14.32c17.96-0.06,35.93-0.01,53.89-0.02c12.71-0.01,20.66-5.74,24.72-17.76
		c1.39-4.11,2.57-8.32,4.33-12.27c7.16-16.05,19.69-25.04,37.19-25.44c24.47-0.56,48.96-0.27,73.44-0.1
		c16.45,0.11,31.33,10.54,37.41,25.86c1.81,4.57,3.23,9.28,4.91,13.91c3.52,9.73,11.85,15.73,22.18,15.78
		c18.25,0.07,36.51,0.01,54.76,0.03c9.29,0.01,15.49,5.58,15.51,13.85c0.02,8.3-6.16,13.95-15.41,13.95
		C1113.64,460.43,1061.63,460.42,1009.62,460.42z M1064.63,432.47c-2.26-6.52-4.22-12.56-6.44-18.5c-2.13-5.72-6.43-9.06-12.52-9.09
		c-24.04-0.14-48.08-0.12-72.13-0.01c-5.33,0.02-9.69,2.61-11.77,7.54c-2.73,6.47-4.82,13.21-7.27,20.06
		C991.36,432.47,1027.83,432.47,1064.63,432.47z"/>
	<path class="st2" d="M986.19,629.29c0.44,9.4-4.58,15.77-12.22,16.43c-8.11,0.69-14.48-4.45-15.38-13.05
		c-2.53-24.03-4.84-48.09-7.22-72.14c-0.64-6.48-1.4-12.95-1.83-19.45c-0.57-8.52,4.58-14.91,12.22-15.56
		c8.32-0.71,14.5,4.54,15.46,13.47c1.59,14.82,3,29.66,4.47,44.49C983.22,599.03,984.74,614.59,986.19,629.29z"/>
	<path class="st2" d="M1033.04,628.7c2.1-21.03,4.32-43.21,6.52-65.38c0.79-7.92,1.53-15.84,2.33-23.76
		c0.78-7.78,5.36-13.12,11.92-13.99c9.18-1.21,16.54,5.42,15.83,14.93c-1,13.42-2.48,26.8-3.8,40.2c-1.65,16.71-3.4,33.4-5,50.11
		c-0.81,8.4-5.19,13.96-12.02,14.85C1039.33,646.89,1032.45,640.04,1033.04,628.7z"/>
</g>
<path class="st2" d="M959.95,2622.02c14.9,0,29.8-0.2,44.69,0.06c15.06,0.26,26.87,6.89,34.52,19.9
	c15.16,25.81,30.11,51.74,44.93,77.75c7.53,13.22,7.49,26.82-0.04,40.03c-14.78,25.93-29.72,51.77-44.8,77.52
	c-7.69,13.13-19.52,19.93-34.69,20.05c-29.88,0.23-59.76,0.24-89.64,0c-15.05-0.12-26.87-6.88-34.52-19.89
	c-15.2-25.89-30.23-51.88-45.05-77.98c-7.4-13.03-7.38-26.52,0.04-39.56c14.72-25.86,29.64-51.61,44.63-77.32
	c7.88-13.51,19.9-20.34,35.51-20.52C930.33,2621.89,945.14,2622.02,959.95,2622.02z M959.71,2638.84c-15.07,0-30.15-0.14-45.21,0.05
	c-8.38,0.11-15.12,3.89-19.35,11.15c-15.22,26.08-30.32,52.22-45.31,78.43c-4.22,7.38-4.17,15.18,0.06,22.55
	c14.96,26.13,30.02,52.2,45.18,78.21c4.29,7.37,11.08,11.23,19.55,11.27c30.14,0.15,60.29,0.16,90.43-0.01
	c8.36-0.04,15.12-3.88,19.36-11.15c15.21-26.08,30.32-52.23,45.3-78.44c4.22-7.37,4.17-15.18-0.06-22.56
	c-14.91-26.05-29.94-52.04-45.04-77.99c-4.39-7.55-11.25-11.42-19.96-11.5C989.68,2638.74,974.69,2638.84,959.71,2638.84z"/>
<path class="st2" d="M961.45,2689.96c27.89,1.45,49.51,24.61,48.08,51.49c-1.48,27.78-24.52,49.33-51.31,48
	c-28-1.39-49.71-24.64-48.21-51.63C911.56,2710.07,934.66,2688.57,961.45,2689.96z M992.76,2739.66
	c-0.04-18.05-15-32.97-33.03-32.93c-18.06,0.04-32.97,14.99-32.94,33.02c0.03,18.04,15.01,32.98,33.03,32.94
	C977.87,2772.64,992.79,2757.68,992.76,2739.66z"/>
</svg>
