<?xml version="1.0" encoding="UTF-8"?>
<!-- Generator: visioncortex VTracer 0.6.4 -->
<svg version="1.1" xmlns="http://www.w3.org/2000/svg" width="361" height="345">
<path d="M0 0 C3.12 1.32 6.25 2.63 9.38 3.94 C11.03 4.63 12.69 5.33 14.35 6.02 C22.6 9.48 30.87 12.91 39.14 16.33 C53.07 22.1 66.99 27.89 80.91 33.69 C90.91 37.87 100.91 42.03 110.91 46.19 C111.88 46.59 112.84 46.99 113.84 47.41 C119.4 49.71 124.96 52.02 130.53 54.31 C132.22 55.01 133.92 55.72 135.61 56.42 C137.93 57.38 140.25 58.34 142.58 59.29 C143.25 59.57 143.93 59.85 144.62 60.14 C150.04 62.36 154.65 63.29 160.48 63.36 C161.54 63.39 162.6 63.41 163.7 63.43 C165.9 63.48 168.1 63.51 170.3 63.53 C181.17 63.81 190 66.28 197.96 73.89 C202.73 79.51 205.98 86.45 206.11 93.84 C206.13 94.78 206.15 95.72 206.17 96.69 C206.2 98.21 206.2 98.21 206.22 99.76 C206.25 100.8 206.27 101.84 206.29 102.91 C206.35 106.23 206.41 109.55 206.47 112.87 C206.51 115.12 206.56 117.38 206.6 119.63 C206.71 125.15 206.81 130.67 206.91 136.19 C207.86 136.33 208.8 136.46 209.78 136.61 C213.02 137.21 214.26 137.83 216.66 140 C217.23 140.5 217.8 141 218.39 141.52 C222.32 145.84 222.21 150.18 222.2 155.81 C222.21 156.68 222.21 157.54 222.22 158.44 C222.24 161.31 222.24 164.18 222.24 167.05 C222.25 169.05 222.26 171.05 222.26 173.05 C222.28 177.24 222.28 181.42 222.28 185.61 C222.28 190.97 222.31 196.34 222.34 201.7 C222.36 205.82 222.37 209.95 222.37 214.08 C222.37 216.05 222.38 218.03 222.39 220.01 C222.41 222.77 222.41 225.54 222.39 228.31 C222.41 229.12 222.42 229.93 222.43 230.77 C222.37 236.05 221.35 238.98 217.91 243.19 C214.3 246.7 211.82 247.5 206.91 248.19 C206.9 248.74 206.9 249.29 206.9 249.87 C206.86 255.67 206.79 261.48 206.7 267.29 C206.67 269.45 206.65 271.62 206.64 273.78 C206.62 276.9 206.57 280.02 206.52 283.15 C206.52 284.1 206.52 285.06 206.51 286.04 C206.31 295.58 203.5 303.38 196.9 310.37 C187.75 318.74 179.5 320.49 167.43 320.45 C166.29 320.46 165.14 320.46 163.95 320.47 C160.77 320.48 157.59 320.48 154.42 320.48 C150.98 320.48 147.55 320.49 144.12 320.5 C137.4 320.51 130.68 320.52 123.95 320.52 C118.49 320.52 113.02 320.53 107.56 320.53 C92.05 320.55 76.54 320.56 61.03 320.56 C60.2 320.56 59.36 320.56 58.5 320.56 C57.25 320.56 57.25 320.56 55.97 320.56 C42.41 320.56 28.86 320.58 15.31 320.6 C1.38 320.63 -12.55 320.65 -26.47 320.64 C-34.29 320.64 -42.1 320.65 -49.92 320.67 C-56.57 320.69 -63.23 320.69 -69.88 320.68 C-73.27 320.67 -76.66 320.68 -80.05 320.69 C-83.74 320.71 -87.42 320.7 -91.11 320.68 C-92.17 320.69 -93.23 320.7 -94.32 320.71 C-103.89 320.62 -112.78 318.13 -120.31 312.01 C-128.07 304.07 -130.4 294.43 -130.36 283.67 C-130.36 282.85 -130.37 282.03 -130.37 281.18 C-130.39 278.46 -130.38 275.73 -130.38 273 C-130.39 271.04 -130.39 269.07 -130.4 267.11 C-130.42 261.79 -130.42 256.47 -130.43 251.15 C-130.43 247.82 -130.43 244.49 -130.44 241.17 C-130.46 229.55 -130.46 217.93 -130.46 206.31 C-130.46 195.5 -130.48 184.68 -130.51 173.87 C-130.54 164.57 -130.55 155.27 -130.55 145.97 C-130.55 140.42 -130.55 134.88 -130.58 129.33 C-130.59 124.11 -130.59 118.89 -130.58 113.67 C-130.58 111.76 -130.58 109.85 -130.6 107.94 C-130.68 94.39 -129.92 82.56 -120.09 72.19 C-111.37 64.16 -101.12 63.75 -89.82 63.75 C-88.42 63.72 -88.42 63.72 -86.98 63.69 C-86.13 63.69 -85.29 63.69 -84.42 63.68 C-81.1 62.98 -80.15 61.9 -78.09 59.19 C-76.6 56.18 -75.41 53.09 -74.23 49.95 C-73.87 49.04 -73.52 48.13 -73.15 47.19 C-72.02 44.28 -70.9 41.36 -69.78 38.44 C-61.18 16.15 -61.18 16.15 -57.36 7.17 C-56.85 5.96 -56.33 4.74 -55.81 3.49 C-43.21 -20.79 -19.06 -8.04 0 0 Z M-39.78 10.16 C-42.49 14.35 -44.15 19.01 -45.95 23.64 C-46.39 24.74 -46.83 25.83 -47.28 26.96 C-48.2 29.27 -49.11 31.58 -50.01 33.89 C-51.41 37.44 -52.81 40.99 -54.23 44.53 C-55.12 46.77 -56 49.02 -56.89 51.26 C-57.31 52.33 -57.74 53.39 -58.17 54.49 C-58.75 55.96 -58.75 55.96 -59.33 57.46 C-59.85 58.76 -59.85 58.76 -60.37 60.09 C-61.2 62.13 -61.2 62.13 -61.09 64.19 C-58.67 64.29 -56.26 64.37 -53.84 64.44 C-53.16 64.47 -52.48 64.5 -51.78 64.54 C-48.68 64.6 -46.52 64.45 -43.86 62.82 C-41.15 58.78 -39.69 54.38 -38.09 49.81 C-33.44 36.67 -33.44 36.67 -30.09 33.19 C-23.81 32.63 -18.89 33.88 -12.98 35.92 C-11.68 36.36 -11.68 36.36 -10.34 36.81 C-7.48 37.76 -4.62 38.74 -1.76 39.71 C0.23 40.39 2.23 41.06 4.23 41.72 C9.47 43.48 14.71 45.26 19.95 47.04 C26.32 49.19 32.69 51.34 39.07 53.48 C44.03 55.15 48.98 56.82 53.94 58.5 C54.85 58.81 55.76 59.11 56.7 59.43 C58.39 60.01 60.09 60.58 61.79 61.16 C62.54 61.41 63.29 61.67 64.06 61.93 C64.71 62.15 65.36 62.37 66.03 62.6 C70.74 64.08 75.03 64.32 79.96 64.28 C80.73 64.28 81.5 64.28 82.29 64.28 C84.75 64.27 87.2 64.26 89.66 64.25 C91.33 64.24 92.99 64.24 94.66 64.24 C98.74 64.22 102.83 64.21 106.91 64.19 C104.88 62.16 103.64 61.52 101.03 60.45 C100.22 60.12 99.42 59.79 98.59 59.45 C97.71 59.09 96.82 58.73 95.92 58.36 C95 57.98 94.08 57.61 93.13 57.22 C91.14 56.4 89.15 55.59 87.16 54.78 C84 53.49 80.85 52.19 77.69 50.9 C74.48 49.58 71.27 48.26 68.06 46.94 C59.04 43.24 50.03 39.51 41.03 35.75 C39.63 35.16 38.23 34.58 36.82 33.99 C33.86 32.76 30.91 31.52 27.95 30.29 C18.72 26.44 9.48 22.59 0.25 18.74 C-2.97 17.4 -6.2 16.05 -9.42 14.71 C-11.4 13.88 -13.38 13.06 -15.37 12.23 C-16.28 11.85 -17.19 11.47 -18.13 11.08 C-20.45 10.11 -22.77 9.15 -25.09 8.19 C-26.06 7.78 -27.02 7.38 -28.01 6.97 C-33.42 4.94 -36.22 5.64 -39.78 10.16 Z M-21.09 51.19 C-21.76 52.81 -22.43 54.44 -23.09 56.06 C-23.46 56.97 -23.83 57.87 -24.22 58.8 C-25.21 61.08 -25.21 61.08 -25.09 63.19 C-12.22 63.19 0.65 63.19 13.91 63.19 C10.68 61.03 7.81 60.03 4.12 58.8 C3.47 58.58 2.81 58.37 2.13 58.14 C0.75 57.68 -0.64 57.22 -2.03 56.76 C-4.15 56.06 -6.27 55.35 -8.4 54.64 C-14.62 52.23 -14.62 52.23 -21.09 51.19 Z M-108.74 85.69 C-112.78 90.88 -113.24 94.58 -113.24 100.97 C-113.24 101.77 -113.25 102.58 -113.25 103.4 C-113.26 106.1 -113.26 108.79 -113.27 111.48 C-113.27 113.41 -113.28 115.34 -113.29 117.27 C-113.31 122.52 -113.32 127.76 -113.32 133.01 C-113.33 136.28 -113.34 139.56 -113.34 142.84 C-113.36 153.09 -113.38 163.35 -113.38 173.6 C-113.39 185.44 -113.42 197.27 -113.46 209.11 C-113.49 218.26 -113.51 227.41 -113.51 236.56 C-113.51 242.02 -113.52 247.48 -113.54 252.95 C-113.57 258.09 -113.57 263.23 -113.56 268.38 C-113.56 270.26 -113.57 272.15 -113.58 274.03 C-113.6 276.61 -113.59 279.19 -113.58 281.77 C-113.6 282.88 -113.6 282.88 -113.61 284.01 C-113.55 289.45 -112.08 293.63 -109.09 298.19 C-105.04 302.04 -101.94 303.31 -96.42 303.32 C-94.97 303.33 -94.97 303.33 -93.49 303.33 C-91.9 303.33 -91.9 303.33 -90.27 303.33 C-89.14 303.34 -88.01 303.34 -86.85 303.34 C-83.05 303.36 -79.25 303.36 -75.45 303.36 C-72.73 303.37 -70.02 303.38 -67.3 303.38 C-59.13 303.4 -50.97 303.41 -42.8 303.42 C-38.96 303.43 -35.11 303.43 -31.26 303.44 C-18.48 303.45 -5.7 303.47 7.09 303.48 C10.41 303.48 13.72 303.48 17.04 303.48 C17.87 303.48 18.69 303.48 19.54 303.48 C32.9 303.49 46.26 303.52 59.61 303.55 C73.33 303.58 87.04 303.6 100.76 303.6 C108.46 303.61 116.16 303.61 123.86 303.64 C130.41 303.66 136.97 303.67 143.53 303.66 C146.87 303.66 150.22 303.66 153.56 303.68 C157.19 303.69 160.82 303.69 164.45 303.67 C165.5 303.69 166.56 303.7 167.64 303.71 C175.19 303.64 180.54 302.11 186.28 297.12 C191.58 287.55 189.97 275.55 189.53 265 C189.48 263.36 189.42 261.73 189.36 260.09 C189.22 256.12 189.07 252.15 188.91 248.19 C187.93 248.18 186.95 248.17 185.95 248.17 C176.69 248.11 167.44 248.04 158.19 247.95 C153.43 247.91 148.67 247.87 143.92 247.84 C139.32 247.81 134.72 247.77 130.13 247.72 C128.38 247.71 126.63 247.7 124.89 247.69 C115.49 247.65 106.85 247.47 97.91 244.19 C97.26 243.95 96.62 243.71 95.95 243.47 C81.65 237.73 72.87 227.9 66.47 214.18 C63.42 206.89 62.54 199.66 62.6 191.81 C62.6 190.57 62.6 190.57 62.61 189.29 C62.88 175.29 68.17 162.37 77.91 152.19 C90.22 141.56 103.32 137.02 119.35 136.56 C120.5 136.52 121.66 136.48 122.85 136.44 C138.08 136.01 153.32 136.14 168.55 136.22 C170.13 136.23 170.13 136.23 171.73 136.24 C173.72 136.24 175.71 136.26 177.7 136.27 C179.04 136.28 179.04 136.28 180.4 136.28 C181.18 136.29 181.96 136.29 182.76 136.3 C184.93 136.19 186.82 135.79 188.91 135.19 C189.01 129.35 189.08 123.52 189.13 117.68 C189.15 115.7 189.18 113.72 189.21 111.73 C189.26 108.87 189.28 106.02 189.3 103.16 C189.32 102.28 189.34 101.4 189.36 100.5 C189.36 94.59 188.56 89.94 184.91 85.19 C178.97 80.66 172.62 80.62 165.43 80.69 C164.3 80.68 163.16 80.67 161.98 80.67 C158.18 80.66 154.38 80.67 150.58 80.68 C147.85 80.68 145.12 80.68 142.39 80.67 C135.75 80.65 129.11 80.66 122.47 80.68 C114.73 80.69 107 80.69 99.26 80.69 C85.46 80.68 71.66 80.7 57.86 80.72 C44.47 80.74 31.08 80.75 17.7 80.74 C3.11 80.73 -11.48 80.73 -26.06 80.74 C-27.62 80.74 -29.17 80.74 -30.73 80.75 C-31.87 80.75 -31.87 80.75 -33.05 80.75 C-38.44 80.75 -43.83 80.75 -49.22 80.75 C-55.79 80.74 -62.35 80.75 -68.92 80.77 C-72.27 80.78 -75.62 80.78 -78.97 80.78 C-82.61 80.77 -86.24 80.78 -89.87 80.8 C-90.93 80.79 -91.99 80.79 -93.08 80.78 C-99.27 80.83 -103.96 81.33 -108.74 85.69 Z M85.45 169.03 C78.72 178.44 77.92 188.99 78.91 200.19 C81.03 210.57 87.18 218.87 95.79 224.91 C101.72 228.49 107.95 231.32 114.96 231.31 C115.75 231.31 116.55 231.31 117.37 231.31 C118.24 231.31 119.1 231.3 119.99 231.3 C120.91 231.3 121.83 231.3 122.77 231.3 C125.8 231.3 128.83 231.29 131.86 231.28 C133.96 231.28 136.07 231.28 138.17 231.28 C143.7 231.28 149.23 231.27 154.76 231.26 C161.39 231.24 168.03 231.24 174.67 231.23 C184.75 231.22 194.83 231.2 204.91 231.19 C204.91 205.45 204.91 179.71 204.91 153.19 C188.29 153.07 188.29 153.07 171.68 152.99 C164.89 152.97 158.11 152.94 151.33 152.88 C145.85 152.84 140.38 152.82 134.91 152.81 C132.83 152.8 130.75 152.79 128.67 152.76 C110.67 152.58 97.56 154.62 85.45 169.03 Z " fill="#FFFFFF" transform="translate(136.0914306640625,15.813323974609375)"/>
<path d="M0 0 C5.82 3.52 10.54 8.99 12.56 15.5 C13.37 23.34 13.69 31.12 8.56 37.5 C3.76 42.55 -0.6 46.11 -7.71 46.84 C-16.22 46.93 -22.11 46.62 -28.4 40.63 C-34.78 33.73 -35.92 28.3 -35.74 18.95 C-35.05 11.08 -31.39 6.95 -25.54 1.95 C-18.47 -2.92 -7.84 -3.48 0 0 Z M-17.44 17.5 C-18.86 20.34 -18.75 22.35 -18.44 25.5 C-16.94 28 -16.94 28 -14.44 29.5 C-10.77 30.11 -9.15 29.99 -6.06 27.88 C-3.95 24.79 -3.83 23.17 -4.44 19.5 C-6.23 17.13 -7.71 15.85 -10.38 14.56 C-13.41 14.47 -15.03 15.74 -17.44 17.5 Z " fill="#FFFFFF" transform="translate(265.4375,185.5)"/>
<path d="M0 0 C0.7 -0.01 1.39 -0.01 2.11 -0.02 C4.41 -0.03 6.7 -0.01 9 0.01 C10.6 0.01 12.2 0 13.8 0 C17.15 -0 20.49 0.01 23.84 0.04 C28.13 0.06 32.42 0.06 36.72 0.05 C40.02 0.04 43.32 0.05 46.62 0.06 C48.2 0.07 49.78 0.07 51.37 0.06 C53.58 0.06 55.79 0.08 58 0.1 C59.26 0.1 60.52 0.11 61.81 0.11 C65.23 0.53 66.63 1.04 69 3.5 C70.1 7.48 70.42 9.59 68.69 13.38 C67 15.5 67 15.5 65 16.5 C62.78 16.61 60.56 16.66 58.33 16.68 C57.31 16.69 57.31 16.69 56.26 16.7 C53.99 16.72 51.72 16.73 49.45 16.74 C48.29 16.75 48.29 16.75 47.1 16.75 C43 16.77 38.89 16.79 34.79 16.8 C30.55 16.81 26.32 16.84 22.08 16.88 C18.82 16.91 15.56 16.92 12.3 16.92 C10.74 16.93 9.18 16.94 7.62 16.96 C5.43 16.98 3.24 16.98 1.05 16.97 C-0.81 16.98 -0.81 16.98 -2.72 16.99 C-6.6 16.41 -8.25 15.25 -11 12.5 C-11.63 10.5 -11.63 10.5 -11.56 8.5 C-11.56 7.84 -11.57 7.18 -11.57 6.5 C-9.87 0.53 -5.55 0 0 0 Z " fill="#FFFFFF" transform="translate(65,159.498291015625)"/>
<path d="M0 0 C0.87 -0 1.75 -0 2.64 -0 C4.49 -0 6.33 0.01 8.17 0.03 C10.99 0.06 13.81 0.05 16.62 0.04 C18.42 0.04 20.21 0.05 22 0.06 C23.26 0.06 23.26 0.06 24.55 0.05 C28.03 0.11 30.39 0.17 33.5 1.81 C35.92 4.54 35.94 6.93 36 10.5 C35.06 13.31 35.06 13.31 33 15.5 C25.88 17.94 18.9 17.76 11.44 17.68 C9.65 17.68 9.65 17.68 7.82 17.68 C-7.27 17.61 -7.27 17.61 -11.44 14.93 C-13.34 11.96 -13.48 9.96 -13.53 6.5 C-11.69 -0.45 -5.95 -0.08 0 0 Z " fill="#FFFFFF" transform="translate(67,127.50390625)"/>
</svg>
